solid OpenSCAD_Model
  facet normal -0.987688 -0.156435 0
    outer loop
      vertex 6 5 0
      vertex 5.95106 5.30902 3
      vertex 5.95106 5.30902 0
    endloop
  endfacet
  facet normal -0.987688 -0.156435 0
    outer loop
      vertex 5.95106 5.30902 3
      vertex 6 5 0
      vertex 6 5 3
    endloop
  endfacet
  facet normal 0 0 -1
    outer loop
      vertex 4.19098 -4.41222 0
      vertex -4.19098 -4.41222 0
      vertex 4.19098 4.41222 0
    endloop
  endfacet
  facet normal 0 0 -1
    outer loop
      vertex 4.19098 4.41222 0
      vertex -4.04894 4.69098 0
      vertex -4 5 0
    endloop
  endfacet
  facet normal 0 0 -1
    outer loop
      vertex -4.19098 4.41222 0
      vertex 4.19098 4.41222 0
      vertex -4.19098 -4.41222 0
    endloop
  endfacet
  facet normal 0 0 -1
    outer loop
      vertex 4.19098 4.41222 0
      vertex -4.19098 4.41222 0
      vertex -4.04894 4.69098 0
    endloop
  endfacet
  facet normal 0 0 -1
    outer loop
      vertex -4.41222 -4.19098 0
      vertex -4.19098 4.41222 0
      vertex -4.19098 -4.41222 0
    endloop
  endfacet
  facet normal 0 0 -1
    outer loop
      vertex -4.41222 -4.19098 0
      vertex -4.41222 4.19098 0
      vertex -4.19098 4.41222 0
    endloop
  endfacet
  facet normal 0 0 -1
    outer loop
      vertex -4.69098 -4.04894 0
      vertex -4.41222 4.19098 0
      vertex -4.41222 -4.19098 0
    endloop
  endfacet
  facet normal 0 0 -1
    outer loop
      vertex -4.69098 -4.04894 0
      vertex -4.69098 4.04894 0
      vertex -4.41222 4.19098 0
    endloop
  endfacet
  facet normal 0 0 -1
    outer loop
      vertex -5 -4 0
      vertex -4.69098 4.04894 0
      vertex -4.69098 -4.04894 0
    endloop
  endfacet
  facet normal 0 0 -1
    outer loop
      vertex -5 -4 0
      vertex -5 4 0
      vertex -4.69098 4.04894 0
    endloop
  endfacet
  facet normal 0 0 -1
    outer loop
      vertex -5.30902 -4.04894 0
      vertex -5 4 0
      vertex -5 -4 0
    endloop
  endfacet
  facet normal 0 0 -1
    outer loop
      vertex -5.30902 -4.04894 0
      vertex -5.30902 4.04894 0
      vertex -5 4 0
    endloop
  endfacet
  facet normal 0 0 -1
    outer loop
      vertex -5.58778 -4.19098 0
      vertex -5.30902 4.04894 0
      vertex -5.30902 -4.04894 0
    endloop
  endfacet
  facet normal 0 0 -1
    outer loop
      vertex -5.58778 -4.19098 0
      vertex -5.58778 4.19098 0
      vertex -5.30902 4.04894 0
    endloop
  endfacet
  facet normal 0 0 -1
    outer loop
      vertex -5.80902 -4.41222 0
      vertex -5.58778 4.19098 0
      vertex -5.58778 -4.19098 0
    endloop
  endfacet
  facet normal 0 0 -1
    outer loop
      vertex -5.80902 -4.41222 0
      vertex -5.80902 4.41222 0
      vertex -5.58778 4.19098 0
    endloop
  endfacet
  facet normal 0 0 -1
    outer loop
      vertex -5.95106 -4.69098 0
      vertex -5.80902 4.41222 0
      vertex -5.80902 -4.41222 0
    endloop
  endfacet
  facet normal 0 0 -1
    outer loop
      vertex -5.95106 -4.69098 0
      vertex -5.95106 4.69098 0
      vertex -5.80902 4.41222 0
    endloop
  endfacet
  facet normal 0 0 -1
    outer loop
      vertex -10 -10 0
      vertex -5.95106 -4.69098 0
      vertex -6 -5 0
    endloop
  endfacet
  facet normal -0 0 -1
    outer loop
      vertex -5.95106 -4.69098 0
      vertex -10 -10 0
      vertex -5.95106 4.69098 0
    endloop
  endfacet
  facet normal 0 0 -1
    outer loop
      vertex 5.95106 4.69098 0
      vertex 10 10 0
      vertex 5.95106 -4.69098 0
    endloop
  endfacet
  facet normal 0 0 -1
    outer loop
      vertex 10 10 0
      vertex 5.95106 4.69098 0
      vertex 6 5 0
    endloop
  endfacet
  facet normal 0 0 -1
    outer loop
      vertex 5.80902 -4.41222 0
      vertex 5.95106 4.69098 0
      vertex 5.95106 -4.69098 0
    endloop
  endfacet
  facet normal 0 0 -1
    outer loop
      vertex 5.80902 -4.41222 0
      vertex 5.80902 4.41222 0
      vertex 5.95106 4.69098 0
    endloop
  endfacet
  facet normal 0 0 -1
    outer loop
      vertex 5.58778 -4.19098 0
      vertex 5.80902 4.41222 0
      vertex 5.80902 -4.41222 0
    endloop
  endfacet
  facet normal 0 0 -1
    outer loop
      vertex 5.58778 -4.19098 0
      vertex 5.58778 4.19098 0
      vertex 5.80902 4.41222 0
    endloop
  endfacet
  facet normal 0 0 -1
    outer loop
      vertex 5.30902 -4.04894 0
      vertex 5.58778 4.19098 0
      vertex 5.58778 -4.19098 0
    endloop
  endfacet
  facet normal 0 0 -1
    outer loop
      vertex 5.30902 -4.04894 0
      vertex 5.30902 4.04894 0
      vertex 5.58778 4.19098 0
    endloop
  endfacet
  facet normal 0 0 -1
    outer loop
      vertex 5 -4 0
      vertex 5.30902 4.04894 0
      vertex 5.30902 -4.04894 0
    endloop
  endfacet
  facet normal 0 0 -1
    outer loop
      vertex 5 -4 0
      vertex 5 4 0
      vertex 5.30902 4.04894 0
    endloop
  endfacet
  facet normal 0 0 -1
    outer loop
      vertex 4.69098 -4.04894 0
      vertex 5 4 0
      vertex 5 -4 0
    endloop
  endfacet
  facet normal 0 0 -1
    outer loop
      vertex 4.69098 -4.04894 0
      vertex 4.69098 4.04894 0
      vertex 5 4 0
    endloop
  endfacet
  facet normal 0 0 -1
    outer loop
      vertex 4.41222 -4.19098 0
      vertex 4.69098 4.04894 0
      vertex 4.69098 -4.04894 0
    endloop
  endfacet
  facet normal 0 0 -1
    outer loop
      vertex 4.41222 -4.19098 0
      vertex 4.41222 4.19098 0
      vertex 4.69098 4.04894 0
    endloop
  endfacet
  facet normal 0 0 -1
    outer loop
      vertex 4.19098 -4.41222 0
      vertex 4.41222 4.19098 0
      vertex 4.41222 -4.19098 0
    endloop
  endfacet
  facet normal 0 0 -1
    outer loop
      vertex 4.19098 -4.41222 0
      vertex 4.19098 4.41222 0
      vertex 4.41222 4.19098 0
    endloop
  endfacet
  facet normal 0 0 -1
    outer loop
      vertex -4.04894 -4.69098 0
      vertex 4.04894 -4.69098 0
      vertex -4 -5 0
    endloop
  endfacet
  facet normal 0 0 -1
    outer loop
      vertex 4.04894 -4.69098 0
      vertex -4.04894 -4.69098 0
      vertex 4.19098 -4.41222 0
    endloop
  endfacet
  facet normal 0 0 -1
    outer loop
      vertex -4 -5 0
      vertex 4.04894 -4.69098 0
      vertex 4 -5 0
    endloop
  endfacet
  facet normal 0 0 -1
    outer loop
      vertex -4.19098 -4.41222 0
      vertex 4.19098 -4.41222 0
      vertex -4.04894 -4.69098 0
    endloop
  endfacet
  facet normal 0 0 -1
    outer loop
      vertex 5.95106 -4.69098 0
      vertex 10 -10 0
      vertex 6 -5 0
    endloop
  endfacet
  facet normal 0 0 -1
    outer loop
      vertex 10 -10 0
      vertex 5.95106 -5.30902 0
      vertex 6 -5 0
    endloop
  endfacet
  facet normal 0 0 -1
    outer loop
      vertex 10 -10 0
      vertex 5.80902 -5.58778 0
      vertex 5.95106 -5.30902 0
    endloop
  endfacet
  facet normal 0 0 -1
    outer loop
      vertex 10 -10 0
      vertex 5.58778 -5.80902 0
      vertex 5.80902 -5.58778 0
    endloop
  endfacet
  facet normal 0 0 -1
    outer loop
      vertex 10 -10 0
      vertex 5.30902 -5.95106 0
      vertex 5.58778 -5.80902 0
    endloop
  endfacet
  facet normal 0 0 -1
    outer loop
      vertex 10 -10 0
      vertex 5 -6 0
      vertex 5.30902 -5.95106 0
    endloop
  endfacet
  facet normal 0 0 -1
    outer loop
      vertex 10 -10 0
      vertex 4.69098 -5.95106 0
      vertex 5 -6 0
    endloop
  endfacet
  facet normal 0 0 -1
    outer loop
      vertex -4.69098 -5.95106 0
      vertex 4.69098 -5.95106 0
      vertex 10 -10 0
    endloop
  endfacet
  facet normal 0 0 -1
    outer loop
      vertex 4.19098 4.41222 0
      vertex -4 5 0
      vertex 4.04894 4.69098 0
    endloop
  endfacet
  facet normal 0 0 -1
    outer loop
      vertex 4.04894 -5.30902 0
      vertex -4 -5 0
      vertex 4 -5 0
    endloop
  endfacet
  facet normal 0 0 -1
    outer loop
      vertex -4.04894 -5.30902 0
      vertex 4.04894 -5.30902 0
      vertex 4.19098 -5.58778 0
    endloop
  endfacet
  facet normal 0 0 -1
    outer loop
      vertex -4.19098 -5.58778 0
      vertex 4.19098 -5.58778 0
      vertex 4.41222 -5.80902 0
    endloop
  endfacet
  facet normal 0 0 -1
    outer loop
      vertex 4.69098 -5.95106 0
      vertex -4.69098 -5.95106 0
      vertex 4.41222 -5.80902 0
    endloop
  endfacet
  facet normal 0 0 -1
    outer loop
      vertex 4.04894 -5.30902 0
      vertex -4.04894 -5.30902 0
      vertex -4 -5 0
    endloop
  endfacet
  facet normal 0 0 -1
    outer loop
      vertex 4.19098 -5.58778 0
      vertex -4.19098 -5.58778 0
      vertex -4.04894 -5.30902 0
    endloop
  endfacet
  facet normal 0 0 -1
    outer loop
      vertex 4.41222 -5.80902 0
      vertex -4.41222 -5.80902 0
      vertex -4.19098 -5.58778 0
    endloop
  endfacet
  facet normal -0 0 -1
    outer loop
      vertex 4.41222 -5.80902 0
      vertex -4.69098 -5.95106 0
      vertex -4.41222 -5.80902 0
    endloop
  endfacet
  facet normal 0 0 -1
    outer loop
      vertex -10 -10 0
      vertex -4.69098 -5.95106 0
      vertex 10 -10 0
    endloop
  endfacet
  facet normal 0 0 -1
    outer loop
      vertex -4.69098 -5.95106 0
      vertex -10 -10 0
      vertex -5 -6 0
    endloop
  endfacet
  facet normal 0 0 -1
    outer loop
      vertex -10 10 0
      vertex -5.95106 4.69098 0
      vertex -10 -10 0
    endloop
  endfacet
  facet normal -0 0 -1
    outer loop
      vertex -5.95106 -5.30902 0
      vertex -10 -10 0
      vertex -6 -5 0
    endloop
  endfacet
  facet normal -0 0 -1
    outer loop
      vertex -5.80902 -5.58778 0
      vertex -10 -10 0
      vertex -5.95106 -5.30902 0
    endloop
  endfacet
  facet normal -0 0 -1
    outer loop
      vertex -5.58778 -5.80902 0
      vertex -10 -10 0
      vertex -5.80902 -5.58778 0
    endloop
  endfacet
  facet normal -0 0 -1
    outer loop
      vertex -5.30902 -5.95106 0
      vertex -10 -10 0
      vertex -5.58778 -5.80902 0
    endloop
  endfacet
  facet normal -0 0 -1
    outer loop
      vertex -5 -6 0
      vertex -10 -10 0
      vertex -5.30902 -5.95106 0
    endloop
  endfacet
  facet normal 0 0 -1
    outer loop
      vertex 10 -10 0
      vertex 5.95106 -4.69098 0
      vertex 10 10 0
    endloop
  endfacet
  facet normal 0 0 -1
    outer loop
      vertex 5.95106 5.30902 0
      vertex 10 10 0
      vertex 6 5 0
    endloop
  endfacet
  facet normal 0 0 -1
    outer loop
      vertex 5.80902 5.58778 0
      vertex 10 10 0
      vertex 5.95106 5.30902 0
    endloop
  endfacet
  facet normal 0 0 -1
    outer loop
      vertex 5.58778 5.80902 0
      vertex 10 10 0
      vertex 5.80902 5.58778 0
    endloop
  endfacet
  facet normal 0 0 -1
    outer loop
      vertex 5.30902 5.95106 0
      vertex 10 10 0
      vertex 5.58778 5.80902 0
    endloop
  endfacet
  facet normal 0 0 -1
    outer loop
      vertex 5 6 0
      vertex 10 10 0
      vertex 5.30902 5.95106 0
    endloop
  endfacet
  facet normal 0 0 -1
    outer loop
      vertex 4.69098 5.95106 0
      vertex 10 10 0
      vertex 5 6 0
    endloop
  endfacet
  facet normal 0 0 -1
    outer loop
      vertex -4.69098 5.95106 0
      vertex 4.69098 5.95106 0
      vertex 4.41222 5.80902 0
    endloop
  endfacet
  facet normal 0 0 -1
    outer loop
      vertex 4.04894 4.69098 0
      vertex -4 5 0
      vertex 4 5 0
    endloop
  endfacet
  facet normal 0 0 -1
    outer loop
      vertex 4 5 0
      vertex -4 5 0
      vertex 4.04894 5.30902 0
    endloop
  endfacet
  facet normal 0 0 -1
    outer loop
      vertex -4.04894 5.30902 0
      vertex 4.04894 5.30902 0
      vertex -4 5 0
    endloop
  endfacet
  facet normal 0 0 -1
    outer loop
      vertex 4.04894 5.30902 0
      vertex -4.04894 5.30902 0
      vertex 4.19098 5.58778 0
    endloop
  endfacet
  facet normal 0 0 -1
    outer loop
      vertex -4.19098 5.58778 0
      vertex 4.19098 5.58778 0
      vertex -4.04894 5.30902 0
    endloop
  endfacet
  facet normal 0 0 -1
    outer loop
      vertex 4.19098 5.58778 0
      vertex -4.19098 5.58778 0
      vertex 4.41222 5.80902 0
    endloop
  endfacet
  facet normal 0 0 -1
    outer loop
      vertex -4.41222 5.80902 0
      vertex 4.41222 5.80902 0
      vertex -4.19098 5.58778 0
    endloop
  endfacet
  facet normal 0 0 -1
    outer loop
      vertex -4.69098 5.95106 0
      vertex 4.41222 5.80902 0
      vertex -4.41222 5.80902 0
    endloop
  endfacet
  facet normal 0 0 -1
    outer loop
      vertex 4.69098 5.95106 0
      vertex -4.69098 5.95106 0
      vertex 10 10 0
    endloop
  endfacet
  facet normal 0 0 -1
    outer loop
      vertex -10 10 0
      vertex -4.69098 5.95106 0
      vertex -5 6 0
    endloop
  endfacet
  facet normal 0 0 -1
    outer loop
      vertex -10 10 0
      vertex -5 6 0
      vertex -5.30902 5.95106 0
    endloop
  endfacet
  facet normal 0 0 -1
    outer loop
      vertex -5.95106 4.69098 0
      vertex -10 10 0
      vertex -6 5 0
    endloop
  endfacet
  facet normal 0 0 -1
    outer loop
      vertex -4.69098 5.95106 0
      vertex -10 10 0
      vertex 10 10 0
    endloop
  endfacet
  facet normal 0 0 -1
    outer loop
      vertex -5.58778 5.80902 0
      vertex -10 10 0
      vertex -5.30902 5.95106 0
    endloop
  endfacet
  facet normal 0 0 -1
    outer loop
      vertex -5.80902 5.58778 0
      vertex -10 10 0
      vertex -5.58778 5.80902 0
    endloop
  endfacet
  facet normal 0 0 -1
    outer loop
      vertex -5.95106 5.30902 0
      vertex -10 10 0
      vertex -5.80902 5.58778 0
    endloop
  endfacet
  facet normal 0 0 -1
    outer loop
      vertex -6 5 0
      vertex -10 10 0
      vertex -5.95106 5.30902 0
    endloop
  endfacet
  facet normal 0.156435 0.987688 -0
    outer loop
      vertex 5 4 0
      vertex 4.69098 4.04894 3
      vertex 5 4 3
    endloop
  endfacet
  facet normal 0.156435 0.987688 0
    outer loop
      vertex 4.69098 4.04894 3
      vertex 5 4 0
      vertex 4.69098 4.04894 0
    endloop
  endfacet
  facet normal -0.156435 0.987688 0
    outer loop
      vertex 5.30902 4.04894 0
      vertex 5 4 3
      vertex 5.30902 4.04894 3
    endloop
  endfacet
  facet normal -0.156435 0.987688 0
    outer loop
      vertex 5 4 3
      vertex 5.30902 4.04894 0
      vertex 5 4 0
    endloop
  endfacet
  facet normal -0.707107 -0.707107 0
    outer loop
      vertex 5.80902 5.58778 0
      vertex 5.58778 5.80902 3
      vertex 5.58778 5.80902 0
    endloop
  endfacet
  facet normal -0.707107 -0.707107 0
    outer loop
      vertex 5.58778 5.80902 3
      vertex 5.80902 5.58778 0
      vertex 5.80902 5.58778 3
    endloop
  endfacet
  facet normal -0.891006 -0.453992 0
    outer loop
      vertex 5.95106 5.30902 0
      vertex 5.80902 5.58778 3
      vertex 5.80902 5.58778 0
    endloop
  endfacet
  facet normal -0.891006 -0.453992 0
    outer loop
      vertex 5.80902 5.58778 3
      vertex 5.95106 5.30902 0
      vertex 5.95106 5.30902 3
    endloop
  endfacet
  facet normal 0 0 1
    outer loop
      vertex 4.19098 4.41222 3
      vertex -4.19098 4.41222 3
      vertex 4.19098 -4.41222 3
    endloop
  endfacet
  facet normal 0 0 1
    outer loop
      vertex 4.19098 -4.41222 3
      vertex -4.04894 -4.69098 3
      vertex -4 -5 3
    endloop
  endfacet
  facet normal 0 0 1
    outer loop
      vertex -4.19098 -4.41222 3
      vertex 4.19098 -4.41222 3
      vertex -4.19098 4.41222 3
    endloop
  endfacet
  facet normal 0 0 1
    outer loop
      vertex 4.19098 -4.41222 3
      vertex -4.19098 -4.41222 3
      vertex -4.04894 -4.69098 3
    endloop
  endfacet
  facet normal -0 0 1
    outer loop
      vertex -4.41222 4.19098 3
      vertex -4.19098 -4.41222 3
      vertex -4.19098 4.41222 3
    endloop
  endfacet
  facet normal 0 0 1
    outer loop
      vertex -4.41222 4.19098 3
      vertex -4.41222 -4.19098 3
      vertex -4.19098 -4.41222 3
    endloop
  endfacet
  facet normal -0 0 1
    outer loop
      vertex -4.69098 4.04894 3
      vertex -4.41222 -4.19098 3
      vertex -4.41222 4.19098 3
    endloop
  endfacet
  facet normal 0 0 1
    outer loop
      vertex -4.69098 4.04894 3
      vertex -4.69098 -4.04894 3
      vertex -4.41222 -4.19098 3
    endloop
  endfacet
  facet normal -0 0 1
    outer loop
      vertex -5 4 3
      vertex -4.69098 -4.04894 3
      vertex -4.69098 4.04894 3
    endloop
  endfacet
  facet normal 0 0 1
    outer loop
      vertex -5 4 3
      vertex -5 -4 3
      vertex -4.69098 -4.04894 3
    endloop
  endfacet
  facet normal 0 0 1
    outer loop
      vertex -5.30902 4.04894 3
      vertex -5 -4 3
      vertex -5 4 3
    endloop
  endfacet
  facet normal 0 0 1
    outer loop
      vertex -5.30902 4.04894 3
      vertex -5.30902 -4.04894 3
      vertex -5 -4 3
    endloop
  endfacet
  facet normal 0 0 1
    outer loop
      vertex -5.58778 4.19098 3
      vertex -5.30902 -4.04894 3
      vertex -5.30902 4.04894 3
    endloop
  endfacet
  facet normal 0 0 1
    outer loop
      vertex -5.58778 4.19098 3
      vertex -5.58778 -4.19098 3
      vertex -5.30902 -4.04894 3
    endloop
  endfacet
  facet normal 0 0 1
    outer loop
      vertex -5.80902 4.41222 3
      vertex -5.58778 -4.19098 3
      vertex -5.58778 4.19098 3
    endloop
  endfacet
  facet normal 0 0 1
    outer loop
      vertex -5.80902 4.41222 3
      vertex -5.80902 -4.41222 3
      vertex -5.58778 -4.19098 3
    endloop
  endfacet
  facet normal 0 0 1
    outer loop
      vertex -5.95106 4.69098 3
      vertex -5.80902 -4.41222 3
      vertex -5.80902 4.41222 3
    endloop
  endfacet
  facet normal 0 0 1
    outer loop
      vertex -5.95106 4.69098 3
      vertex -5.95106 -4.69098 3
      vertex -5.80902 -4.41222 3
    endloop
  endfacet
  facet normal 0 0 1
    outer loop
      vertex -10 10 3
      vertex -5.95106 4.69098 3
      vertex -6 5 3
    endloop
  endfacet
  facet normal 0 0 1
    outer loop
      vertex -5.95106 4.69098 3
      vertex -10 10 3
      vertex -5.95106 -4.69098 3
    endloop
  endfacet
  facet normal -0 0 1
    outer loop
      vertex 5.95106 -4.69098 3
      vertex 10 -10 3
      vertex 5.95106 4.69098 3
    endloop
  endfacet
  facet normal 0 0 1
    outer loop
      vertex 10 -10 3
      vertex 5.95106 -4.69098 3
      vertex 6 -5 3
    endloop
  endfacet
  facet normal -0 0 1
    outer loop
      vertex 5.80902 4.41222 3
      vertex 5.95106 -4.69098 3
      vertex 5.95106 4.69098 3
    endloop
  endfacet
  facet normal 0 0 1
    outer loop
      vertex 5.80902 4.41222 3
      vertex 5.80902 -4.41222 3
      vertex 5.95106 -4.69098 3
    endloop
  endfacet
  facet normal -0 0 1
    outer loop
      vertex 5.58778 4.19098 3
      vertex 5.80902 -4.41222 3
      vertex 5.80902 4.41222 3
    endloop
  endfacet
  facet normal 0 0 1
    outer loop
      vertex 5.58778 4.19098 3
      vertex 5.58778 -4.19098 3
      vertex 5.80902 -4.41222 3
    endloop
  endfacet
  facet normal -0 0 1
    outer loop
      vertex 5.30902 4.04894 3
      vertex 5.58778 -4.19098 3
      vertex 5.58778 4.19098 3
    endloop
  endfacet
  facet normal 0 0 1
    outer loop
      vertex 5.30902 4.04894 3
      vertex 5.30902 -4.04894 3
      vertex 5.58778 -4.19098 3
    endloop
  endfacet
  facet normal -0 0 1
    outer loop
      vertex 5 4 3
      vertex 5.30902 -4.04894 3
      vertex 5.30902 4.04894 3
    endloop
  endfacet
  facet normal 0 0 1
    outer loop
      vertex 5 4 3
      vertex 5 -4 3
      vertex 5.30902 -4.04894 3
    endloop
  endfacet
  facet normal 0 0 1
    outer loop
      vertex 4.69098 4.04894 3
      vertex 5 -4 3
      vertex 5 4 3
    endloop
  endfacet
  facet normal 0 0 1
    outer loop
      vertex 4.69098 4.04894 3
      vertex 4.69098 -4.04894 3
      vertex 5 -4 3
    endloop
  endfacet
  facet normal 0 0 1
    outer loop
      vertex 4.41222 4.19098 3
      vertex 4.69098 -4.04894 3
      vertex 4.69098 4.04894 3
    endloop
  endfacet
  facet normal 0 0 1
    outer loop
      vertex 4.41222 4.19098 3
      vertex 4.41222 -4.19098 3
      vertex 4.69098 -4.04894 3
    endloop
  endfacet
  facet normal 0 0 1
    outer loop
      vertex 4.19098 4.41222 3
      vertex 4.41222 -4.19098 3
      vertex 4.41222 4.19098 3
    endloop
  endfacet
  facet normal 0 0 1
    outer loop
      vertex 4.19098 4.41222 3
      vertex 4.19098 -4.41222 3
      vertex 4.41222 -4.19098 3
    endloop
  endfacet
  facet normal 0 0 1
    outer loop
      vertex -4.04894 4.69098 3
      vertex 4.04894 4.69098 3
      vertex -4 5 3
    endloop
  endfacet
  facet normal 0 0 1
    outer loop
      vertex 4.04894 4.69098 3
      vertex -4.04894 4.69098 3
      vertex 4.19098 4.41222 3
    endloop
  endfacet
  facet normal -0 0 1
    outer loop
      vertex -4 5 3
      vertex 4.04894 4.69098 3
      vertex 4 5 3
    endloop
  endfacet
  facet normal 0 0 1
    outer loop
      vertex -4.19098 4.41222 3
      vertex 4.19098 4.41222 3
      vertex -4.04894 4.69098 3
    endloop
  endfacet
  facet normal 0 0 1
    outer loop
      vertex 5.95106 4.69098 3
      vertex 10 10 3
      vertex 6 5 3
    endloop
  endfacet
  facet normal 0 0 1
    outer loop
      vertex 10 10 3
      vertex 5.95106 5.30902 3
      vertex 6 5 3
    endloop
  endfacet
  facet normal 0 0 1
    outer loop
      vertex 10 10 3
      vertex 5.80902 5.58778 3
      vertex 5.95106 5.30902 3
    endloop
  endfacet
  facet normal 0 0 1
    outer loop
      vertex 10 10 3
      vertex 5.58778 5.80902 3
      vertex 5.80902 5.58778 3
    endloop
  endfacet
  facet normal 0 0 1
    outer loop
      vertex 10 10 3
      vertex 5.30902 5.95106 3
      vertex 5.58778 5.80902 3
    endloop
  endfacet
  facet normal 0 0 1
    outer loop
      vertex 10 10 3
      vertex 5 6 3
      vertex 5.30902 5.95106 3
    endloop
  endfacet
  facet normal 0 0 1
    outer loop
      vertex 10 10 3
      vertex 4.69098 5.95106 3
      vertex 5 6 3
    endloop
  endfacet
  facet normal 0 0 1
    outer loop
      vertex -4.69098 5.95106 3
      vertex 4.69098 5.95106 3
      vertex 10 10 3
    endloop
  endfacet
  facet normal 0 0 1
    outer loop
      vertex 4.19098 -4.41222 3
      vertex -4 -5 3
      vertex 4.04894 -4.69098 3
    endloop
  endfacet
  facet normal 0 0 1
    outer loop
      vertex 4.04894 5.30902 3
      vertex -4 5 3
      vertex 4 5 3
    endloop
  endfacet
  facet normal 0 0 1
    outer loop
      vertex -4.04894 5.30902 3
      vertex 4.04894 5.30902 3
      vertex 4.19098 5.58778 3
    endloop
  endfacet
  facet normal 0 0 1
    outer loop
      vertex -4.19098 5.58778 3
      vertex 4.19098 5.58778 3
      vertex 4.41222 5.80902 3
    endloop
  endfacet
  facet normal 0 0 1
    outer loop
      vertex 4.69098 5.95106 3
      vertex -4.69098 5.95106 3
      vertex 4.41222 5.80902 3
    endloop
  endfacet
  facet normal 0 0 1
    outer loop
      vertex 4.04894 5.30902 3
      vertex -4.04894 5.30902 3
      vertex -4 5 3
    endloop
  endfacet
  facet normal 0 0 1
    outer loop
      vertex 4.19098 5.58778 3
      vertex -4.19098 5.58778 3
      vertex -4.04894 5.30902 3
    endloop
  endfacet
  facet normal 0 0 1
    outer loop
      vertex 4.41222 5.80902 3
      vertex -4.41222 5.80902 3
      vertex -4.19098 5.58778 3
    endloop
  endfacet
  facet normal 0 0 1
    outer loop
      vertex 4.41222 5.80902 3
      vertex -4.69098 5.95106 3
      vertex -4.41222 5.80902 3
    endloop
  endfacet
  facet normal -0 0 1
    outer loop
      vertex -10 10 3
      vertex -4.69098 5.95106 3
      vertex 10 10 3
    endloop
  endfacet
  facet normal 0 0 1
    outer loop
      vertex -4.69098 5.95106 3
      vertex -10 10 3
      vertex -5 6 3
    endloop
  endfacet
  facet normal 0 0 1
    outer loop
      vertex -10 -10 3
      vertex -5.95106 -4.69098 3
      vertex -10 10 3
    endloop
  endfacet
  facet normal 0 0 1
    outer loop
      vertex -5.95106 5.30902 3
      vertex -10 10 3
      vertex -6 5 3
    endloop
  endfacet
  facet normal 0 0 1
    outer loop
      vertex -5.80902 5.58778 3
      vertex -10 10 3
      vertex -5.95106 5.30902 3
    endloop
  endfacet
  facet normal 0 0 1
    outer loop
      vertex -5.58778 5.80902 3
      vertex -10 10 3
      vertex -5.80902 5.58778 3
    endloop
  endfacet
  facet normal 0 0 1
    outer loop
      vertex -5.30902 5.95106 3
      vertex -10 10 3
      vertex -5.58778 5.80902 3
    endloop
  endfacet
  facet normal 0 0 1
    outer loop
      vertex -5 6 3
      vertex -10 10 3
      vertex -5.30902 5.95106 3
    endloop
  endfacet
  facet normal 0 0 1
    outer loop
      vertex 10 10 3
      vertex 5.95106 4.69098 3
      vertex 10 -10 3
    endloop
  endfacet
  facet normal -0 0 1
    outer loop
      vertex 5.95106 -5.30902 3
      vertex 10 -10 3
      vertex 6 -5 3
    endloop
  endfacet
  facet normal -0 0 1
    outer loop
      vertex 5.80902 -5.58778 3
      vertex 10 -10 3
      vertex 5.95106 -5.30902 3
    endloop
  endfacet
  facet normal -0 0 1
    outer loop
      vertex 5.58778 -5.80902 3
      vertex 10 -10 3
      vertex 5.80902 -5.58778 3
    endloop
  endfacet
  facet normal -0 0 1
    outer loop
      vertex 5.30902 -5.95106 3
      vertex 10 -10 3
      vertex 5.58778 -5.80902 3
    endloop
  endfacet
  facet normal -0 0 1
    outer loop
      vertex 5 -6 3
      vertex 10 -10 3
      vertex 5.30902 -5.95106 3
    endloop
  endfacet
  facet normal 0 0 1
    outer loop
      vertex 4.69098 -5.95106 3
      vertex 10 -10 3
      vertex 5 -6 3
    endloop
  endfacet
  facet normal 0 0 1
    outer loop
      vertex -4.69098 -5.95106 3
      vertex 4.69098 -5.95106 3
      vertex 4.41222 -5.80902 3
    endloop
  endfacet
  facet normal 0 0 1
    outer loop
      vertex 4.04894 -4.69098 3
      vertex -4 -5 3
      vertex 4 -5 3
    endloop
  endfacet
  facet normal 0 0 1
    outer loop
      vertex 4 -5 3
      vertex -4 -5 3
      vertex 4.04894 -5.30902 3
    endloop
  endfacet
  facet normal 0 0 1
    outer loop
      vertex -4.04894 -5.30902 3
      vertex 4.04894 -5.30902 3
      vertex -4 -5 3
    endloop
  endfacet
  facet normal 0 0 1
    outer loop
      vertex 4.04894 -5.30902 3
      vertex -4.04894 -5.30902 3
      vertex 4.19098 -5.58778 3
    endloop
  endfacet
  facet normal 0 0 1
    outer loop
      vertex -4.19098 -5.58778 3
      vertex 4.19098 -5.58778 3
      vertex -4.04894 -5.30902 3
    endloop
  endfacet
  facet normal 0 0 1
    outer loop
      vertex 4.19098 -5.58778 3
      vertex -4.19098 -5.58778 3
      vertex 4.41222 -5.80902 3
    endloop
  endfacet
  facet normal 0 0 1
    outer loop
      vertex -4.41222 -5.80902 3
      vertex 4.41222 -5.80902 3
      vertex -4.19098 -5.58778 3
    endloop
  endfacet
  facet normal 0 0 1
    outer loop
      vertex -4.69098 -5.95106 3
      vertex 4.41222 -5.80902 3
      vertex -4.41222 -5.80902 3
    endloop
  endfacet
  facet normal 0 0 1
    outer loop
      vertex 4.69098 -5.95106 3
      vertex -4.69098 -5.95106 3
      vertex 10 -10 3
    endloop
  endfacet
  facet normal 0 0 1
    outer loop
      vertex -10 -10 3
      vertex -4.69098 -5.95106 3
      vertex -5 -6 3
    endloop
  endfacet
  facet normal 0 0 1
    outer loop
      vertex -10 -10 3
      vertex -5 -6 3
      vertex -5.30902 -5.95106 3
    endloop
  endfacet
  facet normal 0 0 1
    outer loop
      vertex -5.95106 -4.69098 3
      vertex -10 -10 3
      vertex -6 -5 3
    endloop
  endfacet
  facet normal 0 0 1
    outer loop
      vertex -4.69098 -5.95106 3
      vertex -10 -10 3
      vertex 10 -10 3
    endloop
  endfacet
  facet normal 0 0 1
    outer loop
      vertex -5.58778 -5.80902 3
      vertex -10 -10 3
      vertex -5.30902 -5.95106 3
    endloop
  endfacet
  facet normal 0 0 1
    outer loop
      vertex -5.80902 -5.58778 3
      vertex -10 -10 3
      vertex -5.58778 -5.80902 3
    endloop
  endfacet
  facet normal 0 0 1
    outer loop
      vertex -5.95106 -5.30902 3
      vertex -10 -10 3
      vertex -5.80902 -5.58778 3
    endloop
  endfacet
  facet normal 0 0 1
    outer loop
      vertex -6 -5 3
      vertex -10 -10 3
      vertex -5.95106 -5.30902 3
    endloop
  endfacet
  facet normal 0.156435 -0.987688 0
    outer loop
      vertex 4.69098 5.95106 0
      vertex 5 6 3
      vertex 4.69098 5.95106 3
    endloop
  endfacet
  facet normal 0.156435 -0.987688 0
    outer loop
      vertex 5 6 3
      vertex 4.69098 5.95106 0
      vertex 5 6 0
    endloop
  endfacet
  facet normal 0.987688 0.156435 0
    outer loop
      vertex 4.04894 4.69098 3
      vertex 4 5 0
      vertex 4 5 3
    endloop
  endfacet
  facet normal 0.987688 0.156435 0
    outer loop
      vertex 4 5 0
      vertex 4.04894 4.69098 3
      vertex 4.04894 4.69098 0
    endloop
  endfacet
  facet normal -0.453992 -0.891006 0
    outer loop
      vertex 5.30902 5.95106 0
      vertex 5.58778 5.80902 3
      vertex 5.30902 5.95106 3
    endloop
  endfacet
  facet normal -0.453992 -0.891006 -0
    outer loop
      vertex 5.58778 5.80902 3
      vertex 5.30902 5.95106 0
      vertex 5.58778 5.80902 0
    endloop
  endfacet
  facet normal -0.156435 -0.987688 0
    outer loop
      vertex 5 6 0
      vertex 5.30902 5.95106 3
      vertex 5 6 3
    endloop
  endfacet
  facet normal -0.156435 -0.987688 -0
    outer loop
      vertex 5.30902 5.95106 3
      vertex 5 6 0
      vertex 5.30902 5.95106 0
    endloop
  endfacet
  facet normal 0.707107 -0.707107 0
    outer loop
      vertex 4.19098 5.58778 3
      vertex 4.41222 5.80902 0
      vertex 4.41222 5.80902 3
    endloop
  endfacet
  facet normal 0.707107 -0.707107 0
    outer loop
      vertex 4.41222 5.80902 0
      vertex 4.19098 5.58778 3
      vertex 4.19098 5.58778 0
    endloop
  endfacet
  facet normal 0.891006 -0.453992 0
    outer loop
      vertex 4.04894 5.30902 3
      vertex 4.19098 5.58778 0
      vertex 4.19098 5.58778 3
    endloop
  endfacet
  facet normal 0.891006 -0.453992 0
    outer loop
      vertex 4.19098 5.58778 0
      vertex 4.04894 5.30902 3
      vertex 4.04894 5.30902 0
    endloop
  endfacet
  facet normal 0.987688 -0.156435 0
    outer loop
      vertex 4 5 3
      vertex 4.04894 5.30902 0
      vertex 4.04894 5.30902 3
    endloop
  endfacet
  facet normal 0.987688 -0.156435 0
    outer loop
      vertex 4.04894 5.30902 0
      vertex 4 5 3
      vertex 4 5 0
    endloop
  endfacet
  facet normal 0.453992 -0.891006 0
    outer loop
      vertex 4.41222 5.80902 0
      vertex 4.69098 5.95106 3
      vertex 4.41222 5.80902 3
    endloop
  endfacet
  facet normal 0.453992 -0.891006 0
    outer loop
      vertex 4.69098 5.95106 3
      vertex 4.41222 5.80902 0
      vertex 4.69098 5.95106 0
    endloop
  endfacet
  facet normal -0.987688 0.156435 0
    outer loop
      vertex 5.95106 4.69098 0
      vertex 6 5 3
      vertex 6 5 0
    endloop
  endfacet
  facet normal -0.987688 0.156435 0
    outer loop
      vertex 6 5 3
      vertex 5.95106 4.69098 0
      vertex 5.95106 4.69098 3
    endloop
  endfacet
  facet normal -0.891006 0.453992 0
    outer loop
      vertex 5.80902 4.41222 0
      vertex 5.95106 4.69098 3
      vertex 5.95106 4.69098 0
    endloop
  endfacet
  facet normal -0.891006 0.453992 0
    outer loop
      vertex 5.95106 4.69098 3
      vertex 5.80902 4.41222 0
      vertex 5.80902 4.41222 3
    endloop
  endfacet
  facet normal 0.707107 0.707107 0
    outer loop
      vertex 4.41222 4.19098 3
      vertex 4.19098 4.41222 0
      vertex 4.19098 4.41222 3
    endloop
  endfacet
  facet normal 0.707107 0.707107 0
    outer loop
      vertex 4.19098 4.41222 0
      vertex 4.41222 4.19098 3
      vertex 4.41222 4.19098 0
    endloop
  endfacet
  facet normal 0.453992 0.891006 -0
    outer loop
      vertex 4.69098 4.04894 0
      vertex 4.41222 4.19098 3
      vertex 4.69098 4.04894 3
    endloop
  endfacet
  facet normal 0.453992 0.891006 0
    outer loop
      vertex 4.41222 4.19098 3
      vertex 4.69098 4.04894 0
      vertex 4.41222 4.19098 0
    endloop
  endfacet
  facet normal 0.891006 0.453992 0
    outer loop
      vertex 4.19098 4.41222 3
      vertex 4.04894 4.69098 0
      vertex 4.04894 4.69098 3
    endloop
  endfacet
  facet normal 0.891006 0.453992 0
    outer loop
      vertex 4.04894 4.69098 0
      vertex 4.19098 4.41222 3
      vertex 4.19098 4.41222 0
    endloop
  endfacet
  facet normal -0.707107 0.707107 0
    outer loop
      vertex 5.58778 4.19098 0
      vertex 5.80902 4.41222 3
      vertex 5.80902 4.41222 0
    endloop
  endfacet
  facet normal -0.707107 0.707107 0
    outer loop
      vertex 5.80902 4.41222 3
      vertex 5.58778 4.19098 0
      vertex 5.58778 4.19098 3
    endloop
  endfacet
  facet normal -0.453992 0.891006 0
    outer loop
      vertex 5.58778 4.19098 0
      vertex 5.30902 4.04894 3
      vertex 5.58778 4.19098 3
    endloop
  endfacet
  facet normal -0.453992 0.891006 0
    outer loop
      vertex 5.30902 4.04894 3
      vertex 5.58778 4.19098 0
      vertex 5.30902 4.04894 0
    endloop
  endfacet
  facet normal -0.987688 -0.156435 0
    outer loop
      vertex 6 -5 0
      vertex 5.95106 -4.69098 3
      vertex 5.95106 -4.69098 0
    endloop
  endfacet
  facet normal -0.987688 -0.156435 0
    outer loop
      vertex 5.95106 -4.69098 3
      vertex 6 -5 0
      vertex 6 -5 3
    endloop
  endfacet
  facet normal 0.156435 0.987688 -0
    outer loop
      vertex 5 -6 0
      vertex 4.69098 -5.95106 3
      vertex 5 -6 3
    endloop
  endfacet
  facet normal 0.156435 0.987688 0
    outer loop
      vertex 4.69098 -5.95106 3
      vertex 5 -6 0
      vertex 4.69098 -5.95106 0
    endloop
  endfacet
  facet normal -0.156435 0.987688 0
    outer loop
      vertex 5.30902 -5.95106 0
      vertex 5 -6 3
      vertex 5.30902 -5.95106 3
    endloop
  endfacet
  facet normal -0.156435 0.987688 0
    outer loop
      vertex 5 -6 3
      vertex 5.30902 -5.95106 0
      vertex 5 -6 0
    endloop
  endfacet
  facet normal -0.707107 -0.707107 0
    outer loop
      vertex 5.80902 -4.41222 0
      vertex 5.58778 -4.19098 3
      vertex 5.58778 -4.19098 0
    endloop
  endfacet
  facet normal -0.707107 -0.707107 0
    outer loop
      vertex 5.58778 -4.19098 3
      vertex 5.80902 -4.41222 0
      vertex 5.80902 -4.41222 3
    endloop
  endfacet
  facet normal -0.891006 -0.453992 0
    outer loop
      vertex 5.95106 -4.69098 0
      vertex 5.80902 -4.41222 3
      vertex 5.80902 -4.41222 0
    endloop
  endfacet
  facet normal -0.891006 -0.453992 0
    outer loop
      vertex 5.80902 -4.41222 3
      vertex 5.95106 -4.69098 0
      vertex 5.95106 -4.69098 3
    endloop
  endfacet
  facet normal 0.156435 -0.987688 0
    outer loop
      vertex 4.69098 -4.04894 0
      vertex 5 -4 3
      vertex 4.69098 -4.04894 3
    endloop
  endfacet
  facet normal 0.156435 -0.987688 0
    outer loop
      vertex 5 -4 3
      vertex 4.69098 -4.04894 0
      vertex 5 -4 0
    endloop
  endfacet
  facet normal 0.987688 0.156435 0
    outer loop
      vertex 4.04894 -5.30902 3
      vertex 4 -5 0
      vertex 4 -5 3
    endloop
  endfacet
  facet normal 0.987688 0.156435 0
    outer loop
      vertex 4 -5 0
      vertex 4.04894 -5.30902 3
      vertex 4.04894 -5.30902 0
    endloop
  endfacet
  facet normal -0.453992 -0.891006 0
    outer loop
      vertex 5.30902 -4.04894 0
      vertex 5.58778 -4.19098 3
      vertex 5.30902 -4.04894 3
    endloop
  endfacet
  facet normal -0.453992 -0.891006 -0
    outer loop
      vertex 5.58778 -4.19098 3
      vertex 5.30902 -4.04894 0
      vertex 5.58778 -4.19098 0
    endloop
  endfacet
  facet normal -0.156435 -0.987688 0
    outer loop
      vertex 5 -4 0
      vertex 5.30902 -4.04894 3
      vertex 5 -4 3
    endloop
  endfacet
  facet normal -0.156435 -0.987688 -0
    outer loop
      vertex 5.30902 -4.04894 3
      vertex 5 -4 0
      vertex 5.30902 -4.04894 0
    endloop
  endfacet
  facet normal 0.707107 -0.707107 0
    outer loop
      vertex 4.19098 -4.41222 3
      vertex 4.41222 -4.19098 0
      vertex 4.41222 -4.19098 3
    endloop
  endfacet
  facet normal 0.707107 -0.707107 0
    outer loop
      vertex 4.41222 -4.19098 0
      vertex 4.19098 -4.41222 3
      vertex 4.19098 -4.41222 0
    endloop
  endfacet
  facet normal 0.891006 -0.453992 0
    outer loop
      vertex 4.04894 -4.69098 3
      vertex 4.19098 -4.41222 0
      vertex 4.19098 -4.41222 3
    endloop
  endfacet
  facet normal 0.891006 -0.453992 0
    outer loop
      vertex 4.19098 -4.41222 0
      vertex 4.04894 -4.69098 3
      vertex 4.04894 -4.69098 0
    endloop
  endfacet
  facet normal 0.987688 -0.156435 0
    outer loop
      vertex 4 -5 3
      vertex 4.04894 -4.69098 0
      vertex 4.04894 -4.69098 3
    endloop
  endfacet
  facet normal 0.987688 -0.156435 0
    outer loop
      vertex 4.04894 -4.69098 0
      vertex 4 -5 3
      vertex 4 -5 0
    endloop
  endfacet
  facet normal 0.453992 -0.891006 0
    outer loop
      vertex 4.41222 -4.19098 0
      vertex 4.69098 -4.04894 3
      vertex 4.41222 -4.19098 3
    endloop
  endfacet
  facet normal 0.453992 -0.891006 0
    outer loop
      vertex 4.69098 -4.04894 3
      vertex 4.41222 -4.19098 0
      vertex 4.69098 -4.04894 0
    endloop
  endfacet
  facet normal -0.987688 0.156435 0
    outer loop
      vertex 5.95106 -5.30902 0
      vertex 6 -5 3
      vertex 6 -5 0
    endloop
  endfacet
  facet normal -0.987688 0.156435 0
    outer loop
      vertex 6 -5 3
      vertex 5.95106 -5.30902 0
      vertex 5.95106 -5.30902 3
    endloop
  endfacet
  facet normal -0.891006 0.453992 0
    outer loop
      vertex 5.80902 -5.58778 0
      vertex 5.95106 -5.30902 3
      vertex 5.95106 -5.30902 0
    endloop
  endfacet
  facet normal -0.891006 0.453992 0
    outer loop
      vertex 5.95106 -5.30902 3
      vertex 5.80902 -5.58778 0
      vertex 5.80902 -5.58778 3
    endloop
  endfacet
  facet normal 0.707107 0.707107 0
    outer loop
      vertex 4.41222 -5.80902 3
      vertex 4.19098 -5.58778 0
      vertex 4.19098 -5.58778 3
    endloop
  endfacet
  facet normal 0.707107 0.707107 0
    outer loop
      vertex 4.19098 -5.58778 0
      vertex 4.41222 -5.80902 3
      vertex 4.41222 -5.80902 0
    endloop
  endfacet
  facet normal 0.453992 0.891006 -0
    outer loop
      vertex 4.69098 -5.95106 0
      vertex 4.41222 -5.80902 3
      vertex 4.69098 -5.95106 3
    endloop
  endfacet
  facet normal 0.453992 0.891006 0
    outer loop
      vertex 4.41222 -5.80902 3
      vertex 4.69098 -5.95106 0
      vertex 4.41222 -5.80902 0
    endloop
  endfacet
  facet normal 0.891006 0.453992 0
    outer loop
      vertex 4.19098 -5.58778 3
      vertex 4.04894 -5.30902 0
      vertex 4.04894 -5.30902 3
    endloop
  endfacet
  facet normal 0.891006 0.453992 0
    outer loop
      vertex 4.04894 -5.30902 0
      vertex 4.19098 -5.58778 3
      vertex 4.19098 -5.58778 0
    endloop
  endfacet
  facet normal -0.707107 0.707107 0
    outer loop
      vertex 5.58778 -5.80902 0
      vertex 5.80902 -5.58778 3
      vertex 5.80902 -5.58778 0
    endloop
  endfacet
  facet normal -0.707107 0.707107 0
    outer loop
      vertex 5.80902 -5.58778 3
      vertex 5.58778 -5.80902 0
      vertex 5.58778 -5.80902 3
    endloop
  endfacet
  facet normal -0.453992 0.891006 0
    outer loop
      vertex 5.58778 -5.80902 0
      vertex 5.30902 -5.95106 3
      vertex 5.58778 -5.80902 3
    endloop
  endfacet
  facet normal -0.453992 0.891006 0
    outer loop
      vertex 5.30902 -5.95106 3
      vertex 5.58778 -5.80902 0
      vertex 5.30902 -5.95106 0
    endloop
  endfacet
  facet normal -0.987688 -0.156435 0
    outer loop
      vertex -4 5 0
      vertex -4.04894 5.30902 3
      vertex -4.04894 5.30902 0
    endloop
  endfacet
  facet normal -0.987688 -0.156435 0
    outer loop
      vertex -4.04894 5.30902 3
      vertex -4 5 0
      vertex -4 5 3
    endloop
  endfacet
  facet normal 0.156435 0.987688 -0
    outer loop
      vertex -5 4 0
      vertex -5.30902 4.04894 3
      vertex -5 4 3
    endloop
  endfacet
  facet normal 0.156435 0.987688 0
    outer loop
      vertex -5.30902 4.04894 3
      vertex -5 4 0
      vertex -5.30902 4.04894 0
    endloop
  endfacet
  facet normal -0.156435 0.987688 0
    outer loop
      vertex -4.69098 4.04894 0
      vertex -5 4 3
      vertex -4.69098 4.04894 3
    endloop
  endfacet
  facet normal -0.156435 0.987688 0
    outer loop
      vertex -5 4 3
      vertex -4.69098 4.04894 0
      vertex -5 4 0
    endloop
  endfacet
  facet normal -0.707107 -0.707107 0
    outer loop
      vertex -4.19098 5.58778 0
      vertex -4.41222 5.80902 3
      vertex -4.41222 5.80902 0
    endloop
  endfacet
  facet normal -0.707107 -0.707107 0
    outer loop
      vertex -4.41222 5.80902 3
      vertex -4.19098 5.58778 0
      vertex -4.19098 5.58778 3
    endloop
  endfacet
  facet normal -0.891006 -0.453992 0
    outer loop
      vertex -4.04894 5.30902 0
      vertex -4.19098 5.58778 3
      vertex -4.19098 5.58778 0
    endloop
  endfacet
  facet normal -0.891006 -0.453992 0
    outer loop
      vertex -4.19098 5.58778 3
      vertex -4.04894 5.30902 0
      vertex -4.04894 5.30902 3
    endloop
  endfacet
  facet normal 0.156435 -0.987688 0
    outer loop
      vertex -5.30902 5.95106 0
      vertex -5 6 3
      vertex -5.30902 5.95106 3
    endloop
  endfacet
  facet normal 0.156435 -0.987688 0
    outer loop
      vertex -5 6 3
      vertex -5.30902 5.95106 0
      vertex -5 6 0
    endloop
  endfacet
  facet normal 0.987688 0.156435 0
    outer loop
      vertex -5.95106 4.69098 3
      vertex -6 5 0
      vertex -6 5 3
    endloop
  endfacet
  facet normal 0.987688 0.156435 0
    outer loop
      vertex -6 5 0
      vertex -5.95106 4.69098 3
      vertex -5.95106 4.69098 0
    endloop
  endfacet
  facet normal -0.453992 -0.891006 0
    outer loop
      vertex -4.69098 5.95106 0
      vertex -4.41222 5.80902 3
      vertex -4.69098 5.95106 3
    endloop
  endfacet
  facet normal -0.453992 -0.891006 -0
    outer loop
      vertex -4.41222 5.80902 3
      vertex -4.69098 5.95106 0
      vertex -4.41222 5.80902 0
    endloop
  endfacet
  facet normal -0.156435 -0.987688 0
    outer loop
      vertex -5 6 0
      vertex -4.69098 5.95106 3
      vertex -5 6 3
    endloop
  endfacet
  facet normal -0.156435 -0.987688 -0
    outer loop
      vertex -4.69098 5.95106 3
      vertex -5 6 0
      vertex -4.69098 5.95106 0
    endloop
  endfacet
  facet normal 0.707107 -0.707107 0
    outer loop
      vertex -5.80902 5.58778 3
      vertex -5.58778 5.80902 0
      vertex -5.58778 5.80902 3
    endloop
  endfacet
  facet normal 0.707107 -0.707107 0
    outer loop
      vertex -5.58778 5.80902 0
      vertex -5.80902 5.58778 3
      vertex -5.80902 5.58778 0
    endloop
  endfacet
  facet normal 0.891006 -0.453992 0
    outer loop
      vertex -5.95106 5.30902 3
      vertex -5.80902 5.58778 0
      vertex -5.80902 5.58778 3
    endloop
  endfacet
  facet normal 0.891006 -0.453992 0
    outer loop
      vertex -5.80902 5.58778 0
      vertex -5.95106 5.30902 3
      vertex -5.95106 5.30902 0
    endloop
  endfacet
  facet normal 0.987688 -0.156435 0
    outer loop
      vertex -6 5 3
      vertex -5.95106 5.30902 0
      vertex -5.95106 5.30902 3
    endloop
  endfacet
  facet normal 0.987688 -0.156435 0
    outer loop
      vertex -5.95106 5.30902 0
      vertex -6 5 3
      vertex -6 5 0
    endloop
  endfacet
  facet normal 0.453992 -0.891006 0
    outer loop
      vertex -5.58778 5.80902 0
      vertex -5.30902 5.95106 3
      vertex -5.58778 5.80902 3
    endloop
  endfacet
  facet normal 0.453992 -0.891006 0
    outer loop
      vertex -5.30902 5.95106 3
      vertex -5.58778 5.80902 0
      vertex -5.30902 5.95106 0
    endloop
  endfacet
  facet normal -0.987688 0.156435 0
    outer loop
      vertex -4.04894 4.69098 0
      vertex -4 5 3
      vertex -4 5 0
    endloop
  endfacet
  facet normal -0.987688 0.156435 0
    outer loop
      vertex -4 5 3
      vertex -4.04894 4.69098 0
      vertex -4.04894 4.69098 3
    endloop
  endfacet
  facet normal -0.891006 0.453992 0
    outer loop
      vertex -4.19098 4.41222 0
      vertex -4.04894 4.69098 3
      vertex -4.04894 4.69098 0
    endloop
  endfacet
  facet normal -0.891006 0.453992 0
    outer loop
      vertex -4.04894 4.69098 3
      vertex -4.19098 4.41222 0
      vertex -4.19098 4.41222 3
    endloop
  endfacet
  facet normal 0.707107 0.707107 0
    outer loop
      vertex -5.58778 4.19098 3
      vertex -5.80902 4.41222 0
      vertex -5.80902 4.41222 3
    endloop
  endfacet
  facet normal 0.707107 0.707107 0
    outer loop
      vertex -5.80902 4.41222 0
      vertex -5.58778 4.19098 3
      vertex -5.58778 4.19098 0
    endloop
  endfacet
  facet normal 0.453992 0.891006 -0
    outer loop
      vertex -5.30902 4.04894 0
      vertex -5.58778 4.19098 3
      vertex -5.30902 4.04894 3
    endloop
  endfacet
  facet normal 0.453992 0.891006 0
    outer loop
      vertex -5.58778 4.19098 3
      vertex -5.30902 4.04894 0
      vertex -5.58778 4.19098 0
    endloop
  endfacet
  facet normal 0.891006 0.453992 0
    outer loop
      vertex -5.80902 4.41222 3
      vertex -5.95106 4.69098 0
      vertex -5.95106 4.69098 3
    endloop
  endfacet
  facet normal 0.891006 0.453992 0
    outer loop
      vertex -5.95106 4.69098 0
      vertex -5.80902 4.41222 3
      vertex -5.80902 4.41222 0
    endloop
  endfacet
  facet normal -0.707107 0.707107 0
    outer loop
      vertex -4.41222 4.19098 0
      vertex -4.19098 4.41222 3
      vertex -4.19098 4.41222 0
    endloop
  endfacet
  facet normal -0.707107 0.707107 0
    outer loop
      vertex -4.19098 4.41222 3
      vertex -4.41222 4.19098 0
      vertex -4.41222 4.19098 3
    endloop
  endfacet
  facet normal -0.453992 0.891006 0
    outer loop
      vertex -4.41222 4.19098 0
      vertex -4.69098 4.04894 3
      vertex -4.41222 4.19098 3
    endloop
  endfacet
  facet normal -0.453992 0.891006 0
    outer loop
      vertex -4.69098 4.04894 3
      vertex -4.41222 4.19098 0
      vertex -4.69098 4.04894 0
    endloop
  endfacet
  facet normal -0.987688 -0.156435 0
    outer loop
      vertex -4 -5 0
      vertex -4.04894 -4.69098 3
      vertex -4.04894 -4.69098 0
    endloop
  endfacet
  facet normal -0.987688 -0.156435 0
    outer loop
      vertex -4.04894 -4.69098 3
      vertex -4 -5 0
      vertex -4 -5 3
    endloop
  endfacet
  facet normal 0.156435 0.987688 -0
    outer loop
      vertex -5 -6 0
      vertex -5.30902 -5.95106 3
      vertex -5 -6 3
    endloop
  endfacet
  facet normal 0.156435 0.987688 0
    outer loop
      vertex -5.30902 -5.95106 3
      vertex -5 -6 0
      vertex -5.30902 -5.95106 0
    endloop
  endfacet
  facet normal -0.156435 0.987688 0
    outer loop
      vertex -4.69098 -5.95106 0
      vertex -5 -6 3
      vertex -4.69098 -5.95106 3
    endloop
  endfacet
  facet normal -0.156435 0.987688 0
    outer loop
      vertex -5 -6 3
      vertex -4.69098 -5.95106 0
      vertex -5 -6 0
    endloop
  endfacet
  facet normal -0.707107 -0.707107 0
    outer loop
      vertex -4.19098 -4.41222 0
      vertex -4.41222 -4.19098 3
      vertex -4.41222 -4.19098 0
    endloop
  endfacet
  facet normal -0.707107 -0.707107 0
    outer loop
      vertex -4.41222 -4.19098 3
      vertex -4.19098 -4.41222 0
      vertex -4.19098 -4.41222 3
    endloop
  endfacet
  facet normal -0.891006 -0.453992 0
    outer loop
      vertex -4.04894 -4.69098 0
      vertex -4.19098 -4.41222 3
      vertex -4.19098 -4.41222 0
    endloop
  endfacet
  facet normal -0.891006 -0.453992 0
    outer loop
      vertex -4.19098 -4.41222 3
      vertex -4.04894 -4.69098 0
      vertex -4.04894 -4.69098 3
    endloop
  endfacet
  facet normal 0.156435 -0.987688 0
    outer loop
      vertex -5.30902 -4.04894 0
      vertex -5 -4 3
      vertex -5.30902 -4.04894 3
    endloop
  endfacet
  facet normal 0.156435 -0.987688 0
    outer loop
      vertex -5 -4 3
      vertex -5.30902 -4.04894 0
      vertex -5 -4 0
    endloop
  endfacet
  facet normal 0.987688 0.156435 0
    outer loop
      vertex -5.95106 -5.30902 3
      vertex -6 -5 0
      vertex -6 -5 3
    endloop
  endfacet
  facet normal 0.987688 0.156435 0
    outer loop
      vertex -6 -5 0
      vertex -5.95106 -5.30902 3
      vertex -5.95106 -5.30902 0
    endloop
  endfacet
  facet normal -0.453992 -0.891006 0
    outer loop
      vertex -4.69098 -4.04894 0
      vertex -4.41222 -4.19098 3
      vertex -4.69098 -4.04894 3
    endloop
  endfacet
  facet normal -0.453992 -0.891006 -0
    outer loop
      vertex -4.41222 -4.19098 3
      vertex -4.69098 -4.04894 0
      vertex -4.41222 -4.19098 0
    endloop
  endfacet
  facet normal -0.156435 -0.987688 0
    outer loop
      vertex -5 -4 0
      vertex -4.69098 -4.04894 3
      vertex -5 -4 3
    endloop
  endfacet
  facet normal -0.156435 -0.987688 -0
    outer loop
      vertex -4.69098 -4.04894 3
      vertex -5 -4 0
      vertex -4.69098 -4.04894 0
    endloop
  endfacet
  facet normal 0.707107 -0.707107 0
    outer loop
      vertex -5.80902 -4.41222 3
      vertex -5.58778 -4.19098 0
      vertex -5.58778 -4.19098 3
    endloop
  endfacet
  facet normal 0.707107 -0.707107 0
    outer loop
      vertex -5.58778 -4.19098 0
      vertex -5.80902 -4.41222 3
      vertex -5.80902 -4.41222 0
    endloop
  endfacet
  facet normal 0.891006 -0.453992 0
    outer loop
      vertex -5.95106 -4.69098 3
      vertex -5.80902 -4.41222 0
      vertex -5.80902 -4.41222 3
    endloop
  endfacet
  facet normal 0.891006 -0.453992 0
    outer loop
      vertex -5.80902 -4.41222 0
      vertex -5.95106 -4.69098 3
      vertex -5.95106 -4.69098 0
    endloop
  endfacet
  facet normal 0.987688 -0.156435 0
    outer loop
      vertex -6 -5 3
      vertex -5.95106 -4.69098 0
      vertex -5.95106 -4.69098 3
    endloop
  endfacet
  facet normal 0.987688 -0.156435 0
    outer loop
      vertex -5.95106 -4.69098 0
      vertex -6 -5 3
      vertex -6 -5 0
    endloop
  endfacet
  facet normal 0.453992 -0.891006 0
    outer loop
      vertex -5.58778 -4.19098 0
      vertex -5.30902 -4.04894 3
      vertex -5.58778 -4.19098 3
    endloop
  endfacet
  facet normal 0.453992 -0.891006 0
    outer loop
      vertex -5.30902 -4.04894 3
      vertex -5.58778 -4.19098 0
      vertex -5.30902 -4.04894 0
    endloop
  endfacet
  facet normal -0.987688 0.156435 0
    outer loop
      vertex -4.04894 -5.30902 0
      vertex -4 -5 3
      vertex -4 -5 0
    endloop
  endfacet
  facet normal -0.987688 0.156435 0
    outer loop
      vertex -4 -5 3
      vertex -4.04894 -5.30902 0
      vertex -4.04894 -5.30902 3
    endloop
  endfacet
  facet normal -0.891006 0.453992 0
    outer loop
      vertex -4.19098 -5.58778 0
      vertex -4.04894 -5.30902 3
      vertex -4.04894 -5.30902 0
    endloop
  endfacet
  facet normal -0.891006 0.453992 0
    outer loop
      vertex -4.04894 -5.30902 3
      vertex -4.19098 -5.58778 0
      vertex -4.19098 -5.58778 3
    endloop
  endfacet
  facet normal 0.707107 0.707107 0
    outer loop
      vertex -5.58778 -5.80902 3
      vertex -5.80902 -5.58778 0
      vertex -5.80902 -5.58778 3
    endloop
  endfacet
  facet normal 0.707107 0.707107 0
    outer loop
      vertex -5.80902 -5.58778 0
      vertex -5.58778 -5.80902 3
      vertex -5.58778 -5.80902 0
    endloop
  endfacet
  facet normal 0.453992 0.891006 -0
    outer loop
      vertex -5.30902 -5.95106 0
      vertex -5.58778 -5.80902 3
      vertex -5.30902 -5.95106 3
    endloop
  endfacet
  facet normal 0.453992 0.891006 0
    outer loop
      vertex -5.58778 -5.80902 3
      vertex -5.30902 -5.95106 0
      vertex -5.58778 -5.80902 0
    endloop
  endfacet
  facet normal 0.891006 0.453992 0
    outer loop
      vertex -5.80902 -5.58778 3
      vertex -5.95106 -5.30902 0
      vertex -5.95106 -5.30902 3
    endloop
  endfacet
  facet normal 0.891006 0.453992 0
    outer loop
      vertex -5.95106 -5.30902 0
      vertex -5.80902 -5.58778 3
      vertex -5.80902 -5.58778 0
    endloop
  endfacet
  facet normal -0.707107 0.707107 0
    outer loop
      vertex -4.41222 -5.80902 0
      vertex -4.19098 -5.58778 3
      vertex -4.19098 -5.58778 0
    endloop
  endfacet
  facet normal -0.707107 0.707107 0
    outer loop
      vertex -4.19098 -5.58778 3
      vertex -4.41222 -5.80902 0
      vertex -4.41222 -5.80902 3
    endloop
  endfacet
  facet normal -0.453992 0.891006 0
    outer loop
      vertex -4.41222 -5.80902 0
      vertex -4.69098 -5.95106 3
      vertex -4.41222 -5.80902 3
    endloop
  endfacet
  facet normal -0.453992 0.891006 0
    outer loop
      vertex -4.69098 -5.95106 3
      vertex -4.41222 -5.80902 0
      vertex -4.69098 -5.95106 0
    endloop
  endfacet
  facet normal -1 0 0
    outer loop
      vertex -10 -10 0
      vertex -10 10 3
      vertex -10 10 0
    endloop
  endfacet
  facet normal -1 -0 0
    outer loop
      vertex -10 10 3
      vertex -10 -10 0
      vertex -10 -10 3
    endloop
  endfacet
  facet normal 1 -0 0
    outer loop
      vertex 10 -10 3
      vertex 10 10 0
      vertex 10 10 3
    endloop
  endfacet
  facet normal 1 0 0
    outer loop
      vertex 10 10 0
      vertex 10 -10 3
      vertex 10 -10 0
    endloop
  endfacet
  facet normal 0 1 -0
    outer loop
      vertex 10 10 0
      vertex -10 10 3
      vertex 10 10 3
    endloop
  endfacet
  facet normal 0 1 0
    outer loop
      vertex -10 10 3
      vertex 10 10 0
      vertex -10 10 0
    endloop
  endfacet
  facet normal 0 -1 0
    outer loop
      vertex -10 -10 0
      vertex 10 -10 3
      vertex -10 -10 3
    endloop
  endfacet
  facet normal 0 -1 -0
    outer loop
      vertex 10 -10 3
      vertex -10 -10 0
      vertex 10 -10 0
    endloop
  endfacet
endsolid OpenSCAD_Model
