solid OpenSCAD_Model
  facet normal 0 0 1
    outer loop
      vertex 82.5 50 1.5
      vertex 80.5 48.5 1.5
      vertex 82.5 34 1.5
    endloop
  endfacet
  facet normal -0 0 1
    outer loop
      vertex 63.5 50 1.5
      vertex 80.5 48.5 1.5
      vertex 82.5 50 1.5
    endloop
  endfacet
  facet normal 0 0 1
    outer loop
      vertex 80.5 48.5 1.5
      vertex 63.5 50 1.5
      vertex 63.5 48.5 1.5
    endloop
  endfacet
  facet normal 0 0 1
    outer loop
      vertex 82.5 34 1.5
      vertex 80.5 48.5 1.5
      vertex 80.5 34 1.5
    endloop
  endfacet
  facet normal -1 0 0
    outer loop
      vertex 80.5 34 0
      vertex 80.5 48.5 1.5
      vertex 80.5 48.5 0
    endloop
  endfacet
  facet normal -1 -0 0
    outer loop
      vertex 80.5 48.5 1.5
      vertex 80.5 34 0
      vertex 80.5 34 1.5
    endloop
  endfacet
  facet normal 0 -1 0
    outer loop
      vertex 63.5 48.5 0
      vertex 80.5 48.5 1.5
      vertex 63.5 48.5 1.5
    endloop
  endfacet
  facet normal 0 -1 -0
    outer loop
      vertex 80.5 48.5 1.5
      vertex 63.5 48.5 0
      vertex 80.5 48.5 0
    endloop
  endfacet
  facet normal 0 0 -1
    outer loop
      vertex 85.3 56.7713 0
      vertex 80.1 56.7713 0
      vertex 81.7 62.4 0
    endloop
  endfacet
  facet normal 0 0 -1
    outer loop
      vertex 76.9 56.7713 0
      vertex 81.7 62.4 0
      vertex 80.1 56.7713 0
    endloop
  endfacet
  facet normal 0 0 -1
    outer loop
      vertex 76.9 56.7713 0
      vertex 75.3 62.4 0
      vertex 81.7 62.4 0
    endloop
  endfacet
  facet normal 0 0 -1
    outer loop
      vertex 75.3 62.4 0
      vertex 76.9 56.7713 0
      vertex 75.3 54 0
    endloop
  endfacet
  facet normal 0 0 -1
    outer loop
      vertex 92.1 34 0
      vertex 90.1 54 0
      vertex 92.1 67.6 0
    endloop
  endfacet
  facet normal 0 0 -1
    outer loop
      vertex 80.5 48.5 0
      vertex 90.1 54 0
      vertex 92.1 34 0
    endloop
  endfacet
  facet normal -0 0 -1
    outer loop
      vertex 90.1 54 0
      vertex 80.5 48.5 0
      vertex 83.7 54 0
    endloop
  endfacet
  facet normal 0 0 -1
    outer loop
      vertex 80.5 48.5 0
      vertex 92.1 34 0
      vertex 80.5 34 0
    endloop
  endfacet
  facet normal -0 0 -1
    outer loop
      vertex 83.7 54 0
      vertex 80.5 48.5 0
      vertex 81.7 54 0
    endloop
  endfacet
  facet normal 0 0 -1
    outer loop
      vertex 80.5 48.5 0
      vertex 75.3 54 0
      vertex 81.7 54 0
    endloop
  endfacet
  facet normal 0 0 -1
    outer loop
      vertex 63.5 67.6 0
      vertex 75.3 54 0
      vertex 63.5 48.5 0
    endloop
  endfacet
  facet normal 0 0 -1
    outer loop
      vertex 63.5 48.5 0
      vertex 75.3 54 0
      vertex 80.5 48.5 0
    endloop
  endfacet
  facet normal 0 0 -1
    outer loop
      vertex 88.5 56.7713 0
      vertex 92.1 67.6 0
      vertex 90.1 54 0
    endloop
  endfacet
  facet normal 0 0 -1
    outer loop
      vertex 81.7 62.4 0
      vertex 88.5 56.7713 0
      vertex 85.3 56.7713 0
    endloop
  endfacet
  facet normal 0 0 -1
    outer loop
      vertex 81.7 54 0
      vertex 85.3 56.7713 0
      vertex 83.7 54 0
    endloop
  endfacet
  facet normal 0 0 -1
    outer loop
      vertex 80.1 56.7713 0
      vertex 85.3 56.7713 0
      vertex 81.7 54 0
    endloop
  endfacet
  facet normal 0 0 -1
    outer loop
      vertex 88.5 56.7713 0
      vertex 81.7 62.4 0
      vertex 92.1 67.6 0
    endloop
  endfacet
  facet normal 0 0 -1
    outer loop
      vertex 80.1 65.1713 0
      vertex 92.1 67.6 0
      vertex 81.7 62.4 0
    endloop
  endfacet
  facet normal 0 0 -1
    outer loop
      vertex 76.9 65.1713 0
      vertex 92.1 67.6 0
      vertex 80.1 65.1713 0
    endloop
  endfacet
  facet normal 0 0 -1
    outer loop
      vertex 75.3 54 0
      vertex 63.5 67.6 0
      vertex 75.3 62.4 0
    endloop
  endfacet
  facet normal 0 0 -1
    outer loop
      vertex 76.9 65.1713 0
      vertex 63.5 67.6 0
      vertex 92.1 67.6 0
    endloop
  endfacet
  facet normal 0 0 -1
    outer loop
      vertex 75.3 62.4 0
      vertex 63.5 67.6 0
      vertex 76.9 65.1713 0
    endloop
  endfacet
  facet normal -0 0 1
    outer loop
      vertex 80.118 61.2244 7
      vertex 84.9 54 7
      vertex 80.4021 61.782 7
    endloop
  endfacet
  facet normal -0 0 1
    outer loop
      vertex 79.6756 60.782 7
      vertex 84.9 54 7
      vertex 80.118 61.2244 7
    endloop
  endfacet
  facet normal 0 0 1
    outer loop
      vertex 84.9 54 7
      vertex 79.6756 60.782 7
      vertex 80.5 54 7
    endloop
  endfacet
  facet normal -0 0 1
    outer loop
      vertex 79.118 60.4979 7
      vertex 80.5 54 7
      vertex 79.6756 60.782 7
    endloop
  endfacet
  facet normal -0 0 1
    outer loop
      vertex 78.5 60.4 7
      vertex 80.5 54 7
      vertex 79.118 60.4979 7
    endloop
  endfacet
  facet normal 0 0 1
    outer loop
      vertex 76.5 54 7
      vertex 78.5 60.4 7
      vertex 77.882 60.4979 7
    endloop
  endfacet
  facet normal 0 0 1
    outer loop
      vertex 76.5 54 7
      vertex 77.882 60.4979 7
      vertex 77.3244 60.782 7
    endloop
  endfacet
  facet normal 0 0 1
    outer loop
      vertex 76.5 54 7
      vertex 77.3244 60.782 7
      vertex 76.882 61.2244 7
    endloop
  endfacet
  facet normal 0 0 1
    outer loop
      vertex 76.5 54 7
      vertex 76.882 61.2244 7
      vertex 76.5979 61.782 7
    endloop
  endfacet
  facet normal 0 0 1
    outer loop
      vertex 78.5 60.4 7
      vertex 76.5 54 7
      vertex 80.5 54 7
    endloop
  endfacet
  facet normal 0 0 1
    outer loop
      vertex 63.5 67.6 7
      vertex 76.5979 61.782 7
      vertex 76.5 62.4 7
    endloop
  endfacet
  facet normal 0 0 1
    outer loop
      vertex 92.1 67.6 7
      vertex 88.9 54 7
      vertex 92.1 34 7
    endloop
  endfacet
  facet normal -0 0 1
    outer loop
      vertex 80.5 62.4 7
      vertex 88.9 54 7
      vertex 92.1 67.6 7
    endloop
  endfacet
  facet normal -0 0 1
    outer loop
      vertex 80.4021 61.782 7
      vertex 88.9 54 7
      vertex 80.5 62.4 7
    endloop
  endfacet
  facet normal 0 0 1
    outer loop
      vertex 88.9 54 7
      vertex 80.4021 61.782 7
      vertex 84.9 54 7
    endloop
  endfacet
  facet normal 0 0 1
    outer loop
      vertex 92.1 67.6 7
      vertex 76.5 62.4 7
      vertex 80.5 62.4 7
    endloop
  endfacet
  facet normal 0 0 1
    outer loop
      vertex 76.5979 61.782 7
      vertex 63.5 67.6 7
      vertex 63.5 50 7
    endloop
  endfacet
  facet normal -0 0 1
    outer loop
      vertex 63.5 67.6 7
      vertex 76.5 62.4 7
      vertex 92.1 67.6 7
    endloop
  endfacet
  facet normal -0 0 1
    outer loop
      vertex 88.8021 53.382 7
      vertex 92.1 34 7
      vertex 88.9 54 7
    endloop
  endfacet
  facet normal -0 0 1
    outer loop
      vertex 88.518 52.8244 7
      vertex 92.1 34 7
      vertex 88.8021 53.382 7
    endloop
  endfacet
  facet normal -0 0 1
    outer loop
      vertex 88.0756 52.382 7
      vertex 92.1 34 7
      vertex 88.518 52.8244 7
    endloop
  endfacet
  facet normal -0 0 1
    outer loop
      vertex 87.518 52.0979 7
      vertex 92.1 34 7
      vertex 88.0756 52.382 7
    endloop
  endfacet
  facet normal -0 0 1
    outer loop
      vertex 86.9 52 7
      vertex 92.1 34 7
      vertex 87.518 52.0979 7
    endloop
  endfacet
  facet normal 0 0 1
    outer loop
      vertex 82.5 50 7
      vertex 86.9 52 7
      vertex 86.282 52.0979 7
    endloop
  endfacet
  facet normal 0 0 1
    outer loop
      vertex 82.5 50 7
      vertex 86.282 52.0979 7
      vertex 85.7244 52.382 7
    endloop
  endfacet
  facet normal 0 0 1
    outer loop
      vertex 82.5 50 7
      vertex 85.7244 52.382 7
      vertex 85.282 52.8244 7
    endloop
  endfacet
  facet normal 0 0 1
    outer loop
      vertex 82.5 50 7
      vertex 85.282 52.8244 7
      vertex 84.9979 53.382 7
    endloop
  endfacet
  facet normal 0 0 1
    outer loop
      vertex 82.5 50 7
      vertex 84.9979 53.382 7
      vertex 84.9 54 7
    endloop
  endfacet
  facet normal 0 0 1
    outer loop
      vertex 86.9 52 7
      vertex 82.5 50 7
      vertex 92.1 34 7
    endloop
  endfacet
  facet normal 0 0 1
    outer loop
      vertex 92.1 34 7
      vertex 82.5 50 7
      vertex 82.5 34 7
    endloop
  endfacet
  facet normal 0 0 1
    outer loop
      vertex 80.4021 53.382 7
      vertex 84.9 54 7
      vertex 80.5 54 7
    endloop
  endfacet
  facet normal 0 0 1
    outer loop
      vertex 84.9 54 7
      vertex 80.4021 53.382 7
      vertex 82.5 50 7
    endloop
  endfacet
  facet normal -0 0 1
    outer loop
      vertex 80.118 52.8244 7
      vertex 82.5 50 7
      vertex 80.4021 53.382 7
    endloop
  endfacet
  facet normal -0 0 1
    outer loop
      vertex 79.6756 52.382 7
      vertex 82.5 50 7
      vertex 80.118 52.8244 7
    endloop
  endfacet
  facet normal -0 0 1
    outer loop
      vertex 79.118 52.0979 7
      vertex 82.5 50 7
      vertex 79.6756 52.382 7
    endloop
  endfacet
  facet normal -0 0 1
    outer loop
      vertex 78.5 52 7
      vertex 82.5 50 7
      vertex 79.118 52.0979 7
    endloop
  endfacet
  facet normal 0 0 1
    outer loop
      vertex 77.882 52.0979 7
      vertex 82.5 50 7
      vertex 78.5 52 7
    endloop
  endfacet
  facet normal 0 0 1
    outer loop
      vertex 76.5979 61.782 7
      vertex 63.5 50 7
      vertex 76.5 54 7
    endloop
  endfacet
  facet normal 0 0 1
    outer loop
      vertex 76.5 54 7
      vertex 63.5 50 7
      vertex 76.5979 53.382 7
    endloop
  endfacet
  facet normal 0 0 1
    outer loop
      vertex 77.882 52.0979 7
      vertex 63.5 50 7
      vertex 82.5 50 7
    endloop
  endfacet
  facet normal 0 0 1
    outer loop
      vertex 77.3244 52.382 7
      vertex 63.5 50 7
      vertex 77.882 52.0979 7
    endloop
  endfacet
  facet normal 0 0 1
    outer loop
      vertex 76.882 52.8244 7
      vertex 63.5 50 7
      vertex 77.3244 52.382 7
    endloop
  endfacet
  facet normal 0 0 1
    outer loop
      vertex 76.5979 53.382 7
      vertex 63.5 50 7
      vertex 76.882 52.8244 7
    endloop
  endfacet
  facet normal -1 0 0
    outer loop
      vertex 82.5 34 1.5
      vertex 82.5 50 7
      vertex 82.5 50 1.5
    endloop
  endfacet
  facet normal -1 -0 0
    outer loop
      vertex 82.5 50 7
      vertex 82.5 34 1.5
      vertex 82.5 34 7
    endloop
  endfacet
  facet normal 0 -1 0
    outer loop
      vertex 63.5 50 1.5
      vertex 82.5 50 7
      vertex 63.5 50 7
    endloop
  endfacet
  facet normal 0 -1 -0
    outer loop
      vertex 82.5 50 7
      vertex 63.5 50 1.5
      vertex 82.5 50 1.5
    endloop
  endfacet
  facet normal -0.866026 0.5 0
    outer loop
      vertex 80.1 51.2287 3.39384e-16
      vertex 81.7 54 2.5
      vertex 81.7 54 0
    endloop
  endfacet
  facet normal -0.866026 0.5 0
    outer loop
      vertex 81.7 54 2.5
      vertex 80.1 51.2287 3.39384e-16
      vertex 80.1 51.2287 2.5
    endloop
  endfacet
  facet normal 0.866026 0.5 0
    outer loop
      vertex 76.9 51.2287 2.5
      vertex 75.3 54 0
      vertex 75.3 54 2.5
    endloop
  endfacet
  facet normal 0.866026 0.5 0
    outer loop
      vertex 75.3 54 0
      vertex 76.9 51.2287 2.5
      vertex 76.9 51.2287 3.39384e-16
    endloop
  endfacet
  facet normal 0 1 -0
    outer loop
      vertex 80.1 51.2287 3.39384e-16
      vertex 76.9 51.2287 2.5
      vertex 80.1 51.2287 2.5
    endloop
  endfacet
  facet normal 0 1 0
    outer loop
      vertex 76.9 51.2287 2.5
      vertex 80.1 51.2287 3.39384e-16
      vertex 76.9 51.2287 3.39384e-16
    endloop
  endfacet
  facet normal 0 1.22465e-16 1
    outer loop
      vertex 81.7 54 0
      vertex 76.9 51.2287 3.39384e-16
      vertex 80.1 51.2287 3.39384e-16
    endloop
  endfacet
  facet normal 0 1.22465e-16 1
    outer loop
      vertex 76.9 51.2287 3.39384e-16
      vertex 81.7 54 0
      vertex 75.3 54 0
    endloop
  endfacet
  facet normal -0 0 -1
    outer loop
      vertex 81.7 54 2.5
      vertex 80.4021 53.382 2.5
      vertex 80.5 54 2.5
    endloop
  endfacet
  facet normal 0 0 -1
    outer loop
      vertex 81.7 54 2.5
      vertex 80.118 52.8244 2.5
      vertex 80.4021 53.382 2.5
    endloop
  endfacet
  facet normal 0 0 -1
    outer loop
      vertex 80.1 51.2287 2.5
      vertex 80.118 52.8244 2.5
      vertex 81.7 54 2.5
    endloop
  endfacet
  facet normal 0 0 -1
    outer loop
      vertex 80.1 51.2287 2.5
      vertex 79.6756 52.382 2.5
      vertex 80.118 52.8244 2.5
    endloop
  endfacet
  facet normal 0 0 -1
    outer loop
      vertex 80.1 51.2287 2.5
      vertex 79.118 52.0979 2.5
      vertex 79.6756 52.382 2.5
    endloop
  endfacet
  facet normal 0 0 -1
    outer loop
      vertex 80.1 51.2287 2.5
      vertex 78.5 52 2.5
      vertex 79.118 52.0979 2.5
    endloop
  endfacet
  facet normal 0 0 -1
    outer loop
      vertex 76.9 51.2287 2.5
      vertex 78.5 52 2.5
      vertex 80.1 51.2287 2.5
    endloop
  endfacet
  facet normal -0 0 -1
    outer loop
      vertex 78.5 52 2.5
      vertex 76.9 51.2287 2.5
      vertex 77.882 52.0979 2.5
    endloop
  endfacet
  facet normal 0 0 -1
    outer loop
      vertex 76.9 51.2287 2.5
      vertex 77.3244 52.382 2.5
      vertex 77.882 52.0979 2.5
    endloop
  endfacet
  facet normal 0 0 -1
    outer loop
      vertex 76.9 51.2287 2.5
      vertex 76.882 52.8244 2.5
      vertex 77.3244 52.382 2.5
    endloop
  endfacet
  facet normal 0 0 -1
    outer loop
      vertex 75.3 54 2.5
      vertex 76.882 52.8244 2.5
      vertex 76.9 51.2287 2.5
    endloop
  endfacet
  facet normal 0 0 -1
    outer loop
      vertex 76.882 52.8244 2.5
      vertex 75.3 54 2.5
      vertex 76.5979 53.382 2.5
    endloop
  endfacet
  facet normal 0 0 -1
    outer loop
      vertex 76.5979 53.382 2.5
      vertex 75.3 54 2.5
      vertex 76.5 54 2.5
    endloop
  endfacet
  facet normal 0 0 -1
    outer loop
      vertex 80.4021 54.618 2.5
      vertex 81.7 54 2.5
      vertex 80.5 54 2.5
    endloop
  endfacet
  facet normal 0 0 -1
    outer loop
      vertex 80.118 55.1756 2.5
      vertex 81.7 54 2.5
      vertex 80.4021 54.618 2.5
    endloop
  endfacet
  facet normal 0 0 -1
    outer loop
      vertex 80.118 55.1756 2.5
      vertex 80.1 56.7713 2.5
      vertex 81.7 54 2.5
    endloop
  endfacet
  facet normal 0 0 -1
    outer loop
      vertex 79.6756 55.618 2.5
      vertex 80.1 56.7713 2.5
      vertex 80.118 55.1756 2.5
    endloop
  endfacet
  facet normal 0 0 -1
    outer loop
      vertex 79.118 55.9021 2.5
      vertex 80.1 56.7713 2.5
      vertex 79.6756 55.618 2.5
    endloop
  endfacet
  facet normal 0 0 -1
    outer loop
      vertex 78.5 56 2.5
      vertex 80.1 56.7713 2.5
      vertex 79.118 55.9021 2.5
    endloop
  endfacet
  facet normal 0 0 -1
    outer loop
      vertex 76.9 56.7713 2.5
      vertex 78.5 56 2.5
      vertex 77.882 55.9021 2.5
    endloop
  endfacet
  facet normal 0 0 -1
    outer loop
      vertex 78.5 56 2.5
      vertex 76.9 56.7713 2.5
      vertex 80.1 56.7713 2.5
    endloop
  endfacet
  facet normal 0 0 -1
    outer loop
      vertex 77.3244 55.618 2.5
      vertex 76.9 56.7713 2.5
      vertex 77.882 55.9021 2.5
    endloop
  endfacet
  facet normal 0 0 -1
    outer loop
      vertex 76.882 55.1756 2.5
      vertex 76.9 56.7713 2.5
      vertex 77.3244 55.618 2.5
    endloop
  endfacet
  facet normal 0 0 -1
    outer loop
      vertex 75.3 54 2.5
      vertex 76.882 55.1756 2.5
      vertex 76.5979 54.618 2.5
    endloop
  endfacet
  facet normal 0 0 -1
    outer loop
      vertex 75.3 54 2.5
      vertex 76.5979 54.618 2.5
      vertex 76.5 54 2.5
    endloop
  endfacet
  facet normal -0 0 -1
    outer loop
      vertex 76.882 55.1756 2.5
      vertex 75.3 54 2.5
      vertex 76.9 56.7713 2.5
    endloop
  endfacet
  facet normal 0 -1 0
    outer loop
      vertex 76.9 56.7713 0
      vertex 80.1 56.7713 2.5
      vertex 76.9 56.7713 2.5
    endloop
  endfacet
  facet normal 0 -1 -0
    outer loop
      vertex 80.1 56.7713 2.5
      vertex 76.9 56.7713 0
      vertex 80.1 56.7713 0
    endloop
  endfacet
  facet normal 0.866026 -0.5 0
    outer loop
      vertex 75.3 54 2.5
      vertex 76.9 56.7713 0
      vertex 76.9 56.7713 2.5
    endloop
  endfacet
  facet normal 0.866026 -0.5 0
    outer loop
      vertex 76.9 56.7713 0
      vertex 75.3 54 2.5
      vertex 75.3 54 0
    endloop
  endfacet
  facet normal -0.866026 -0.5 0
    outer loop
      vertex 81.7 54 0
      vertex 80.1 56.7713 2.5
      vertex 80.1 56.7713 0
    endloop
  endfacet
  facet normal -0.866026 -0.5 0
    outer loop
      vertex 80.1 56.7713 2.5
      vertex 81.7 54 0
      vertex 81.7 54 2.5
    endloop
  endfacet
  facet normal -0.987689 0.156432 0
    outer loop
      vertex 80.4021 53.382 2.5
      vertex 80.5 54 7
      vertex 80.5 54 2.5
    endloop
  endfacet
  facet normal -0.987689 0.156432 0
    outer loop
      vertex 80.5 54 7
      vertex 80.4021 53.382 2.5
      vertex 80.4021 53.382 7
    endloop
  endfacet
  facet normal 0.987689 0.156432 0
    outer loop
      vertex 76.5979 53.382 7
      vertex 76.5 54 2.5
      vertex 76.5 54 7
    endloop
  endfacet
  facet normal 0.987689 0.156432 0
    outer loop
      vertex 76.5 54 2.5
      vertex 76.5979 53.382 7
      vertex 76.5979 53.382 2.5
    endloop
  endfacet
  facet normal -0.156432 0.987689 0
    outer loop
      vertex 79.118 52.0979 2.5
      vertex 78.5 52 7
      vertex 79.118 52.0979 7
    endloop
  endfacet
  facet normal -0.156432 0.987689 0
    outer loop
      vertex 78.5 52 7
      vertex 79.118 52.0979 2.5
      vertex 78.5 52 2.5
    endloop
  endfacet
  facet normal -0.156432 -0.987689 0
    outer loop
      vertex 78.5 56 2.5
      vertex 79.118 55.9021 7
      vertex 78.5 56 7
    endloop
  endfacet
  facet normal -0.156437 -0.987688 8.37273e-07
    outer loop
      vertex 79.118 55.9021 7
      vertex 78.5 56 2.5
      vertex 79.118 55.9021 2.5
    endloop
  endfacet
  facet normal 0 0 -1
    outer loop
      vertex 80.5 54 7
      vertex 80.118 55.1756 7
      vertex 80.4021 54.618 7
    endloop
  endfacet
  facet normal 0 0 -1
    outer loop
      vertex 80.5 54 7
      vertex 79.6756 55.618 7
      vertex 80.118 55.1756 7
    endloop
  endfacet
  facet normal 0 0 -1
    outer loop
      vertex 80.5 54 7
      vertex 79.118 55.9021 7
      vertex 79.6756 55.618 7
    endloop
  endfacet
  facet normal 0 0 -1
    outer loop
      vertex 80.5 54 7
      vertex 78.5 56 7
      vertex 79.118 55.9021 7
    endloop
  endfacet
  facet normal 0 0 -1
    outer loop
      vertex 80.5 54 7
      vertex 77.882 55.9021 7
      vertex 78.5 56 7
    endloop
  endfacet
  facet normal 0 0 -1
    outer loop
      vertex 80.5 54 7
      vertex 77.3244 55.618 7
      vertex 77.882 55.9021 7
    endloop
  endfacet
  facet normal 0 0 -1
    outer loop
      vertex 80.5 54 7
      vertex 76.882 55.1756 7
      vertex 77.3244 55.618 7
    endloop
  endfacet
  facet normal 0 0 -1
    outer loop
      vertex 80.5 54 7
      vertex 76.5979 54.618 7
      vertex 76.882 55.1756 7
    endloop
  endfacet
  facet normal 0 -0 -1
    outer loop
      vertex 76.5979 54.618 7
      vertex 80.5 54 7
      vertex 76.5 54 7
    endloop
  endfacet
  facet normal -0.707104 0.70711 0
    outer loop
      vertex 80.118 52.8244 2.5
      vertex 79.6756 52.382 7
      vertex 80.118 52.8244 7
    endloop
  endfacet
  facet normal -0.707104 0.70711 0
    outer loop
      vertex 79.6756 52.382 7
      vertex 80.118 52.8244 2.5
      vertex 79.6756 52.382 2.5
    endloop
  endfacet
  facet normal -0.891006 0.453992 0
    outer loop
      vertex 80.118 52.8244 2.5
      vertex 80.4021 53.382 7
      vertex 80.4021 53.382 2.5
    endloop
  endfacet
  facet normal -0.891006 0.453992 0
    outer loop
      vertex 80.4021 53.382 7
      vertex 80.118 52.8244 2.5
      vertex 80.118 52.8244 7
    endloop
  endfacet
  facet normal -0.453994 0.891005 0
    outer loop
      vertex 79.6756 52.382 2.5
      vertex 79.118 52.0979 7
      vertex 79.6756 52.382 7
    endloop
  endfacet
  facet normal -0.453994 0.891005 0
    outer loop
      vertex 79.118 52.0979 7
      vertex 79.6756 52.382 2.5
      vertex 79.118 52.0979 2.5
    endloop
  endfacet
  facet normal 0.453994 0.891005 -0
    outer loop
      vertex 77.882 52.0979 2.5
      vertex 77.3244 52.382 7
      vertex 77.882 52.0979 7
    endloop
  endfacet
  facet normal 0.453994 0.891005 0
    outer loop
      vertex 77.3244 52.382 7
      vertex 77.882 52.0979 2.5
      vertex 77.3244 52.382 2.5
    endloop
  endfacet
  facet normal 0.156432 0.987689 -0
    outer loop
      vertex 78.5 52 2.5
      vertex 77.882 52.0979 7
      vertex 78.5 52 7
    endloop
  endfacet
  facet normal 0.156432 0.987689 0
    outer loop
      vertex 77.882 52.0979 7
      vertex 78.5 52 2.5
      vertex 77.882 52.0979 2.5
    endloop
  endfacet
  facet normal -0.891006 -0.453992 0
    outer loop
      vertex 80.4021 54.618 2.5
      vertex 80.118 55.1756 7
      vertex 80.118 55.1756 2.5
    endloop
  endfacet
  facet normal -0.891006 -0.453992 0
    outer loop
      vertex 80.118 55.1756 7
      vertex 80.4021 54.618 2.5
      vertex 80.4021 54.618 7
    endloop
  endfacet
  facet normal 0.987689 -0.156432 0
    outer loop
      vertex 76.5 54 7
      vertex 76.5979 54.618 2.5
      vertex 76.5979 54.618 7
    endloop
  endfacet
  facet normal 0.987689 -0.156432 0
    outer loop
      vertex 76.5979 54.618 2.5
      vertex 76.5 54 7
      vertex 76.5 54 2.5
    endloop
  endfacet
  facet normal 0.707104 0.70711 -0
    outer loop
      vertex 77.3244 52.382 2.5
      vertex 76.882 52.8244 7
      vertex 77.3244 52.382 7
    endloop
  endfacet
  facet normal 0.707104 0.70711 0
    outer loop
      vertex 76.882 52.8244 7
      vertex 77.3244 52.382 2.5
      vertex 76.882 52.8244 2.5
    endloop
  endfacet
  facet normal 0.891006 0.453992 0
    outer loop
      vertex 76.882 52.8244 7
      vertex 76.5979 53.382 2.5
      vertex 76.5979 53.382 7
    endloop
  endfacet
  facet normal 0.891006 0.453992 0
    outer loop
      vertex 76.5979 53.382 2.5
      vertex 76.882 52.8244 7
      vertex 76.882 52.8244 2.5
    endloop
  endfacet
  facet normal -0.987689 -0.156432 0
    outer loop
      vertex 80.5 54 2.5
      vertex 80.4021 54.618 7
      vertex 80.4021 54.618 2.5
    endloop
  endfacet
  facet normal -0.987689 -0.156432 0
    outer loop
      vertex 80.4021 54.618 7
      vertex 80.5 54 2.5
      vertex 80.5 54 7
    endloop
  endfacet
  facet normal 0.707104 -0.70711 0
    outer loop
      vertex 76.882 55.1756 2.5
      vertex 77.3244 55.618 7
      vertex 76.882 55.1756 7
    endloop
  endfacet
  facet normal 0.707104 -0.70711 0
    outer loop
      vertex 77.3244 55.618 7
      vertex 76.882 55.1756 2.5
      vertex 77.3244 55.618 2.5
    endloop
  endfacet
  facet normal 0.156432 -0.987689 8.37274e-07
    outer loop
      vertex 77.882 55.9021 2.5
      vertex 78.5 56 7
      vertex 77.882 55.9021 7
    endloop
  endfacet
  facet normal 0.156437 -0.987688 0
    outer loop
      vertex 78.5 56 7
      vertex 77.882 55.9021 2.5
      vertex 78.5 56 2.5
    endloop
  endfacet
  facet normal 0.891006 -0.453992 0
    outer loop
      vertex 76.5979 54.618 7
      vertex 76.882 55.1756 2.5
      vertex 76.882 55.1756 7
    endloop
  endfacet
  facet normal 0.891006 -0.453992 0
    outer loop
      vertex 76.882 55.1756 2.5
      vertex 76.5979 54.618 7
      vertex 76.5979 54.618 2.5
    endloop
  endfacet
  facet normal -0.453994 -0.891005 7.55314e-07
    outer loop
      vertex 79.118 55.9021 2.5
      vertex 79.6756 55.618 7
      vertex 79.118 55.9021 7
    endloop
  endfacet
  facet normal -0.45399 -0.891007 -0
    outer loop
      vertex 79.6756 55.618 7
      vertex 79.118 55.9021 2.5
      vertex 79.6756 55.618 2.5
    endloop
  endfacet
  facet normal -0.707104 -0.70711 0
    outer loop
      vertex 79.6756 55.618 2.5
      vertex 80.118 55.1756 7
      vertex 79.6756 55.618 7
    endloop
  endfacet
  facet normal -0.707104 -0.70711 -0
    outer loop
      vertex 80.118 55.1756 7
      vertex 79.6756 55.618 2.5
      vertex 80.118 55.1756 2.5
    endloop
  endfacet
  facet normal 0.453994 -0.891005 0
    outer loop
      vertex 77.3244 55.618 2.5
      vertex 77.882 55.9021 7
      vertex 77.3244 55.618 7
    endloop
  endfacet
  facet normal 0.45399 -0.891007 7.55316e-07
    outer loop
      vertex 77.882 55.9021 7
      vertex 77.3244 55.618 2.5
      vertex 77.882 55.9021 2.5
    endloop
  endfacet
  facet normal -0.866026 0.5 0
    outer loop
      vertex 88.5 51.2287 3.39384e-16
      vertex 90.1 54 2.5
      vertex 90.1 54 0
    endloop
  endfacet
  facet normal -0.866026 0.5 0
    outer loop
      vertex 90.1 54 2.5
      vertex 88.5 51.2287 3.39384e-16
      vertex 88.5 51.2287 2.5
    endloop
  endfacet
  facet normal 0.866025 0.500001 0
    outer loop
      vertex 85.3 51.2287 2.5
      vertex 83.7 54 0
      vertex 83.7 54 2.5
    endloop
  endfacet
  facet normal 0.866025 0.500001 0
    outer loop
      vertex 83.7 54 0
      vertex 85.3 51.2287 2.5
      vertex 85.3 51.2287 3.39384e-16
    endloop
  endfacet
  facet normal 0 1 -0
    outer loop
      vertex 88.5 51.2287 3.39384e-16
      vertex 85.3 51.2287 2.5
      vertex 88.5 51.2287 2.5
    endloop
  endfacet
  facet normal 0 1 0
    outer loop
      vertex 85.3 51.2287 2.5
      vertex 88.5 51.2287 3.39384e-16
      vertex 85.3 51.2287 3.39384e-16
    endloop
  endfacet
  facet normal 0 1.22465e-16 1
    outer loop
      vertex 90.1 54 0
      vertex 85.3 51.2287 3.39384e-16
      vertex 88.5 51.2287 3.39384e-16
    endloop
  endfacet
  facet normal 0 1.22465e-16 1
    outer loop
      vertex 85.3 51.2287 3.39384e-16
      vertex 90.1 54 0
      vertex 83.7 54 0
    endloop
  endfacet
  facet normal -0 0 -1
    outer loop
      vertex 90.1 54 2.5
      vertex 88.8021 53.382 2.5
      vertex 88.9 54 2.5
    endloop
  endfacet
  facet normal 0 0 -1
    outer loop
      vertex 90.1 54 2.5
      vertex 88.518 52.8244 2.5
      vertex 88.8021 53.382 2.5
    endloop
  endfacet
  facet normal 0 0 -1
    outer loop
      vertex 88.5 51.2287 2.5
      vertex 88.518 52.8244 2.5
      vertex 90.1 54 2.5
    endloop
  endfacet
  facet normal 0 0 -1
    outer loop
      vertex 88.5 51.2287 2.5
      vertex 88.0756 52.382 2.5
      vertex 88.518 52.8244 2.5
    endloop
  endfacet
  facet normal 0 0 -1
    outer loop
      vertex 88.5 51.2287 2.5
      vertex 87.518 52.0979 2.5
      vertex 88.0756 52.382 2.5
    endloop
  endfacet
  facet normal 0 0 -1
    outer loop
      vertex 88.5 51.2287 2.5
      vertex 86.9 52 2.5
      vertex 87.518 52.0979 2.5
    endloop
  endfacet
  facet normal 0 0 -1
    outer loop
      vertex 85.3 51.2287 2.5
      vertex 86.9 52 2.5
      vertex 88.5 51.2287 2.5
    endloop
  endfacet
  facet normal -0 0 -1
    outer loop
      vertex 86.9 52 2.5
      vertex 85.3 51.2287 2.5
      vertex 86.282 52.0979 2.5
    endloop
  endfacet
  facet normal 0 0 -1
    outer loop
      vertex 85.3 51.2287 2.5
      vertex 85.7244 52.382 2.5
      vertex 86.282 52.0979 2.5
    endloop
  endfacet
  facet normal 0 0 -1
    outer loop
      vertex 85.3 51.2287 2.5
      vertex 85.282 52.8244 2.5
      vertex 85.7244 52.382 2.5
    endloop
  endfacet
  facet normal 0 0 -1
    outer loop
      vertex 83.7 54 2.5
      vertex 85.282 52.8244 2.5
      vertex 85.3 51.2287 2.5
    endloop
  endfacet
  facet normal 0 0 -1
    outer loop
      vertex 85.282 52.8244 2.5
      vertex 83.7 54 2.5
      vertex 84.9979 53.382 2.5
    endloop
  endfacet
  facet normal 0 0 -1
    outer loop
      vertex 84.9979 53.382 2.5
      vertex 83.7 54 2.5
      vertex 84.9 54 2.5
    endloop
  endfacet
  facet normal 0 0 -1
    outer loop
      vertex 88.8021 54.618 2.5
      vertex 90.1 54 2.5
      vertex 88.9 54 2.5
    endloop
  endfacet
  facet normal 0 0 -1
    outer loop
      vertex 88.518 55.1756 2.5
      vertex 90.1 54 2.5
      vertex 88.8021 54.618 2.5
    endloop
  endfacet
  facet normal 0 0 -1
    outer loop
      vertex 88.518 55.1756 2.5
      vertex 88.5 56.7713 2.5
      vertex 90.1 54 2.5
    endloop
  endfacet
  facet normal 0 0 -1
    outer loop
      vertex 88.0756 55.618 2.5
      vertex 88.5 56.7713 2.5
      vertex 88.518 55.1756 2.5
    endloop
  endfacet
  facet normal 0 0 -1
    outer loop
      vertex 87.518 55.9021 2.5
      vertex 88.5 56.7713 2.5
      vertex 88.0756 55.618 2.5
    endloop
  endfacet
  facet normal 0 0 -1
    outer loop
      vertex 86.9 56 2.5
      vertex 88.5 56.7713 2.5
      vertex 87.518 55.9021 2.5
    endloop
  endfacet
  facet normal 0 0 -1
    outer loop
      vertex 85.3 56.7713 2.5
      vertex 86.9 56 2.5
      vertex 86.282 55.9021 2.5
    endloop
  endfacet
  facet normal 0 0 -1
    outer loop
      vertex 86.9 56 2.5
      vertex 85.3 56.7713 2.5
      vertex 88.5 56.7713 2.5
    endloop
  endfacet
  facet normal 0 0 -1
    outer loop
      vertex 85.7244 55.618 2.5
      vertex 85.3 56.7713 2.5
      vertex 86.282 55.9021 2.5
    endloop
  endfacet
  facet normal 0 0 -1
    outer loop
      vertex 85.282 55.1756 2.5
      vertex 85.3 56.7713 2.5
      vertex 85.7244 55.618 2.5
    endloop
  endfacet
  facet normal 0 0 -1
    outer loop
      vertex 83.7 54 2.5
      vertex 85.282 55.1756 2.5
      vertex 84.9979 54.618 2.5
    endloop
  endfacet
  facet normal 0 0 -1
    outer loop
      vertex 83.7 54 2.5
      vertex 84.9979 54.618 2.5
      vertex 84.9 54 2.5
    endloop
  endfacet
  facet normal -0 0 -1
    outer loop
      vertex 85.282 55.1756 2.5
      vertex 83.7 54 2.5
      vertex 85.3 56.7713 2.5
    endloop
  endfacet
  facet normal 0 -1 0
    outer loop
      vertex 85.3 56.7713 0
      vertex 88.5 56.7713 2.5
      vertex 85.3 56.7713 2.5
    endloop
  endfacet
  facet normal 0 -1 -0
    outer loop
      vertex 88.5 56.7713 2.5
      vertex 85.3 56.7713 0
      vertex 88.5 56.7713 0
    endloop
  endfacet
  facet normal 0.866025 -0.500001 0
    outer loop
      vertex 83.7 54 2.5
      vertex 85.3 56.7713 0
      vertex 85.3 56.7713 2.5
    endloop
  endfacet
  facet normal 0.866025 -0.500001 0
    outer loop
      vertex 85.3 56.7713 0
      vertex 83.7 54 2.5
      vertex 83.7 54 0
    endloop
  endfacet
  facet normal -0.866026 -0.5 0
    outer loop
      vertex 90.1 54 0
      vertex 88.5 56.7713 2.5
      vertex 88.5 56.7713 0
    endloop
  endfacet
  facet normal -0.866026 -0.5 0
    outer loop
      vertex 88.5 56.7713 2.5
      vertex 90.1 54 0
      vertex 90.1 54 2.5
    endloop
  endfacet
  facet normal -0.987689 0.156432 0
    outer loop
      vertex 88.8021 53.382 2.5
      vertex 88.9 54 7
      vertex 88.9 54 2.5
    endloop
  endfacet
  facet normal -0.987689 0.156432 0
    outer loop
      vertex 88.9 54 7
      vertex 88.8021 53.382 2.5
      vertex 88.8021 53.382 7
    endloop
  endfacet
  facet normal 0.987689 0.156432 0
    outer loop
      vertex 84.9979 53.382 7
      vertex 84.9 54 2.5
      vertex 84.9 54 7
    endloop
  endfacet
  facet normal 0.987689 0.156432 0
    outer loop
      vertex 84.9 54 2.5
      vertex 84.9979 53.382 7
      vertex 84.9979 53.382 2.5
    endloop
  endfacet
  facet normal -0.156432 0.987689 0
    outer loop
      vertex 87.518 52.0979 2.5
      vertex 86.9 52 7
      vertex 87.518 52.0979 7
    endloop
  endfacet
  facet normal -0.156432 0.987689 0
    outer loop
      vertex 86.9 52 7
      vertex 87.518 52.0979 2.5
      vertex 86.9 52 2.5
    endloop
  endfacet
  facet normal -0.156432 -0.987689 0
    outer loop
      vertex 86.9 56 2.5
      vertex 87.518 55.9021 7
      vertex 86.9 56 7
    endloop
  endfacet
  facet normal -0.156437 -0.987688 8.37273e-07
    outer loop
      vertex 87.518 55.9021 7
      vertex 86.9 56 2.5
      vertex 87.518 55.9021 2.5
    endloop
  endfacet
  facet normal 0 0 -1
    outer loop
      vertex 88.9 54 7
      vertex 88.518 55.1756 7
      vertex 88.8021 54.618 7
    endloop
  endfacet
  facet normal 0 0 -1
    outer loop
      vertex 88.9 54 7
      vertex 88.0756 55.618 7
      vertex 88.518 55.1756 7
    endloop
  endfacet
  facet normal 0 0 -1
    outer loop
      vertex 88.9 54 7
      vertex 87.518 55.9021 7
      vertex 88.0756 55.618 7
    endloop
  endfacet
  facet normal 0 0 -1
    outer loop
      vertex 88.9 54 7
      vertex 86.9 56 7
      vertex 87.518 55.9021 7
    endloop
  endfacet
  facet normal 0 0 -1
    outer loop
      vertex 88.9 54 7
      vertex 86.282 55.9021 7
      vertex 86.9 56 7
    endloop
  endfacet
  facet normal 0 0 -1
    outer loop
      vertex 88.9 54 7
      vertex 85.7244 55.618 7
      vertex 86.282 55.9021 7
    endloop
  endfacet
  facet normal 0 0 -1
    outer loop
      vertex 88.9 54 7
      vertex 85.282 55.1756 7
      vertex 85.7244 55.618 7
    endloop
  endfacet
  facet normal 0 0 -1
    outer loop
      vertex 88.9 54 7
      vertex 84.9979 54.618 7
      vertex 85.282 55.1756 7
    endloop
  endfacet
  facet normal 0 -0 -1
    outer loop
      vertex 84.9979 54.618 7
      vertex 88.9 54 7
      vertex 84.9 54 7
    endloop
  endfacet
  facet normal -0.707104 0.70711 0
    outer loop
      vertex 88.518 52.8244 2.5
      vertex 88.0756 52.382 7
      vertex 88.518 52.8244 7
    endloop
  endfacet
  facet normal -0.707104 0.70711 0
    outer loop
      vertex 88.0756 52.382 7
      vertex 88.518 52.8244 2.5
      vertex 88.0756 52.382 2.5
    endloop
  endfacet
  facet normal -0.891006 0.453992 0
    outer loop
      vertex 88.518 52.8244 2.5
      vertex 88.8021 53.382 7
      vertex 88.8021 53.382 2.5
    endloop
  endfacet
  facet normal -0.891006 0.453992 0
    outer loop
      vertex 88.8021 53.382 7
      vertex 88.518 52.8244 2.5
      vertex 88.518 52.8244 7
    endloop
  endfacet
  facet normal -0.453994 0.891005 0
    outer loop
      vertex 88.0756 52.382 2.5
      vertex 87.518 52.0979 7
      vertex 88.0756 52.382 7
    endloop
  endfacet
  facet normal -0.453994 0.891005 0
    outer loop
      vertex 87.518 52.0979 7
      vertex 88.0756 52.382 2.5
      vertex 87.518 52.0979 2.5
    endloop
  endfacet
  facet normal 0.45399 0.891007 -0
    outer loop
      vertex 86.282 52.0979 2.5
      vertex 85.7244 52.382 7
      vertex 86.282 52.0979 7
    endloop
  endfacet
  facet normal 0.45399 0.891007 0
    outer loop
      vertex 85.7244 52.382 7
      vertex 86.282 52.0979 2.5
      vertex 85.7244 52.382 2.5
    endloop
  endfacet
  facet normal 0.156432 0.987689 -0
    outer loop
      vertex 86.9 52 2.5
      vertex 86.282 52.0979 7
      vertex 86.9 52 7
    endloop
  endfacet
  facet normal 0.156432 0.987689 0
    outer loop
      vertex 86.282 52.0979 7
      vertex 86.9 52 2.5
      vertex 86.282 52.0979 2.5
    endloop
  endfacet
  facet normal -0.891006 -0.453992 0
    outer loop
      vertex 88.8021 54.618 2.5
      vertex 88.518 55.1756 7
      vertex 88.518 55.1756 2.5
    endloop
  endfacet
  facet normal -0.891006 -0.453992 0
    outer loop
      vertex 88.518 55.1756 7
      vertex 88.8021 54.618 2.5
      vertex 88.8021 54.618 7
    endloop
  endfacet
  facet normal 0.987689 -0.156432 0
    outer loop
      vertex 84.9 54 7
      vertex 84.9979 54.618 2.5
      vertex 84.9979 54.618 7
    endloop
  endfacet
  facet normal 0.987689 -0.156432 0
    outer loop
      vertex 84.9979 54.618 2.5
      vertex 84.9 54 7
      vertex 84.9 54 2.5
    endloop
  endfacet
  facet normal 0.70711 0.707104 0
    outer loop
      vertex 85.7244 52.382 7
      vertex 85.282 52.8244 2.5
      vertex 85.282 52.8244 7
    endloop
  endfacet
  facet normal 0.70711 0.707104 0
    outer loop
      vertex 85.282 52.8244 2.5
      vertex 85.7244 52.382 7
      vertex 85.7244 52.382 2.5
    endloop
  endfacet
  facet normal 0.891006 0.453992 0
    outer loop
      vertex 85.282 52.8244 7
      vertex 84.9979 53.382 2.5
      vertex 84.9979 53.382 7
    endloop
  endfacet
  facet normal 0.891006 0.453992 0
    outer loop
      vertex 84.9979 53.382 2.5
      vertex 85.282 52.8244 7
      vertex 85.282 52.8244 2.5
    endloop
  endfacet
  facet normal -0.987689 -0.156432 0
    outer loop
      vertex 88.9 54 2.5
      vertex 88.8021 54.618 7
      vertex 88.8021 54.618 2.5
    endloop
  endfacet
  facet normal -0.987689 -0.156432 0
    outer loop
      vertex 88.8021 54.618 7
      vertex 88.9 54 2.5
      vertex 88.9 54 7
    endloop
  endfacet
  facet normal 0.70711 -0.707104 0
    outer loop
      vertex 85.282 55.1756 7
      vertex 85.7244 55.618 2.5
      vertex 85.7244 55.618 7
    endloop
  endfacet
  facet normal 0.70711 -0.707104 0
    outer loop
      vertex 85.7244 55.618 2.5
      vertex 85.282 55.1756 7
      vertex 85.282 55.1756 2.5
    endloop
  endfacet
  facet normal 0.156432 -0.987689 8.37274e-07
    outer loop
      vertex 86.282 55.9021 2.5
      vertex 86.9 56 7
      vertex 86.282 55.9021 7
    endloop
  endfacet
  facet normal 0.156437 -0.987688 0
    outer loop
      vertex 86.9 56 7
      vertex 86.282 55.9021 2.5
      vertex 86.9 56 2.5
    endloop
  endfacet
  facet normal 0.891006 -0.453992 0
    outer loop
      vertex 84.9979 54.618 7
      vertex 85.282 55.1756 2.5
      vertex 85.282 55.1756 7
    endloop
  endfacet
  facet normal 0.891006 -0.453992 0
    outer loop
      vertex 85.282 55.1756 2.5
      vertex 84.9979 54.618 7
      vertex 84.9979 54.618 2.5
    endloop
  endfacet
  facet normal -0.453994 -0.891005 7.55314e-07
    outer loop
      vertex 87.518 55.9021 2.5
      vertex 88.0756 55.618 7
      vertex 87.518 55.9021 7
    endloop
  endfacet
  facet normal -0.45399 -0.891007 -0
    outer loop
      vertex 88.0756 55.618 7
      vertex 87.518 55.9021 2.5
      vertex 88.0756 55.618 2.5
    endloop
  endfacet
  facet normal -0.707104 -0.70711 0
    outer loop
      vertex 88.0756 55.618 2.5
      vertex 88.518 55.1756 7
      vertex 88.0756 55.618 7
    endloop
  endfacet
  facet normal -0.707104 -0.70711 -0
    outer loop
      vertex 88.518 55.1756 7
      vertex 88.0756 55.618 2.5
      vertex 88.518 55.1756 2.5
    endloop
  endfacet
  facet normal 0.45399 -0.891007 0
    outer loop
      vertex 85.7244 55.618 2.5
      vertex 86.282 55.9021 7
      vertex 85.7244 55.618 7
    endloop
  endfacet
  facet normal 0.453985 -0.891009 7.55318e-07
    outer loop
      vertex 86.282 55.9021 7
      vertex 85.7244 55.618 2.5
      vertex 86.282 55.9021 2.5
    endloop
  endfacet
  facet normal 1 -0 0
    outer loop
      vertex 92.1 34 7
      vertex 92.1 67.6 0
      vertex 92.1 67.6 7
    endloop
  endfacet
  facet normal 1 0 0
    outer loop
      vertex 92.1 67.6 0
      vertex 92.1 34 7
      vertex 92.1 34 0
    endloop
  endfacet
  facet normal 0 1 -0
    outer loop
      vertex 92.1 67.6 0
      vertex 63.5 67.6 7
      vertex 92.1 67.6 7
    endloop
  endfacet
  facet normal 0 1 0
    outer loop
      vertex 63.5 67.6 7
      vertex 92.1 67.6 0
      vertex 63.5 67.6 0
    endloop
  endfacet
  facet normal -0.866026 0.5 0
    outer loop
      vertex 80.1 59.6287 3.39384e-16
      vertex 81.7 62.4 2.5
      vertex 81.7 62.4 0
    endloop
  endfacet
  facet normal -0.866026 0.5 0
    outer loop
      vertex 81.7 62.4 2.5
      vertex 80.1 59.6287 3.39384e-16
      vertex 80.1 59.6287 2.5
    endloop
  endfacet
  facet normal 0.866026 0.5 0
    outer loop
      vertex 76.9 59.6287 2.5
      vertex 75.3 62.4 0
      vertex 75.3 62.4 2.5
    endloop
  endfacet
  facet normal 0.866026 0.5 0
    outer loop
      vertex 75.3 62.4 0
      vertex 76.9 59.6287 2.5
      vertex 76.9 59.6287 3.39384e-16
    endloop
  endfacet
  facet normal 0 1 -0
    outer loop
      vertex 80.1 59.6287 3.39384e-16
      vertex 76.9 59.6287 2.5
      vertex 80.1 59.6287 2.5
    endloop
  endfacet
  facet normal 0 1 0
    outer loop
      vertex 76.9 59.6287 2.5
      vertex 80.1 59.6287 3.39384e-16
      vertex 76.9 59.6287 3.39384e-16
    endloop
  endfacet
  facet normal 0 1.22465e-16 1
    outer loop
      vertex 81.7 62.4 0
      vertex 76.9 59.6287 3.39384e-16
      vertex 80.1 59.6287 3.39384e-16
    endloop
  endfacet
  facet normal 0 1.22465e-16 1
    outer loop
      vertex 76.9 59.6287 3.39384e-16
      vertex 81.7 62.4 0
      vertex 75.3 62.4 0
    endloop
  endfacet
  facet normal -0 0 -1
    outer loop
      vertex 81.7 62.4 2.5
      vertex 80.4021 61.782 2.5
      vertex 80.5 62.4 2.5
    endloop
  endfacet
  facet normal 0 0 -1
    outer loop
      vertex 81.7 62.4 2.5
      vertex 80.118 61.2244 2.5
      vertex 80.4021 61.782 2.5
    endloop
  endfacet
  facet normal 0 0 -1
    outer loop
      vertex 80.1 59.6287 2.5
      vertex 80.118 61.2244 2.5
      vertex 81.7 62.4 2.5
    endloop
  endfacet
  facet normal 0 0 -1
    outer loop
      vertex 80.1 59.6287 2.5
      vertex 79.6756 60.782 2.5
      vertex 80.118 61.2244 2.5
    endloop
  endfacet
  facet normal 0 0 -1
    outer loop
      vertex 80.1 59.6287 2.5
      vertex 79.118 60.4979 2.5
      vertex 79.6756 60.782 2.5
    endloop
  endfacet
  facet normal 0 0 -1
    outer loop
      vertex 80.1 59.6287 2.5
      vertex 78.5 60.4 2.5
      vertex 79.118 60.4979 2.5
    endloop
  endfacet
  facet normal 0 0 -1
    outer loop
      vertex 76.9 59.6287 2.5
      vertex 78.5 60.4 2.5
      vertex 80.1 59.6287 2.5
    endloop
  endfacet
  facet normal -0 0 -1
    outer loop
      vertex 78.5 60.4 2.5
      vertex 76.9 59.6287 2.5
      vertex 77.882 60.4979 2.5
    endloop
  endfacet
  facet normal 0 0 -1
    outer loop
      vertex 76.9 59.6287 2.5
      vertex 77.3244 60.782 2.5
      vertex 77.882 60.4979 2.5
    endloop
  endfacet
  facet normal 0 0 -1
    outer loop
      vertex 76.9 59.6287 2.5
      vertex 76.882 61.2244 2.5
      vertex 77.3244 60.782 2.5
    endloop
  endfacet
  facet normal 0 0 -1
    outer loop
      vertex 75.3 62.4 2.5
      vertex 76.882 61.2244 2.5
      vertex 76.9 59.6287 2.5
    endloop
  endfacet
  facet normal 0 0 -1
    outer loop
      vertex 76.882 61.2244 2.5
      vertex 75.3 62.4 2.5
      vertex 76.5979 61.782 2.5
    endloop
  endfacet
  facet normal 0 0 -1
    outer loop
      vertex 76.5979 61.782 2.5
      vertex 75.3 62.4 2.5
      vertex 76.5 62.4 2.5
    endloop
  endfacet
  facet normal 0 0 -1
    outer loop
      vertex 80.4021 63.018 2.5
      vertex 81.7 62.4 2.5
      vertex 80.5 62.4 2.5
    endloop
  endfacet
  facet normal 0 0 -1
    outer loop
      vertex 80.118 63.5756 2.5
      vertex 81.7 62.4 2.5
      vertex 80.4021 63.018 2.5
    endloop
  endfacet
  facet normal 0 0 -1
    outer loop
      vertex 80.118 63.5756 2.5
      vertex 80.1 65.1713 2.5
      vertex 81.7 62.4 2.5
    endloop
  endfacet
  facet normal 0 0 -1
    outer loop
      vertex 79.6756 64.018 2.5
      vertex 80.1 65.1713 2.5
      vertex 80.118 63.5756 2.5
    endloop
  endfacet
  facet normal 0 0 -1
    outer loop
      vertex 79.118 64.3021 2.5
      vertex 80.1 65.1713 2.5
      vertex 79.6756 64.018 2.5
    endloop
  endfacet
  facet normal 0 0 -1
    outer loop
      vertex 78.5 64.4 2.5
      vertex 80.1 65.1713 2.5
      vertex 79.118 64.3021 2.5
    endloop
  endfacet
  facet normal 0 0 -1
    outer loop
      vertex 76.9 65.1713 2.5
      vertex 78.5 64.4 2.5
      vertex 77.882 64.3021 2.5
    endloop
  endfacet
  facet normal 0 0 -1
    outer loop
      vertex 78.5 64.4 2.5
      vertex 76.9 65.1713 2.5
      vertex 80.1 65.1713 2.5
    endloop
  endfacet
  facet normal 0 0 -1
    outer loop
      vertex 77.3244 64.018 2.5
      vertex 76.9 65.1713 2.5
      vertex 77.882 64.3021 2.5
    endloop
  endfacet
  facet normal 0 0 -1
    outer loop
      vertex 76.882 63.5756 2.5
      vertex 76.9 65.1713 2.5
      vertex 77.3244 64.018 2.5
    endloop
  endfacet
  facet normal 0 0 -1
    outer loop
      vertex 75.3 62.4 2.5
      vertex 76.882 63.5756 2.5
      vertex 76.5979 63.018 2.5
    endloop
  endfacet
  facet normal 0 0 -1
    outer loop
      vertex 75.3 62.4 2.5
      vertex 76.5979 63.018 2.5
      vertex 76.5 62.4 2.5
    endloop
  endfacet
  facet normal -0 0 -1
    outer loop
      vertex 76.882 63.5756 2.5
      vertex 75.3 62.4 2.5
      vertex 76.9 65.1713 2.5
    endloop
  endfacet
  facet normal 0 -1 0
    outer loop
      vertex 76.9 65.1713 0
      vertex 80.1 65.1713 2.5
      vertex 76.9 65.1713 2.5
    endloop
  endfacet
  facet normal 0 -1 -0
    outer loop
      vertex 80.1 65.1713 2.5
      vertex 76.9 65.1713 0
      vertex 80.1 65.1713 0
    endloop
  endfacet
  facet normal 0.866025 -0.5 0
    outer loop
      vertex 75.3 62.4 2.5
      vertex 76.9 65.1713 0
      vertex 76.9 65.1713 2.5
    endloop
  endfacet
  facet normal 0.866025 -0.5 0
    outer loop
      vertex 76.9 65.1713 0
      vertex 75.3 62.4 2.5
      vertex 75.3 62.4 0
    endloop
  endfacet
  facet normal -0.866025 -0.5 0
    outer loop
      vertex 81.7 62.4 0
      vertex 80.1 65.1713 2.5
      vertex 80.1 65.1713 0
    endloop
  endfacet
  facet normal -0.866025 -0.5 0
    outer loop
      vertex 80.1 65.1713 2.5
      vertex 81.7 62.4 0
      vertex 81.7 62.4 2.5
    endloop
  endfacet
  facet normal -0.987689 0.156432 0
    outer loop
      vertex 80.4021 61.782 2.5
      vertex 80.5 62.4 7
      vertex 80.5 62.4 2.5
    endloop
  endfacet
  facet normal -0.987689 0.156432 0
    outer loop
      vertex 80.5 62.4 7
      vertex 80.4021 61.782 2.5
      vertex 80.4021 61.782 7
    endloop
  endfacet
  facet normal 0.987689 0.156432 0
    outer loop
      vertex 76.5979 61.782 7
      vertex 76.5 62.4 2.5
      vertex 76.5 62.4 7
    endloop
  endfacet
  facet normal 0.987689 0.156432 0
    outer loop
      vertex 76.5 62.4 2.5
      vertex 76.5979 61.782 7
      vertex 76.5979 61.782 2.5
    endloop
  endfacet
  facet normal -0.156432 0.987689 0
    outer loop
      vertex 79.118 60.4979 2.5
      vertex 78.5 60.4 7
      vertex 79.118 60.4979 7
    endloop
  endfacet
  facet normal -0.156432 0.987689 0
    outer loop
      vertex 78.5 60.4 7
      vertex 79.118 60.4979 2.5
      vertex 78.5 60.4 2.5
    endloop
  endfacet
  facet normal -0.156432 -0.987689 0
    outer loop
      vertex 78.5 64.4 2.5
      vertex 79.118 64.3021 7
      vertex 78.5 64.4 7
    endloop
  endfacet
  facet normal -0.156432 -0.987689 -0
    outer loop
      vertex 79.118 64.3021 7
      vertex 78.5 64.4 2.5
      vertex 79.118 64.3021 2.5
    endloop
  endfacet
  facet normal 0 0 -1
    outer loop
      vertex 80.5 62.4 7
      vertex 80.118 63.5756 7
      vertex 80.4021 63.018 7
    endloop
  endfacet
  facet normal 0 0 -1
    outer loop
      vertex 80.5 62.4 7
      vertex 79.6756 64.018 7
      vertex 80.118 63.5756 7
    endloop
  endfacet
  facet normal 0 0 -1
    outer loop
      vertex 80.5 62.4 7
      vertex 79.118 64.3021 7
      vertex 79.6756 64.018 7
    endloop
  endfacet
  facet normal 0 0 -1
    outer loop
      vertex 80.5 62.4 7
      vertex 78.5 64.4 7
      vertex 79.118 64.3021 7
    endloop
  endfacet
  facet normal 0 0 -1
    outer loop
      vertex 80.5 62.4 7
      vertex 77.882 64.3021 7
      vertex 78.5 64.4 7
    endloop
  endfacet
  facet normal 0 0 -1
    outer loop
      vertex 80.5 62.4 7
      vertex 77.3244 64.018 7
      vertex 77.882 64.3021 7
    endloop
  endfacet
  facet normal 0 0 -1
    outer loop
      vertex 80.5 62.4 7
      vertex 76.882 63.5756 7
      vertex 77.3244 64.018 7
    endloop
  endfacet
  facet normal 0 0 -1
    outer loop
      vertex 80.5 62.4 7
      vertex 76.5979 63.018 7
      vertex 76.882 63.5756 7
    endloop
  endfacet
  facet normal 0 -0 -1
    outer loop
      vertex 76.5979 63.018 7
      vertex 80.5 62.4 7
      vertex 76.5 62.4 7
    endloop
  endfacet
  facet normal -0.707104 0.70711 0
    outer loop
      vertex 80.118 61.2244 2.5
      vertex 79.6756 60.782 7
      vertex 80.118 61.2244 7
    endloop
  endfacet
  facet normal -0.707104 0.70711 0
    outer loop
      vertex 79.6756 60.782 7
      vertex 80.118 61.2244 2.5
      vertex 79.6756 60.782 2.5
    endloop
  endfacet
  facet normal -0.891006 0.453992 0
    outer loop
      vertex 80.118 61.2244 2.5
      vertex 80.4021 61.782 7
      vertex 80.4021 61.782 2.5
    endloop
  endfacet
  facet normal -0.891006 0.453992 0
    outer loop
      vertex 80.4021 61.782 7
      vertex 80.118 61.2244 2.5
      vertex 80.118 61.2244 7
    endloop
  endfacet
  facet normal -0.453994 0.891005 0
    outer loop
      vertex 79.6756 60.782 2.5
      vertex 79.118 60.4979 7
      vertex 79.6756 60.782 7
    endloop
  endfacet
  facet normal -0.453994 0.891005 0
    outer loop
      vertex 79.118 60.4979 7
      vertex 79.6756 60.782 2.5
      vertex 79.118 60.4979 2.5
    endloop
  endfacet
  facet normal 0.453994 0.891005 -0
    outer loop
      vertex 77.882 60.4979 2.5
      vertex 77.3244 60.782 7
      vertex 77.882 60.4979 7
    endloop
  endfacet
  facet normal 0.453994 0.891005 0
    outer loop
      vertex 77.3244 60.782 7
      vertex 77.882 60.4979 2.5
      vertex 77.3244 60.782 2.5
    endloop
  endfacet
  facet normal 0.156432 0.987689 -0
    outer loop
      vertex 78.5 60.4 2.5
      vertex 77.882 60.4979 7
      vertex 78.5 60.4 7
    endloop
  endfacet
  facet normal 0.156432 0.987689 0
    outer loop
      vertex 77.882 60.4979 7
      vertex 78.5 60.4 2.5
      vertex 77.882 60.4979 2.5
    endloop
  endfacet
  facet normal -0.891006 -0.453992 0
    outer loop
      vertex 80.4021 63.018 2.5
      vertex 80.118 63.5756 7
      vertex 80.118 63.5756 2.5
    endloop
  endfacet
  facet normal -0.891006 -0.453992 0
    outer loop
      vertex 80.118 63.5756 7
      vertex 80.4021 63.018 2.5
      vertex 80.4021 63.018 7
    endloop
  endfacet
  facet normal 0.987689 -0.156432 0
    outer loop
      vertex 76.5 62.4 7
      vertex 76.5979 63.018 2.5
      vertex 76.5979 63.018 7
    endloop
  endfacet
  facet normal 0.987689 -0.156432 0
    outer loop
      vertex 76.5979 63.018 2.5
      vertex 76.5 62.4 7
      vertex 76.5 62.4 2.5
    endloop
  endfacet
  facet normal 0.707104 0.70711 -0
    outer loop
      vertex 77.3244 60.782 2.5
      vertex 76.882 61.2244 7
      vertex 77.3244 60.782 7
    endloop
  endfacet
  facet normal 0.707104 0.70711 0
    outer loop
      vertex 76.882 61.2244 7
      vertex 77.3244 60.782 2.5
      vertex 76.882 61.2244 2.5
    endloop
  endfacet
  facet normal 0.891006 0.453992 0
    outer loop
      vertex 76.882 61.2244 7
      vertex 76.5979 61.782 2.5
      vertex 76.5979 61.782 7
    endloop
  endfacet
  facet normal 0.891006 0.453992 0
    outer loop
      vertex 76.5979 61.782 2.5
      vertex 76.882 61.2244 7
      vertex 76.882 61.2244 2.5
    endloop
  endfacet
  facet normal -0.987689 -0.156432 0
    outer loop
      vertex 80.5 62.4 2.5
      vertex 80.4021 63.018 7
      vertex 80.4021 63.018 2.5
    endloop
  endfacet
  facet normal -0.987689 -0.156432 0
    outer loop
      vertex 80.4021 63.018 7
      vertex 80.5 62.4 2.5
      vertex 80.5 62.4 7
    endloop
  endfacet
  facet normal 0.707107 -0.707107 0
    outer loop
      vertex 76.882 63.5756 7
      vertex 77.3244 64.018 2.5
      vertex 77.3244 64.018 7
    endloop
  endfacet
  facet normal 0.707107 -0.707107 0
    outer loop
      vertex 77.3244 64.018 2.5
      vertex 76.882 63.5756 7
      vertex 76.882 63.5756 2.5
    endloop
  endfacet
  facet normal 0.156432 -0.987689 0
    outer loop
      vertex 77.882 64.3021 2.5
      vertex 78.5 64.4 7
      vertex 77.882 64.3021 7
    endloop
  endfacet
  facet normal 0.156432 -0.987689 0
    outer loop
      vertex 78.5 64.4 7
      vertex 77.882 64.3021 2.5
      vertex 78.5 64.4 2.5
    endloop
  endfacet
  facet normal 0.891006 -0.453992 0
    outer loop
      vertex 76.5979 63.018 7
      vertex 76.882 63.5756 2.5
      vertex 76.882 63.5756 7
    endloop
  endfacet
  facet normal 0.891006 -0.453992 0
    outer loop
      vertex 76.882 63.5756 2.5
      vertex 76.5979 63.018 7
      vertex 76.5979 63.018 2.5
    endloop
  endfacet
  facet normal -0.453994 -0.891005 0
    outer loop
      vertex 79.118 64.3021 2.5
      vertex 79.6756 64.018 7
      vertex 79.118 64.3021 7
    endloop
  endfacet
  facet normal -0.453994 -0.891005 -0
    outer loop
      vertex 79.6756 64.018 7
      vertex 79.118 64.3021 2.5
      vertex 79.6756 64.018 2.5
    endloop
  endfacet
  facet normal -0.707107 -0.707107 0
    outer loop
      vertex 80.118 63.5756 2.5
      vertex 79.6756 64.018 7
      vertex 79.6756 64.018 2.5
    endloop
  endfacet
  facet normal -0.707107 -0.707107 0
    outer loop
      vertex 79.6756 64.018 7
      vertex 80.118 63.5756 2.5
      vertex 80.118 63.5756 7
    endloop
  endfacet
  facet normal 0.453994 -0.891005 0
    outer loop
      vertex 77.3244 64.018 2.5
      vertex 77.882 64.3021 7
      vertex 77.3244 64.018 7
    endloop
  endfacet
  facet normal 0.453994 -0.891005 0
    outer loop
      vertex 77.882 64.3021 7
      vertex 77.3244 64.018 2.5
      vertex 77.882 64.3021 2.5
    endloop
  endfacet
  facet normal -1 0 0
    outer loop
      vertex 63.5 67.6 0
      vertex 63.5 50 1.5
      vertex 63.5 67.6 7
    endloop
  endfacet
  facet normal -1 0 0
    outer loop
      vertex 63.5 48.5 0
      vertex 63.5 50 1.5
      vertex 63.5 67.6 0
    endloop
  endfacet
  facet normal -1 -0 0
    outer loop
      vertex 63.5 50 1.5
      vertex 63.5 48.5 0
      vertex 63.5 48.5 1.5
    endloop
  endfacet
  facet normal -1 -0 0
    outer loop
      vertex 63.5 67.6 7
      vertex 63.5 50 1.5
      vertex 63.5 50 7
    endloop
  endfacet
  facet normal 0 -1 0
    outer loop
      vertex 80.5 34 1.5
      vertex 80.5 34 0
      vertex 82.5 34 1.5
    endloop
  endfacet
  facet normal 0 -1 0
    outer loop
      vertex 82.5 34 1.5
      vertex 92.1 34 7
      vertex 82.5 34 7
    endloop
  endfacet
  facet normal 0 -1 0
    outer loop
      vertex 92.1 34 0
      vertex 82.5 34 1.5
      vertex 80.5 34 0
    endloop
  endfacet
  facet normal 0 -1 0
    outer loop
      vertex 82.5 34 1.5
      vertex 92.1 34 0
      vertex 92.1 34 7
    endloop
  endfacet
endsolid OpenSCAD_Model
