solid OpenSCAD_Model
  facet normal -1 0 0
    outer loop
      vertex 0 0 0
      vertex 0 0 6
      vertex 0 60 0
    endloop
  endfacet
  facet normal -1 0 0
    outer loop
      vertex 0 60 0
      vertex 0 0 6
      vertex 0 60 6
    endloop
  endfacet
  facet normal 0 -1 0
    outer loop
      vertex 0 0 6
      vertex 0 0 0
      vertex 18 0 0
    endloop
  endfacet
  facet normal 0 -1 0
    outer loop
      vertex 18 0 6
      vertex 0 0 6
      vertex 18 0 0
    endloop
  endfacet
  facet normal 0 0 -1
    outer loop
      vertex 9 52 0
      vertex 0 60 0
      vertex 18 60 0
    endloop
  endfacet
  facet normal 0 0 -1
    outer loop
      vertex 0 0 0
      vertex 0 60 0
      vertex 7 5 0
    endloop
  endfacet
  facet normal 0 0 -1
    outer loop
      vertex 0 0 0
      vertex 7 5 0
      vertex 7.09789 4.38197 0
    endloop
  endfacet
  facet normal 0 0 -1
    outer loop
      vertex 0 0 0
      vertex 7.09789 4.38197 0
      vertex 7.38197 3.82443 0
    endloop
  endfacet
  facet normal 0 0 -1
    outer loop
      vertex 0 0 0
      vertex 7.38197 3.82443 0
      vertex 7.82443 3.38197 0
    endloop
  endfacet
  facet normal 0 0 -1
    outer loop
      vertex 0 0 0
      vertex 7.82443 3.38197 0
      vertex 8.38197 3.09789 0
    endloop
  endfacet
  facet normal 0 0 -1
    outer loop
      vertex 0 0 0
      vertex 8.38197 3.09789 0
      vertex 18 0 0
    endloop
  endfacet
  facet normal 0 0 -1
    outer loop
      vertex 9.61803 3.09789 0
      vertex 18 0 0
      vertex 9 3 0
    endloop
  endfacet
  facet normal 0 0 -1
    outer loop
      vertex 10.1756 3.38197 0
      vertex 18 0 0
      vertex 9.61803 3.09789 0
    endloop
  endfacet
  facet normal 0 0 -1
    outer loop
      vertex 10.618 3.82443 0
      vertex 18 0 0
      vertex 10.1756 3.38197 0
    endloop
  endfacet
  facet normal 0 0 -1
    outer loop
      vertex 7.82443 14.618 0
      vertex 0 60 0
      vertex 8.38197 14.9021 0
    endloop
  endfacet
  facet normal 0 0 -1
    outer loop
      vertex 8.38197 21.0979 0
      vertex 9 15 0
      vertex 7.82443 21.382 0
    endloop
  endfacet
  facet normal 0 0 -1
    outer loop
      vertex 10.618 3.82443 0
      vertex 10.9021 4.38197 0
      vertex 18 0 0
    endloop
  endfacet
  facet normal 0 0 -1
    outer loop
      vertex 10.1756 11.382 0
      vertex 10.618 6.17557 0
      vertex 9.61803 11.0979 0
    endloop
  endfacet
  facet normal 0 0 -1
    outer loop
      vertex 10.9021 4.38197 0
      vertex 11 5 0
      vertex 18 0 0
    endloop
  endfacet
  facet normal 0 0 -1
    outer loop
      vertex 11 5 0
      vertex 10.9021 5.61803 0
      vertex 18 0 0
    endloop
  endfacet
  facet normal 0 0 -1
    outer loop
      vertex 8.38197 21.0979 0
      vertex 9.61803 14.9021 0
      vertex 9 15 0
    endloop
  endfacet
  facet normal 0 0 -1
    outer loop
      vertex 7.38197 21.8244 0
      vertex 8.38197 14.9021 0
      vertex 7.09789 22.382 0
    endloop
  endfacet
  facet normal 0 0 -1
    outer loop
      vertex 7.38197 14.1756 0
      vertex 0 60 0
      vertex 7.82443 14.618 0
    endloop
  endfacet
  facet normal 0 0 -1
    outer loop
      vertex 7.09789 13.618 0
      vertex 0 60 0
      vertex 7.38197 14.1756 0
    endloop
  endfacet
  facet normal 0 0 -1
    outer loop
      vertex 7.38197 6.17557 0
      vertex 0 60 0
      vertex 7.82443 6.61803 0
    endloop
  endfacet
  facet normal 0 0 -1
    outer loop
      vertex 7.09789 5.61803 0
      vertex 0 60 0
      vertex 7.38197 6.17557 0
    endloop
  endfacet
  facet normal 0 0 -1
    outer loop
      vertex 7 5 0
      vertex 0 60 0
      vertex 7.09789 5.61803 0
    endloop
  endfacet
  facet normal 0 0 -1
    outer loop
      vertex 7.82443 6.61803 0
      vertex 0 60 0
      vertex 7 13 0
    endloop
  endfacet
  facet normal 0 0 -1
    outer loop
      vertex 7.82443 6.61803 0
      vertex 7 13 0
      vertex 7.09789 12.382 0
    endloop
  endfacet
  facet normal 0 0 -1
    outer loop
      vertex 7.82443 6.61803 0
      vertex 7.09789 12.382 0
      vertex 8.38197 6.90211 0
    endloop
  endfacet
  facet normal 0 0 -1
    outer loop
      vertex 7 23 0
      vertex 0 60 0
      vertex 7.09789 23.618 0
    endloop
  endfacet
  facet normal 0 0 -1
    outer loop
      vertex 7.82443 11.382 0
      vertex 8.38197 6.90211 0
      vertex 7.38197 11.8244 0
    endloop
  endfacet
  facet normal 0 0 -1
    outer loop
      vertex 8.38197 11.0979 0
      vertex 9 7 0
      vertex 7.82443 11.382 0
    endloop
  endfacet
  facet normal 0 0 -1
    outer loop
      vertex 8.38197 6.90211 0
      vertex 7.82443 11.382 0
      vertex 9 7 0
    endloop
  endfacet
  facet normal 0 0 -1
    outer loop
      vertex 9 11 0
      vertex 9.61803 6.90211 0
      vertex 8.38197 11.0979 0
    endloop
  endfacet
  facet normal 0 0 -1
    outer loop
      vertex 9 7 0
      vertex 8.38197 11.0979 0
      vertex 9.61803 6.90211 0
    endloop
  endfacet
  facet normal 0 0 -1
    outer loop
      vertex 9.61803 11.0979 0
      vertex 10.1756 6.61803 0
      vertex 9 11 0
    endloop
  endfacet
  facet normal 0 0 -1
    outer loop
      vertex 7.38197 11.8244 0
      vertex 8.38197 6.90211 0
      vertex 7.09789 12.382 0
    endloop
  endfacet
  facet normal 0 0 -1
    outer loop
      vertex 9.61803 6.90211 0
      vertex 9 11 0
      vertex 10.1756 6.61803 0
    endloop
  endfacet
  facet normal 0 0 -1
    outer loop
      vertex 8.38197 14.9021 0
      vertex 7.38197 21.8244 0
      vertex 9 15 0
    endloop
  endfacet
  facet normal 0 0 -1
    outer loop
      vertex 10.9021 5.61803 0
      vertex 10.1756 11.382 0
      vertex 18 0 0
    endloop
  endfacet
  facet normal 0 0 -1
    outer loop
      vertex 9 21 0
      vertex 9.61803 14.9021 0
      vertex 8.38197 21.0979 0
    endloop
  endfacet
  facet normal 0 0 -1
    outer loop
      vertex 10.1756 11.382 0
      vertex 10.618 11.8244 0
      vertex 18 0 0
    endloop
  endfacet
  facet normal 0 0 -1
    outer loop
      vertex 10.618 11.8244 0
      vertex 10.9021 12.382 0
      vertex 18 0 0
    endloop
  endfacet
  facet normal 0 0 -1
    outer loop
      vertex 9.61803 21.0979 0
      vertex 10.9021 13.618 0
      vertex 10.618 14.1756 0
    endloop
  endfacet
  facet normal 0 0 -1
    outer loop
      vertex 10.9021 12.382 0
      vertex 11 13 0
      vertex 18 0 0
    endloop
  endfacet
  facet normal 0 0 -1
    outer loop
      vertex 10.1756 14.618 0
      vertex 9 21 0
      vertex 10.618 14.1756 0
    endloop
  endfacet
  facet normal 0 0 -1
    outer loop
      vertex 11 13 0
      vertex 10.9021 13.618 0
      vertex 18 0 0
    endloop
  endfacet
  facet normal 0 0 -1
    outer loop
      vertex 9.61803 21.0979 0
      vertex 10.618 14.1756 0
      vertex 9 21 0
    endloop
  endfacet
  facet normal 0 0 -1
    outer loop
      vertex 7.82443 21.382 0
      vertex 9 15 0
      vertex 7.38197 21.8244 0
    endloop
  endfacet
  facet normal 0 0 -1
    outer loop
      vertex 7 13 0
      vertex 0 60 0
      vertex 7.09789 13.618 0
    endloop
  endfacet
  facet normal 0 0 -1
    outer loop
      vertex 8.38197 14.9021 0
      vertex 0 60 0
      vertex 7.09789 22.382 0
    endloop
  endfacet
  facet normal 0 0 -1
    outer loop
      vertex 7.09789 22.382 0
      vertex 0 60 0
      vertex 7 23 0
    endloop
  endfacet
  facet normal 0 0 -1
    outer loop
      vertex 7.82443 34.382 0
      vertex 10.9021 23.618 0
      vertex 10.618 24.1756 0
    endloop
  endfacet
  facet normal 0 0 -1
    outer loop
      vertex 9 21 0
      vertex 10.1756 14.618 0
      vertex 9.61803 14.9021 0
    endloop
  endfacet
  facet normal 0 0 -1
    outer loop
      vertex 7.82443 24.618 0
      vertex 0 60 0
      vertex 8.38197 24.9021 0
    endloop
  endfacet
  facet normal 0 0 -1
    outer loop
      vertex 10.9021 13.618 0
      vertex 9.61803 21.0979 0
      vertex 18 0 0
    endloop
  endfacet
  facet normal 0 0 -1
    outer loop
      vertex 8.38197 24.9021 0
      vertex 0 60 0
      vertex 9 25 0
    endloop
  endfacet
  facet normal 0 0 -1
    outer loop
      vertex 9.61803 21.0979 0
      vertex 10.1756 21.382 0
      vertex 18 0 0
    endloop
  endfacet
  facet normal 0 0 -1
    outer loop
      vertex 9 25 0
      vertex 0 60 0
      vertex 9.61803 24.9021 0
    endloop
  endfacet
  facet normal 0 0 -1
    outer loop
      vertex 10.1756 21.382 0
      vertex 10.618 21.8244 0
      vertex 18 0 0
    endloop
  endfacet
  facet normal 0 0 -1
    outer loop
      vertex 10.618 21.8244 0
      vertex 10.9021 22.382 0
      vertex 18 0 0
    endloop
  endfacet
  facet normal 0 0 -1
    outer loop
      vertex 7.09789 35.382 0
      vertex 0 60 0
      vertex 7 36 0
    endloop
  endfacet
  facet normal 0 0 -1
    outer loop
      vertex 10.9021 22.382 0
      vertex 11 23 0
      vertex 18 0 0
    endloop
  endfacet
  facet normal 0 0 -1
    outer loop
      vertex 7.82443 34.382 0
      vertex 10.618 24.1756 0
      vertex 7.38197 34.8244 0
    endloop
  endfacet
  facet normal 0 0 -1
    outer loop
      vertex 11 23 0
      vertex 10.9021 23.618 0
      vertex 18 0 0
    endloop
  endfacet
  facet normal 0 0 -1
    outer loop
      vertex 7.38197 34.8244 0
      vertex 10.1756 24.618 0
      vertex 7.09789 35.382 0
    endloop
  endfacet
  facet normal 0 0 -1
    outer loop
      vertex 7.38197 24.1756 0
      vertex 0 60 0
      vertex 7.82443 24.618 0
    endloop
  endfacet
  facet normal 0 0 -1
    outer loop
      vertex 7.09789 23.618 0
      vertex 0 60 0
      vertex 7.38197 24.1756 0
    endloop
  endfacet
  facet normal 0 0 -1
    outer loop
      vertex 7 36 0
      vertex 0 60 0
      vertex 7.09789 36.618 0
    endloop
  endfacet
  facet normal 0 0 -1
    outer loop
      vertex 10.1756 24.618 0
      vertex 0 60 0
      vertex 7.09789 35.382 0
    endloop
  endfacet
  facet normal 0 0 -1
    outer loop
      vertex 9.61803 24.9021 0
      vertex 0 60 0
      vertex 10.1756 24.618 0
    endloop
  endfacet
  facet normal 0 0 -1
    outer loop
      vertex 7.38197 34.8244 0
      vertex 10.618 24.1756 0
      vertex 10.1756 24.618 0
    endloop
  endfacet
  facet normal 0 0 -1
    outer loop
      vertex 7.82443 34.382 0
      vertex 18 0 0
      vertex 10.9021 23.618 0
    endloop
  endfacet
  facet normal 0 0 -1
    outer loop
      vertex 7.38197 48.8244 0
      vertex 9 38 0
      vertex 7.09789 49.382 0
    endloop
  endfacet
  facet normal 0 0 -1
    outer loop
      vertex 18 0 0
      vertex 7.82443 34.382 0
      vertex 8.38197 34.0979 0
    endloop
  endfacet
  facet normal 0 0 -1
    outer loop
      vertex 18 0 0
      vertex 8.38197 34.0979 0
      vertex 9 34 0
    endloop
  endfacet
  facet normal 0 0 -1
    outer loop
      vertex 18 0 0
      vertex 9 34 0
      vertex 9.61803 34.0979 0
    endloop
  endfacet
  facet normal 0 0 -1
    outer loop
      vertex 18 0 0
      vertex 9.61803 34.0979 0
      vertex 10.1756 34.382 0
    endloop
  endfacet
  facet normal 0 0 -1
    outer loop
      vertex 18 0 0
      vertex 10.1756 34.382 0
      vertex 10.618 34.8244 0
    endloop
  endfacet
  facet normal 0 0 -1
    outer loop
      vertex 18 0 0
      vertex 10.618 34.8244 0
      vertex 10.9021 35.382 0
    endloop
  endfacet
  facet normal 0 0 -1
    outer loop
      vertex 18 0 0
      vertex 10.9021 35.382 0
      vertex 18 60 0
    endloop
  endfacet
  facet normal 0 0 -1
    outer loop
      vertex 10.9021 35.382 0
      vertex 11 36 0
      vertex 18 60 0
    endloop
  endfacet
  facet normal 0 0 -1
    outer loop
      vertex 10.618 37.1756 0
      vertex 18 60 0
      vertex 10.9021 36.618 0
    endloop
  endfacet
  facet normal 0 0 -1
    outer loop
      vertex 10.1756 37.618 0
      vertex 18 60 0
      vertex 10.618 37.1756 0
    endloop
  endfacet
  facet normal 0 0 -1
    outer loop
      vertex 9.61803 37.9021 0
      vertex 18 60 0
      vertex 10.1756 37.618 0
    endloop
  endfacet
  facet normal 0 0 -1
    outer loop
      vertex 9 38 0
      vertex 18 60 0
      vertex 9.61803 37.9021 0
    endloop
  endfacet
  facet normal 0 0 -1
    outer loop
      vertex 8.38197 37.9021 0
      vertex 0 60 0
      vertex 9 38 0
    endloop
  endfacet
  facet normal 0 0 -1
    outer loop
      vertex 7.09789 36.618 0
      vertex 0 60 0
      vertex 7.38197 37.1756 0
    endloop
  endfacet
  facet normal 0 0 -1
    outer loop
      vertex 7.82443 37.618 0
      vertex 0 60 0
      vertex 8.38197 37.9021 0
    endloop
  endfacet
  facet normal 0 0 -1
    outer loop
      vertex 7.38197 37.1756 0
      vertex 0 60 0
      vertex 7.82443 37.618 0
    endloop
  endfacet
  facet normal 0 0 -1
    outer loop
      vertex 10.9021 36.618 0
      vertex 18 60 0
      vertex 11 36 0
    endloop
  endfacet
  facet normal 0 0 -1
    outer loop
      vertex 7.09789 49.382 0
      vertex 0 60 0
      vertex 7 50 0
    endloop
  endfacet
  facet normal 0 0 -1
    outer loop
      vertex 9 38 0
      vertex 0 60 0
      vertex 7.09789 49.382 0
    endloop
  endfacet
  facet normal 0 0 -1
    outer loop
      vertex 11 50 0
      vertex 18 60 0
      vertex 10.9021 49.382 0
    endloop
  endfacet
  facet normal 0 0 -1
    outer loop
      vertex 9 38 0
      vertex 7.38197 48.8244 0
      vertex 7.82443 48.382 0
    endloop
  endfacet
  facet normal 0 0 -1
    outer loop
      vertex 9 38 0
      vertex 7.82443 48.382 0
      vertex 8.38197 48.0979 0
    endloop
  endfacet
  facet normal 0 0 -1
    outer loop
      vertex 9 38 0
      vertex 8.38197 48.0979 0
      vertex 9 48 0
    endloop
  endfacet
  facet normal 0 0 -1
    outer loop
      vertex 9 38 0
      vertex 9 48 0
      vertex 9.61803 48.0979 0
    endloop
  endfacet
  facet normal 0 0 -1
    outer loop
      vertex 9 38 0
      vertex 9.61803 48.0979 0
      vertex 10.1756 48.382 0
    endloop
  endfacet
  facet normal 0 0 -1
    outer loop
      vertex 9 38 0
      vertex 10.1756 48.382 0
      vertex 10.618 48.8244 0
    endloop
  endfacet
  facet normal 0 0 -1
    outer loop
      vertex 9 38 0
      vertex 10.618 48.8244 0
      vertex 18 60 0
    endloop
  endfacet
  facet normal 0 0 -1
    outer loop
      vertex 10.618 48.8244 0
      vertex 10.9021 49.382 0
      vertex 18 60 0
    endloop
  endfacet
  facet normal 0 0 -1
    outer loop
      vertex 10.9021 50.618 0
      vertex 18 60 0
      vertex 11 50 0
    endloop
  endfacet
  facet normal 0 0 -1
    outer loop
      vertex 10.618 51.1756 0
      vertex 18 60 0
      vertex 10.9021 50.618 0
    endloop
  endfacet
  facet normal 0 0 -1
    outer loop
      vertex 10.1756 51.618 0
      vertex 18 60 0
      vertex 10.618 51.1756 0
    endloop
  endfacet
  facet normal 0 0 -1
    outer loop
      vertex 9.61803 51.9021 0
      vertex 18 60 0
      vertex 10.1756 51.618 0
    endloop
  endfacet
  facet normal 0 0 -1
    outer loop
      vertex 9 52 0
      vertex 18 60 0
      vertex 9.61803 51.9021 0
    endloop
  endfacet
  facet normal 0 0 -1
    outer loop
      vertex 8.38197 51.9021 0
      vertex 0 60 0
      vertex 9 52 0
    endloop
  endfacet
  facet normal 0 0 -1
    outer loop
      vertex 7.82443 51.618 0
      vertex 0 60 0
      vertex 8.38197 51.9021 0
    endloop
  endfacet
  facet normal 0 0 -1
    outer loop
      vertex 7.38197 51.1756 0
      vertex 0 60 0
      vertex 7.82443 51.618 0
    endloop
  endfacet
  facet normal 0 0 -1
    outer loop
      vertex 7.09789 50.618 0
      vertex 0 60 0
      vertex 7.38197 51.1756 0
    endloop
  endfacet
  facet normal 0 0 -1
    outer loop
      vertex 7 50 0
      vertex 0 60 0
      vertex 7.09789 50.618 0
    endloop
  endfacet
  facet normal 0 0 -1
    outer loop
      vertex 9 3 0
      vertex 18 0 0
      vertex 8.38197 3.09789 0
    endloop
  endfacet
  facet normal 0 0 -1
    outer loop
      vertex 10.1756 11.382 0
      vertex 10.9021 5.61803 0
      vertex 10.618 6.17557 0
    endloop
  endfacet
  facet normal 0 0 -1
    outer loop
      vertex 10.1756 6.61803 0
      vertex 9.61803 11.0979 0
      vertex 10.618 6.17557 0
    endloop
  endfacet
  facet normal 0 1 0
    outer loop
      vertex 0 60 0
      vertex 0 60 6
      vertex 18 60 0
    endloop
  endfacet
  facet normal 0 1 0
    outer loop
      vertex 18 60 0
      vertex 0 60 6
      vertex 18 60 6
    endloop
  endfacet
  facet normal 0 0 1
    outer loop
      vertex 7.75 2.83494 6
      vertex 0 0 6
      vertex 18 0 6
    endloop
  endfacet
  facet normal 0 0 1
    outer loop
      vertex 3 50 6
      vertex 0 60 6
      vertex 0 0 6
    endloop
  endfacet
  facet normal 0 0 1
    outer loop
      vertex 11 19.5359 6
      vertex 7 19.5359 6
      vertex 10.5 15.5981 6
    endloop
  endfacet
  facet normal 0 0 1
    outer loop
      vertex 11 19.5359 6
      vertex 12 13 6
      vertex 18 0 6
    endloop
  endfacet
  facet normal 0 0 1
    outer loop
      vertex 12 55.1962 6
      vertex 15 50 6
      vertex 18 60 6
    endloop
  endfacet
  facet normal 0 0 1
    outer loop
      vertex 18 60 6
      vertex 0 60 6
      vertex 6 55.1962 6
    endloop
  endfacet
  facet normal 0 0 1
    outer loop
      vertex 11.5 40.3301 6
      vertex 14 36 6
      vertex 12 44.8038 6
    endloop
  endfacet
  facet normal 0 0 1
    outer loop
      vertex 18 60 6
      vertex 6 55.1962 6
      vertex 12 55.1962 6
    endloop
  endfacet
  facet normal 0 0 1
    outer loop
      vertex 18 60 6
      vertex 15 50 6
      vertex 18 0 6
    endloop
  endfacet
  facet normal 0 0 1
    outer loop
      vertex 4 36 6
      vertex 0 0 6
      vertex 6.5 31.6699 6
    endloop
  endfacet
  facet normal 0 0 1
    outer loop
      vertex 6.5 40.3301 6
      vertex 11.5 40.3301 6
      vertex 6 44.8038 6
    endloop
  endfacet
  facet normal 0 0 1
    outer loop
      vertex 3 50 6
      vertex 0 0 6
      vertex 4 36 6
    endloop
  endfacet
  facet normal 0 0 1
    outer loop
      vertex 11 19.5359 6
      vertex 10.5 15.5981 6
      vertex 12 13 6
    endloop
  endfacet
  facet normal 0 0 1
    outer loop
      vertex 6 44.8038 6
      vertex 3 50 6
      vertex 6.5 40.3301 6
    endloop
  endfacet
  facet normal 0 0 1
    outer loop
      vertex 14 36 6
      vertex 11.5 31.6699 6
      vertex 18 0 6
    endloop
  endfacet
  facet normal 0 0 1
    outer loop
      vertex 12 44.8038 6
      vertex 6 44.8038 6
      vertex 11.5 40.3301 6
    endloop
  endfacet
  facet normal 0 0 1
    outer loop
      vertex 15 50 6
      vertex 14 36 6
      vertex 18 0 6
    endloop
  endfacet
  facet normal 0 0 1
    outer loop
      vertex 15 50 6
      vertex 12 44.8038 6
      vertex 14 36 6
    endloop
  endfacet
  facet normal 0 0 1
    outer loop
      vertex 13 23 6
      vertex 11 19.5359 6
      vertex 18 0 6
    endloop
  endfacet
  facet normal 0 0 1
    outer loop
      vertex 5 23 6
      vertex 0 0 6
      vertex 7 19.5359 6
    endloop
  endfacet
  facet normal 0 0 1
    outer loop
      vertex 7 26.4641 6
      vertex 11 26.4641 6
      vertex 6.5 31.6699 6
    endloop
  endfacet
  facet normal 0 0 1
    outer loop
      vertex 6.5 31.6699 6
      vertex 0 0 6
      vertex 5 23 6
    endloop
  endfacet
  facet normal 0 0 1
    outer loop
      vertex 6 13 6
      vertex 7.5 15.5981 6
      vertex 7 19.5359 6
    endloop
  endfacet
  facet normal 0 0 1
    outer loop
      vertex 11.5 31.6699 6
      vertex 13 23 6
      vertex 18 0 6
    endloop
  endfacet
  facet normal 0 0 1
    outer loop
      vertex 11.5 31.6699 6
      vertex 11 26.4641 6
      vertex 13 23 6
    endloop
  endfacet
  facet normal 0 0 1
    outer loop
      vertex 4 36 6
      vertex 6.5 40.3301 6
      vertex 3 50 6
    endloop
  endfacet
  facet normal 0 0 1
    outer loop
      vertex 10.5 10.4019 6
      vertex 7.5 10.4019 6
      vertex 18 0 6
    endloop
  endfacet
  facet normal 0 0 1
    outer loop
      vertex 6 13 6
      vertex 0 0 6
      vertex 7.5 10.4019 6
    endloop
  endfacet
  facet normal 0 0 1
    outer loop
      vertex 7.5 15.5981 6
      vertex 10.5 15.5981 6
      vertex 7 19.5359 6
    endloop
  endfacet
  facet normal 0 0 1
    outer loop
      vertex 7 19.5359 6
      vertex 0 0 6
      vertex 6 13 6
    endloop
  endfacet
  facet normal 0 0 1
    outer loop
      vertex 6.5 5 6
      vertex 7.75 7.16506 6
      vertex 7.5 10.4019 6
    endloop
  endfacet
  facet normal 0 0 1
    outer loop
      vertex 12 13 6
      vertex 10.5 10.4019 6
      vertex 18 0 6
    endloop
  endfacet
  facet normal 0 0 1
    outer loop
      vertex 5 23 6
      vertex 7 26.4641 6
      vertex 6.5 31.6699 6
    endloop
  endfacet
  facet normal 0 0 1
    outer loop
      vertex 10.25 2.83494 6
      vertex 7.75 2.83494 6
      vertex 18 0 6
    endloop
  endfacet
  facet normal 0 0 1
    outer loop
      vertex 6.5 5 6
      vertex 0 0 6
      vertex 7.75 2.83494 6
    endloop
  endfacet
  facet normal 0 0 1
    outer loop
      vertex 11.5 5 6
      vertex 10.25 2.83494 6
      vertex 18 0 6
    endloop
  endfacet
  facet normal 0 0 1
    outer loop
      vertex 7.5 10.4019 6
      vertex 0 0 6
      vertex 6.5 5 6
    endloop
  endfacet
  facet normal 0 0 1
    outer loop
      vertex 7.5 10.4019 6
      vertex 10.25 7.16506 6
      vertex 18 0 6
    endloop
  endfacet
  facet normal 0 0 1
    outer loop
      vertex 7.5 10.4019 6
      vertex 7.75 7.16506 6
      vertex 10.25 7.16506 6
    endloop
  endfacet
  facet normal 0 0 1
    outer loop
      vertex 10.25 7.16506 6
      vertex 11.5 5 6
      vertex 18 0 6
    endloop
  endfacet
  facet normal 0 0 1
    outer loop
      vertex 3 50 6
      vertex 6 55.1962 6
      vertex 0 60 6
    endloop
  endfacet
  facet normal 0 0 1
    outer loop
      vertex 11.5 31.6699 6
      vertex 6.5 31.6699 6
      vertex 11 26.4641 6
    endloop
  endfacet
  facet normal 1 0 0
    outer loop
      vertex 18 0 6
      vertex 18 0 0
      vertex 18 60 0
    endloop
  endfacet
  facet normal 1 0 0
    outer loop
      vertex 18 60 6
      vertex 18 0 6
      vertex 18 60 0
    endloop
  endfacet
  facet normal 0.987688 -0.156435 0
    outer loop
      vertex 7.09789 5.61803 0
      vertex 7.09789 5.61803 2
      vertex 7 5 2
    endloop
  endfacet
  facet normal 0.987688 -0.156435 0
    outer loop
      vertex 7 5 0
      vertex 7.09789 5.61803 0
      vertex 7 5 2
    endloop
  endfacet
  facet normal 0.987688 0.156435 0
    outer loop
      vertex 7 5 2
      vertex 7.09789 4.38197 2
      vertex 7.09789 4.38197 0
    endloop
  endfacet
  facet normal 0.987688 0.156435 0
    outer loop
      vertex 7 5 0
      vertex 7 5 2
      vertex 7.09789 4.38197 0
    endloop
  endfacet
  facet normal 0.891007 -0.45399 0
    outer loop
      vertex 7.38197 6.17557 0
      vertex 7.38197 6.17557 2
      vertex 7.09789 5.61803 2
    endloop
  endfacet
  facet normal 0.891007 -0.45399 0
    outer loop
      vertex 7.09789 5.61803 0
      vertex 7.38197 6.17557 0
      vertex 7.09789 5.61803 2
    endloop
  endfacet
  facet normal 0.707107 -0.707107 0
    outer loop
      vertex 7.82443 6.61803 0
      vertex 7.82443 6.61803 2
      vertex 7.38197 6.17557 2
    endloop
  endfacet
  facet normal 0.707107 -0.707107 0
    outer loop
      vertex 7.38197 6.17557 0
      vertex 7.82443 6.61803 0
      vertex 7.38197 6.17557 2
    endloop
  endfacet
  facet normal 0.45399 -0.891007 0
    outer loop
      vertex 8.38197 6.90211 0
      vertex 8.38197 6.90211 2
      vertex 7.82443 6.61803 2
    endloop
  endfacet
  facet normal 0.45399 -0.891007 0
    outer loop
      vertex 7.82443 6.61803 0
      vertex 8.38197 6.90211 0
      vertex 7.82443 6.61803 2
    endloop
  endfacet
  facet normal 0.156435 -0.987688 0
    outer loop
      vertex 9 7 0
      vertex 9 7 2
      vertex 8.38197 6.90211 2
    endloop
  endfacet
  facet normal 0.156435 -0.987688 0
    outer loop
      vertex 8.38197 6.90211 0
      vertex 9 7 0
      vertex 8.38197 6.90211 2
    endloop
  endfacet
  facet normal -0.156435 -0.987688 0
    outer loop
      vertex 9.61803 6.90211 0
      vertex 9.61803 6.90211 2
      vertex 9 7 2
    endloop
  endfacet
  facet normal -0.156435 -0.987688 0
    outer loop
      vertex 9 7 0
      vertex 9.61803 6.90211 0
      vertex 9 7 2
    endloop
  endfacet
  facet normal -0.45399 -0.891007 0
    outer loop
      vertex 10.1756 6.61803 0
      vertex 10.1756 6.61803 2
      vertex 9.61803 6.90211 2
    endloop
  endfacet
  facet normal -0.45399 -0.891007 0
    outer loop
      vertex 9.61803 6.90211 0
      vertex 10.1756 6.61803 0
      vertex 9.61803 6.90211 2
    endloop
  endfacet
  facet normal -0.707107 -0.707107 0
    outer loop
      vertex 10.618 6.17557 0
      vertex 10.618 6.17557 2
      vertex 10.1756 6.61803 2
    endloop
  endfacet
  facet normal -0.707107 -0.707107 0
    outer loop
      vertex 10.1756 6.61803 0
      vertex 10.618 6.17557 0
      vertex 10.1756 6.61803 2
    endloop
  endfacet
  facet normal -0.891007 -0.45399 0
    outer loop
      vertex 10.9021 5.61803 2
      vertex 10.618 6.17557 2
      vertex 10.9021 5.61803 0
    endloop
  endfacet
  facet normal -0.891007 -0.45399 0
    outer loop
      vertex 10.9021 5.61803 0
      vertex 10.618 6.17557 2
      vertex 10.618 6.17557 0
    endloop
  endfacet
  facet normal -0.987688 -0.156435 0
    outer loop
      vertex 11 5 2
      vertex 10.9021 5.61803 2
      vertex 11 5 0
    endloop
  endfacet
  facet normal -0.987688 -0.156435 0
    outer loop
      vertex 11 5 0
      vertex 10.9021 5.61803 2
      vertex 10.9021 5.61803 0
    endloop
  endfacet
  facet normal -0.987688 0.156435 0
    outer loop
      vertex 11 5 2
      vertex 11 5 0
      vertex 10.9021 4.38197 2
    endloop
  endfacet
  facet normal -0.987688 0.156435 0
    outer loop
      vertex 10.9021 4.38197 2
      vertex 11 5 0
      vertex 10.9021 4.38197 0
    endloop
  endfacet
  facet normal -0.891007 0.45399 0
    outer loop
      vertex 10.9021 4.38197 2
      vertex 10.9021 4.38197 0
      vertex 10.618 3.82443 2
    endloop
  endfacet
  facet normal -0.891007 0.45399 0
    outer loop
      vertex 10.618 3.82443 2
      vertex 10.9021 4.38197 0
      vertex 10.618 3.82443 0
    endloop
  endfacet
  facet normal -0.707107 0.707107 0
    outer loop
      vertex 10.618 3.82443 2
      vertex 10.618 3.82443 0
      vertex 10.1756 3.38197 2
    endloop
  endfacet
  facet normal -0.707107 0.707107 0
    outer loop
      vertex 10.1756 3.38197 2
      vertex 10.618 3.82443 0
      vertex 10.1756 3.38197 0
    endloop
  endfacet
  facet normal -0.45399 0.891007 0
    outer loop
      vertex 10.1756 3.38197 2
      vertex 10.1756 3.38197 0
      vertex 9.61803 3.09789 2
    endloop
  endfacet
  facet normal -0.45399 0.891007 0
    outer loop
      vertex 9.61803 3.09789 2
      vertex 10.1756 3.38197 0
      vertex 9.61803 3.09789 0
    endloop
  endfacet
  facet normal -0.156435 0.987688 0
    outer loop
      vertex 9.61803 3.09789 2
      vertex 9.61803 3.09789 0
      vertex 9 3 2
    endloop
  endfacet
  facet normal -0.156435 0.987688 0
    outer loop
      vertex 9 3 2
      vertex 9.61803 3.09789 0
      vertex 9 3 0
    endloop
  endfacet
  facet normal 0.156435 0.987688 0
    outer loop
      vertex 9 3 2
      vertex 9 3 0
      vertex 8.38197 3.09789 2
    endloop
  endfacet
  facet normal 0.156435 0.987688 0
    outer loop
      vertex 8.38197 3.09789 2
      vertex 9 3 0
      vertex 8.38197 3.09789 0
    endloop
  endfacet
  facet normal 0.45399 0.891007 0
    outer loop
      vertex 8.38197 3.09789 2
      vertex 8.38197 3.09789 0
      vertex 7.82443 3.38197 2
    endloop
  endfacet
  facet normal 0.45399 0.891007 0
    outer loop
      vertex 7.82443 3.38197 2
      vertex 8.38197 3.09789 0
      vertex 7.82443 3.38197 0
    endloop
  endfacet
  facet normal 0.707107 0.707107 0
    outer loop
      vertex 7.82443 3.38197 2
      vertex 7.82443 3.38197 0
      vertex 7.38197 3.82443 2
    endloop
  endfacet
  facet normal 0.707107 0.707107 0
    outer loop
      vertex 7.38197 3.82443 2
      vertex 7.82443 3.38197 0
      vertex 7.38197 3.82443 0
    endloop
  endfacet
  facet normal 0.891007 0.45399 0
    outer loop
      vertex 7.09789 4.38197 2
      vertex 7.38197 3.82443 2
      vertex 7.38197 3.82443 0
    endloop
  endfacet
  facet normal 0.891007 0.45399 0
    outer loop
      vertex 7.09789 4.38197 0
      vertex 7.09789 4.38197 2
      vertex 7.38197 3.82443 0
    endloop
  endfacet
  facet normal 0.987688 -0.156435 0
    outer loop
      vertex 7.09789 13.618 0
      vertex 7.09789 13.618 2
      vertex 7 13 2
    endloop
  endfacet
  facet normal 0.987688 -0.156435 0
    outer loop
      vertex 7 13 0
      vertex 7.09789 13.618 0
      vertex 7 13 2
    endloop
  endfacet
  facet normal 0.987688 0.156435 0
    outer loop
      vertex 7 13 2
      vertex 7.09789 12.382 2
      vertex 7.09789 12.382 0
    endloop
  endfacet
  facet normal 0.987688 0.156435 0
    outer loop
      vertex 7 13 0
      vertex 7 13 2
      vertex 7.09789 12.382 0
    endloop
  endfacet
  facet normal 0.891007 -0.45399 0
    outer loop
      vertex 7.38197 14.1756 0
      vertex 7.38197 14.1756 2
      vertex 7.09789 13.618 2
    endloop
  endfacet
  facet normal 0.891007 -0.45399 0
    outer loop
      vertex 7.09789 13.618 0
      vertex 7.38197 14.1756 0
      vertex 7.09789 13.618 2
    endloop
  endfacet
  facet normal 0.707107 -0.707107 0
    outer loop
      vertex 7.82443 14.618 0
      vertex 7.82443 14.618 2
      vertex 7.38197 14.1756 2
    endloop
  endfacet
  facet normal 0.707107 -0.707107 0
    outer loop
      vertex 7.38197 14.1756 0
      vertex 7.82443 14.618 0
      vertex 7.38197 14.1756 2
    endloop
  endfacet
  facet normal 0.45399 -0.891007 0
    outer loop
      vertex 8.38197 14.9021 0
      vertex 8.38197 14.9021 2
      vertex 7.82443 14.618 2
    endloop
  endfacet
  facet normal 0.45399 -0.891007 0
    outer loop
      vertex 7.82443 14.618 0
      vertex 8.38197 14.9021 0
      vertex 7.82443 14.618 2
    endloop
  endfacet
  facet normal 0.156435 -0.987688 0
    outer loop
      vertex 9 15 0
      vertex 9 15 2
      vertex 8.38197 14.9021 2
    endloop
  endfacet
  facet normal 0.156435 -0.987688 0
    outer loop
      vertex 8.38197 14.9021 0
      vertex 9 15 0
      vertex 8.38197 14.9021 2
    endloop
  endfacet
  facet normal -0.156435 -0.987688 0
    outer loop
      vertex 9.61803 14.9021 0
      vertex 9.61803 14.9021 2
      vertex 9 15 2
    endloop
  endfacet
  facet normal -0.156435 -0.987688 0
    outer loop
      vertex 9 15 0
      vertex 9.61803 14.9021 0
      vertex 9 15 2
    endloop
  endfacet
  facet normal -0.45399 -0.891007 0
    outer loop
      vertex 10.1756 14.618 0
      vertex 10.1756 14.618 2
      vertex 9.61803 14.9021 2
    endloop
  endfacet
  facet normal -0.45399 -0.891007 0
    outer loop
      vertex 9.61803 14.9021 0
      vertex 10.1756 14.618 0
      vertex 9.61803 14.9021 2
    endloop
  endfacet
  facet normal -0.707107 -0.707107 0
    outer loop
      vertex 10.618 14.1756 0
      vertex 10.618 14.1756 2
      vertex 10.1756 14.618 2
    endloop
  endfacet
  facet normal -0.707107 -0.707107 0
    outer loop
      vertex 10.1756 14.618 0
      vertex 10.618 14.1756 0
      vertex 10.1756 14.618 2
    endloop
  endfacet
  facet normal -0.891007 -0.45399 0
    outer loop
      vertex 10.9021 13.618 2
      vertex 10.618 14.1756 2
      vertex 10.9021 13.618 0
    endloop
  endfacet
  facet normal -0.891007 -0.45399 0
    outer loop
      vertex 10.9021 13.618 0
      vertex 10.618 14.1756 2
      vertex 10.618 14.1756 0
    endloop
  endfacet
  facet normal -0.987688 -0.156435 0
    outer loop
      vertex 11 13 2
      vertex 10.9021 13.618 2
      vertex 11 13 0
    endloop
  endfacet
  facet normal -0.987688 -0.156435 0
    outer loop
      vertex 11 13 0
      vertex 10.9021 13.618 2
      vertex 10.9021 13.618 0
    endloop
  endfacet
  facet normal -0.987688 0.156435 0
    outer loop
      vertex 11 13 2
      vertex 11 13 0
      vertex 10.9021 12.382 2
    endloop
  endfacet
  facet normal -0.987688 0.156435 0
    outer loop
      vertex 10.9021 12.382 2
      vertex 11 13 0
      vertex 10.9021 12.382 0
    endloop
  endfacet
  facet normal -0.891007 0.45399 0
    outer loop
      vertex 10.9021 12.382 2
      vertex 10.9021 12.382 0
      vertex 10.618 11.8244 2
    endloop
  endfacet
  facet normal -0.891007 0.45399 0
    outer loop
      vertex 10.618 11.8244 2
      vertex 10.9021 12.382 0
      vertex 10.618 11.8244 0
    endloop
  endfacet
  facet normal -0.707107 0.707107 0
    outer loop
      vertex 10.618 11.8244 2
      vertex 10.618 11.8244 0
      vertex 10.1756 11.382 2
    endloop
  endfacet
  facet normal -0.707107 0.707107 0
    outer loop
      vertex 10.1756 11.382 2
      vertex 10.618 11.8244 0
      vertex 10.1756 11.382 0
    endloop
  endfacet
  facet normal -0.45399 0.891007 0
    outer loop
      vertex 10.1756 11.382 2
      vertex 10.1756 11.382 0
      vertex 9.61803 11.0979 2
    endloop
  endfacet
  facet normal -0.45399 0.891007 0
    outer loop
      vertex 9.61803 11.0979 2
      vertex 10.1756 11.382 0
      vertex 9.61803 11.0979 0
    endloop
  endfacet
  facet normal -0.156435 0.987688 0
    outer loop
      vertex 9.61803 11.0979 2
      vertex 9.61803 11.0979 0
      vertex 9 11 2
    endloop
  endfacet
  facet normal -0.156435 0.987688 0
    outer loop
      vertex 9 11 2
      vertex 9.61803 11.0979 0
      vertex 9 11 0
    endloop
  endfacet
  facet normal 0.156435 0.987688 0
    outer loop
      vertex 9 11 2
      vertex 9 11 0
      vertex 8.38197 11.0979 2
    endloop
  endfacet
  facet normal 0.156435 0.987688 0
    outer loop
      vertex 8.38197 11.0979 2
      vertex 9 11 0
      vertex 8.38197 11.0979 0
    endloop
  endfacet
  facet normal 0.45399 0.891007 0
    outer loop
      vertex 8.38197 11.0979 2
      vertex 8.38197 11.0979 0
      vertex 7.82443 11.382 2
    endloop
  endfacet
  facet normal 0.45399 0.891007 0
    outer loop
      vertex 7.82443 11.382 2
      vertex 8.38197 11.0979 0
      vertex 7.82443 11.382 0
    endloop
  endfacet
  facet normal 0.707107 0.707107 0
    outer loop
      vertex 7.82443 11.382 2
      vertex 7.82443 11.382 0
      vertex 7.38197 11.8244 2
    endloop
  endfacet
  facet normal 0.707107 0.707107 0
    outer loop
      vertex 7.38197 11.8244 2
      vertex 7.82443 11.382 0
      vertex 7.38197 11.8244 0
    endloop
  endfacet
  facet normal 0.891007 0.45399 0
    outer loop
      vertex 7.09789 12.382 2
      vertex 7.38197 11.8244 2
      vertex 7.38197 11.8244 0
    endloop
  endfacet
  facet normal 0.891007 0.45399 0
    outer loop
      vertex 7.09789 12.382 0
      vertex 7.09789 12.382 2
      vertex 7.38197 11.8244 0
    endloop
  endfacet
  facet normal 0.987688 -0.156435 0
    outer loop
      vertex 7.09789 23.618 0
      vertex 7.09789 23.618 2
      vertex 7 23 2
    endloop
  endfacet
  facet normal 0.987688 -0.156435 0
    outer loop
      vertex 7 23 0
      vertex 7.09789 23.618 0
      vertex 7 23 2
    endloop
  endfacet
  facet normal 0.987688 0.156435 0
    outer loop
      vertex 7 23 2
      vertex 7.09789 22.382 2
      vertex 7.09789 22.382 0
    endloop
  endfacet
  facet normal 0.987688 0.156435 0
    outer loop
      vertex 7 23 0
      vertex 7 23 2
      vertex 7.09789 22.382 0
    endloop
  endfacet
  facet normal 0.891007 -0.45399 0
    outer loop
      vertex 7.38197 24.1756 0
      vertex 7.38197 24.1756 2
      vertex 7.09789 23.618 2
    endloop
  endfacet
  facet normal 0.891007 -0.45399 0
    outer loop
      vertex 7.09789 23.618 0
      vertex 7.38197 24.1756 0
      vertex 7.09789 23.618 2
    endloop
  endfacet
  facet normal 0.707107 -0.707107 0
    outer loop
      vertex 7.82443 24.618 0
      vertex 7.82443 24.618 2
      vertex 7.38197 24.1756 2
    endloop
  endfacet
  facet normal 0.707107 -0.707107 0
    outer loop
      vertex 7.38197 24.1756 0
      vertex 7.82443 24.618 0
      vertex 7.38197 24.1756 2
    endloop
  endfacet
  facet normal 0.45399 -0.891007 0
    outer loop
      vertex 8.38197 24.9021 0
      vertex 8.38197 24.9021 2
      vertex 7.82443 24.618 2
    endloop
  endfacet
  facet normal 0.45399 -0.891007 0
    outer loop
      vertex 7.82443 24.618 0
      vertex 8.38197 24.9021 0
      vertex 7.82443 24.618 2
    endloop
  endfacet
  facet normal 0.156435 -0.987688 0
    outer loop
      vertex 9 25 0
      vertex 9 25 2
      vertex 8.38197 24.9021 2
    endloop
  endfacet
  facet normal 0.156435 -0.987688 0
    outer loop
      vertex 8.38197 24.9021 0
      vertex 9 25 0
      vertex 8.38197 24.9021 2
    endloop
  endfacet
  facet normal -0.156435 -0.987688 0
    outer loop
      vertex 9.61803 24.9021 0
      vertex 9.61803 24.9021 2
      vertex 9 25 2
    endloop
  endfacet
  facet normal -0.156435 -0.987688 0
    outer loop
      vertex 9 25 0
      vertex 9.61803 24.9021 0
      vertex 9 25 2
    endloop
  endfacet
  facet normal -0.45399 -0.891007 0
    outer loop
      vertex 10.1756 24.618 0
      vertex 10.1756 24.618 2
      vertex 9.61803 24.9021 2
    endloop
  endfacet
  facet normal -0.45399 -0.891007 0
    outer loop
      vertex 9.61803 24.9021 0
      vertex 10.1756 24.618 0
      vertex 9.61803 24.9021 2
    endloop
  endfacet
  facet normal -0.707107 -0.707107 0
    outer loop
      vertex 10.618 24.1756 0
      vertex 10.618 24.1756 2
      vertex 10.1756 24.618 2
    endloop
  endfacet
  facet normal -0.707107 -0.707107 0
    outer loop
      vertex 10.1756 24.618 0
      vertex 10.618 24.1756 0
      vertex 10.1756 24.618 2
    endloop
  endfacet
  facet normal -0.891007 -0.45399 0
    outer loop
      vertex 10.9021 23.618 2
      vertex 10.618 24.1756 2
      vertex 10.9021 23.618 0
    endloop
  endfacet
  facet normal -0.891007 -0.45399 0
    outer loop
      vertex 10.9021 23.618 0
      vertex 10.618 24.1756 2
      vertex 10.618 24.1756 0
    endloop
  endfacet
  facet normal -0.987688 -0.156435 0
    outer loop
      vertex 11 23 2
      vertex 10.9021 23.618 2
      vertex 11 23 0
    endloop
  endfacet
  facet normal -0.987688 -0.156435 0
    outer loop
      vertex 11 23 0
      vertex 10.9021 23.618 2
      vertex 10.9021 23.618 0
    endloop
  endfacet
  facet normal -0.987688 0.156435 0
    outer loop
      vertex 11 23 2
      vertex 11 23 0
      vertex 10.9021 22.382 2
    endloop
  endfacet
  facet normal -0.987688 0.156435 0
    outer loop
      vertex 10.9021 22.382 2
      vertex 11 23 0
      vertex 10.9021 22.382 0
    endloop
  endfacet
  facet normal -0.891007 0.45399 0
    outer loop
      vertex 10.9021 22.382 2
      vertex 10.9021 22.382 0
      vertex 10.618 21.8244 2
    endloop
  endfacet
  facet normal -0.891007 0.45399 0
    outer loop
      vertex 10.618 21.8244 2
      vertex 10.9021 22.382 0
      vertex 10.618 21.8244 0
    endloop
  endfacet
  facet normal -0.707107 0.707107 0
    outer loop
      vertex 10.618 21.8244 2
      vertex 10.618 21.8244 0
      vertex 10.1756 21.382 2
    endloop
  endfacet
  facet normal -0.707107 0.707107 0
    outer loop
      vertex 10.1756 21.382 2
      vertex 10.618 21.8244 0
      vertex 10.1756 21.382 0
    endloop
  endfacet
  facet normal -0.45399 0.891007 0
    outer loop
      vertex 10.1756 21.382 2
      vertex 10.1756 21.382 0
      vertex 9.61803 21.0979 2
    endloop
  endfacet
  facet normal -0.45399 0.891007 0
    outer loop
      vertex 9.61803 21.0979 2
      vertex 10.1756 21.382 0
      vertex 9.61803 21.0979 0
    endloop
  endfacet
  facet normal -0.156435 0.987688 0
    outer loop
      vertex 9.61803 21.0979 2
      vertex 9.61803 21.0979 0
      vertex 9 21 2
    endloop
  endfacet
  facet normal -0.156435 0.987688 0
    outer loop
      vertex 9 21 2
      vertex 9.61803 21.0979 0
      vertex 9 21 0
    endloop
  endfacet
  facet normal 0.156435 0.987688 0
    outer loop
      vertex 9 21 2
      vertex 9 21 0
      vertex 8.38197 21.0979 2
    endloop
  endfacet
  facet normal 0.156435 0.987688 0
    outer loop
      vertex 8.38197 21.0979 2
      vertex 9 21 0
      vertex 8.38197 21.0979 0
    endloop
  endfacet
  facet normal 0.45399 0.891007 0
    outer loop
      vertex 8.38197 21.0979 2
      vertex 8.38197 21.0979 0
      vertex 7.82443 21.382 2
    endloop
  endfacet
  facet normal 0.45399 0.891007 0
    outer loop
      vertex 7.82443 21.382 2
      vertex 8.38197 21.0979 0
      vertex 7.82443 21.382 0
    endloop
  endfacet
  facet normal 0.707107 0.707107 0
    outer loop
      vertex 7.82443 21.382 2
      vertex 7.82443 21.382 0
      vertex 7.38197 21.8244 2
    endloop
  endfacet
  facet normal 0.707107 0.707107 0
    outer loop
      vertex 7.38197 21.8244 2
      vertex 7.82443 21.382 0
      vertex 7.38197 21.8244 0
    endloop
  endfacet
  facet normal 0.891007 0.45399 0
    outer loop
      vertex 7.09789 22.382 2
      vertex 7.38197 21.8244 2
      vertex 7.38197 21.8244 0
    endloop
  endfacet
  facet normal 0.891007 0.45399 0
    outer loop
      vertex 7.09789 22.382 0
      vertex 7.09789 22.382 2
      vertex 7.38197 21.8244 0
    endloop
  endfacet
  facet normal 0.987688 -0.156435 0
    outer loop
      vertex 7.09789 36.618 0
      vertex 7.09789 36.618 2
      vertex 7 36 2
    endloop
  endfacet
  facet normal 0.987688 -0.156435 0
    outer loop
      vertex 7 36 0
      vertex 7.09789 36.618 0
      vertex 7 36 2
    endloop
  endfacet
  facet normal 0.987688 0.156435 0
    outer loop
      vertex 7 36 2
      vertex 7.09789 35.382 2
      vertex 7.09789 35.382 0
    endloop
  endfacet
  facet normal 0.987688 0.156435 0
    outer loop
      vertex 7 36 0
      vertex 7 36 2
      vertex 7.09789 35.382 0
    endloop
  endfacet
  facet normal 0.891007 -0.45399 0
    outer loop
      vertex 7.38197 37.1756 0
      vertex 7.38197 37.1756 2
      vertex 7.09789 36.618 2
    endloop
  endfacet
  facet normal 0.891007 -0.45399 0
    outer loop
      vertex 7.09789 36.618 0
      vertex 7.38197 37.1756 0
      vertex 7.09789 36.618 2
    endloop
  endfacet
  facet normal 0.707107 -0.707107 0
    outer loop
      vertex 7.82443 37.618 0
      vertex 7.82443 37.618 2
      vertex 7.38197 37.1756 2
    endloop
  endfacet
  facet normal 0.707107 -0.707107 0
    outer loop
      vertex 7.38197 37.1756 0
      vertex 7.82443 37.618 0
      vertex 7.38197 37.1756 2
    endloop
  endfacet
  facet normal 0.45399 -0.891007 0
    outer loop
      vertex 8.38197 37.9021 0
      vertex 8.38197 37.9021 2
      vertex 7.82443 37.618 2
    endloop
  endfacet
  facet normal 0.45399 -0.891007 0
    outer loop
      vertex 7.82443 37.618 0
      vertex 8.38197 37.9021 0
      vertex 7.82443 37.618 2
    endloop
  endfacet
  facet normal 0.156435 -0.987688 0
    outer loop
      vertex 9 38 0
      vertex 9 38 2
      vertex 8.38197 37.9021 2
    endloop
  endfacet
  facet normal 0.156435 -0.987688 0
    outer loop
      vertex 8.38197 37.9021 0
      vertex 9 38 0
      vertex 8.38197 37.9021 2
    endloop
  endfacet
  facet normal -0.156435 -0.987688 0
    outer loop
      vertex 9.61803 37.9021 0
      vertex 9.61803 37.9021 2
      vertex 9 38 2
    endloop
  endfacet
  facet normal -0.156435 -0.987688 0
    outer loop
      vertex 9 38 0
      vertex 9.61803 37.9021 0
      vertex 9 38 2
    endloop
  endfacet
  facet normal -0.45399 -0.891007 0
    outer loop
      vertex 10.1756 37.618 0
      vertex 10.1756 37.618 2
      vertex 9.61803 37.9021 2
    endloop
  endfacet
  facet normal -0.45399 -0.891007 0
    outer loop
      vertex 9.61803 37.9021 0
      vertex 10.1756 37.618 0
      vertex 9.61803 37.9021 2
    endloop
  endfacet
  facet normal -0.707107 -0.707107 0
    outer loop
      vertex 10.618 37.1756 0
      vertex 10.618 37.1756 2
      vertex 10.1756 37.618 2
    endloop
  endfacet
  facet normal -0.707107 -0.707107 0
    outer loop
      vertex 10.1756 37.618 0
      vertex 10.618 37.1756 0
      vertex 10.1756 37.618 2
    endloop
  endfacet
  facet normal -0.891007 -0.45399 0
    outer loop
      vertex 10.9021 36.618 2
      vertex 10.618 37.1756 2
      vertex 10.9021 36.618 0
    endloop
  endfacet
  facet normal -0.891007 -0.45399 0
    outer loop
      vertex 10.9021 36.618 0
      vertex 10.618 37.1756 2
      vertex 10.618 37.1756 0
    endloop
  endfacet
  facet normal -0.987688 -0.156435 0
    outer loop
      vertex 11 36 2
      vertex 10.9021 36.618 2
      vertex 11 36 0
    endloop
  endfacet
  facet normal -0.987688 -0.156435 0
    outer loop
      vertex 11 36 0
      vertex 10.9021 36.618 2
      vertex 10.9021 36.618 0
    endloop
  endfacet
  facet normal -0.987688 0.156435 0
    outer loop
      vertex 11 36 2
      vertex 11 36 0
      vertex 10.9021 35.382 2
    endloop
  endfacet
  facet normal -0.987688 0.156435 0
    outer loop
      vertex 10.9021 35.382 2
      vertex 11 36 0
      vertex 10.9021 35.382 0
    endloop
  endfacet
  facet normal -0.891007 0.45399 0
    outer loop
      vertex 10.9021 35.382 2
      vertex 10.9021 35.382 0
      vertex 10.618 34.8244 2
    endloop
  endfacet
  facet normal -0.891007 0.45399 0
    outer loop
      vertex 10.618 34.8244 2
      vertex 10.9021 35.382 0
      vertex 10.618 34.8244 0
    endloop
  endfacet
  facet normal -0.707107 0.707107 0
    outer loop
      vertex 10.618 34.8244 2
      vertex 10.618 34.8244 0
      vertex 10.1756 34.382 2
    endloop
  endfacet
  facet normal -0.707107 0.707107 0
    outer loop
      vertex 10.1756 34.382 2
      vertex 10.618 34.8244 0
      vertex 10.1756 34.382 0
    endloop
  endfacet
  facet normal -0.45399 0.891007 0
    outer loop
      vertex 10.1756 34.382 2
      vertex 10.1756 34.382 0
      vertex 9.61803 34.0979 2
    endloop
  endfacet
  facet normal -0.45399 0.891007 0
    outer loop
      vertex 9.61803 34.0979 2
      vertex 10.1756 34.382 0
      vertex 9.61803 34.0979 0
    endloop
  endfacet
  facet normal -0.156435 0.987688 0
    outer loop
      vertex 9.61803 34.0979 2
      vertex 9.61803 34.0979 0
      vertex 9 34 2
    endloop
  endfacet
  facet normal -0.156435 0.987688 0
    outer loop
      vertex 9 34 2
      vertex 9.61803 34.0979 0
      vertex 9 34 0
    endloop
  endfacet
  facet normal 0.156435 0.987688 0
    outer loop
      vertex 9 34 2
      vertex 9 34 0
      vertex 8.38197 34.0979 2
    endloop
  endfacet
  facet normal 0.156435 0.987688 0
    outer loop
      vertex 8.38197 34.0979 2
      vertex 9 34 0
      vertex 8.38197 34.0979 0
    endloop
  endfacet
  facet normal 0.45399 0.891007 0
    outer loop
      vertex 8.38197 34.0979 2
      vertex 8.38197 34.0979 0
      vertex 7.82443 34.382 2
    endloop
  endfacet
  facet normal 0.45399 0.891007 0
    outer loop
      vertex 7.82443 34.382 2
      vertex 8.38197 34.0979 0
      vertex 7.82443 34.382 0
    endloop
  endfacet
  facet normal 0.707107 0.707107 0
    outer loop
      vertex 7.82443 34.382 2
      vertex 7.82443 34.382 0
      vertex 7.38197 34.8244 2
    endloop
  endfacet
  facet normal 0.707107 0.707107 0
    outer loop
      vertex 7.38197 34.8244 2
      vertex 7.82443 34.382 0
      vertex 7.38197 34.8244 0
    endloop
  endfacet
  facet normal 0.891007 0.45399 0
    outer loop
      vertex 7.09789 35.382 2
      vertex 7.38197 34.8244 2
      vertex 7.38197 34.8244 0
    endloop
  endfacet
  facet normal 0.891007 0.45399 0
    outer loop
      vertex 7.09789 35.382 0
      vertex 7.09789 35.382 2
      vertex 7.38197 34.8244 0
    endloop
  endfacet
  facet normal 0.987688 0.156435 0
    outer loop
      vertex 7 50 2
      vertex 7.09789 49.382 2
      vertex 7.09789 49.382 0
    endloop
  endfacet
  facet normal 0.987688 0.156435 0
    outer loop
      vertex 7 50 0
      vertex 7 50 2
      vertex 7.09789 49.382 0
    endloop
  endfacet
  facet normal 0.987688 -0.156435 0
    outer loop
      vertex 7.09789 50.618 0
      vertex 7.09789 50.618 2
      vertex 7 50 2
    endloop
  endfacet
  facet normal 0.987688 -0.156435 0
    outer loop
      vertex 7 50 0
      vertex 7.09789 50.618 0
      vertex 7 50 2
    endloop
  endfacet
  facet normal 0.891007 -0.45399 0
    outer loop
      vertex 7.38197 51.1756 0
      vertex 7.38197 51.1756 2
      vertex 7.09789 50.618 2
    endloop
  endfacet
  facet normal 0.891007 -0.45399 0
    outer loop
      vertex 7.09789 50.618 0
      vertex 7.38197 51.1756 0
      vertex 7.09789 50.618 2
    endloop
  endfacet
  facet normal 0.707107 -0.707107 0
    outer loop
      vertex 7.82443 51.618 0
      vertex 7.82443 51.618 2
      vertex 7.38197 51.1756 2
    endloop
  endfacet
  facet normal 0.707107 -0.707107 0
    outer loop
      vertex 7.38197 51.1756 0
      vertex 7.82443 51.618 0
      vertex 7.38197 51.1756 2
    endloop
  endfacet
  facet normal 0.45399 -0.891007 0
    outer loop
      vertex 8.38197 51.9021 0
      vertex 8.38197 51.9021 2
      vertex 7.82443 51.618 2
    endloop
  endfacet
  facet normal 0.45399 -0.891007 0
    outer loop
      vertex 7.82443 51.618 0
      vertex 8.38197 51.9021 0
      vertex 7.82443 51.618 2
    endloop
  endfacet
  facet normal 0.156435 -0.987688 0
    outer loop
      vertex 9 52 0
      vertex 9 52 2
      vertex 8.38197 51.9021 2
    endloop
  endfacet
  facet normal 0.156435 -0.987688 0
    outer loop
      vertex 8.38197 51.9021 0
      vertex 9 52 0
      vertex 8.38197 51.9021 2
    endloop
  endfacet
  facet normal -0.156435 -0.987688 0
    outer loop
      vertex 9.61803 51.9021 0
      vertex 9.61803 51.9021 2
      vertex 9 52 2
    endloop
  endfacet
  facet normal -0.156435 -0.987688 0
    outer loop
      vertex 9 52 0
      vertex 9.61803 51.9021 0
      vertex 9 52 2
    endloop
  endfacet
  facet normal -0.45399 -0.891007 0
    outer loop
      vertex 10.1756 51.618 0
      vertex 10.1756 51.618 2
      vertex 9.61803 51.9021 2
    endloop
  endfacet
  facet normal -0.45399 -0.891007 0
    outer loop
      vertex 9.61803 51.9021 0
      vertex 10.1756 51.618 0
      vertex 9.61803 51.9021 2
    endloop
  endfacet
  facet normal -0.707107 -0.707107 0
    outer loop
      vertex 10.618 51.1756 0
      vertex 10.618 51.1756 2
      vertex 10.1756 51.618 2
    endloop
  endfacet
  facet normal -0.707107 -0.707107 0
    outer loop
      vertex 10.1756 51.618 0
      vertex 10.618 51.1756 0
      vertex 10.1756 51.618 2
    endloop
  endfacet
  facet normal -0.891007 -0.45399 0
    outer loop
      vertex 10.9021 50.618 2
      vertex 10.618 51.1756 2
      vertex 10.9021 50.618 0
    endloop
  endfacet
  facet normal -0.891007 -0.45399 0
    outer loop
      vertex 10.9021 50.618 0
      vertex 10.618 51.1756 2
      vertex 10.618 51.1756 0
    endloop
  endfacet
  facet normal -0.987688 -0.156435 0
    outer loop
      vertex 11 50 2
      vertex 10.9021 50.618 2
      vertex 11 50 0
    endloop
  endfacet
  facet normal -0.987688 -0.156435 0
    outer loop
      vertex 11 50 0
      vertex 10.9021 50.618 2
      vertex 10.9021 50.618 0
    endloop
  endfacet
  facet normal -0.987688 0.156435 0
    outer loop
      vertex 11 50 2
      vertex 11 50 0
      vertex 10.9021 49.382 2
    endloop
  endfacet
  facet normal -0.987688 0.156435 0
    outer loop
      vertex 10.9021 49.382 2
      vertex 11 50 0
      vertex 10.9021 49.382 0
    endloop
  endfacet
  facet normal -0.891007 0.45399 0
    outer loop
      vertex 10.9021 49.382 2
      vertex 10.9021 49.382 0
      vertex 10.618 48.8244 2
    endloop
  endfacet
  facet normal -0.891007 0.45399 0
    outer loop
      vertex 10.618 48.8244 2
      vertex 10.9021 49.382 0
      vertex 10.618 48.8244 0
    endloop
  endfacet
  facet normal -0.707107 0.707107 0
    outer loop
      vertex 10.618 48.8244 2
      vertex 10.618 48.8244 0
      vertex 10.1756 48.382 2
    endloop
  endfacet
  facet normal -0.707107 0.707107 0
    outer loop
      vertex 10.1756 48.382 2
      vertex 10.618 48.8244 0
      vertex 10.1756 48.382 0
    endloop
  endfacet
  facet normal -0.45399 0.891007 0
    outer loop
      vertex 10.1756 48.382 2
      vertex 10.1756 48.382 0
      vertex 9.61803 48.0979 2
    endloop
  endfacet
  facet normal -0.45399 0.891007 0
    outer loop
      vertex 9.61803 48.0979 2
      vertex 10.1756 48.382 0
      vertex 9.61803 48.0979 0
    endloop
  endfacet
  facet normal -0.156435 0.987688 0
    outer loop
      vertex 9.61803 48.0979 2
      vertex 9.61803 48.0979 0
      vertex 9 48 2
    endloop
  endfacet
  facet normal -0.156435 0.987688 0
    outer loop
      vertex 9 48 2
      vertex 9.61803 48.0979 0
      vertex 9 48 0
    endloop
  endfacet
  facet normal 0.156435 0.987688 0
    outer loop
      vertex 9 48 2
      vertex 9 48 0
      vertex 8.38197 48.0979 2
    endloop
  endfacet
  facet normal 0.156435 0.987688 0
    outer loop
      vertex 8.38197 48.0979 2
      vertex 9 48 0
      vertex 8.38197 48.0979 0
    endloop
  endfacet
  facet normal 0.45399 0.891007 0
    outer loop
      vertex 8.38197 48.0979 2
      vertex 8.38197 48.0979 0
      vertex 7.82443 48.382 2
    endloop
  endfacet
  facet normal 0.45399 0.891007 0
    outer loop
      vertex 7.82443 48.382 2
      vertex 8.38197 48.0979 0
      vertex 7.82443 48.382 0
    endloop
  endfacet
  facet normal 0.707107 0.707107 0
    outer loop
      vertex 7.82443 48.382 2
      vertex 7.82443 48.382 0
      vertex 7.38197 48.8244 2
    endloop
  endfacet
  facet normal 0.707107 0.707107 0
    outer loop
      vertex 7.38197 48.8244 2
      vertex 7.82443 48.382 0
      vertex 7.38197 48.8244 0
    endloop
  endfacet
  facet normal 0.891007 0.45399 0
    outer loop
      vertex 7.09789 49.382 2
      vertex 7.38197 48.8244 2
      vertex 7.38197 48.8244 0
    endloop
  endfacet
  facet normal 0.891007 0.45399 0
    outer loop
      vertex 7.09789 49.382 0
      vertex 7.09789 49.382 2
      vertex 7.38197 48.8244 0
    endloop
  endfacet
  facet normal 0.866025 0.5 0
    outer loop
      vertex 3 50 6
      vertex 6 44.8038 6
      vertex 6 44.8038 2
    endloop
  endfacet
  facet normal 0.866025 0.5 0
    outer loop
      vertex 3 50 2
      vertex 3 50 6
      vertex 6 44.8038 2
    endloop
  endfacet
  facet normal 0 1 0
    outer loop
      vertex 12 44.8038 6
      vertex 12 44.8038 2
      vertex 6 44.8038 6
    endloop
  endfacet
  facet normal 0 1 0
    outer loop
      vertex 6 44.8038 6
      vertex 12 44.8038 2
      vertex 6 44.8038 2
    endloop
  endfacet
  facet normal -0.866025 0.5 0
    outer loop
      vertex 15 50 6
      vertex 15 50 2
      vertex 12 44.8038 6
    endloop
  endfacet
  facet normal -0.866025 0.5 0
    outer loop
      vertex 12 44.8038 6
      vertex 15 50 2
      vertex 12 44.8038 2
    endloop
  endfacet
  facet normal -0.866025 -0.5 0
    outer loop
      vertex 15 50 6
      vertex 12 55.1962 6
      vertex 15 50 2
    endloop
  endfacet
  facet normal -0.866025 -0.5 0
    outer loop
      vertex 15 50 2
      vertex 12 55.1962 6
      vertex 12 55.1962 2
    endloop
  endfacet
  facet normal 0 -1 0
    outer loop
      vertex 12 55.1962 2
      vertex 12 55.1962 6
      vertex 6 55.1962 6
    endloop
  endfacet
  facet normal 0 -1 0
    outer loop
      vertex 6 55.1962 2
      vertex 12 55.1962 2
      vertex 6 55.1962 6
    endloop
  endfacet
  facet normal 0.866025 -0.5 0
    outer loop
      vertex 6 55.1962 2
      vertex 6 55.1962 6
      vertex 3 50 6
    endloop
  endfacet
  facet normal 0.866025 -0.5 0
    outer loop
      vertex 3 50 2
      vertex 6 55.1962 2
      vertex 3 50 6
    endloop
  endfacet
  facet normal 0.866025 0.5 0
    outer loop
      vertex 4 36 6
      vertex 6.5 31.6699 6
      vertex 6.5 31.6699 2
    endloop
  endfacet
  facet normal 0.866025 0.5 0
    outer loop
      vertex 4 36 2
      vertex 4 36 6
      vertex 6.5 31.6699 2
    endloop
  endfacet
  facet normal 0 1 0
    outer loop
      vertex 11.5 31.6699 6
      vertex 11.5 31.6699 2
      vertex 6.5 31.6699 6
    endloop
  endfacet
  facet normal 0 1 0
    outer loop
      vertex 6.5 31.6699 6
      vertex 11.5 31.6699 2
      vertex 6.5 31.6699 2
    endloop
  endfacet
  facet normal -0.866025 0.5 0
    outer loop
      vertex 14 36 6
      vertex 14 36 2
      vertex 11.5 31.6699 6
    endloop
  endfacet
  facet normal -0.866025 0.5 0
    outer loop
      vertex 11.5 31.6699 6
      vertex 14 36 2
      vertex 11.5 31.6699 2
    endloop
  endfacet
  facet normal -0.866025 -0.5 0
    outer loop
      vertex 14 36 6
      vertex 11.5 40.3301 6
      vertex 14 36 2
    endloop
  endfacet
  facet normal -0.866025 -0.5 0
    outer loop
      vertex 14 36 2
      vertex 11.5 40.3301 6
      vertex 11.5 40.3301 2
    endloop
  endfacet
  facet normal 0 -1 0
    outer loop
      vertex 11.5 40.3301 2
      vertex 11.5 40.3301 6
      vertex 6.5 40.3301 6
    endloop
  endfacet
  facet normal 0 -1 0
    outer loop
      vertex 6.5 40.3301 2
      vertex 11.5 40.3301 2
      vertex 6.5 40.3301 6
    endloop
  endfacet
  facet normal 0.866025 -0.5 0
    outer loop
      vertex 6.5 40.3301 2
      vertex 6.5 40.3301 6
      vertex 4 36 6
    endloop
  endfacet
  facet normal 0.866025 -0.5 0
    outer loop
      vertex 4 36 2
      vertex 6.5 40.3301 2
      vertex 4 36 6
    endloop
  endfacet
  facet normal 0.866025 0.5 0
    outer loop
      vertex 5 23 6
      vertex 7 19.5359 6
      vertex 7 19.5359 2
    endloop
  endfacet
  facet normal 0.866025 0.5 0
    outer loop
      vertex 5 23 2
      vertex 5 23 6
      vertex 7 19.5359 2
    endloop
  endfacet
  facet normal 0 1 0
    outer loop
      vertex 11 19.5359 6
      vertex 11 19.5359 2
      vertex 7 19.5359 6
    endloop
  endfacet
  facet normal 0 1 0
    outer loop
      vertex 7 19.5359 6
      vertex 11 19.5359 2
      vertex 7 19.5359 2
    endloop
  endfacet
  facet normal -0.866025 0.5 0
    outer loop
      vertex 13 23 6
      vertex 13 23 2
      vertex 11 19.5359 6
    endloop
  endfacet
  facet normal -0.866025 0.5 0
    outer loop
      vertex 11 19.5359 6
      vertex 13 23 2
      vertex 11 19.5359 2
    endloop
  endfacet
  facet normal -0.866025 -0.5 0
    outer loop
      vertex 13 23 6
      vertex 11 26.4641 6
      vertex 13 23 2
    endloop
  endfacet
  facet normal -0.866025 -0.5 0
    outer loop
      vertex 13 23 2
      vertex 11 26.4641 6
      vertex 11 26.4641 2
    endloop
  endfacet
  facet normal 0 -1 0
    outer loop
      vertex 11 26.4641 2
      vertex 11 26.4641 6
      vertex 7 26.4641 6
    endloop
  endfacet
  facet normal 0 -1 0
    outer loop
      vertex 7 26.4641 2
      vertex 11 26.4641 2
      vertex 7 26.4641 6
    endloop
  endfacet
  facet normal 0.866025 -0.5 0
    outer loop
      vertex 7 26.4641 2
      vertex 7 26.4641 6
      vertex 5 23 6
    endloop
  endfacet
  facet normal 0.866025 -0.5 0
    outer loop
      vertex 5 23 2
      vertex 7 26.4641 2
      vertex 5 23 6
    endloop
  endfacet
  facet normal 0.866025 0.5 0
    outer loop
      vertex 6 13 6
      vertex 7.5 10.4019 6
      vertex 7.5 10.4019 2
    endloop
  endfacet
  facet normal 0.866025 0.5 0
    outer loop
      vertex 6 13 2
      vertex 6 13 6
      vertex 7.5 10.4019 2
    endloop
  endfacet
  facet normal 0 1 0
    outer loop
      vertex 10.5 10.4019 6
      vertex 10.5 10.4019 2
      vertex 7.5 10.4019 6
    endloop
  endfacet
  facet normal 0 1 0
    outer loop
      vertex 7.5 10.4019 6
      vertex 10.5 10.4019 2
      vertex 7.5 10.4019 2
    endloop
  endfacet
  facet normal -0.866025 0.5 0
    outer loop
      vertex 12 13 6
      vertex 12 13 2
      vertex 10.5 10.4019 6
    endloop
  endfacet
  facet normal -0.866025 0.5 0
    outer loop
      vertex 10.5 10.4019 6
      vertex 12 13 2
      vertex 10.5 10.4019 2
    endloop
  endfacet
  facet normal -0.866025 -0.5 0
    outer loop
      vertex 12 13 6
      vertex 10.5 15.5981 6
      vertex 12 13 2
    endloop
  endfacet
  facet normal -0.866025 -0.5 0
    outer loop
      vertex 12 13 2
      vertex 10.5 15.5981 6
      vertex 10.5 15.5981 2
    endloop
  endfacet
  facet normal 0 -1 0
    outer loop
      vertex 10.5 15.5981 2
      vertex 10.5 15.5981 6
      vertex 7.5 15.5981 6
    endloop
  endfacet
  facet normal 0 -1 0
    outer loop
      vertex 7.5 15.5981 2
      vertex 10.5 15.5981 2
      vertex 7.5 15.5981 6
    endloop
  endfacet
  facet normal 0.866025 -0.5 0
    outer loop
      vertex 7.5 15.5981 2
      vertex 7.5 15.5981 6
      vertex 6 13 6
    endloop
  endfacet
  facet normal 0.866025 -0.5 0
    outer loop
      vertex 6 13 2
      vertex 7.5 15.5981 2
      vertex 6 13 6
    endloop
  endfacet
  facet normal 0.866025 0.5 0
    outer loop
      vertex 6.5 5 6
      vertex 7.75 2.83494 6
      vertex 7.75 2.83494 2
    endloop
  endfacet
  facet normal 0.866025 0.5 0
    outer loop
      vertex 6.5 5 2
      vertex 6.5 5 6
      vertex 7.75 2.83494 2
    endloop
  endfacet
  facet normal 0 1 0
    outer loop
      vertex 10.25 2.83494 6
      vertex 10.25 2.83494 2
      vertex 7.75 2.83494 6
    endloop
  endfacet
  facet normal 0 1 0
    outer loop
      vertex 7.75 2.83494 6
      vertex 10.25 2.83494 2
      vertex 7.75 2.83494 2
    endloop
  endfacet
  facet normal -0.866025 0.5 0
    outer loop
      vertex 11.5 5 6
      vertex 11.5 5 2
      vertex 10.25 2.83494 6
    endloop
  endfacet
  facet normal -0.866025 0.5 0
    outer loop
      vertex 10.25 2.83494 6
      vertex 11.5 5 2
      vertex 10.25 2.83494 2
    endloop
  endfacet
  facet normal -0.866025 -0.5 0
    outer loop
      vertex 11.5 5 6
      vertex 10.25 7.16506 6
      vertex 11.5 5 2
    endloop
  endfacet
  facet normal -0.866025 -0.5 0
    outer loop
      vertex 11.5 5 2
      vertex 10.25 7.16506 6
      vertex 10.25 7.16506 2
    endloop
  endfacet
  facet normal 0 -1 0
    outer loop
      vertex 10.25 7.16506 2
      vertex 10.25 7.16506 6
      vertex 7.75 7.16506 6
    endloop
  endfacet
  facet normal 0 -1 0
    outer loop
      vertex 7.75 7.16506 2
      vertex 10.25 7.16506 2
      vertex 7.75 7.16506 6
    endloop
  endfacet
  facet normal 0.866025 -0.5 0
    outer loop
      vertex 7.75 7.16506 2
      vertex 7.75 7.16506 6
      vertex 6.5 5 6
    endloop
  endfacet
  facet normal 0.866025 -0.5 0
    outer loop
      vertex 6.5 5 2
      vertex 7.75 7.16506 2
      vertex 6.5 5 6
    endloop
  endfacet
  facet normal 0 0 1
    outer loop
      vertex 10.9021 4.38197 2
      vertex 10.25 2.83494 2
      vertex 11.5 5 2
    endloop
  endfacet
  facet normal 0 0 1
    outer loop
      vertex 10.618 6.17557 2
      vertex 10.9021 5.61803 2
      vertex 11.5 5 2
    endloop
  endfacet
  facet normal 0 0 1
    outer loop
      vertex 9 7 2
      vertex 9.61803 6.90211 2
      vertex 10.25 7.16506 2
    endloop
  endfacet
  facet normal 0 0 1
    outer loop
      vertex 6.5 5 2
      vertex 7.09789 5.61803 2
      vertex 7.75 7.16506 2
    endloop
  endfacet
  facet normal 0 0 1
    outer loop
      vertex 6.5 5 2
      vertex 7 5 2
      vertex 7.09789 5.61803 2
    endloop
  endfacet
  facet normal 0 0 1
    outer loop
      vertex 7.09789 5.61803 2
      vertex 7.38197 6.17557 2
      vertex 7.75 7.16506 2
    endloop
  endfacet
  facet normal 0 0 1
    outer loop
      vertex 9.61803 6.90211 2
      vertex 10.1756 6.61803 2
      vertex 10.25 7.16506 2
    endloop
  endfacet
  facet normal 0 0 1
    outer loop
      vertex 7.75 7.16506 2
      vertex 7.82443 6.61803 2
      vertex 8.38197 6.90211 2
    endloop
  endfacet
  facet normal 0 0 1
    outer loop
      vertex 7.75 7.16506 2
      vertex 9 7 2
      vertex 10.25 7.16506 2
    endloop
  endfacet
  facet normal 0 0 1
    outer loop
      vertex 7.75 7.16506 2
      vertex 8.38197 6.90211 2
      vertex 9 7 2
    endloop
  endfacet
  facet normal 0 0 1
    outer loop
      vertex 11 5 2
      vertex 10.9021 4.38197 2
      vertex 11.5 5 2
    endloop
  endfacet
  facet normal 0 0 1
    outer loop
      vertex 10.25 7.16506 2
      vertex 10.618 6.17557 2
      vertex 11.5 5 2
    endloop
  endfacet
  facet normal 0 0 1
    outer loop
      vertex 10.25 7.16506 2
      vertex 10.1756 6.61803 2
      vertex 10.618 6.17557 2
    endloop
  endfacet
  facet normal 0 0 1
    outer loop
      vertex 7.82443 3.38197 2
      vertex 7.38197 3.82443 2
      vertex 7.75 2.83494 2
    endloop
  endfacet
  facet normal 0 0 1
    outer loop
      vertex 10.9021 5.61803 2
      vertex 11 5 2
      vertex 11.5 5 2
    endloop
  endfacet
  facet normal 0 0 1
    outer loop
      vertex 10.618 3.82443 2
      vertex 10.25 2.83494 2
      vertex 10.9021 4.38197 2
    endloop
  endfacet
  facet normal 0 0 1
    outer loop
      vertex 10.1756 3.38197 2
      vertex 10.25 2.83494 2
      vertex 10.618 3.82443 2
    endloop
  endfacet
  facet normal 0 0 1
    outer loop
      vertex 9.61803 3.09789 2
      vertex 10.25 2.83494 2
      vertex 10.1756 3.38197 2
    endloop
  endfacet
  facet normal 0 0 1
    outer loop
      vertex 9 3 2
      vertex 10.25 2.83494 2
      vertex 9.61803 3.09789 2
    endloop
  endfacet
  facet normal 0 0 1
    outer loop
      vertex 7.75 2.83494 2
      vertex 10.25 2.83494 2
      vertex 9 3 2
    endloop
  endfacet
  facet normal 0 0 1
    outer loop
      vertex 6.5 5 2
      vertex 7.75 2.83494 2
      vertex 7.38197 3.82443 2
    endloop
  endfacet
  facet normal 0 0 1
    outer loop
      vertex 6.5 5 2
      vertex 7.09789 4.38197 2
      vertex 7 5 2
    endloop
  endfacet
  facet normal 0 0 1
    outer loop
      vertex 6.5 5 2
      vertex 7.38197 3.82443 2
      vertex 7.09789 4.38197 2
    endloop
  endfacet
  facet normal 0 0 1
    outer loop
      vertex 7.38197 6.17557 2
      vertex 7.82443 6.61803 2
      vertex 7.75 7.16506 2
    endloop
  endfacet
  facet normal 0 0 1
    outer loop
      vertex 9 3 2
      vertex 8.38197 3.09789 2
      vertex 7.75 2.83494 2
    endloop
  endfacet
  facet normal 0 0 1
    outer loop
      vertex 8.38197 3.09789 2
      vertex 7.82443 3.38197 2
      vertex 7.75 2.83494 2
    endloop
  endfacet
  facet normal 0 0 1
    outer loop
      vertex 10.618 11.8244 2
      vertex 10.5 10.4019 2
      vertex 12 13 2
    endloop
  endfacet
  facet normal 0 0 1
    outer loop
      vertex 10.9021 12.382 2
      vertex 10.618 11.8244 2
      vertex 12 13 2
    endloop
  endfacet
  facet normal 0 0 1
    outer loop
      vertex 9.61803 11.0979 2
      vertex 9 11 2
      vertex 7.5 10.4019 2
    endloop
  endfacet
  facet normal 0 0 1
    outer loop
      vertex 8.38197 14.9021 2
      vertex 9 15 2
      vertex 10.5 15.5981 2
    endloop
  endfacet
  facet normal 0 0 1
    outer loop
      vertex 7.38197 14.1756 2
      vertex 7.82443 14.618 2
      vertex 7.5 15.5981 2
    endloop
  endfacet
  facet normal 0 0 1
    outer loop
      vertex 6 13 2
      vertex 7.09789 13.618 2
      vertex 7.5 15.5981 2
    endloop
  endfacet
  facet normal 0 0 1
    outer loop
      vertex 6 13 2
      vertex 7 13 2
      vertex 7.09789 13.618 2
    endloop
  endfacet
  facet normal 0 0 1
    outer loop
      vertex 7.38197 11.8244 2
      vertex 7.09789 12.382 2
      vertex 7.5 10.4019 2
    endloop
  endfacet
  facet normal 0 0 1
    outer loop
      vertex 9.61803 14.9021 2
      vertex 10.1756 14.618 2
      vertex 10.5 15.5981 2
    endloop
  endfacet
  facet normal 0 0 1
    outer loop
      vertex 7.5 15.5981 2
      vertex 8.38197 14.9021 2
      vertex 10.5 15.5981 2
    endloop
  endfacet
  facet normal 0 0 1
    outer loop
      vertex 7.5 15.5981 2
      vertex 7.82443 14.618 2
      vertex 8.38197 14.9021 2
    endloop
  endfacet
  facet normal 0 0 1
    outer loop
      vertex 9 15 2
      vertex 9.61803 14.9021 2
      vertex 10.5 15.5981 2
    endloop
  endfacet
  facet normal 0 0 1
    outer loop
      vertex 10.5 15.5981 2
      vertex 10.1756 14.618 2
      vertex 12 13 2
    endloop
  endfacet
  facet normal 0 0 1
    outer loop
      vertex 10.1756 14.618 2
      vertex 10.618 14.1756 2
      vertex 12 13 2
    endloop
  endfacet
  facet normal 0 0 1
    outer loop
      vertex 10.618 14.1756 2
      vertex 10.9021 13.618 2
      vertex 12 13 2
    endloop
  endfacet
  facet normal 0 0 1
    outer loop
      vertex 7.82443 11.382 2
      vertex 7.38197 11.8244 2
      vertex 7.5 10.4019 2
    endloop
  endfacet
  facet normal 0 0 1
    outer loop
      vertex 10.9021 13.618 2
      vertex 11 13 2
      vertex 12 13 2
    endloop
  endfacet
  facet normal 0 0 1
    outer loop
      vertex 11 13 2
      vertex 10.9021 12.382 2
      vertex 12 13 2
    endloop
  endfacet
  facet normal 0 0 1
    outer loop
      vertex 10.1756 11.382 2
      vertex 10.5 10.4019 2
      vertex 10.618 11.8244 2
    endloop
  endfacet
  facet normal 0 0 1
    outer loop
      vertex 9.61803 11.0979 2
      vertex 10.5 10.4019 2
      vertex 10.1756 11.382 2
    endloop
  endfacet
  facet normal 0 0 1
    outer loop
      vertex 7.5 10.4019 2
      vertex 10.5 10.4019 2
      vertex 9.61803 11.0979 2
    endloop
  endfacet
  facet normal 0 0 1
    outer loop
      vertex 6 13 2
      vertex 7.09789 12.382 2
      vertex 7 13 2
    endloop
  endfacet
  facet normal 0 0 1
    outer loop
      vertex 6 13 2
      vertex 7.5 10.4019 2
      vertex 7.09789 12.382 2
    endloop
  endfacet
  facet normal 0 0 1
    outer loop
      vertex 7.09789 13.618 2
      vertex 7.38197 14.1756 2
      vertex 7.5 15.5981 2
    endloop
  endfacet
  facet normal 0 0 1
    outer loop
      vertex 9 11 2
      vertex 8.38197 11.0979 2
      vertex 7.5 10.4019 2
    endloop
  endfacet
  facet normal 0 0 1
    outer loop
      vertex 8.38197 11.0979 2
      vertex 7.82443 11.382 2
      vertex 7.5 10.4019 2
    endloop
  endfacet
  facet normal 0 0 1
    outer loop
      vertex 7 19.5359 2
      vertex 11 19.5359 2
      vertex 13 23 2
    endloop
  endfacet
  facet normal 0 0 1
    outer loop
      vertex 9.61803 24.9021 2
      vertex 10.1756 24.618 2
      vertex 11 26.4641 2
    endloop
  endfacet
  facet normal 0 0 1
    outer loop
      vertex 10.1756 21.382 2
      vertex 7 19.5359 2
      vertex 13 23 2
    endloop
  endfacet
  facet normal 0 0 1
    outer loop
      vertex 5 23 2
      vertex 7 23 2
      vertex 7 26.4641 2
    endloop
  endfacet
  facet normal 0 0 1
    outer loop
      vertex 5 23 2
      vertex 7 19.5359 2
      vertex 7 23 2
    endloop
  endfacet
  facet normal 0 0 1
    outer loop
      vertex 9 25 2
      vertex 9.61803 24.9021 2
      vertex 11 26.4641 2
    endloop
  endfacet
  facet normal 0 0 1
    outer loop
      vertex 7 26.4641 2
      vertex 7 23 2
      vertex 7.09789 23.618 2
    endloop
  endfacet
  facet normal 0 0 1
    outer loop
      vertex 9.61803 21.0979 2
      vertex 9 21 2
      vertex 7 19.5359 2
    endloop
  endfacet
  facet normal 0 0 1
    outer loop
      vertex 7 26.4641 2
      vertex 7.09789 23.618 2
      vertex 7.38197 24.1756 2
    endloop
  endfacet
  facet normal 0 0 1
    outer loop
      vertex 7 26.4641 2
      vertex 7.82443 24.618 2
      vertex 11 26.4641 2
    endloop
  endfacet
  facet normal 0 0 1
    outer loop
      vertex 7 26.4641 2
      vertex 7.38197 24.1756 2
      vertex 7.82443 24.618 2
    endloop
  endfacet
  facet normal 0 0 1
    outer loop
      vertex 7.82443 24.618 2
      vertex 8.38197 24.9021 2
      vertex 11 26.4641 2
    endloop
  endfacet
  facet normal 0 0 1
    outer loop
      vertex 11 26.4641 2
      vertex 10.1756 24.618 2
      vertex 13 23 2
    endloop
  endfacet
  facet normal 0 0 1
    outer loop
      vertex 10.1756 24.618 2
      vertex 10.618 24.1756 2
      vertex 13 23 2
    endloop
  endfacet
  facet normal 0 0 1
    outer loop
      vertex 10.618 24.1756 2
      vertex 10.9021 23.618 2
      vertex 13 23 2
    endloop
  endfacet
  facet normal 0 0 1
    outer loop
      vertex 10.9021 23.618 2
      vertex 11 23 2
      vertex 13 23 2
    endloop
  endfacet
  facet normal 0 0 1
    outer loop
      vertex 11 23 2
      vertex 10.9021 22.382 2
      vertex 13 23 2
    endloop
  endfacet
  facet normal 0 0 1
    outer loop
      vertex 10.9021 22.382 2
      vertex 10.618 21.8244 2
      vertex 13 23 2
    endloop
  endfacet
  facet normal 0 0 1
    outer loop
      vertex 10.618 21.8244 2
      vertex 10.1756 21.382 2
      vertex 13 23 2
    endloop
  endfacet
  facet normal 0 0 1
    outer loop
      vertex 9.61803 21.0979 2
      vertex 7 19.5359 2
      vertex 10.1756 21.382 2
    endloop
  endfacet
  facet normal 0 0 1
    outer loop
      vertex 9 21 2
      vertex 8.38197 21.0979 2
      vertex 7 19.5359 2
    endloop
  endfacet
  facet normal 0 0 1
    outer loop
      vertex 7.38197 21.8244 2
      vertex 7 19.5359 2
      vertex 7.82443 21.382 2
    endloop
  endfacet
  facet normal 0 0 1
    outer loop
      vertex 7.09789 22.382 2
      vertex 7 19.5359 2
      vertex 7.38197 21.8244 2
    endloop
  endfacet
  facet normal 0 0 1
    outer loop
      vertex 7 23 2
      vertex 7 19.5359 2
      vertex 7.09789 22.382 2
    endloop
  endfacet
  facet normal 0 0 1
    outer loop
      vertex 8.38197 24.9021 2
      vertex 9 25 2
      vertex 11 26.4641 2
    endloop
  endfacet
  facet normal 0 0 1
    outer loop
      vertex 8.38197 21.0979 2
      vertex 7.82443 21.382 2
      vertex 7 19.5359 2
    endloop
  endfacet
  facet normal 0 0 1
    outer loop
      vertex 6.5 31.6699 2
      vertex 11.5 31.6699 2
      vertex 14 36 2
    endloop
  endfacet
  facet normal 0 0 1
    outer loop
      vertex 10.1756 34.382 2
      vertex 9.61803 34.0979 2
      vertex 6.5 31.6699 2
    endloop
  endfacet
  facet normal 0 0 1
    outer loop
      vertex 10.1756 34.382 2
      vertex 6.5 31.6699 2
      vertex 14 36 2
    endloop
  endfacet
  facet normal 0 0 1
    outer loop
      vertex 4 36 2
      vertex 6.5 31.6699 2
      vertex 6.5 40.3301 2
    endloop
  endfacet
  facet normal 0 0 1
    outer loop
      vertex 9.61803 37.9021 2
      vertex 10.1756 37.618 2
      vertex 11.5 40.3301 2
    endloop
  endfacet
  facet normal 0 0 1
    outer loop
      vertex 6.5 40.3301 2
      vertex 6.5 31.6699 2
      vertex 7 36 2
    endloop
  endfacet
  facet normal 0 0 1
    outer loop
      vertex 9 38 2
      vertex 9.61803 37.9021 2
      vertex 11.5 40.3301 2
    endloop
  endfacet
  facet normal 0 0 1
    outer loop
      vertex 6.5 40.3301 2
      vertex 7 36 2
      vertex 7.09789 36.618 2
    endloop
  endfacet
  facet normal 0 0 1
    outer loop
      vertex 8.38197 37.9021 2
      vertex 9 38 2
      vertex 11.5 40.3301 2
    endloop
  endfacet
  facet normal 0 0 1
    outer loop
      vertex 6.5 40.3301 2
      vertex 7.09789 36.618 2
      vertex 7.38197 37.1756 2
    endloop
  endfacet
  facet normal 0 0 1
    outer loop
      vertex 6.5 40.3301 2
      vertex 7.82443 37.618 2
      vertex 11.5 40.3301 2
    endloop
  endfacet
  facet normal 0 0 1
    outer loop
      vertex 6.5 40.3301 2
      vertex 7.38197 37.1756 2
      vertex 7.82443 37.618 2
    endloop
  endfacet
  facet normal 0 0 1
    outer loop
      vertex 11.5 40.3301 2
      vertex 10.1756 37.618 2
      vertex 14 36 2
    endloop
  endfacet
  facet normal 0 0 1
    outer loop
      vertex 10.1756 37.618 2
      vertex 10.618 37.1756 2
      vertex 14 36 2
    endloop
  endfacet
  facet normal 0 0 1
    outer loop
      vertex 10.618 37.1756 2
      vertex 10.9021 36.618 2
      vertex 14 36 2
    endloop
  endfacet
  facet normal 0 0 1
    outer loop
      vertex 10.9021 36.618 2
      vertex 11 36 2
      vertex 14 36 2
    endloop
  endfacet
  facet normal 0 0 1
    outer loop
      vertex 11 36 2
      vertex 10.9021 35.382 2
      vertex 14 36 2
    endloop
  endfacet
  facet normal 0 0 1
    outer loop
      vertex 10.9021 35.382 2
      vertex 10.618 34.8244 2
      vertex 14 36 2
    endloop
  endfacet
  facet normal 0 0 1
    outer loop
      vertex 10.618 34.8244 2
      vertex 10.1756 34.382 2
      vertex 14 36 2
    endloop
  endfacet
  facet normal 0 0 1
    outer loop
      vertex 9.61803 34.0979 2
      vertex 9 34 2
      vertex 6.5 31.6699 2
    endloop
  endfacet
  facet normal 0 0 1
    outer loop
      vertex 7.38197 34.8244 2
      vertex 6.5 31.6699 2
      vertex 7.82443 34.382 2
    endloop
  endfacet
  facet normal 0 0 1
    outer loop
      vertex 7.09789 35.382 2
      vertex 6.5 31.6699 2
      vertex 7.38197 34.8244 2
    endloop
  endfacet
  facet normal 0 0 1
    outer loop
      vertex 7 36 2
      vertex 6.5 31.6699 2
      vertex 7.09789 35.382 2
    endloop
  endfacet
  facet normal 0 0 1
    outer loop
      vertex 7.82443 37.618 2
      vertex 8.38197 37.9021 2
      vertex 11.5 40.3301 2
    endloop
  endfacet
  facet normal 0 0 1
    outer loop
      vertex 9 34 2
      vertex 8.38197 34.0979 2
      vertex 6.5 31.6699 2
    endloop
  endfacet
  facet normal 0 0 1
    outer loop
      vertex 8.38197 34.0979 2
      vertex 7.82443 34.382 2
      vertex 6.5 31.6699 2
    endloop
  endfacet
  facet normal 0 0 1
    outer loop
      vertex 6 44.8038 2
      vertex 12 44.8038 2
      vertex 15 50 2
    endloop
  endfacet
  facet normal 0 0 1
    outer loop
      vertex 10.1756 48.382 2
      vertex 9.61803 48.0979 2
      vertex 6 44.8038 2
    endloop
  endfacet
  facet normal 0 0 1
    outer loop
      vertex 10.1756 48.382 2
      vertex 6 44.8038 2
      vertex 15 50 2
    endloop
  endfacet
  facet normal 0 0 1
    outer loop
      vertex 3 50 2
      vertex 6 44.8038 2
      vertex 6 55.1962 2
    endloop
  endfacet
  facet normal 0 0 1
    outer loop
      vertex 6 55.1962 2
      vertex 6 44.8038 2
      vertex 7 50 2
    endloop
  endfacet
  facet normal 0 0 1
    outer loop
      vertex 9.61803 51.9021 2
      vertex 10.1756 51.618 2
      vertex 12 55.1962 2
    endloop
  endfacet
  facet normal 0 0 1
    outer loop
      vertex 6 55.1962 2
      vertex 7 50 2
      vertex 7.09789 50.618 2
    endloop
  endfacet
  facet normal 0 0 1
    outer loop
      vertex 6 55.1962 2
      vertex 7.09789 50.618 2
      vertex 7.38197 51.1756 2
    endloop
  endfacet
  facet normal 0 0 1
    outer loop
      vertex 6 55.1962 2
      vertex 7.82443 51.618 2
      vertex 12 55.1962 2
    endloop
  endfacet
  facet normal 0 0 1
    outer loop
      vertex 6 55.1962 2
      vertex 7.38197 51.1756 2
      vertex 7.82443 51.618 2
    endloop
  endfacet
  facet normal 0 0 1
    outer loop
      vertex 9 52 2
      vertex 9.61803 51.9021 2
      vertex 12 55.1962 2
    endloop
  endfacet
  facet normal 0 0 1
    outer loop
      vertex 12 55.1962 2
      vertex 10.1756 51.618 2
      vertex 15 50 2
    endloop
  endfacet
  facet normal 0 0 1
    outer loop
      vertex 10.1756 51.618 2
      vertex 10.618 51.1756 2
      vertex 15 50 2
    endloop
  endfacet
  facet normal 0 0 1
    outer loop
      vertex 10.618 51.1756 2
      vertex 10.9021 50.618 2
      vertex 15 50 2
    endloop
  endfacet
  facet normal 0 0 1
    outer loop
      vertex 8.38197 48.0979 2
      vertex 7.82443 48.382 2
      vertex 6 44.8038 2
    endloop
  endfacet
  facet normal 0 0 1
    outer loop
      vertex 10.9021 50.618 2
      vertex 11 50 2
      vertex 15 50 2
    endloop
  endfacet
  facet normal 0 0 1
    outer loop
      vertex 11 50 2
      vertex 10.9021 49.382 2
      vertex 15 50 2
    endloop
  endfacet
  facet normal 0 0 1
    outer loop
      vertex 10.9021 49.382 2
      vertex 10.618 48.8244 2
      vertex 15 50 2
    endloop
  endfacet
  facet normal 0 0 1
    outer loop
      vertex 10.618 48.8244 2
      vertex 10.1756 48.382 2
      vertex 15 50 2
    endloop
  endfacet
  facet normal 0 0 1
    outer loop
      vertex 9 48 2
      vertex 8.38197 48.0979 2
      vertex 6 44.8038 2
    endloop
  endfacet
  facet normal 0 0 1
    outer loop
      vertex 7.82443 48.382 2
      vertex 7.38197 48.8244 2
      vertex 6 44.8038 2
    endloop
  endfacet
  facet normal 0 0 1
    outer loop
      vertex 9.61803 48.0979 2
      vertex 9 48 2
      vertex 6 44.8038 2
    endloop
  endfacet
  facet normal 0 0 1
    outer loop
      vertex 7.09789 49.382 2
      vertex 6 44.8038 2
      vertex 7.38197 48.8244 2
    endloop
  endfacet
  facet normal 0 0 1
    outer loop
      vertex 7 50 2
      vertex 6 44.8038 2
      vertex 7.09789 49.382 2
    endloop
  endfacet
  facet normal 0 0 1
    outer loop
      vertex 7.82443 51.618 2
      vertex 8.38197 51.9021 2
      vertex 12 55.1962 2
    endloop
  endfacet
  facet normal 0 0 1
    outer loop
      vertex 8.38197 51.9021 2
      vertex 9 52 2
      vertex 12 55.1962 2
    endloop
  endfacet
endsolid OpenSCAD_Model
