solid OpenSCAD_Model
  facet normal 0 0 1
    outer loop
      vertex 5 0 -0.1
      vertex 3.3257 0.7069 -0.1
      vertex 3.4 0 -0.1
    endloop
  endfacet
  facet normal 0 0 1
    outer loop
      vertex 5 0 -0.1
      vertex 3.10605 1.3829 -0.1
      vertex 3.3257 0.7069 -0.1
    endloop
  endfacet
  facet normal 0 0 1
    outer loop
      vertex 5 0 -0.1
      vertex 2.75066 1.99847 -0.1
      vertex 3.10605 1.3829 -0.1
    endloop
  endfacet
  facet normal 0 0 1
    outer loop
      vertex 2.5 4.33013 -0.1
      vertex 2.75066 1.99847 -0.1
      vertex 5 0 -0.1
    endloop
  endfacet
  facet normal 0 0 1
    outer loop
      vertex 2.5 4.33013 -0.1
      vertex 2.27504 2.52669 -0.1
      vertex 2.75066 1.99847 -0.1
    endloop
  endfacet
  facet normal 0 0 1
    outer loop
      vertex 2.5 4.33013 -0.1
      vertex 1.7 2.94449 -0.1
      vertex 2.27504 2.52669 -0.1
    endloop
  endfacet
  facet normal 0 0 1
    outer loop
      vertex 2.5 4.33013 -0.1
      vertex 1.05066 3.23359 -0.1
      vertex 1.7 2.94449 -0.1
    endloop
  endfacet
  facet normal 0 0 1
    outer loop
      vertex 2.5 4.33013 -0.1
      vertex 0.355396 3.38137 -0.1
      vertex 1.05066 3.23359 -0.1
    endloop
  endfacet
  facet normal 0 0 1
    outer loop
      vertex 2.5 4.33013 -0.1
      vertex -0.355396 3.38137 -0.1
      vertex 0.355396 3.38137 -0.1
    endloop
  endfacet
  facet normal -0 0 1
    outer loop
      vertex -2.5 4.33013 -0.1
      vertex -0.355396 3.38137 -0.1
      vertex 2.5 4.33013 -0.1
    endloop
  endfacet
  facet normal 0 0 1
    outer loop
      vertex -0.355396 3.38137 -0.1
      vertex -2.5 4.33013 -0.1
      vertex -1.05066 3.23359 -0.1
    endloop
  endfacet
  facet normal 0 0 1
    outer loop
      vertex -2.5 4.33013 -0.1
      vertex -1.7 2.94449 -0.1
      vertex -1.05066 3.23359 -0.1
    endloop
  endfacet
  facet normal 0 0 1
    outer loop
      vertex -2.5 4.33013 -0.1
      vertex -2.27504 2.52669 -0.1
      vertex -1.7 2.94449 -0.1
    endloop
  endfacet
  facet normal 0 0 1
    outer loop
      vertex -2.5 4.33013 -0.1
      vertex -2.75066 1.99847 -0.1
      vertex -2.27504 2.52669 -0.1
    endloop
  endfacet
  facet normal 0 0 1
    outer loop
      vertex -2.5 4.33013 -0.1
      vertex -3.10605 1.3829 -0.1
      vertex -2.75066 1.99847 -0.1
    endloop
  endfacet
  facet normal 0 0 1
    outer loop
      vertex -5 0 -0.1
      vertex -3.10605 1.3829 -0.1
      vertex -2.5 4.33013 -0.1
    endloop
  endfacet
  facet normal 0 0 1
    outer loop
      vertex -3.3257 0.7069 -0.1
      vertex -5 0 -0.1
      vertex -3.4 0 -0.1
    endloop
  endfacet
  facet normal 0 0 1
    outer loop
      vertex -3.10605 1.3829 -0.1
      vertex -5 0 -0.1
      vertex -3.3257 0.7069 -0.1
    endloop
  endfacet
  facet normal 0 0 1
    outer loop
      vertex 3.3257 -0.7069 -0.1
      vertex 5 0 -0.1
      vertex 3.4 0 -0.1
    endloop
  endfacet
  facet normal 0 0 1
    outer loop
      vertex 3.10605 -1.3829 -0.1
      vertex 5 0 -0.1
      vertex 3.3257 -0.7069 -0.1
    endloop
  endfacet
  facet normal 0 0 1
    outer loop
      vertex 2.75066 -1.99847 -0.1
      vertex 5 0 -0.1
      vertex 3.10605 -1.3829 -0.1
    endloop
  endfacet
  facet normal -0 0 1
    outer loop
      vertex 2.75066 -1.99847 -0.1
      vertex 2.5 -4.33013 -0.1
      vertex 5 0 -0.1
    endloop
  endfacet
  facet normal -0 0 1
    outer loop
      vertex 2.27504 -2.52669 -0.1
      vertex 2.5 -4.33013 -0.1
      vertex 2.75066 -1.99847 -0.1
    endloop
  endfacet
  facet normal -0 0 1
    outer loop
      vertex 1.7 -2.94449 -0.1
      vertex 2.5 -4.33013 -0.1
      vertex 2.27504 -2.52669 -0.1
    endloop
  endfacet
  facet normal -0 0 1
    outer loop
      vertex 1.05066 -3.23359 -0.1
      vertex 2.5 -4.33013 -0.1
      vertex 1.7 -2.94449 -0.1
    endloop
  endfacet
  facet normal -0 0 1
    outer loop
      vertex 0.355396 -3.38137 -0.1
      vertex 2.5 -4.33013 -0.1
      vertex 1.05066 -3.23359 -0.1
    endloop
  endfacet
  facet normal -0 0 1
    outer loop
      vertex -0.355396 -3.38137 -0.1
      vertex 2.5 -4.33013 -0.1
      vertex 0.355396 -3.38137 -0.1
    endloop
  endfacet
  facet normal 0 0 1
    outer loop
      vertex -2.5 -4.33013 -0.1
      vertex -0.355396 -3.38137 -0.1
      vertex -1.05066 -3.23359 -0.1
    endloop
  endfacet
  facet normal 0 0 1
    outer loop
      vertex -0.355396 -3.38137 -0.1
      vertex -2.5 -4.33013 -0.1
      vertex 2.5 -4.33013 -0.1
    endloop
  endfacet
  facet normal 0 0 1
    outer loop
      vertex -1.7 -2.94449 -0.1
      vertex -2.5 -4.33013 -0.1
      vertex -1.05066 -3.23359 -0.1
    endloop
  endfacet
  facet normal 0 0 1
    outer loop
      vertex -2.27504 -2.52669 -0.1
      vertex -2.5 -4.33013 -0.1
      vertex -1.7 -2.94449 -0.1
    endloop
  endfacet
  facet normal 0 0 1
    outer loop
      vertex -2.75066 -1.99847 -0.1
      vertex -2.5 -4.33013 -0.1
      vertex -2.27504 -2.52669 -0.1
    endloop
  endfacet
  facet normal 0 0 1
    outer loop
      vertex -3.10605 -1.3829 -0.1
      vertex -2.5 -4.33013 -0.1
      vertex -2.75066 -1.99847 -0.1
    endloop
  endfacet
  facet normal 0 0 1
    outer loop
      vertex -5 0 -0.1
      vertex -3.10605 -1.3829 -0.1
      vertex -3.3257 -0.7069 -0.1
    endloop
  endfacet
  facet normal 0 0 1
    outer loop
      vertex -3.10605 -1.3829 -0.1
      vertex -5 0 -0.1
      vertex -2.5 -4.33013 -0.1
    endloop
  endfacet
  facet normal -0 0 1
    outer loop
      vertex -5 0 -0.1
      vertex -3.3257 -0.7069 -0.1
      vertex -3.4 0 -0.1
    endloop
  endfacet
  facet normal 0.866025 0.5 6.12063e-17
    outer loop
      vertex -2.5 -4.33013 2.55
      vertex -5 0 -0.1
      vertex -5 -3.24531e-16 2.55
    endloop
  endfacet
  facet normal 0.866025 0.5 0
    outer loop
      vertex -5 0 -0.1
      vertex -2.5 -4.33013 2.55
      vertex -2.5 -4.33013 -0.1
    endloop
  endfacet
  facet normal 0 1 -0
    outer loop
      vertex 2.5 -4.33013 -0.1
      vertex -2.5 -4.33013 2.55
      vertex 2.5 -4.33013 2.55
    endloop
  endfacet
  facet normal 0 1 0
    outer loop
      vertex -2.5 -4.33013 2.55
      vertex 2.5 -4.33013 -0.1
      vertex -2.5 -4.33013 -0.1
    endloop
  endfacet
  facet normal -0.866025 -0.5 0
    outer loop
      vertex 5 0 -0.1
      vertex 2.5 4.33013 2.55
      vertex 2.5 4.33013 -0.1
    endloop
  endfacet
  facet normal -0.866025 -0.5 -6.12063e-17
    outer loop
      vertex 2.5 4.33013 2.55
      vertex 5 0 -0.1
      vertex 5 -3.24531e-16 2.55
    endloop
  endfacet
  facet normal -0.866025 0.5 6.12063e-17
    outer loop
      vertex 2.5 -4.33013 -0.1
      vertex 5 -3.24531e-16 2.55
      vertex 5 0 -0.1
    endloop
  endfacet
  facet normal -0.866025 0.5 0
    outer loop
      vertex 5 -3.24531e-16 2.55
      vertex 2.5 -4.33013 -0.1
      vertex 2.5 -4.33013 2.55
    endloop
  endfacet
  facet normal 0.866025 -0.5 0
    outer loop
      vertex -2.5 4.33013 2.55
      vertex -5 0 -0.1
      vertex -2.5 4.33013 -0.1
    endloop
  endfacet
  facet normal 0.866025 -0.5 -6.12323e-17
    outer loop
      vertex -5 0 -0.1
      vertex -2.5 4.33013 2.55
      vertex -5 -3.24531e-16 2.55
    endloop
  endfacet
  facet normal 0 -1 0
    outer loop
      vertex -2.5 4.33013 -0.1
      vertex 2.5 4.33013 2.55
      vertex -2.5 4.33013 2.55
    endloop
  endfacet
  facet normal 0 -1 -0
    outer loop
      vertex 2.5 4.33013 2.55
      vertex -2.5 4.33013 -0.1
      vertex 2.5 4.33013 -0.1
    endloop
  endfacet
  facet normal 0.994522 -0.104528 0
    outer loop
      vertex -3.4 0 -0.1
      vertex -3.3257 0.7069 -2.55
      vertex -3.3257 0.7069 -0.1
    endloop
  endfacet
  facet normal 0.994522 -0.104528 0
    outer loop
      vertex -3.3257 0.7069 -2.55
      vertex -3.4 0 -0.1
      vertex -3.4 0 -2.55
    endloop
  endfacet
  facet normal -0.994522 -0.104528 0
    outer loop
      vertex 3.4 0 -2.55
      vertex 3.3257 0.7069 -0.1
      vertex 3.3257 0.7069 -2.55
    endloop
  endfacet
  facet normal -0.994522 -0.104528 0
    outer loop
      vertex 3.3257 0.7069 -0.1
      vertex 3.4 0 -2.55
      vertex 3.4 0 -0.1
    endloop
  endfacet
  facet normal 0 -1 0
    outer loop
      vertex -0.355396 3.38137 -2.55
      vertex 0.355396 3.38137 -0.1
      vertex -0.355396 3.38137 -0.1
    endloop
  endfacet
  facet normal 0 -1 -0
    outer loop
      vertex 0.355396 3.38137 -0.1
      vertex -0.355396 3.38137 -2.55
      vertex 0.355396 3.38137 -2.55
    endloop
  endfacet
  facet normal 0.951056 -0.309017 0
    outer loop
      vertex -3.3257 0.7069 -0.1
      vertex -3.10605 1.3829 -2.55
      vertex -3.10605 1.3829 -0.1
    endloop
  endfacet
  facet normal 0.951056 -0.309017 0
    outer loop
      vertex -3.10605 1.3829 -2.55
      vertex -3.3257 0.7069 -0.1
      vertex -3.3257 0.7069 -2.55
    endloop
  endfacet
  facet normal -0.587785 -0.809017 0
    outer loop
      vertex 1.7 2.94449 -2.55
      vertex 2.27504 2.52669 -0.1
      vertex 1.7 2.94449 -0.1
    endloop
  endfacet
  facet normal -0.587785 -0.809017 -0
    outer loop
      vertex 2.27504 2.52669 -0.1
      vertex 1.7 2.94449 -2.55
      vertex 2.27504 2.52669 -2.55
    endloop
  endfacet
  facet normal -0.207912 -0.978148 0
    outer loop
      vertex 0.355396 3.38137 -2.55
      vertex 1.05066 3.23359 -0.1
      vertex 0.355396 3.38137 -0.1
    endloop
  endfacet
  facet normal -0.207912 -0.978148 -0
    outer loop
      vertex 1.05066 3.23359 -0.1
      vertex 0.355396 3.38137 -2.55
      vertex 1.05066 3.23359 -2.55
    endloop
  endfacet
  facet normal 0.866025 0.5 0
    outer loop
      vertex -2.75066 -1.99847 -0.1
      vertex -3.10605 -1.3829 -2.55
      vertex -3.10605 -1.3829 -0.1
    endloop
  endfacet
  facet normal 0.866025 0.5 0
    outer loop
      vertex -3.10605 -1.3829 -2.55
      vertex -2.75066 -1.99847 -0.1
      vertex -2.75066 -1.99847 -2.55
    endloop
  endfacet
  facet normal 0.866025 -0.5 0
    outer loop
      vertex -3.10605 1.3829 -0.1
      vertex -2.75066 1.99847 -2.55
      vertex -2.75066 1.99847 -0.1
    endloop
  endfacet
  facet normal 0.866025 -0.5 0
    outer loop
      vertex -2.75066 1.99847 -2.55
      vertex -3.10605 1.3829 -0.1
      vertex -3.10605 1.3829 -2.55
    endloop
  endfacet
  facet normal 0.207912 -0.978148 0
    outer loop
      vertex -1.05066 3.23359 -2.55
      vertex -0.355396 3.38137 -0.1
      vertex -1.05066 3.23359 -0.1
    endloop
  endfacet
  facet normal 0.207912 -0.978148 0
    outer loop
      vertex -0.355396 3.38137 -0.1
      vertex -1.05066 3.23359 -2.55
      vertex -0.355396 3.38137 -2.55
    endloop
  endfacet
  facet normal 0.587785 -0.809017 0
    outer loop
      vertex -2.27504 2.52669 -2.55
      vertex -1.7 2.94449 -0.1
      vertex -2.27504 2.52669 -0.1
    endloop
  endfacet
  facet normal 0.587785 -0.809017 0
    outer loop
      vertex -1.7 2.94449 -0.1
      vertex -2.27504 2.52669 -2.55
      vertex -1.7 2.94449 -2.55
    endloop
  endfacet
  facet normal -0.866025 -0.5 0
    outer loop
      vertex 3.10605 1.3829 -2.55
      vertex 2.75066 1.99847 -0.1
      vertex 2.75066 1.99847 -2.55
    endloop
  endfacet
  facet normal -0.866025 -0.5 0
    outer loop
      vertex 2.75066 1.99847 -0.1
      vertex 3.10605 1.3829 -2.55
      vertex 3.10605 1.3829 -0.1
    endloop
  endfacet
  facet normal -0.743145 -0.66913 0
    outer loop
      vertex 2.75066 1.99847 -2.55
      vertex 2.27504 2.52669 -0.1
      vertex 2.27504 2.52669 -2.55
    endloop
  endfacet
  facet normal -0.743145 -0.66913 0
    outer loop
      vertex 2.27504 2.52669 -0.1
      vertex 2.75066 1.99847 -2.55
      vertex 2.75066 1.99847 -0.1
    endloop
  endfacet
  facet normal -0.951056 -0.309017 0
    outer loop
      vertex 3.3257 0.7069 -2.55
      vertex 3.10605 1.3829 -0.1
      vertex 3.10605 1.3829 -2.55
    endloop
  endfacet
  facet normal -0.951056 -0.309017 0
    outer loop
      vertex 3.10605 1.3829 -0.1
      vertex 3.3257 0.7069 -2.55
      vertex 3.3257 0.7069 -0.1
    endloop
  endfacet
  facet normal -0.406737 -0.913545 0
    outer loop
      vertex 1.05066 3.23359 -2.55
      vertex 1.7 2.94449 -0.1
      vertex 1.05066 3.23359 -0.1
    endloop
  endfacet
  facet normal -0.406737 -0.913545 -0
    outer loop
      vertex 1.7 2.94449 -0.1
      vertex 1.05066 3.23359 -2.55
      vertex 1.7 2.94449 -2.55
    endloop
  endfacet
  facet normal 0.994522 0.104528 0
    outer loop
      vertex -3.3257 -0.7069 -0.1
      vertex -3.4 0 -2.55
      vertex -3.4 0 -0.1
    endloop
  endfacet
  facet normal 0.994522 0.104528 0
    outer loop
      vertex -3.4 0 -2.55
      vertex -3.3257 -0.7069 -0.1
      vertex -3.3257 -0.7069 -2.55
    endloop
  endfacet
  facet normal 0.207912 0.978148 -0
    outer loop
      vertex -0.355396 -3.38137 -2.55
      vertex -1.05066 -3.23359 -0.1
      vertex -0.355396 -3.38137 -0.1
    endloop
  endfacet
  facet normal 0.207912 0.978148 0
    outer loop
      vertex -1.05066 -3.23359 -0.1
      vertex -0.355396 -3.38137 -2.55
      vertex -1.05066 -3.23359 -2.55
    endloop
  endfacet
  facet normal 0.743145 -0.66913 0
    outer loop
      vertex -2.75066 1.99847 -0.1
      vertex -2.27504 2.52669 -2.55
      vertex -2.27504 2.52669 -0.1
    endloop
  endfacet
  facet normal 0.743145 -0.66913 0
    outer loop
      vertex -2.27504 2.52669 -2.55
      vertex -2.75066 1.99847 -0.1
      vertex -2.75066 1.99847 -2.55
    endloop
  endfacet
  facet normal 0.406737 -0.913545 0
    outer loop
      vertex -1.7 2.94449 -2.55
      vertex -1.05066 3.23359 -0.1
      vertex -1.7 2.94449 -0.1
    endloop
  endfacet
  facet normal 0.406737 -0.913545 0
    outer loop
      vertex -1.05066 3.23359 -0.1
      vertex -1.7 2.94449 -2.55
      vertex -1.05066 3.23359 -2.55
    endloop
  endfacet
  facet normal 0.587785 0.809017 -0
    outer loop
      vertex -1.7 -2.94449 -2.55
      vertex -2.27504 -2.52669 -0.1
      vertex -1.7 -2.94449 -0.1
    endloop
  endfacet
  facet normal 0.587785 0.809017 0
    outer loop
      vertex -2.27504 -2.52669 -0.1
      vertex -1.7 -2.94449 -2.55
      vertex -2.27504 -2.52669 -2.55
    endloop
  endfacet
  facet normal 0.743145 0.66913 0
    outer loop
      vertex -2.27504 -2.52669 -0.1
      vertex -2.75066 -1.99847 -2.55
      vertex -2.75066 -1.99847 -0.1
    endloop
  endfacet
  facet normal 0.743145 0.66913 0
    outer loop
      vertex -2.75066 -1.99847 -2.55
      vertex -2.27504 -2.52669 -0.1
      vertex -2.27504 -2.52669 -2.55
    endloop
  endfacet
  facet normal 0.951056 0.309017 0
    outer loop
      vertex -3.10605 -1.3829 -0.1
      vertex -3.3257 -0.7069 -2.55
      vertex -3.3257 -0.7069 -0.1
    endloop
  endfacet
  facet normal 0.951056 0.309017 0
    outer loop
      vertex -3.3257 -0.7069 -2.55
      vertex -3.10605 -1.3829 -0.1
      vertex -3.10605 -1.3829 -2.55
    endloop
  endfacet
  facet normal -0.406737 0.913545 0
    outer loop
      vertex 1.7 -2.94449 -2.55
      vertex 1.05066 -3.23359 -0.1
      vertex 1.7 -2.94449 -0.1
    endloop
  endfacet
  facet normal -0.406737 0.913545 0
    outer loop
      vertex 1.05066 -3.23359 -0.1
      vertex 1.7 -2.94449 -2.55
      vertex 1.05066 -3.23359 -2.55
    endloop
  endfacet
  facet normal -0.951056 0.309017 0
    outer loop
      vertex 3.10605 -1.3829 -2.55
      vertex 3.3257 -0.7069 -0.1
      vertex 3.3257 -0.7069 -2.55
    endloop
  endfacet
  facet normal -0.951056 0.309017 0
    outer loop
      vertex 3.3257 -0.7069 -0.1
      vertex 3.10605 -1.3829 -2.55
      vertex 3.10605 -1.3829 -0.1
    endloop
  endfacet
  facet normal 0.406737 0.913545 -0
    outer loop
      vertex -1.05066 -3.23359 -2.55
      vertex -1.7 -2.94449 -0.1
      vertex -1.05066 -3.23359 -0.1
    endloop
  endfacet
  facet normal 0.406737 0.913545 0
    outer loop
      vertex -1.7 -2.94449 -0.1
      vertex -1.05066 -3.23359 -2.55
      vertex -1.7 -2.94449 -2.55
    endloop
  endfacet
  facet normal 0 1 -0
    outer loop
      vertex 0.355396 -3.38137 -2.55
      vertex -0.355396 -3.38137 -0.1
      vertex 0.355396 -3.38137 -0.1
    endloop
  endfacet
  facet normal 0 1 0
    outer loop
      vertex -0.355396 -3.38137 -0.1
      vertex 0.355396 -3.38137 -2.55
      vertex -0.355396 -3.38137 -2.55
    endloop
  endfacet
  facet normal -0.207912 0.978148 0
    outer loop
      vertex 1.05066 -3.23359 -2.55
      vertex 0.355396 -3.38137 -0.1
      vertex 1.05066 -3.23359 -0.1
    endloop
  endfacet
  facet normal -0.207912 0.978148 0
    outer loop
      vertex 0.355396 -3.38137 -0.1
      vertex 1.05066 -3.23359 -2.55
      vertex 0.355396 -3.38137 -2.55
    endloop
  endfacet
  facet normal -0.587785 0.809017 0
    outer loop
      vertex 2.27504 -2.52669 -2.55
      vertex 1.7 -2.94449 -0.1
      vertex 2.27504 -2.52669 -0.1
    endloop
  endfacet
  facet normal -0.587785 0.809017 0
    outer loop
      vertex 1.7 -2.94449 -0.1
      vertex 2.27504 -2.52669 -2.55
      vertex 1.7 -2.94449 -2.55
    endloop
  endfacet
  facet normal -0.743145 0.66913 0
    outer loop
      vertex 2.27504 -2.52669 -2.55
      vertex 2.75066 -1.99847 -0.1
      vertex 2.75066 -1.99847 -2.55
    endloop
  endfacet
  facet normal -0.743145 0.66913 0
    outer loop
      vertex 2.75066 -1.99847 -0.1
      vertex 2.27504 -2.52669 -2.55
      vertex 2.27504 -2.52669 -0.1
    endloop
  endfacet
  facet normal -0.866025 0.5 0
    outer loop
      vertex 2.75066 -1.99847 -2.55
      vertex 3.10605 -1.3829 -0.1
      vertex 3.10605 -1.3829 -2.55
    endloop
  endfacet
  facet normal -0.866025 0.5 0
    outer loop
      vertex 3.10605 -1.3829 -0.1
      vertex 2.75066 -1.99847 -2.55
      vertex 2.75066 -1.99847 -0.1
    endloop
  endfacet
  facet normal -0.994522 0.104528 0
    outer loop
      vertex 3.3257 -0.7069 -2.55
      vertex 3.4 0 -0.1
      vertex 3.4 0 -2.55
    endloop
  endfacet
  facet normal -0.994522 0.104528 0
    outer loop
      vertex 3.4 0 -0.1
      vertex 3.3257 -0.7069 -2.55
      vertex 3.3257 -0.7069 -0.1
    endloop
  endfacet
  facet normal 0 0 1
    outer loop
      vertex 7.5 7.5 2.55
      vertex 5 -3.24531e-16 2.55
      vertex 7.5 -7.5 2.55
    endloop
  endfacet
  facet normal 0 0 1
    outer loop
      vertex 7.5 7.5 2.55
      vertex 2.5 4.33013 2.55
      vertex 5 -3.24531e-16 2.55
    endloop
  endfacet
  facet normal 0 0 1
    outer loop
      vertex 7.5 7.5 2.55
      vertex -2.5 4.33013 2.55
      vertex 2.5 4.33013 2.55
    endloop
  endfacet
  facet normal 0 0 1
    outer loop
      vertex -2.5 4.33013 2.55
      vertex -7.5 7.5 2.55
      vertex -5 -3.24531e-16 2.55
    endloop
  endfacet
  facet normal -0 0 1
    outer loop
      vertex -7.5 7.5 2.55
      vertex -2.5 4.33013 2.55
      vertex 7.5 7.5 2.55
    endloop
  endfacet
  facet normal -0 0 1
    outer loop
      vertex 2.5 -4.33013 2.55
      vertex 7.5 -7.5 2.55
      vertex 5 -3.24531e-16 2.55
    endloop
  endfacet
  facet normal -0 0 1
    outer loop
      vertex -2.5 -4.33013 2.55
      vertex 7.5 -7.5 2.55
      vertex 2.5 -4.33013 2.55
    endloop
  endfacet
  facet normal 0 0 1
    outer loop
      vertex -2.5 -4.33013 2.55
      vertex -7.5 -7.5 2.55
      vertex 7.5 -7.5 2.55
    endloop
  endfacet
  facet normal 0 0 1
    outer loop
      vertex -5 -3.24531e-16 2.55
      vertex -7.5 -7.5 2.55
      vertex -2.5 -4.33013 2.55
    endloop
  endfacet
  facet normal 0 0 1
    outer loop
      vertex -7.5 -7.5 2.55
      vertex -5 -3.24531e-16 2.55
      vertex -7.5 7.5 2.55
    endloop
  endfacet
  facet normal 1 -0 0
    outer loop
      vertex 7.5 -7.5 2.55
      vertex 7.5 7.5 -2.55
      vertex 7.5 7.5 2.55
    endloop
  endfacet
  facet normal 1 0 0
    outer loop
      vertex 7.5 7.5 -2.55
      vertex 7.5 -7.5 2.55
      vertex 7.5 -7.5 -2.55
    endloop
  endfacet
  facet normal 0 0 -1
    outer loop
      vertex 7.5 -7.5 -2.55
      vertex 3.4 0 -2.55
      vertex 7.5 7.5 -2.55
    endloop
  endfacet
  facet normal 0 0 -1
    outer loop
      vertex 7.5 -7.5 -2.55
      vertex 3.3257 -0.7069 -2.55
      vertex 3.4 0 -2.55
    endloop
  endfacet
  facet normal 0 0 -1
    outer loop
      vertex 7.5 -7.5 -2.55
      vertex 3.10605 -1.3829 -2.55
      vertex 3.3257 -0.7069 -2.55
    endloop
  endfacet
  facet normal 0 0 -1
    outer loop
      vertex 7.5 -7.5 -2.55
      vertex 2.75066 -1.99847 -2.55
      vertex 3.10605 -1.3829 -2.55
    endloop
  endfacet
  facet normal 0 0 -1
    outer loop
      vertex 7.5 -7.5 -2.55
      vertex 2.27504 -2.52669 -2.55
      vertex 2.75066 -1.99847 -2.55
    endloop
  endfacet
  facet normal 0 0 -1
    outer loop
      vertex 7.5 -7.5 -2.55
      vertex 1.7 -2.94449 -2.55
      vertex 2.27504 -2.52669 -2.55
    endloop
  endfacet
  facet normal 0 0 -1
    outer loop
      vertex 7.5 -7.5 -2.55
      vertex 1.05066 -3.23359 -2.55
      vertex 1.7 -2.94449 -2.55
    endloop
  endfacet
  facet normal 0 0 -1
    outer loop
      vertex 7.5 -7.5 -2.55
      vertex 0.355396 -3.38137 -2.55
      vertex 1.05066 -3.23359 -2.55
    endloop
  endfacet
  facet normal 0 0 -1
    outer loop
      vertex 7.5 -7.5 -2.55
      vertex -0.355396 -3.38137 -2.55
      vertex 0.355396 -3.38137 -2.55
    endloop
  endfacet
  facet normal 0 0 -1
    outer loop
      vertex -7.5 -7.5 -2.55
      vertex -0.355396 -3.38137 -2.55
      vertex 7.5 -7.5 -2.55
    endloop
  endfacet
  facet normal -0 0 -1
    outer loop
      vertex -0.355396 -3.38137 -2.55
      vertex -7.5 -7.5 -2.55
      vertex -1.05066 -3.23359 -2.55
    endloop
  endfacet
  facet normal -0 0 -1
    outer loop
      vertex -3.3257 -0.7069 -2.55
      vertex -7.5 -7.5 -2.55
      vertex -3.4 0 -2.55
    endloop
  endfacet
  facet normal -0 0 -1
    outer loop
      vertex -3.10605 -1.3829 -2.55
      vertex -7.5 -7.5 -2.55
      vertex -3.3257 -0.7069 -2.55
    endloop
  endfacet
  facet normal -0 0 -1
    outer loop
      vertex -2.75066 -1.99847 -2.55
      vertex -7.5 -7.5 -2.55
      vertex -3.10605 -1.3829 -2.55
    endloop
  endfacet
  facet normal -0 0 -1
    outer loop
      vertex -2.27504 -2.52669 -2.55
      vertex -7.5 -7.5 -2.55
      vertex -2.75066 -1.99847 -2.55
    endloop
  endfacet
  facet normal -0 0 -1
    outer loop
      vertex -1.7 -2.94449 -2.55
      vertex -7.5 -7.5 -2.55
      vertex -2.27504 -2.52669 -2.55
    endloop
  endfacet
  facet normal -0 0 -1
    outer loop
      vertex -1.05066 -3.23359 -2.55
      vertex -7.5 -7.5 -2.55
      vertex -1.7 -2.94449 -2.55
    endloop
  endfacet
  facet normal 0 0 -1
    outer loop
      vertex 3.3257 0.7069 -2.55
      vertex 7.5 7.5 -2.55
      vertex 3.4 0 -2.55
    endloop
  endfacet
  facet normal 0 0 -1
    outer loop
      vertex 3.10605 1.3829 -2.55
      vertex 7.5 7.5 -2.55
      vertex 3.3257 0.7069 -2.55
    endloop
  endfacet
  facet normal 0 0 -1
    outer loop
      vertex 2.75066 1.99847 -2.55
      vertex 7.5 7.5 -2.55
      vertex 3.10605 1.3829 -2.55
    endloop
  endfacet
  facet normal 0 0 -1
    outer loop
      vertex 2.27504 2.52669 -2.55
      vertex 7.5 7.5 -2.55
      vertex 2.75066 1.99847 -2.55
    endloop
  endfacet
  facet normal 0 0 -1
    outer loop
      vertex 1.7 2.94449 -2.55
      vertex 7.5 7.5 -2.55
      vertex 2.27504 2.52669 -2.55
    endloop
  endfacet
  facet normal 0 0 -1
    outer loop
      vertex 1.05066 3.23359 -2.55
      vertex 7.5 7.5 -2.55
      vertex 1.7 2.94449 -2.55
    endloop
  endfacet
  facet normal 0 0 -1
    outer loop
      vertex 0.355396 3.38137 -2.55
      vertex 7.5 7.5 -2.55
      vertex 1.05066 3.23359 -2.55
    endloop
  endfacet
  facet normal 0 0 -1
    outer loop
      vertex -0.355396 3.38137 -2.55
      vertex 7.5 7.5 -2.55
      vertex 0.355396 3.38137 -2.55
    endloop
  endfacet
  facet normal 0 0 -1
    outer loop
      vertex -7.5 7.5 -2.55
      vertex -0.355396 3.38137 -2.55
      vertex -1.05066 3.23359 -2.55
    endloop
  endfacet
  facet normal 0 0 -1
    outer loop
      vertex -7.5 7.5 -2.55
      vertex -1.05066 3.23359 -2.55
      vertex -1.7 2.94449 -2.55
    endloop
  endfacet
  facet normal 0 0 -1
    outer loop
      vertex -7.5 7.5 -2.55
      vertex -3.4 0 -2.55
      vertex -7.5 -7.5 -2.55
    endloop
  endfacet
  facet normal 0 0 -1
    outer loop
      vertex -3.4 0 -2.55
      vertex -7.5 7.5 -2.55
      vertex -3.3257 0.7069 -2.55
    endloop
  endfacet
  facet normal 0 0 -1
    outer loop
      vertex -0.355396 3.38137 -2.55
      vertex -7.5 7.5 -2.55
      vertex 7.5 7.5 -2.55
    endloop
  endfacet
  facet normal 0 0 -1
    outer loop
      vertex -2.27504 2.52669 -2.55
      vertex -7.5 7.5 -2.55
      vertex -1.7 2.94449 -2.55
    endloop
  endfacet
  facet normal 0 0 -1
    outer loop
      vertex -2.75066 1.99847 -2.55
      vertex -7.5 7.5 -2.55
      vertex -2.27504 2.52669 -2.55
    endloop
  endfacet
  facet normal 0 0 -1
    outer loop
      vertex -3.10605 1.3829 -2.55
      vertex -7.5 7.5 -2.55
      vertex -2.75066 1.99847 -2.55
    endloop
  endfacet
  facet normal 0 0 -1
    outer loop
      vertex -3.3257 0.7069 -2.55
      vertex -7.5 7.5 -2.55
      vertex -3.10605 1.3829 -2.55
    endloop
  endfacet
  facet normal 0 1 -0
    outer loop
      vertex 7.5 7.5 -2.55
      vertex -7.5 7.5 2.55
      vertex 7.5 7.5 2.55
    endloop
  endfacet
  facet normal 0 1 0
    outer loop
      vertex -7.5 7.5 2.55
      vertex 7.5 7.5 -2.55
      vertex -7.5 7.5 -2.55
    endloop
  endfacet
  facet normal -1 0 0
    outer loop
      vertex -7.5 -7.5 -2.55
      vertex -7.5 7.5 2.55
      vertex -7.5 7.5 -2.55
    endloop
  endfacet
  facet normal -1 -0 0
    outer loop
      vertex -7.5 7.5 2.55
      vertex -7.5 -7.5 -2.55
      vertex -7.5 -7.5 2.55
    endloop
  endfacet
  facet normal 0 -1 0
    outer loop
      vertex -7.5 -7.5 -2.55
      vertex 7.5 -7.5 2.55
      vertex -7.5 -7.5 2.55
    endloop
  endfacet
  facet normal 0 -1 -0
    outer loop
      vertex 7.5 -7.5 2.55
      vertex -7.5 -7.5 -2.55
      vertex 7.5 -7.5 -2.55
    endloop
  endfacet
endsolid OpenSCAD_Model
