solid OpenSCAD_Model
  facet normal 0 0 1
    outer loop
      vertex 83.5 51 1.5
      vertex 81.5 49 1.5
      vertex 83.5 43 1.5
    endloop
  endfacet
  facet normal -0 0 1
    outer loop
      vertex 80.268 51 1.5
      vertex 81.5 49 1.5
      vertex 83.5 51 1.5
    endloop
  endfacet
  facet normal -0 0 1
    outer loop
      vertex 80.25 50.9689 1.5
      vertex 81.5 49 1.5
      vertex 80.268 51 1.5
    endloop
  endfacet
  facet normal -0 0 1
    outer loop
      vertex 76.75 50.9689 1.5
      vertex 81.5 49 1.5
      vertex 80.25 50.9689 1.5
    endloop
  endfacet
  facet normal 0 0 1
    outer loop
      vertex 67.5 49 1.5
      vertex 76.732 51 1.5
      vertex 67.5 51 1.5
    endloop
  endfacet
  facet normal 0 0 1
    outer loop
      vertex 76.732 51 1.5
      vertex 67.5 49 1.5
      vertex 76.75 50.9689 1.5
    endloop
  endfacet
  facet normal 0 0 1
    outer loop
      vertex 76.75 50.9689 1.5
      vertex 67.5 49 1.5
      vertex 81.5 49 1.5
    endloop
  endfacet
  facet normal 0 0 1
    outer loop
      vertex 83.5 43 1.5
      vertex 81.5 49 1.5
      vertex 81.5 43 1.5
    endloop
  endfacet
  facet normal -1 0 0
    outer loop
      vertex 81.5 43 0
      vertex 81.5 49 1.5
      vertex 81.5 49 0
    endloop
  endfacet
  facet normal -1 -0 0
    outer loop
      vertex 81.5 49 1.5
      vertex 81.5 43 0
      vertex 81.5 43 1.5
    endloop
  endfacet
  facet normal 0 0 -1
    outer loop
      vertex 80.25 59.9689 0
      vertex 85.75 57.0311 0
      vertex 80.25 57.0311 0
    endloop
  endfacet
  facet normal 0 0 -1
    outer loop
      vertex 85.75 57.0311 0
      vertex 80.25 59.9689 0
      vertex 82 63 0
    endloop
  endfacet
  facet normal 0 0 -1
    outer loop
      vertex 76.75 57.0311 0
      vertex 80.25 59.9689 0
      vertex 80.25 57.0311 0
    endloop
  endfacet
  facet normal 0 0 -1
    outer loop
      vertex 76.75 57.0311 0
      vertex 76.75 59.9689 0
      vertex 80.25 59.9689 0
    endloop
  endfacet
  facet normal 0 0 -1
    outer loop
      vertex 75 54 0
      vertex 76.75 59.9689 0
      vertex 76.75 57.0311 0
    endloop
  endfacet
  facet normal -0 0 -1
    outer loop
      vertex 76.75 59.9689 0
      vertex 75 54 0
      vertex 75 63 0
    endloop
  endfacet
  facet normal 0 0 -1
    outer loop
      vertex 92.5 43 0
      vertex 91 54 0
      vertex 92.5 68 0
    endloop
  endfacet
  facet normal 0 0 -1
    outer loop
      vertex 92.5 43 0
      vertex 89.25 50.9689 0
      vertex 91 54 0
    endloop
  endfacet
  facet normal 0 0 -1
    outer loop
      vertex 92.5 43 0
      vertex 85.75 50.9689 0
      vertex 89.25 50.9689 0
    endloop
  endfacet
  facet normal 0 0 -1
    outer loop
      vertex 85.75 50.9689 0
      vertex 82 54 0
      vertex 84 54 0
    endloop
  endfacet
  facet normal 0 0 -1
    outer loop
      vertex 81.5 43 0
      vertex 85.75 50.9689 0
      vertex 92.5 43 0
    endloop
  endfacet
  facet normal 0 0 -1
    outer loop
      vertex 85.75 50.9689 0
      vertex 81.5 43 0
      vertex 81.5 49 0
    endloop
  endfacet
  facet normal 0 0 -1
    outer loop
      vertex 80.25 50.9689 0
      vertex 85.75 50.9689 0
      vertex 81.5 49 0
    endloop
  endfacet
  facet normal 0 0 -1
    outer loop
      vertex 85.75 50.9689 0
      vertex 80.25 50.9689 0
      vertex 82 54 0
    endloop
  endfacet
  facet normal 0 0 -1
    outer loop
      vertex 81.5 49 0
      vertex 76.75 50.9689 0
      vertex 80.25 50.9689 0
    endloop
  endfacet
  facet normal -0 0 -1
    outer loop
      vertex 75 54 0
      vertex 67.5 49 0
      vertex 75 63 0
    endloop
  endfacet
  facet normal -0 0 -1
    outer loop
      vertex 76.75 50.9689 0
      vertex 67.5 49 0
      vertex 75 54 0
    endloop
  endfacet
  facet normal 0 0 -1
    outer loop
      vertex 67.5 49 0
      vertex 76.75 50.9689 0
      vertex 81.5 49 0
    endloop
  endfacet
  facet normal 0 0 -1
    outer loop
      vertex 89.25 57.0311 0
      vertex 92.5 68 0
      vertex 91 54 0
    endloop
  endfacet
  facet normal 0 0 -1
    outer loop
      vertex 82 63 0
      vertex 89.25 57.0311 0
      vertex 85.75 57.0311 0
    endloop
  endfacet
  facet normal 0 0 -1
    outer loop
      vertex 82 54 0
      vertex 85.75 57.0311 0
      vertex 84 54 0
    endloop
  endfacet
  facet normal 0 0 -1
    outer loop
      vertex 80.25 57.0311 0
      vertex 85.75 57.0311 0
      vertex 82 54 0
    endloop
  endfacet
  facet normal 0 0 -1
    outer loop
      vertex 89.25 57.0311 0
      vertex 82 63 0
      vertex 92.5 68 0
    endloop
  endfacet
  facet normal 0 0 -1
    outer loop
      vertex 80.25 66.0311 0
      vertex 92.5 68 0
      vertex 82 63 0
    endloop
  endfacet
  facet normal 0 0 -1
    outer loop
      vertex 67.5 68 0
      vertex 80.25 66.0311 0
      vertex 76.75 66.0311 0
    endloop
  endfacet
  facet normal 0 0 -1
    outer loop
      vertex 80.25 66.0311 0
      vertex 67.5 68 0
      vertex 92.5 68 0
    endloop
  endfacet
  facet normal 0 0 -1
    outer loop
      vertex 75 63 0
      vertex 67.5 68 0
      vertex 76.75 66.0311 0
    endloop
  endfacet
  facet normal 0 0 -1
    outer loop
      vertex 67.5 68 0
      vertex 75 63 0
      vertex 67.5 49 0
    endloop
  endfacet
  facet normal 0 -1 0
    outer loop
      vertex 67.5 49 0
      vertex 81.5 49 1.5
      vertex 67.5 49 1.5
    endloop
  endfacet
  facet normal 0 -1 -0
    outer loop
      vertex 81.5 49 1.5
      vertex 67.5 49 0
      vertex 81.5 49 0
    endloop
  endfacet
  facet normal 0 0 1
    outer loop
      vertex 86.442 55.4562 7
      vertex 79.9562 61.942 7
      vertex 86.0438 55.058 7
    endloop
  endfacet
  facet normal 0 0 1
    outer loop
      vertex 86.0438 55.058 7
      vertex 80.2119 54.5562 7
      vertex 80.3 54 7
    endloop
  endfacet
  facet normal 0 0 1
    outer loop
      vertex 79.9562 55.058 7
      vertex 86.0438 55.058 7
      vertex 79.9562 61.942 7
    endloop
  endfacet
  facet normal 0 0 1
    outer loop
      vertex 86.0438 55.058 7
      vertex 79.9562 55.058 7
      vertex 80.2119 54.5562 7
    endloop
  endfacet
  facet normal -0 0 1
    outer loop
      vertex 79.558 61.5438 7
      vertex 79.9562 55.058 7
      vertex 79.9562 61.942 7
    endloop
  endfacet
  facet normal 0 0 1
    outer loop
      vertex 79.558 61.5438 7
      vertex 79.558 55.4562 7
      vertex 79.9562 55.058 7
    endloop
  endfacet
  facet normal -0 0 1
    outer loop
      vertex 79.0562 61.2881 7
      vertex 79.558 55.4562 7
      vertex 79.558 61.5438 7
    endloop
  endfacet
  facet normal 0 0 1
    outer loop
      vertex 79.0562 61.2881 7
      vertex 79.0562 55.7119 7
      vertex 79.558 55.4562 7
    endloop
  endfacet
  facet normal -0 0 1
    outer loop
      vertex 78.5 61.2 7
      vertex 79.0562 55.7119 7
      vertex 79.0562 61.2881 7
    endloop
  endfacet
  facet normal 0 0 1
    outer loop
      vertex 78.5 61.2 7
      vertex 78.5 55.8 7
      vertex 79.0562 55.7119 7
    endloop
  endfacet
  facet normal 0 0 1
    outer loop
      vertex 77.9438 61.2881 7
      vertex 78.5 55.8 7
      vertex 78.5 61.2 7
    endloop
  endfacet
  facet normal 0 0 1
    outer loop
      vertex 77.9438 61.2881 7
      vertex 77.9438 55.7119 7
      vertex 78.5 55.8 7
    endloop
  endfacet
  facet normal 0 0 1
    outer loop
      vertex 77.442 61.5438 7
      vertex 77.9438 55.7119 7
      vertex 77.9438 61.2881 7
    endloop
  endfacet
  facet normal 0 0 1
    outer loop
      vertex 77.442 61.5438 7
      vertex 77.442 55.4562 7
      vertex 77.9438 55.7119 7
    endloop
  endfacet
  facet normal 0 0 1
    outer loop
      vertex 77.0438 61.942 7
      vertex 77.442 55.4562 7
      vertex 77.442 61.5438 7
    endloop
  endfacet
  facet normal 0 0 1
    outer loop
      vertex 77.0438 61.942 7
      vertex 77.0438 55.058 7
      vertex 77.442 55.4562 7
    endloop
  endfacet
  facet normal 0 0 1
    outer loop
      vertex 67.5 51 7
      vertex 77.0438 61.942 7
      vertex 76.7881 62.4438 7
    endloop
  endfacet
  facet normal 0 0 1
    outer loop
      vertex 77.0438 61.942 7
      vertex 67.5 51 7
      vertex 77.0438 55.058 7
    endloop
  endfacet
  facet normal 0 0 1
    outer loop
      vertex 67.5 68 7
      vertex 76.7881 62.4438 7
      vertex 76.7 63 7
    endloop
  endfacet
  facet normal 0 0 1
    outer loop
      vertex 77.0438 55.058 7
      vertex 67.5 51 7
      vertex 76.7881 54.5562 7
    endloop
  endfacet
  facet normal 0 0 1
    outer loop
      vertex 92.5 68 7
      vertex 89.3 54 7
      vertex 92.5 43 7
    endloop
  endfacet
  facet normal 0 0 1
    outer loop
      vertex 92.5 68 7
      vertex 89.2119 54.5562 7
      vertex 89.3 54 7
    endloop
  endfacet
  facet normal 0 0 1
    outer loop
      vertex 92.5 68 7
      vertex 88.9562 55.058 7
      vertex 89.2119 54.5562 7
    endloop
  endfacet
  facet normal 0 0 1
    outer loop
      vertex 92.5 68 7
      vertex 88.558 55.4562 7
      vertex 88.9562 55.058 7
    endloop
  endfacet
  facet normal 0 0 1
    outer loop
      vertex 92.5 68 7
      vertex 88.0562 55.7119 7
      vertex 88.558 55.4562 7
    endloop
  endfacet
  facet normal 0 0 1
    outer loop
      vertex 92.5 68 7
      vertex 87.5 55.8 7
      vertex 88.0562 55.7119 7
    endloop
  endfacet
  facet normal -0 0 1
    outer loop
      vertex 80.3 63 7
      vertex 87.5 55.8 7
      vertex 92.5 68 7
    endloop
  endfacet
  facet normal 0 0 1
    outer loop
      vertex 87.5 55.8 7
      vertex 80.3 63 7
      vertex 86.9438 55.7119 7
    endloop
  endfacet
  facet normal -0 0 1
    outer loop
      vertex 80.2119 62.4438 7
      vertex 86.9438 55.7119 7
      vertex 80.3 63 7
    endloop
  endfacet
  facet normal 0 0 1
    outer loop
      vertex 86.9438 55.7119 7
      vertex 80.2119 62.4438 7
      vertex 86.442 55.4562 7
    endloop
  endfacet
  facet normal 0 0 1
    outer loop
      vertex 80.3 54 7
      vertex 85.7 54 7
      vertex 85.7881 54.5562 7
    endloop
  endfacet
  facet normal -0 0 1
    outer loop
      vertex 79.9562 61.942 7
      vertex 86.442 55.4562 7
      vertex 80.2119 62.4438 7
    endloop
  endfacet
  facet normal 0 0 1
    outer loop
      vertex 86.0438 55.058 7
      vertex 80.3 54 7
      vertex 85.7881 54.5562 7
    endloop
  endfacet
  facet normal 0 0 1
    outer loop
      vertex 92.5 68 7
      vertex 80.2119 63.5562 7
      vertex 80.3 63 7
    endloop
  endfacet
  facet normal 0 0 1
    outer loop
      vertex 92.5 68 7
      vertex 79.9562 64.058 7
      vertex 80.2119 63.5562 7
    endloop
  endfacet
  facet normal 0 0 1
    outer loop
      vertex 92.5 68 7
      vertex 79.558 64.4562 7
      vertex 79.9562 64.058 7
    endloop
  endfacet
  facet normal 0 0 1
    outer loop
      vertex 92.5 68 7
      vertex 79.0562 64.7119 7
      vertex 79.558 64.4562 7
    endloop
  endfacet
  facet normal 0 0 1
    outer loop
      vertex 92.5 68 7
      vertex 78.5 64.8 7
      vertex 79.0562 64.7119 7
    endloop
  endfacet
  facet normal -0 0 1
    outer loop
      vertex 67.5 68 7
      vertex 78.5 64.8 7
      vertex 92.5 68 7
    endloop
  endfacet
  facet normal 0 0 1
    outer loop
      vertex 76.7881 62.4438 7
      vertex 67.5 68 7
      vertex 67.5 51 7
    endloop
  endfacet
  facet normal 0 0 1
    outer loop
      vertex 76.7881 63.5562 7
      vertex 67.5 68 7
      vertex 76.7 63 7
    endloop
  endfacet
  facet normal 0 0 1
    outer loop
      vertex 77.0438 64.058 7
      vertex 67.5 68 7
      vertex 76.7881 63.5562 7
    endloop
  endfacet
  facet normal 0 0 1
    outer loop
      vertex 77.442 64.4562 7
      vertex 67.5 68 7
      vertex 77.0438 64.058 7
    endloop
  endfacet
  facet normal 0 0 1
    outer loop
      vertex 77.9438 64.7119 7
      vertex 67.5 68 7
      vertex 77.442 64.4562 7
    endloop
  endfacet
  facet normal 0 0 1
    outer loop
      vertex 78.5 64.8 7
      vertex 67.5 68 7
      vertex 77.9438 64.7119 7
    endloop
  endfacet
  facet normal -0 0 1
    outer loop
      vertex 89.2119 53.4438 7
      vertex 92.5 43 7
      vertex 89.3 54 7
    endloop
  endfacet
  facet normal -0 0 1
    outer loop
      vertex 88.9562 52.942 7
      vertex 92.5 43 7
      vertex 89.2119 53.4438 7
    endloop
  endfacet
  facet normal -0 0 1
    outer loop
      vertex 88.558 52.5438 7
      vertex 92.5 43 7
      vertex 88.9562 52.942 7
    endloop
  endfacet
  facet normal -0 0 1
    outer loop
      vertex 88.0562 52.2881 7
      vertex 92.5 43 7
      vertex 88.558 52.5438 7
    endloop
  endfacet
  facet normal -0 0 1
    outer loop
      vertex 87.5 52.2 7
      vertex 92.5 43 7
      vertex 88.0562 52.2881 7
    endloop
  endfacet
  facet normal 0 0 1
    outer loop
      vertex 83.5 51 7
      vertex 87.5 52.2 7
      vertex 86.9438 52.2881 7
    endloop
  endfacet
  facet normal 0 0 1
    outer loop
      vertex 83.5 51 7
      vertex 86.9438 52.2881 7
      vertex 86.442 52.5438 7
    endloop
  endfacet
  facet normal 0 0 1
    outer loop
      vertex 83.5 51 7
      vertex 86.442 52.5438 7
      vertex 86.0438 52.942 7
    endloop
  endfacet
  facet normal 0 0 1
    outer loop
      vertex 83.5 51 7
      vertex 85.7881 53.4438 7
      vertex 85.7 54 7
    endloop
  endfacet
  facet normal 0 0 1
    outer loop
      vertex 83.5 51 7
      vertex 86.0438 52.942 7
      vertex 85.7881 53.4438 7
    endloop
  endfacet
  facet normal 0 0 1
    outer loop
      vertex 87.5 52.2 7
      vertex 83.5 51 7
      vertex 83.5 43 7
    endloop
  endfacet
  facet normal 0 0 1
    outer loop
      vertex 87.5 52.2 7
      vertex 83.5 43 7
      vertex 92.5 43 7
    endloop
  endfacet
  facet normal 0 0 1
    outer loop
      vertex 85.7 54 7
      vertex 80.3 54 7
      vertex 83.5 51 7
    endloop
  endfacet
  facet normal -0 0 1
    outer loop
      vertex 80.2119 53.4438 7
      vertex 83.5 51 7
      vertex 80.3 54 7
    endloop
  endfacet
  facet normal -0 0 1
    outer loop
      vertex 79.9562 52.942 7
      vertex 83.5 51 7
      vertex 80.2119 53.4438 7
    endloop
  endfacet
  facet normal -0 0 1
    outer loop
      vertex 79.558 52.5438 7
      vertex 83.5 51 7
      vertex 79.9562 52.942 7
    endloop
  endfacet
  facet normal -0 0 1
    outer loop
      vertex 79.0562 52.2881 7
      vertex 83.5 51 7
      vertex 79.558 52.5438 7
    endloop
  endfacet
  facet normal -0 0 1
    outer loop
      vertex 78.5 52.2 7
      vertex 83.5 51 7
      vertex 79.0562 52.2881 7
    endloop
  endfacet
  facet normal 0 0 1
    outer loop
      vertex 67.5 51 7
      vertex 78.5 52.2 7
      vertex 77.9438 52.2881 7
    endloop
  endfacet
  facet normal 0 0 1
    outer loop
      vertex 76.7881 54.5562 7
      vertex 67.5 51 7
      vertex 76.7 54 7
    endloop
  endfacet
  facet normal 0 0 1
    outer loop
      vertex 76.7 54 7
      vertex 67.5 51 7
      vertex 76.7881 53.4438 7
    endloop
  endfacet
  facet normal 0 0 1
    outer loop
      vertex 78.5 52.2 7
      vertex 67.5 51 7
      vertex 83.5 51 7
    endloop
  endfacet
  facet normal 0 0 1
    outer loop
      vertex 77.442 52.5438 7
      vertex 67.5 51 7
      vertex 77.9438 52.2881 7
    endloop
  endfacet
  facet normal 0 0 1
    outer loop
      vertex 77.0438 52.942 7
      vertex 67.5 51 7
      vertex 77.442 52.5438 7
    endloop
  endfacet
  facet normal 0 0 1
    outer loop
      vertex 76.7881 53.4438 7
      vertex 67.5 51 7
      vertex 77.0438 52.942 7
    endloop
  endfacet
  facet normal -1 0 0
    outer loop
      vertex 83.5 43 1.5
      vertex 83.5 51 7
      vertex 83.5 51 1.5
    endloop
  endfacet
  facet normal -1 -0 0
    outer loop
      vertex 83.5 51 7
      vertex 83.5 43 1.5
      vertex 83.5 43 7
    endloop
  endfacet
  facet normal 0 -1 0
    outer loop
      vertex 67.5 51 7
      vertex 76.732 51 2.5
      vertex 83.5 51 7
    endloop
  endfacet
  facet normal 0 -1 0
    outer loop
      vertex 67.5 51 1.5
      vertex 76.732 51 2.5
      vertex 67.5 51 7
    endloop
  endfacet
  facet normal 0 -1 -0
    outer loop
      vertex 76.732 51 2.5
      vertex 67.5 51 1.5
      vertex 76.732 51 1.5
    endloop
  endfacet
  facet normal 0 -1 0
    outer loop
      vertex 80.268 51 2.5
      vertex 83.5 51 7
      vertex 76.732 51 2.5
    endloop
  endfacet
  facet normal 0 -1 0
    outer loop
      vertex 83.5 51 1.5
      vertex 80.268 51 2.5
      vertex 80.268 51 1.5
    endloop
  endfacet
  facet normal 0 -1 0
    outer loop
      vertex 80.268 51 2.5
      vertex 83.5 51 1.5
      vertex 83.5 51 7
    endloop
  endfacet
  facet normal -0.866026 0.499999 0
    outer loop
      vertex 82 54 0
      vertex 80.268 51 1.5
      vertex 82 54 2.5
    endloop
  endfacet
  facet normal -0.866025 0.5 1.31408e-06
    outer loop
      vertex 80.25 50.9689 0
      vertex 80.268 51 1.5
      vertex 82 54 0
    endloop
  endfacet
  facet normal -0.865998 0.500047 0
    outer loop
      vertex 80.268 51 1.5
      vertex 80.25 50.9689 0
      vertex 80.25 50.9689 1.5
    endloop
  endfacet
  facet normal -0.866026 0.499999 0
    outer loop
      vertex 82 54 2.5
      vertex 80.268 51 1.5
      vertex 80.268 51 2.5
    endloop
  endfacet
  facet normal 0.866026 0.499999 -0
    outer loop
      vertex 76.732 51 1.5
      vertex 75 54 2.5
      vertex 76.732 51 2.5
    endloop
  endfacet
  facet normal 0.866026 0.499999 0
    outer loop
      vertex 75 54 2.5
      vertex 76.732 51 1.5
      vertex 75 54 0
    endloop
  endfacet
  facet normal 0.865998 0.500047 -0
    outer loop
      vertex 76.75 50.9689 0
      vertex 76.732 51 1.5
      vertex 76.75 50.9689 1.5
    endloop
  endfacet
  facet normal 0.866025 0.5 1.31408e-06
    outer loop
      vertex 76.732 51 1.5
      vertex 76.75 50.9689 0
      vertex 75 54 0
    endloop
  endfacet
  facet normal 0 1 -0
    outer loop
      vertex 80.25 50.9689 0
      vertex 76.75 50.9689 1.5
      vertex 80.25 50.9689 1.5
    endloop
  endfacet
  facet normal 0 1 0
    outer loop
      vertex 76.75 50.9689 1.5
      vertex 80.25 50.9689 0
      vertex 76.75 50.9689 0
    endloop
  endfacet
  facet normal 0.866025 -0.5 0
    outer loop
      vertex 75 54 2.5
      vertex 76.75 57.0311 0
      vertex 76.75 57.0311 2.5
    endloop
  endfacet
  facet normal 0.866025 -0.5 0
    outer loop
      vertex 76.75 57.0311 0
      vertex 75 54 2.5
      vertex 75 54 0
    endloop
  endfacet
  facet normal -0.866025 -0.5 0
    outer loop
      vertex 82 54 0
      vertex 80.25 57.0311 2.5
      vertex 80.25 57.0311 0
    endloop
  endfacet
  facet normal -0.866025 -0.5 0
    outer loop
      vertex 80.25 57.0311 2.5
      vertex 82 54 0
      vertex 82 54 2.5
    endloop
  endfacet
  facet normal 0 0 -1
    outer loop
      vertex 79.9562 52.942 2.5
      vertex 82 54 2.5
      vertex 80.268 51 2.5
    endloop
  endfacet
  facet normal -0 0 -1
    outer loop
      vertex 82 54 2.5
      vertex 80.2119 53.4438 2.5
      vertex 80.3 54 2.5
    endloop
  endfacet
  facet normal 0 0 -1
    outer loop
      vertex 82 54 2.5
      vertex 79.9562 52.942 2.5
      vertex 80.2119 53.4438 2.5
    endloop
  endfacet
  facet normal 0 0 -1
    outer loop
      vertex 80.268 51 2.5
      vertex 79.558 52.5438 2.5
      vertex 79.9562 52.942 2.5
    endloop
  endfacet
  facet normal 0 0 -1
    outer loop
      vertex 80.268 51 2.5
      vertex 79.0562 52.2881 2.5
      vertex 79.558 52.5438 2.5
    endloop
  endfacet
  facet normal 0 0 -1
    outer loop
      vertex 80.268 51 2.5
      vertex 78.5 52.2 2.5
      vertex 79.0562 52.2881 2.5
    endloop
  endfacet
  facet normal 0 0 -1
    outer loop
      vertex 76.732 51 2.5
      vertex 78.5 52.2 2.5
      vertex 80.268 51 2.5
    endloop
  endfacet
  facet normal -0 0 -1
    outer loop
      vertex 78.5 52.2 2.5
      vertex 76.732 51 2.5
      vertex 77.9438 52.2881 2.5
    endloop
  endfacet
  facet normal -0 0 -1
    outer loop
      vertex 77.9438 52.2881 2.5
      vertex 76.732 51 2.5
      vertex 77.442 52.5438 2.5
    endloop
  endfacet
  facet normal 0 0 -1
    outer loop
      vertex 76.732 51 2.5
      vertex 77.0438 52.942 2.5
      vertex 77.442 52.5438 2.5
    endloop
  endfacet
  facet normal 0 0 -1
    outer loop
      vertex 75 54 2.5
      vertex 77.0438 52.942 2.5
      vertex 76.732 51 2.5
    endloop
  endfacet
  facet normal 0 0 -1
    outer loop
      vertex 77.0438 52.942 2.5
      vertex 75 54 2.5
      vertex 76.7881 53.4438 2.5
    endloop
  endfacet
  facet normal 0 0 -1
    outer loop
      vertex 76.7881 53.4438 2.5
      vertex 75 54 2.5
      vertex 76.7 54 2.5
    endloop
  endfacet
  facet normal 0 0 -1
    outer loop
      vertex 80.2119 54.5562 2.5
      vertex 82 54 2.5
      vertex 80.3 54 2.5
    endloop
  endfacet
  facet normal 0 0 -1
    outer loop
      vertex 79.9562 55.058 2.5
      vertex 82 54 2.5
      vertex 80.2119 54.5562 2.5
    endloop
  endfacet
  facet normal 0 0 -1
    outer loop
      vertex 82 54 2.5
      vertex 79.9562 55.058 2.5
      vertex 80.25 57.0311 2.5
    endloop
  endfacet
  facet normal 0 0 -1
    outer loop
      vertex 79.558 55.4562 2.5
      vertex 80.25 57.0311 2.5
      vertex 79.9562 55.058 2.5
    endloop
  endfacet
  facet normal 0 0 -1
    outer loop
      vertex 79.0562 55.7119 2.5
      vertex 80.25 57.0311 2.5
      vertex 79.558 55.4562 2.5
    endloop
  endfacet
  facet normal 0 0 -1
    outer loop
      vertex 78.5 55.8 2.5
      vertex 80.25 57.0311 2.5
      vertex 79.0562 55.7119 2.5
    endloop
  endfacet
  facet normal 0 0 -1
    outer loop
      vertex 76.75 57.0311 2.5
      vertex 78.5 55.8 2.5
      vertex 77.9438 55.7119 2.5
    endloop
  endfacet
  facet normal 0 0 -1
    outer loop
      vertex 76.75 57.0311 2.5
      vertex 77.9438 55.7119 2.5
      vertex 77.442 55.4562 2.5
    endloop
  endfacet
  facet normal 0 0 -1
    outer loop
      vertex 78.5 55.8 2.5
      vertex 76.75 57.0311 2.5
      vertex 80.25 57.0311 2.5
    endloop
  endfacet
  facet normal 0 0 -1
    outer loop
      vertex 77.0438 55.058 2.5
      vertex 76.75 57.0311 2.5
      vertex 77.442 55.4562 2.5
    endloop
  endfacet
  facet normal 0 0 -1
    outer loop
      vertex 75 54 2.5
      vertex 77.0438 55.058 2.5
      vertex 76.7881 54.5562 2.5
    endloop
  endfacet
  facet normal 0 0 -1
    outer loop
      vertex 75 54 2.5
      vertex 76.7881 54.5562 2.5
      vertex 76.7 54 2.5
    endloop
  endfacet
  facet normal -0 0 -1
    outer loop
      vertex 77.0438 55.058 2.5
      vertex 75 54 2.5
      vertex 76.75 57.0311 2.5
    endloop
  endfacet
  facet normal 0 -1 0
    outer loop
      vertex 76.75 57.0311 0
      vertex 80.25 57.0311 2.5
      vertex 76.75 57.0311 2.5
    endloop
  endfacet
  facet normal 0 -1 -0
    outer loop
      vertex 80.25 57.0311 2.5
      vertex 76.75 57.0311 0
      vertex 80.25 57.0311 0
    endloop
  endfacet
  facet normal -0.987687 0.156444 0
    outer loop
      vertex 80.2119 53.4438 2.5
      vertex 80.3 54 7
      vertex 80.3 54 2.5
    endloop
  endfacet
  facet normal -0.987687 0.156444 0
    outer loop
      vertex 80.3 54 7
      vertex 80.2119 53.4438 2.5
      vertex 80.2119 53.4438 7
    endloop
  endfacet
  facet normal 0.987687 0.156444 0
    outer loop
      vertex 76.7881 53.4438 7
      vertex 76.7 54 2.5
      vertex 76.7 54 7
    endloop
  endfacet
  facet normal 0.987687 0.156444 0
    outer loop
      vertex 76.7 54 2.5
      vertex 76.7881 53.4438 7
      vertex 76.7881 53.4438 2.5
    endloop
  endfacet
  facet normal 0.987687 -0.156445 0
    outer loop
      vertex 76.7 54 7
      vertex 76.7881 54.5562 2.5
      vertex 76.7881 54.5562 7
    endloop
  endfacet
  facet normal 0.987687 -0.156445 0
    outer loop
      vertex 76.7881 54.5562 2.5
      vertex 76.7 54 7
      vertex 76.7 54 2.5
    endloop
  endfacet
  facet normal 0.156432 0.987689 -0
    outer loop
      vertex 78.5 52.2 2.5
      vertex 77.9438 52.2881 7
      vertex 78.5 52.2 7
    endloop
  endfacet
  facet normal 0.156432 0.987689 0
    outer loop
      vertex 77.9438 52.2881 7
      vertex 78.5 52.2 2.5
      vertex 77.9438 52.2881 2.5
    endloop
  endfacet
  facet normal -0.707107 0.707107 0
    outer loop
      vertex 79.558 52.5438 2.5
      vertex 79.9562 52.942 7
      vertex 79.9562 52.942 2.5
    endloop
  endfacet
  facet normal -0.707107 0.707107 0
    outer loop
      vertex 79.9562 52.942 7
      vertex 79.558 52.5438 2.5
      vertex 79.558 52.5438 7
    endloop
  endfacet
  facet normal -0.891008 0.453988 0
    outer loop
      vertex 79.9562 52.942 2.5
      vertex 80.2119 53.4438 7
      vertex 80.2119 53.4438 2.5
    endloop
  endfacet
  facet normal -0.891008 0.453988 0
    outer loop
      vertex 80.2119 53.4438 7
      vertex 79.9562 52.942 2.5
      vertex 79.9562 52.942 7
    endloop
  endfacet
  facet normal 0.453991 0.891006 -0
    outer loop
      vertex 77.9438 52.2881 2.5
      vertex 77.442 52.5438 7
      vertex 77.9438 52.2881 7
    endloop
  endfacet
  facet normal 0.453991 0.891006 0
    outer loop
      vertex 77.442 52.5438 7
      vertex 77.9438 52.2881 2.5
      vertex 77.442 52.5438 2.5
    endloop
  endfacet
  facet normal 0.707107 0.707107 0
    outer loop
      vertex 77.442 52.5438 7
      vertex 77.0438 52.942 2.5
      vertex 77.0438 52.942 7
    endloop
  endfacet
  facet normal 0.707107 0.707107 0
    outer loop
      vertex 77.0438 52.942 2.5
      vertex 77.442 52.5438 7
      vertex 77.442 52.5438 2.5
    endloop
  endfacet
  facet normal -0.453991 0.891006 0
    outer loop
      vertex 79.558 52.5438 2.5
      vertex 79.0562 52.2881 7
      vertex 79.558 52.5438 7
    endloop
  endfacet
  facet normal -0.453991 0.891006 0
    outer loop
      vertex 79.0562 52.2881 7
      vertex 79.558 52.5438 2.5
      vertex 79.0562 52.2881 2.5
    endloop
  endfacet
  facet normal -0.156432 0.987689 0
    outer loop
      vertex 79.0562 52.2881 2.5
      vertex 78.5 52.2 7
      vertex 79.0562 52.2881 7
    endloop
  endfacet
  facet normal -0.156432 0.987689 0
    outer loop
      vertex 78.5 52.2 7
      vertex 79.0562 52.2881 2.5
      vertex 78.5 52.2 2.5
    endloop
  endfacet
  facet normal 0.891008 0.453988 0
    outer loop
      vertex 77.0438 52.942 7
      vertex 76.7881 53.4438 2.5
      vertex 76.7881 53.4438 7
    endloop
  endfacet
  facet normal 0.891008 0.453988 0
    outer loop
      vertex 76.7881 53.4438 2.5
      vertex 77.0438 52.942 7
      vertex 77.0438 52.942 2.5
    endloop
  endfacet
  facet normal -0.453991 -0.891006 0
    outer loop
      vertex 79.0562 55.7119 2.5
      vertex 79.558 55.4562 7
      vertex 79.0562 55.7119 7
    endloop
  endfacet
  facet normal -0.453991 -0.891006 -0
    outer loop
      vertex 79.558 55.4562 7
      vertex 79.0562 55.7119 2.5
      vertex 79.558 55.4562 2.5
    endloop
  endfacet
  facet normal -0.707107 -0.707107 0
    outer loop
      vertex 79.9562 55.058 2.5
      vertex 79.558 55.4562 7
      vertex 79.558 55.4562 2.5
    endloop
  endfacet
  facet normal -0.707107 -0.707107 0
    outer loop
      vertex 79.558 55.4562 7
      vertex 79.9562 55.058 2.5
      vertex 79.9562 55.058 7
    endloop
  endfacet
  facet normal -0.987687 -0.156445 0
    outer loop
      vertex 80.3 54 2.5
      vertex 80.2119 54.5562 7
      vertex 80.2119 54.5562 2.5
    endloop
  endfacet
  facet normal -0.987687 -0.156445 0
    outer loop
      vertex 80.2119 54.5562 7
      vertex 80.3 54 2.5
      vertex 80.3 54 7
    endloop
  endfacet
  facet normal 0.891009 -0.453985 0
    outer loop
      vertex 76.7881 54.5562 7
      vertex 77.0438 55.058 2.5
      vertex 77.0438 55.058 7
    endloop
  endfacet
  facet normal 0.891009 -0.453985 0
    outer loop
      vertex 77.0438 55.058 2.5
      vertex 76.7881 54.5562 7
      vertex 76.7881 54.5562 2.5
    endloop
  endfacet
  facet normal -0.891009 -0.453985 0
    outer loop
      vertex 80.2119 54.5562 2.5
      vertex 79.9562 55.058 7
      vertex 79.9562 55.058 2.5
    endloop
  endfacet
  facet normal -0.891009 -0.453985 0
    outer loop
      vertex 79.9562 55.058 7
      vertex 80.2119 54.5562 2.5
      vertex 80.2119 54.5562 7
    endloop
  endfacet
  facet normal 0.156432 -0.987689 0
    outer loop
      vertex 77.9438 55.7119 2.5
      vertex 78.5 55.8 7
      vertex 77.9438 55.7119 7
    endloop
  endfacet
  facet normal 0.156432 -0.987689 0
    outer loop
      vertex 78.5 55.8 7
      vertex 77.9438 55.7119 2.5
      vertex 78.5 55.8 2.5
    endloop
  endfacet
  facet normal -0.156432 -0.987689 0
    outer loop
      vertex 78.5 55.8 2.5
      vertex 79.0562 55.7119 7
      vertex 78.5 55.8 7
    endloop
  endfacet
  facet normal -0.156432 -0.987689 -0
    outer loop
      vertex 79.0562 55.7119 7
      vertex 78.5 55.8 2.5
      vertex 79.0562 55.7119 2.5
    endloop
  endfacet
  facet normal 0.707107 -0.707107 0
    outer loop
      vertex 77.0438 55.058 7
      vertex 77.442 55.4562 2.5
      vertex 77.442 55.4562 7
    endloop
  endfacet
  facet normal 0.707107 -0.707107 0
    outer loop
      vertex 77.442 55.4562 2.5
      vertex 77.0438 55.058 7
      vertex 77.0438 55.058 2.5
    endloop
  endfacet
  facet normal 0.453991 -0.891006 0
    outer loop
      vertex 77.442 55.4562 2.5
      vertex 77.9438 55.7119 7
      vertex 77.442 55.4562 7
    endloop
  endfacet
  facet normal 0.453991 -0.891006 0
    outer loop
      vertex 77.9438 55.7119 7
      vertex 77.442 55.4562 2.5
      vertex 77.9438 55.7119 2.5
    endloop
  endfacet
  facet normal -0.866025 0.5 0
    outer loop
      vertex 89.25 50.9689 0
      vertex 91 54 2.5
      vertex 91 54 0
    endloop
  endfacet
  facet normal -0.866025 0.5 0
    outer loop
      vertex 91 54 2.5
      vertex 89.25 50.9689 0
      vertex 89.25 50.9689 2.5
    endloop
  endfacet
  facet normal 0.866025 0.5 0
    outer loop
      vertex 85.75 50.9689 2.5
      vertex 84 54 0
      vertex 84 54 2.5
    endloop
  endfacet
  facet normal 0.866025 0.5 0
    outer loop
      vertex 84 54 0
      vertex 85.75 50.9689 2.5
      vertex 85.75 50.9689 0
    endloop
  endfacet
  facet normal 0 1 -0
    outer loop
      vertex 89.25 50.9689 0
      vertex 85.75 50.9689 2.5
      vertex 89.25 50.9689 2.5
    endloop
  endfacet
  facet normal 0 1 0
    outer loop
      vertex 85.75 50.9689 2.5
      vertex 89.25 50.9689 0
      vertex 85.75 50.9689 0
    endloop
  endfacet
  facet normal 0.866025 -0.5 0
    outer loop
      vertex 84 54 2.5
      vertex 85.75 57.0311 0
      vertex 85.75 57.0311 2.5
    endloop
  endfacet
  facet normal 0.866025 -0.5 0
    outer loop
      vertex 85.75 57.0311 0
      vertex 84 54 2.5
      vertex 84 54 0
    endloop
  endfacet
  facet normal -0.866025 -0.5 0
    outer loop
      vertex 91 54 0
      vertex 89.25 57.0311 2.5
      vertex 89.25 57.0311 0
    endloop
  endfacet
  facet normal -0.866025 -0.5 0
    outer loop
      vertex 89.25 57.0311 2.5
      vertex 91 54 0
      vertex 91 54 2.5
    endloop
  endfacet
  facet normal 0 0 -1
    outer loop
      vertex 88.9562 52.942 2.5
      vertex 91 54 2.5
      vertex 89.25 50.9689 2.5
    endloop
  endfacet
  facet normal -0 0 -1
    outer loop
      vertex 91 54 2.5
      vertex 89.2119 53.4438 2.5
      vertex 89.3 54 2.5
    endloop
  endfacet
  facet normal 0 0 -1
    outer loop
      vertex 91 54 2.5
      vertex 88.9562 52.942 2.5
      vertex 89.2119 53.4438 2.5
    endloop
  endfacet
  facet normal 0 0 -1
    outer loop
      vertex 89.25 50.9689 2.5
      vertex 88.558 52.5438 2.5
      vertex 88.9562 52.942 2.5
    endloop
  endfacet
  facet normal 0 0 -1
    outer loop
      vertex 89.25 50.9689 2.5
      vertex 88.0562 52.2881 2.5
      vertex 88.558 52.5438 2.5
    endloop
  endfacet
  facet normal 0 0 -1
    outer loop
      vertex 89.25 50.9689 2.5
      vertex 87.5 52.2 2.5
      vertex 88.0562 52.2881 2.5
    endloop
  endfacet
  facet normal 0 0 -1
    outer loop
      vertex 85.75 50.9689 2.5
      vertex 87.5 52.2 2.5
      vertex 89.25 50.9689 2.5
    endloop
  endfacet
  facet normal -0 0 -1
    outer loop
      vertex 87.5 52.2 2.5
      vertex 85.75 50.9689 2.5
      vertex 86.9438 52.2881 2.5
    endloop
  endfacet
  facet normal -0 0 -1
    outer loop
      vertex 86.9438 52.2881 2.5
      vertex 85.75 50.9689 2.5
      vertex 86.442 52.5438 2.5
    endloop
  endfacet
  facet normal 0 0 -1
    outer loop
      vertex 85.75 50.9689 2.5
      vertex 86.0438 52.942 2.5
      vertex 86.442 52.5438 2.5
    endloop
  endfacet
  facet normal 0 0 -1
    outer loop
      vertex 84 54 2.5
      vertex 86.0438 52.942 2.5
      vertex 85.75 50.9689 2.5
    endloop
  endfacet
  facet normal 0 0 -1
    outer loop
      vertex 86.0438 52.942 2.5
      vertex 84 54 2.5
      vertex 85.7881 53.4438 2.5
    endloop
  endfacet
  facet normal 0 0 -1
    outer loop
      vertex 85.7881 53.4438 2.5
      vertex 84 54 2.5
      vertex 85.7 54 2.5
    endloop
  endfacet
  facet normal 0 0 -1
    outer loop
      vertex 89.2119 54.5562 2.5
      vertex 91 54 2.5
      vertex 89.3 54 2.5
    endloop
  endfacet
  facet normal 0 0 -1
    outer loop
      vertex 88.9562 55.058 2.5
      vertex 91 54 2.5
      vertex 89.2119 54.5562 2.5
    endloop
  endfacet
  facet normal 0 0 -1
    outer loop
      vertex 91 54 2.5
      vertex 88.9562 55.058 2.5
      vertex 89.25 57.0311 2.5
    endloop
  endfacet
  facet normal 0 0 -1
    outer loop
      vertex 88.558 55.4562 2.5
      vertex 89.25 57.0311 2.5
      vertex 88.9562 55.058 2.5
    endloop
  endfacet
  facet normal 0 0 -1
    outer loop
      vertex 88.0562 55.7119 2.5
      vertex 89.25 57.0311 2.5
      vertex 88.558 55.4562 2.5
    endloop
  endfacet
  facet normal 0 0 -1
    outer loop
      vertex 87.5 55.8 2.5
      vertex 89.25 57.0311 2.5
      vertex 88.0562 55.7119 2.5
    endloop
  endfacet
  facet normal 0 0 -1
    outer loop
      vertex 85.75 57.0311 2.5
      vertex 87.5 55.8 2.5
      vertex 86.9438 55.7119 2.5
    endloop
  endfacet
  facet normal 0 0 -1
    outer loop
      vertex 85.75 57.0311 2.5
      vertex 86.9438 55.7119 2.5
      vertex 86.442 55.4562 2.5
    endloop
  endfacet
  facet normal 0 0 -1
    outer loop
      vertex 87.5 55.8 2.5
      vertex 85.75 57.0311 2.5
      vertex 89.25 57.0311 2.5
    endloop
  endfacet
  facet normal 0 0 -1
    outer loop
      vertex 86.0438 55.058 2.5
      vertex 85.75 57.0311 2.5
      vertex 86.442 55.4562 2.5
    endloop
  endfacet
  facet normal 0 0 -1
    outer loop
      vertex 84 54 2.5
      vertex 86.0438 55.058 2.5
      vertex 85.7881 54.5562 2.5
    endloop
  endfacet
  facet normal 0 0 -1
    outer loop
      vertex 84 54 2.5
      vertex 85.7881 54.5562 2.5
      vertex 85.7 54 2.5
    endloop
  endfacet
  facet normal -0 0 -1
    outer loop
      vertex 86.0438 55.058 2.5
      vertex 84 54 2.5
      vertex 85.75 57.0311 2.5
    endloop
  endfacet
  facet normal 0 -1 0
    outer loop
      vertex 85.75 57.0311 0
      vertex 89.25 57.0311 2.5
      vertex 85.75 57.0311 2.5
    endloop
  endfacet
  facet normal 0 -1 -0
    outer loop
      vertex 89.25 57.0311 2.5
      vertex 85.75 57.0311 0
      vertex 89.25 57.0311 0
    endloop
  endfacet
  facet normal -0.987687 0.156444 0
    outer loop
      vertex 89.2119 53.4438 2.5
      vertex 89.3 54 7
      vertex 89.3 54 2.5
    endloop
  endfacet
  facet normal -0.987687 0.156444 0
    outer loop
      vertex 89.3 54 7
      vertex 89.2119 53.4438 2.5
      vertex 89.2119 53.4438 7
    endloop
  endfacet
  facet normal 0.987687 0.156444 0
    outer loop
      vertex 85.7881 53.4438 7
      vertex 85.7 54 2.5
      vertex 85.7 54 7
    endloop
  endfacet
  facet normal 0.987687 0.156444 0
    outer loop
      vertex 85.7 54 2.5
      vertex 85.7881 53.4438 7
      vertex 85.7881 53.4438 2.5
    endloop
  endfacet
  facet normal 0.987687 -0.156445 0
    outer loop
      vertex 85.7 54 7
      vertex 85.7881 54.5562 2.5
      vertex 85.7881 54.5562 7
    endloop
  endfacet
  facet normal 0.987687 -0.156445 0
    outer loop
      vertex 85.7881 54.5562 2.5
      vertex 85.7 54 7
      vertex 85.7 54 2.5
    endloop
  endfacet
  facet normal 0.156432 0.987689 -0
    outer loop
      vertex 87.5 52.2 2.5
      vertex 86.9438 52.2881 7
      vertex 87.5 52.2 7
    endloop
  endfacet
  facet normal 0.156432 0.987689 0
    outer loop
      vertex 86.9438 52.2881 7
      vertex 87.5 52.2 2.5
      vertex 86.9438 52.2881 2.5
    endloop
  endfacet
  facet normal -0.707107 0.707107 0
    outer loop
      vertex 88.558 52.5438 2.5
      vertex 88.9562 52.942 7
      vertex 88.9562 52.942 2.5
    endloop
  endfacet
  facet normal -0.707107 0.707107 0
    outer loop
      vertex 88.9562 52.942 7
      vertex 88.558 52.5438 2.5
      vertex 88.558 52.5438 7
    endloop
  endfacet
  facet normal -0.891008 0.453988 0
    outer loop
      vertex 88.9562 52.942 2.5
      vertex 89.2119 53.4438 7
      vertex 89.2119 53.4438 2.5
    endloop
  endfacet
  facet normal -0.891008 0.453988 0
    outer loop
      vertex 89.2119 53.4438 7
      vertex 88.9562 52.942 2.5
      vertex 88.9562 52.942 7
    endloop
  endfacet
  facet normal 0.453991 0.891006 -0
    outer loop
      vertex 86.9438 52.2881 2.5
      vertex 86.442 52.5438 7
      vertex 86.9438 52.2881 7
    endloop
  endfacet
  facet normal 0.453991 0.891006 0
    outer loop
      vertex 86.442 52.5438 7
      vertex 86.9438 52.2881 2.5
      vertex 86.442 52.5438 2.5
    endloop
  endfacet
  facet normal 0.707107 0.707107 0
    outer loop
      vertex 86.442 52.5438 7
      vertex 86.0438 52.942 2.5
      vertex 86.0438 52.942 7
    endloop
  endfacet
  facet normal 0.707107 0.707107 0
    outer loop
      vertex 86.0438 52.942 2.5
      vertex 86.442 52.5438 7
      vertex 86.442 52.5438 2.5
    endloop
  endfacet
  facet normal -0.453991 0.891006 0
    outer loop
      vertex 88.558 52.5438 2.5
      vertex 88.0562 52.2881 7
      vertex 88.558 52.5438 7
    endloop
  endfacet
  facet normal -0.453991 0.891006 0
    outer loop
      vertex 88.0562 52.2881 7
      vertex 88.558 52.5438 2.5
      vertex 88.0562 52.2881 2.5
    endloop
  endfacet
  facet normal -0.156432 0.987689 0
    outer loop
      vertex 88.0562 52.2881 2.5
      vertex 87.5 52.2 7
      vertex 88.0562 52.2881 7
    endloop
  endfacet
  facet normal -0.156432 0.987689 0
    outer loop
      vertex 87.5 52.2 7
      vertex 88.0562 52.2881 2.5
      vertex 87.5 52.2 2.5
    endloop
  endfacet
  facet normal 0.891008 0.453988 0
    outer loop
      vertex 86.0438 52.942 7
      vertex 85.7881 53.4438 2.5
      vertex 85.7881 53.4438 7
    endloop
  endfacet
  facet normal 0.891008 0.453988 0
    outer loop
      vertex 85.7881 53.4438 2.5
      vertex 86.0438 52.942 7
      vertex 86.0438 52.942 2.5
    endloop
  endfacet
  facet normal -0.453991 -0.891006 0
    outer loop
      vertex 88.0562 55.7119 2.5
      vertex 88.558 55.4562 7
      vertex 88.0562 55.7119 7
    endloop
  endfacet
  facet normal -0.453991 -0.891006 -0
    outer loop
      vertex 88.558 55.4562 7
      vertex 88.0562 55.7119 2.5
      vertex 88.558 55.4562 2.5
    endloop
  endfacet
  facet normal -0.707107 -0.707107 0
    outer loop
      vertex 88.9562 55.058 2.5
      vertex 88.558 55.4562 7
      vertex 88.558 55.4562 2.5
    endloop
  endfacet
  facet normal -0.707107 -0.707107 0
    outer loop
      vertex 88.558 55.4562 7
      vertex 88.9562 55.058 2.5
      vertex 88.9562 55.058 7
    endloop
  endfacet
  facet normal -0.987687 -0.156445 0
    outer loop
      vertex 89.3 54 2.5
      vertex 89.2119 54.5562 7
      vertex 89.2119 54.5562 2.5
    endloop
  endfacet
  facet normal -0.987687 -0.156445 0
    outer loop
      vertex 89.2119 54.5562 7
      vertex 89.3 54 2.5
      vertex 89.3 54 7
    endloop
  endfacet
  facet normal 0.891009 -0.453985 0
    outer loop
      vertex 85.7881 54.5562 7
      vertex 86.0438 55.058 2.5
      vertex 86.0438 55.058 7
    endloop
  endfacet
  facet normal 0.891009 -0.453985 0
    outer loop
      vertex 86.0438 55.058 2.5
      vertex 85.7881 54.5562 7
      vertex 85.7881 54.5562 2.5
    endloop
  endfacet
  facet normal -0.891009 -0.453985 0
    outer loop
      vertex 89.2119 54.5562 2.5
      vertex 88.9562 55.058 7
      vertex 88.9562 55.058 2.5
    endloop
  endfacet
  facet normal -0.891009 -0.453985 0
    outer loop
      vertex 88.9562 55.058 7
      vertex 89.2119 54.5562 2.5
      vertex 89.2119 54.5562 7
    endloop
  endfacet
  facet normal 0.156432 -0.987689 0
    outer loop
      vertex 86.9438 55.7119 2.5
      vertex 87.5 55.8 7
      vertex 86.9438 55.7119 7
    endloop
  endfacet
  facet normal 0.156432 -0.987689 0
    outer loop
      vertex 87.5 55.8 7
      vertex 86.9438 55.7119 2.5
      vertex 87.5 55.8 2.5
    endloop
  endfacet
  facet normal -0.156432 -0.987689 0
    outer loop
      vertex 87.5 55.8 2.5
      vertex 88.0562 55.7119 7
      vertex 87.5 55.8 7
    endloop
  endfacet
  facet normal -0.156432 -0.987689 -0
    outer loop
      vertex 88.0562 55.7119 7
      vertex 87.5 55.8 2.5
      vertex 88.0562 55.7119 2.5
    endloop
  endfacet
  facet normal 0.707107 -0.707107 0
    outer loop
      vertex 86.0438 55.058 7
      vertex 86.442 55.4562 2.5
      vertex 86.442 55.4562 7
    endloop
  endfacet
  facet normal 0.707107 -0.707107 0
    outer loop
      vertex 86.442 55.4562 2.5
      vertex 86.0438 55.058 7
      vertex 86.0438 55.058 2.5
    endloop
  endfacet
  facet normal 0.453991 -0.891006 0
    outer loop
      vertex 86.442 55.4562 2.5
      vertex 86.9438 55.7119 7
      vertex 86.442 55.4562 7
    endloop
  endfacet
  facet normal 0.453991 -0.891006 0
    outer loop
      vertex 86.9438 55.7119 7
      vertex 86.442 55.4562 2.5
      vertex 86.9438 55.7119 2.5
    endloop
  endfacet
  facet normal -0.866025 0.5 0
    outer loop
      vertex 80.25 59.9689 0
      vertex 82 63 2.5
      vertex 82 63 0
    endloop
  endfacet
  facet normal -0.866025 0.5 0
    outer loop
      vertex 82 63 2.5
      vertex 80.25 59.9689 0
      vertex 80.25 59.9689 2.5
    endloop
  endfacet
  facet normal 0.866025 0.5 0
    outer loop
      vertex 76.75 59.9689 2.5
      vertex 75 63 0
      vertex 75 63 2.5
    endloop
  endfacet
  facet normal 0.866025 0.5 0
    outer loop
      vertex 75 63 0
      vertex 76.75 59.9689 2.5
      vertex 76.75 59.9689 0
    endloop
  endfacet
  facet normal 0 1 -0
    outer loop
      vertex 80.25 59.9689 0
      vertex 76.75 59.9689 2.5
      vertex 80.25 59.9689 2.5
    endloop
  endfacet
  facet normal 0 1 0
    outer loop
      vertex 76.75 59.9689 2.5
      vertex 80.25 59.9689 0
      vertex 76.75 59.9689 0
    endloop
  endfacet
  facet normal 0.866025 -0.5 0
    outer loop
      vertex 75 63 2.5
      vertex 76.75 66.0311 0
      vertex 76.75 66.0311 2.5
    endloop
  endfacet
  facet normal 0.866025 -0.5 0
    outer loop
      vertex 76.75 66.0311 0
      vertex 75 63 2.5
      vertex 75 63 0
    endloop
  endfacet
  facet normal -0.866025 -0.5 0
    outer loop
      vertex 82 63 0
      vertex 80.25 66.0311 2.5
      vertex 80.25 66.0311 0
    endloop
  endfacet
  facet normal -0.866025 -0.5 0
    outer loop
      vertex 80.25 66.0311 2.5
      vertex 82 63 0
      vertex 82 63 2.5
    endloop
  endfacet
  facet normal 0 0 -1
    outer loop
      vertex 79.9562 61.942 2.5
      vertex 82 63 2.5
      vertex 80.25 59.9689 2.5
    endloop
  endfacet
  facet normal -0 0 -1
    outer loop
      vertex 82 63 2.5
      vertex 80.2119 62.4438 2.5
      vertex 80.3 63 2.5
    endloop
  endfacet
  facet normal 0 0 -1
    outer loop
      vertex 82 63 2.5
      vertex 79.9562 61.942 2.5
      vertex 80.2119 62.4438 2.5
    endloop
  endfacet
  facet normal 0 0 -1
    outer loop
      vertex 80.25 59.9689 2.5
      vertex 79.558 61.5438 2.5
      vertex 79.9562 61.942 2.5
    endloop
  endfacet
  facet normal 0 0 -1
    outer loop
      vertex 80.25 59.9689 2.5
      vertex 79.0562 61.2881 2.5
      vertex 79.558 61.5438 2.5
    endloop
  endfacet
  facet normal 0 0 -1
    outer loop
      vertex 80.25 59.9689 2.5
      vertex 78.5 61.2 2.5
      vertex 79.0562 61.2881 2.5
    endloop
  endfacet
  facet normal 0 0 -1
    outer loop
      vertex 76.75 59.9689 2.5
      vertex 78.5 61.2 2.5
      vertex 80.25 59.9689 2.5
    endloop
  endfacet
  facet normal -0 0 -1
    outer loop
      vertex 78.5 61.2 2.5
      vertex 76.75 59.9689 2.5
      vertex 77.9438 61.2881 2.5
    endloop
  endfacet
  facet normal -0 0 -1
    outer loop
      vertex 77.9438 61.2881 2.5
      vertex 76.75 59.9689 2.5
      vertex 77.442 61.5438 2.5
    endloop
  endfacet
  facet normal 0 0 -1
    outer loop
      vertex 76.75 59.9689 2.5
      vertex 77.0438 61.942 2.5
      vertex 77.442 61.5438 2.5
    endloop
  endfacet
  facet normal 0 0 -1
    outer loop
      vertex 75 63 2.5
      vertex 77.0438 61.942 2.5
      vertex 76.75 59.9689 2.5
    endloop
  endfacet
  facet normal 0 0 -1
    outer loop
      vertex 77.0438 61.942 2.5
      vertex 75 63 2.5
      vertex 76.7881 62.4438 2.5
    endloop
  endfacet
  facet normal 0 0 -1
    outer loop
      vertex 76.7881 62.4438 2.5
      vertex 75 63 2.5
      vertex 76.7 63 2.5
    endloop
  endfacet
  facet normal 0 0 -1
    outer loop
      vertex 80.2119 63.5562 2.5
      vertex 82 63 2.5
      vertex 80.3 63 2.5
    endloop
  endfacet
  facet normal 0 0 -1
    outer loop
      vertex 79.9562 64.058 2.5
      vertex 82 63 2.5
      vertex 80.2119 63.5562 2.5
    endloop
  endfacet
  facet normal 0 0 -1
    outer loop
      vertex 82 63 2.5
      vertex 79.9562 64.058 2.5
      vertex 80.25 66.0311 2.5
    endloop
  endfacet
  facet normal 0 0 -1
    outer loop
      vertex 79.558 64.4562 2.5
      vertex 80.25 66.0311 2.5
      vertex 79.9562 64.058 2.5
    endloop
  endfacet
  facet normal 0 0 -1
    outer loop
      vertex 79.0562 64.7119 2.5
      vertex 80.25 66.0311 2.5
      vertex 79.558 64.4562 2.5
    endloop
  endfacet
  facet normal 0 0 -1
    outer loop
      vertex 78.5 64.8 2.5
      vertex 80.25 66.0311 2.5
      vertex 79.0562 64.7119 2.5
    endloop
  endfacet
  facet normal 0 0 -1
    outer loop
      vertex 76.75 66.0311 2.5
      vertex 78.5 64.8 2.5
      vertex 77.9438 64.7119 2.5
    endloop
  endfacet
  facet normal 0 0 -1
    outer loop
      vertex 76.75 66.0311 2.5
      vertex 77.9438 64.7119 2.5
      vertex 77.442 64.4562 2.5
    endloop
  endfacet
  facet normal 0 0 -1
    outer loop
      vertex 78.5 64.8 2.5
      vertex 76.75 66.0311 2.5
      vertex 80.25 66.0311 2.5
    endloop
  endfacet
  facet normal 0 0 -1
    outer loop
      vertex 77.0438 64.058 2.5
      vertex 76.75 66.0311 2.5
      vertex 77.442 64.4562 2.5
    endloop
  endfacet
  facet normal 0 0 -1
    outer loop
      vertex 75 63 2.5
      vertex 77.0438 64.058 2.5
      vertex 76.7881 63.5562 2.5
    endloop
  endfacet
  facet normal 0 0 -1
    outer loop
      vertex 75 63 2.5
      vertex 76.7881 63.5562 2.5
      vertex 76.7 63 2.5
    endloop
  endfacet
  facet normal -0 0 -1
    outer loop
      vertex 77.0438 64.058 2.5
      vertex 75 63 2.5
      vertex 76.75 66.0311 2.5
    endloop
  endfacet
  facet normal 0 -1 0
    outer loop
      vertex 76.75 66.0311 0
      vertex 80.25 66.0311 2.5
      vertex 76.75 66.0311 2.5
    endloop
  endfacet
  facet normal 0 -1 -0
    outer loop
      vertex 80.25 66.0311 2.5
      vertex 76.75 66.0311 0
      vertex 80.25 66.0311 0
    endloop
  endfacet
  facet normal -0.987687 0.156444 0
    outer loop
      vertex 80.2119 62.4438 2.5
      vertex 80.3 63 7
      vertex 80.3 63 2.5
    endloop
  endfacet
  facet normal -0.987687 0.156444 0
    outer loop
      vertex 80.3 63 7
      vertex 80.2119 62.4438 2.5
      vertex 80.2119 62.4438 7
    endloop
  endfacet
  facet normal 0.987687 0.156444 0
    outer loop
      vertex 76.7881 62.4438 7
      vertex 76.7 63 2.5
      vertex 76.7 63 7
    endloop
  endfacet
  facet normal 0.987687 0.156444 0
    outer loop
      vertex 76.7 63 2.5
      vertex 76.7881 62.4438 7
      vertex 76.7881 62.4438 2.5
    endloop
  endfacet
  facet normal 0.987687 -0.156445 0
    outer loop
      vertex 76.7 63 7
      vertex 76.7881 63.5562 2.5
      vertex 76.7881 63.5562 7
    endloop
  endfacet
  facet normal 0.987687 -0.156445 0
    outer loop
      vertex 76.7881 63.5562 2.5
      vertex 76.7 63 7
      vertex 76.7 63 2.5
    endloop
  endfacet
  facet normal 0.156432 0.987689 -0
    outer loop
      vertex 78.5 61.2 2.5
      vertex 77.9438 61.2881 7
      vertex 78.5 61.2 7
    endloop
  endfacet
  facet normal 0.156432 0.987689 0
    outer loop
      vertex 77.9438 61.2881 7
      vertex 78.5 61.2 2.5
      vertex 77.9438 61.2881 2.5
    endloop
  endfacet
  facet normal -0.707107 0.707107 0
    outer loop
      vertex 79.558 61.5438 2.5
      vertex 79.9562 61.942 7
      vertex 79.9562 61.942 2.5
    endloop
  endfacet
  facet normal -0.707107 0.707107 0
    outer loop
      vertex 79.9562 61.942 7
      vertex 79.558 61.5438 2.5
      vertex 79.558 61.5438 7
    endloop
  endfacet
  facet normal -0.891008 0.453988 0
    outer loop
      vertex 79.9562 61.942 2.5
      vertex 80.2119 62.4438 7
      vertex 80.2119 62.4438 2.5
    endloop
  endfacet
  facet normal -0.891008 0.453988 0
    outer loop
      vertex 80.2119 62.4438 7
      vertex 79.9562 61.942 2.5
      vertex 79.9562 61.942 7
    endloop
  endfacet
  facet normal 0.453991 0.891006 -0
    outer loop
      vertex 77.9438 61.2881 2.5
      vertex 77.442 61.5438 7
      vertex 77.9438 61.2881 7
    endloop
  endfacet
  facet normal 0.453991 0.891006 0
    outer loop
      vertex 77.442 61.5438 7
      vertex 77.9438 61.2881 2.5
      vertex 77.442 61.5438 2.5
    endloop
  endfacet
  facet normal 0.707107 0.707107 0
    outer loop
      vertex 77.442 61.5438 7
      vertex 77.0438 61.942 2.5
      vertex 77.0438 61.942 7
    endloop
  endfacet
  facet normal 0.707107 0.707107 0
    outer loop
      vertex 77.0438 61.942 2.5
      vertex 77.442 61.5438 7
      vertex 77.442 61.5438 2.5
    endloop
  endfacet
  facet normal -0.453991 0.891006 0
    outer loop
      vertex 79.558 61.5438 2.5
      vertex 79.0562 61.2881 7
      vertex 79.558 61.5438 7
    endloop
  endfacet
  facet normal -0.453991 0.891006 0
    outer loop
      vertex 79.0562 61.2881 7
      vertex 79.558 61.5438 2.5
      vertex 79.0562 61.2881 2.5
    endloop
  endfacet
  facet normal -0.156432 0.987689 0
    outer loop
      vertex 79.0562 61.2881 2.5
      vertex 78.5 61.2 7
      vertex 79.0562 61.2881 7
    endloop
  endfacet
  facet normal -0.156432 0.987689 0
    outer loop
      vertex 78.5 61.2 7
      vertex 79.0562 61.2881 2.5
      vertex 78.5 61.2 2.5
    endloop
  endfacet
  facet normal 0.891008 0.453988 0
    outer loop
      vertex 77.0438 61.942 7
      vertex 76.7881 62.4438 2.5
      vertex 76.7881 62.4438 7
    endloop
  endfacet
  facet normal 0.891008 0.453988 0
    outer loop
      vertex 76.7881 62.4438 2.5
      vertex 77.0438 61.942 7
      vertex 77.0438 61.942 2.5
    endloop
  endfacet
  facet normal -0.453985 -0.891009 0
    outer loop
      vertex 79.0562 64.7119 2.5
      vertex 79.558 64.4562 7
      vertex 79.0562 64.7119 7
    endloop
  endfacet
  facet normal -0.453985 -0.891009 -0
    outer loop
      vertex 79.558 64.4562 7
      vertex 79.0562 64.7119 2.5
      vertex 79.558 64.4562 2.5
    endloop
  endfacet
  facet normal -0.707107 -0.707107 0
    outer loop
      vertex 79.9562 64.058 2.5
      vertex 79.558 64.4562 7
      vertex 79.558 64.4562 2.5
    endloop
  endfacet
  facet normal -0.707107 -0.707107 0
    outer loop
      vertex 79.558 64.4562 7
      vertex 79.9562 64.058 2.5
      vertex 79.9562 64.058 7
    endloop
  endfacet
  facet normal -0.987687 -0.156445 0
    outer loop
      vertex 80.3 63 2.5
      vertex 80.2119 63.5562 7
      vertex 80.2119 63.5562 2.5
    endloop
  endfacet
  facet normal -0.987687 -0.156445 0
    outer loop
      vertex 80.2119 63.5562 7
      vertex 80.3 63 2.5
      vertex 80.3 63 7
    endloop
  endfacet
  facet normal 0.891009 -0.453985 0
    outer loop
      vertex 76.7881 63.5562 7
      vertex 77.0438 64.058 2.5
      vertex 77.0438 64.058 7
    endloop
  endfacet
  facet normal 0.891009 -0.453985 0
    outer loop
      vertex 77.0438 64.058 2.5
      vertex 76.7881 63.5562 7
      vertex 76.7881 63.5562 2.5
    endloop
  endfacet
  facet normal -0.891009 -0.453985 0
    outer loop
      vertex 80.2119 63.5562 2.5
      vertex 79.9562 64.058 7
      vertex 79.9562 64.058 2.5
    endloop
  endfacet
  facet normal -0.891009 -0.453985 0
    outer loop
      vertex 79.9562 64.058 7
      vertex 80.2119 63.5562 2.5
      vertex 80.2119 63.5562 7
    endloop
  endfacet
  facet normal 0.156432 -0.987689 0
    outer loop
      vertex 77.9438 64.7119 2.5
      vertex 78.5 64.8 7
      vertex 77.9438 64.7119 7
    endloop
  endfacet
  facet normal 0.156432 -0.987689 0
    outer loop
      vertex 78.5 64.8 7
      vertex 77.9438 64.7119 2.5
      vertex 78.5 64.8 2.5
    endloop
  endfacet
  facet normal -0.156432 -0.987689 0
    outer loop
      vertex 78.5 64.8 2.5
      vertex 79.0562 64.7119 7
      vertex 78.5 64.8 7
    endloop
  endfacet
  facet normal -0.156432 -0.987689 -0
    outer loop
      vertex 79.0562 64.7119 7
      vertex 78.5 64.8 2.5
      vertex 79.0562 64.7119 2.5
    endloop
  endfacet
  facet normal 0.707107 -0.707107 0
    outer loop
      vertex 77.0438 64.058 7
      vertex 77.442 64.4562 2.5
      vertex 77.442 64.4562 7
    endloop
  endfacet
  facet normal 0.707107 -0.707107 0
    outer loop
      vertex 77.442 64.4562 2.5
      vertex 77.0438 64.058 7
      vertex 77.0438 64.058 2.5
    endloop
  endfacet
  facet normal 0.453985 -0.891009 0
    outer loop
      vertex 77.442 64.4562 2.5
      vertex 77.9438 64.7119 7
      vertex 77.442 64.4562 7
    endloop
  endfacet
  facet normal 0.453985 -0.891009 0
    outer loop
      vertex 77.9438 64.7119 7
      vertex 77.442 64.4562 2.5
      vertex 77.9438 64.7119 2.5
    endloop
  endfacet
  facet normal 1 -0 0
    outer loop
      vertex 92.5 43 7
      vertex 92.5 68 0
      vertex 92.5 68 7
    endloop
  endfacet
  facet normal 1 0 0
    outer loop
      vertex 92.5 68 0
      vertex 92.5 43 7
      vertex 92.5 43 0
    endloop
  endfacet
  facet normal 0 1 -0
    outer loop
      vertex 92.5 68 0
      vertex 67.5 68 7
      vertex 92.5 68 7
    endloop
  endfacet
  facet normal 0 1 0
    outer loop
      vertex 67.5 68 7
      vertex 92.5 68 0
      vertex 67.5 68 0
    endloop
  endfacet
  facet normal -1 0 0
    outer loop
      vertex 67.5 68 0
      vertex 67.5 51 1.5
      vertex 67.5 68 7
    endloop
  endfacet
  facet normal -1 0 0
    outer loop
      vertex 67.5 49 0
      vertex 67.5 51 1.5
      vertex 67.5 68 0
    endloop
  endfacet
  facet normal -1 -0 0
    outer loop
      vertex 67.5 51 1.5
      vertex 67.5 49 0
      vertex 67.5 49 1.5
    endloop
  endfacet
  facet normal -1 -0 0
    outer loop
      vertex 67.5 68 7
      vertex 67.5 51 1.5
      vertex 67.5 51 7
    endloop
  endfacet
  facet normal 0 -1 0
    outer loop
      vertex 81.5 43 1.5
      vertex 81.5 43 0
      vertex 83.5 43 1.5
    endloop
  endfacet
  facet normal 0 -1 0
    outer loop
      vertex 83.5 43 1.5
      vertex 92.5 43 7
      vertex 83.5 43 7
    endloop
  endfacet
  facet normal 0 -1 0
    outer loop
      vertex 92.5 43 0
      vertex 83.5 43 1.5
      vertex 81.5 43 0
    endloop
  endfacet
  facet normal 0 -1 0
    outer loop
      vertex 83.5 43 1.5
      vertex 92.5 43 0
      vertex 92.5 43 7
    endloop
  endfacet
endsolid OpenSCAD_Model
