solid OpenSCAD_Model
  facet normal -0.866025 -0.5 0
    outer loop
      vertex 6.2 0 2
      vertex 4.6 2.77128 6
      vertex 4.6 2.77128 2
    endloop
  endfacet
  facet normal -0.866025 -0.5 0
    outer loop
      vertex 4.6 2.77128 6
      vertex 6.2 0 2
      vertex 6.2 0 6
    endloop
  endfacet
  facet normal 0.866025 -0.5 0
    outer loop
      vertex -0.2 0 6
      vertex 1.4 2.77128 2
      vertex 1.4 2.77128 6
    endloop
  endfacet
  facet normal 0.866025 -0.5 0
    outer loop
      vertex 1.4 2.77128 2
      vertex -0.2 0 6
      vertex -0.2 0 2
    endloop
  endfacet
  facet normal 0 -1 0
    outer loop
      vertex 1.4 2.77128 2
      vertex 4.6 2.77128 6
      vertex 1.4 2.77128 6
    endloop
  endfacet
  facet normal 0 -1 -0
    outer loop
      vertex 4.6 2.77128 6
      vertex 1.4 2.77128 2
      vertex 4.6 2.77128 2
    endloop
  endfacet
  facet normal 0 0 1
    outer loop
      vertex 20 6 6
      vertex 17.2 0 6
      vertex 20 -6 6
    endloop
  endfacet
  facet normal 0 0 1
    outer loop
      vertex 20 6 6
      vertex 15.1 3.63731 6
      vertex 17.2 0 6
    endloop
  endfacet
  facet normal 0 0 1
    outer loop
      vertex 20 6 6
      vertex 10.9 3.63731 6
      vertex 15.1 3.63731 6
    endloop
  endfacet
  facet normal -0 0 1
    outer loop
      vertex 4.6 2.77128 6
      vertex 8.8 0 6
      vertex 10.9 3.63731 6
    endloop
  endfacet
  facet normal 0 0 1
    outer loop
      vertex 8.8 0 6
      vertex 4.6 2.77128 6
      vertex 6.2 0 6
    endloop
  endfacet
  facet normal 0 0 1
    outer loop
      vertex 1.4 2.77128 6
      vertex 10.9 3.63731 6
      vertex 20 6 6
    endloop
  endfacet
  facet normal 0 0 1
    outer loop
      vertex 10.9 3.63731 6
      vertex 1.4 2.77128 6
      vertex 4.6 2.77128 6
    endloop
  endfacet
  facet normal -0 0 1
    outer loop
      vertex -4.75 2.16506 6
      vertex -0.2 0 6
      vertex 1.4 2.77128 6
    endloop
  endfacet
  facet normal 0 0 1
    outer loop
      vertex -0.2 0 6
      vertex -4.75 2.16506 6
      vertex -3.5 0 6
    endloop
  endfacet
  facet normal -0 0 1
    outer loop
      vertex -20 6 6
      vertex 1.4 2.77128 6
      vertex 20 6 6
    endloop
  endfacet
  facet normal 0 0 1
    outer loop
      vertex 1.4 2.77128 6
      vertex -20 6 6
      vertex -4.75 2.16506 6
    endloop
  endfacet
  facet normal -0 0 1
    outer loop
      vertex -12.9 1.90526 6
      vertex -8.5 0 6
      vertex -7.25 2.16506 6
    endloop
  endfacet
  facet normal 0 0 1
    outer loop
      vertex -8.5 0 6
      vertex -12.9 1.90526 6
      vertex -11.8 0 6
    endloop
  endfacet
  facet normal 0 0 1
    outer loop
      vertex -4.75 2.16506 6
      vertex -20 6 6
      vertex -7.25 2.16506 6
    endloop
  endfacet
  facet normal 0 0 1
    outer loop
      vertex -7.25 2.16506 6
      vertex -20 6 6
      vertex -12.9 1.90526 6
    endloop
  endfacet
  facet normal 0 0 1
    outer loop
      vertex -15.1 1.90526 6
      vertex -20 6 6
      vertex -16.2 0 6
    endloop
  endfacet
  facet normal 0 0 1
    outer loop
      vertex -12.9 1.90526 6
      vertex -20 6 6
      vertex -15.1 1.90526 6
    endloop
  endfacet
  facet normal -0 0 1
    outer loop
      vertex 15.1 -3.63731 6
      vertex 20 -6 6
      vertex 17.2 0 6
    endloop
  endfacet
  facet normal -0 0 1
    outer loop
      vertex 10.9 -3.63731 6
      vertex 20 -6 6
      vertex 15.1 -3.63731 6
    endloop
  endfacet
  facet normal 0 0 1
    outer loop
      vertex 4.6 -2.77128 6
      vertex 8.8 0 6
      vertex 6.2 0 6
    endloop
  endfacet
  facet normal 0 0 1
    outer loop
      vertex 8.8 0 6
      vertex 4.6 -2.77128 6
      vertex 10.9 -3.63731 6
    endloop
  endfacet
  facet normal -0 0 1
    outer loop
      vertex 1.4 -2.77128 6
      vertex 10.9 -3.63731 6
      vertex 4.6 -2.77128 6
    endloop
  endfacet
  facet normal 0 0 1
    outer loop
      vertex 10.9 -3.63731 6
      vertex 1.4 -2.77128 6
      vertex 20 -6 6
    endloop
  endfacet
  facet normal 0 0 1
    outer loop
      vertex -4.75 -2.16506 6
      vertex -0.2 0 6
      vertex -3.5 0 6
    endloop
  endfacet
  facet normal 0 0 1
    outer loop
      vertex -0.2 0 6
      vertex -4.75 -2.16506 6
      vertex 1.4 -2.77128 6
    endloop
  endfacet
  facet normal 0 0 1
    outer loop
      vertex -20 -6 6
      vertex 1.4 -2.77128 6
      vertex -4.75 -2.16506 6
    endloop
  endfacet
  facet normal 0 0 1
    outer loop
      vertex -20 -6 6
      vertex -4.75 -2.16506 6
      vertex -7.25 -2.16506 6
    endloop
  endfacet
  facet normal 0 0 1
    outer loop
      vertex -12.9 -1.90526 6
      vertex -8.5 0 6
      vertex -11.8 0 6
    endloop
  endfacet
  facet normal 0 0 1
    outer loop
      vertex -8.5 0 6
      vertex -12.9 -1.90526 6
      vertex -7.25 -2.16506 6
    endloop
  endfacet
  facet normal 0 0 1
    outer loop
      vertex -20 -6 6
      vertex -7.25 -2.16506 6
      vertex -12.9 -1.90526 6
    endloop
  endfacet
  facet normal 0 0 1
    outer loop
      vertex -20 -6 6
      vertex -12.9 -1.90526 6
      vertex -15.1 -1.90526 6
    endloop
  endfacet
  facet normal 0 0 1
    outer loop
      vertex -20 -6 6
      vertex -16.2 0 6
      vertex -20 6 6
    endloop
  endfacet
  facet normal 0 0 1
    outer loop
      vertex 1.4 -2.77128 6
      vertex -20 -6 6
      vertex 20 -6 6
    endloop
  endfacet
  facet normal 0 0 1
    outer loop
      vertex -16.2 0 6
      vertex -20 -6 6
      vertex -15.1 -1.90526 6
    endloop
  endfacet
  facet normal -0.866025 0.5 0
    outer loop
      vertex 4.6 -2.77128 2
      vertex 6.2 0 6
      vertex 6.2 0 2
    endloop
  endfacet
  facet normal -0.866025 0.5 0
    outer loop
      vertex 6.2 0 6
      vertex 4.6 -2.77128 2
      vertex 4.6 -2.77128 6
    endloop
  endfacet
  facet normal -0 0 1
    outer loop
      vertex 4.21352 0.881678 2
      vertex 6.2 0 2
      vertex 4.6 2.77128 2
    endloop
  endfacet
  facet normal 0 0 1
    outer loop
      vertex 4.42658 -0.463525 2
      vertex 6.2 0 2
      vertex 4.5 0 2
    endloop
  endfacet
  facet normal 0 0 1
    outer loop
      vertex 6.2 0 2
      vertex 4.42658 0.463525 2
      vertex 4.5 0 2
    endloop
  endfacet
  facet normal 0 0 1
    outer loop
      vertex 6.2 0 2
      vertex 4.21352 0.881678 2
      vertex 4.42658 0.463525 2
    endloop
  endfacet
  facet normal 0 0 1
    outer loop
      vertex 4.6 2.77128 2
      vertex 3.88168 1.21352 2
      vertex 4.21352 0.881678 2
    endloop
  endfacet
  facet normal 0 0 1
    outer loop
      vertex 4.6 2.77128 2
      vertex 3.46352 1.42658 2
      vertex 3.88168 1.21352 2
    endloop
  endfacet
  facet normal 0 0 1
    outer loop
      vertex 4.6 2.77128 2
      vertex 3 1.5 2
      vertex 3.46352 1.42658 2
    endloop
  endfacet
  facet normal -0 0 1
    outer loop
      vertex 1.4 2.77128 2
      vertex 3 1.5 2
      vertex 4.6 2.77128 2
    endloop
  endfacet
  facet normal 0 0 1
    outer loop
      vertex 3 1.5 2
      vertex 1.4 2.77128 2
      vertex 2.53648 1.42658 2
    endloop
  endfacet
  facet normal 0 0 1
    outer loop
      vertex 1.78648 0.881678 2
      vertex -0.2 0 2
      vertex 1.57342 0.463525 2
    endloop
  endfacet
  facet normal 0 0 1
    outer loop
      vertex -0.2 0 2
      vertex 1.78648 0.881678 2
      vertex 1.4 2.77128 2
    endloop
  endfacet
  facet normal 0 0 1
    outer loop
      vertex 2.11832 1.21352 2
      vertex 1.4 2.77128 2
      vertex 1.78648 0.881678 2
    endloop
  endfacet
  facet normal 0 0 1
    outer loop
      vertex 2.53648 1.42658 2
      vertex 1.4 2.77128 2
      vertex 2.11832 1.21352 2
    endloop
  endfacet
  facet normal 0 0 1
    outer loop
      vertex 4.21352 -0.881678 2
      vertex 6.2 0 2
      vertex 4.42658 -0.463525 2
    endloop
  endfacet
  facet normal 0 0 1
    outer loop
      vertex 6.2 0 2
      vertex 4.21352 -0.881678 2
      vertex 4.6 -2.77128 2
    endloop
  endfacet
  facet normal -0 0 1
    outer loop
      vertex 3.88168 -1.21352 2
      vertex 4.6 -2.77128 2
      vertex 4.21352 -0.881678 2
    endloop
  endfacet
  facet normal -0 0 1
    outer loop
      vertex 3.46352 -1.42658 2
      vertex 4.6 -2.77128 2
      vertex 3.88168 -1.21352 2
    endloop
  endfacet
  facet normal -0 0 1
    outer loop
      vertex 3 -1.5 2
      vertex 4.6 -2.77128 2
      vertex 3.46352 -1.42658 2
    endloop
  endfacet
  facet normal 0 0 1
    outer loop
      vertex 1.4 -2.77128 2
      vertex 3 -1.5 2
      vertex 2.53648 -1.42658 2
    endloop
  endfacet
  facet normal 0 0 1
    outer loop
      vertex 1.4 -2.77128 2
      vertex 2.53648 -1.42658 2
      vertex 2.11832 -1.21352 2
    endloop
  endfacet
  facet normal 0 0 1
    outer loop
      vertex 3 -1.5 2
      vertex 1.4 -2.77128 2
      vertex 4.6 -2.77128 2
    endloop
  endfacet
  facet normal 0 0 1
    outer loop
      vertex 1.78648 -0.881678 2
      vertex 1.4 -2.77128 2
      vertex 2.11832 -1.21352 2
    endloop
  endfacet
  facet normal 0 0 1
    outer loop
      vertex -0.2 0 2
      vertex 1.78648 -0.881678 2
      vertex 1.57342 -0.463525 2
    endloop
  endfacet
  facet normal -0 0 1
    outer loop
      vertex -0.2 0 2
      vertex 1.57342 -0.463525 2
      vertex 1.5 0 2
    endloop
  endfacet
  facet normal 0 0 1
    outer loop
      vertex 1.57342 0.463525 2
      vertex -0.2 0 2
      vertex 1.5 0 2
    endloop
  endfacet
  facet normal 0 0 1
    outer loop
      vertex 1.78648 -0.881678 2
      vertex -0.2 0 2
      vertex 1.4 -2.77128 2
    endloop
  endfacet
  facet normal 0 1 -0
    outer loop
      vertex 4.6 -2.77128 2
      vertex 1.4 -2.77128 6
      vertex 4.6 -2.77128 6
    endloop
  endfacet
  facet normal 0 1 0
    outer loop
      vertex 1.4 -2.77128 6
      vertex 4.6 -2.77128 2
      vertex 1.4 -2.77128 2
    endloop
  endfacet
  facet normal 0.866025 0.5 0
    outer loop
      vertex 1.4 -2.77128 6
      vertex -0.2 0 2
      vertex -0.2 0 6
    endloop
  endfacet
  facet normal 0.866025 0.5 0
    outer loop
      vertex -0.2 0 2
      vertex 1.4 -2.77128 6
      vertex 1.4 -2.77128 2
    endloop
  endfacet
  facet normal -0.987688 -0.156436 0
    outer loop
      vertex 4.5 0 0
      vertex 4.42658 0.463525 2
      vertex 4.42658 0.463525 0
    endloop
  endfacet
  facet normal -0.987688 -0.156436 0
    outer loop
      vertex 4.42658 0.463525 2
      vertex 4.5 0 0
      vertex 4.5 0 2
    endloop
  endfacet
  facet normal -0.45399 -0.891007 0
    outer loop
      vertex 3.46352 1.42658 0
      vertex 3.88168 1.21352 2
      vertex 3.46352 1.42658 2
    endloop
  endfacet
  facet normal -0.45399 -0.891007 -0
    outer loop
      vertex 3.88168 1.21352 2
      vertex 3.46352 1.42658 0
      vertex 3.88168 1.21352 0
    endloop
  endfacet
  facet normal 0.45399 0.891007 -0
    outer loop
      vertex 2.53648 -1.42658 0
      vertex 2.11832 -1.21352 2
      vertex 2.53648 -1.42658 2
    endloop
  endfacet
  facet normal 0.45399 0.891007 0
    outer loop
      vertex 2.11832 -1.21352 2
      vertex 2.53648 -1.42658 0
      vertex 2.11832 -1.21352 0
    endloop
  endfacet
  facet normal -0.707107 -0.707107 0
    outer loop
      vertex 4.21352 0.881678 0
      vertex 3.88168 1.21352 2
      vertex 3.88168 1.21352 0
    endloop
  endfacet
  facet normal -0.707107 -0.707107 0
    outer loop
      vertex 3.88168 1.21352 2
      vertex 4.21352 0.881678 0
      vertex 4.21352 0.881678 2
    endloop
  endfacet
  facet normal -0.891007 -0.45399 0
    outer loop
      vertex 4.42658 0.463525 0
      vertex 4.21352 0.881678 2
      vertex 4.21352 0.881678 0
    endloop
  endfacet
  facet normal -0.891007 -0.45399 0
    outer loop
      vertex 4.21352 0.881678 2
      vertex 4.42658 0.463525 0
      vertex 4.42658 0.463525 2
    endloop
  endfacet
  facet normal -0.156436 -0.987688 0
    outer loop
      vertex 3 1.5 0
      vertex 3.46352 1.42658 2
      vertex 3 1.5 2
    endloop
  endfacet
  facet normal -0.156436 -0.987688 -0
    outer loop
      vertex 3.46352 1.42658 2
      vertex 3 1.5 0
      vertex 3.46352 1.42658 0
    endloop
  endfacet
  facet normal 0.156436 -0.987688 0
    outer loop
      vertex 2.53648 1.42658 0
      vertex 3 1.5 2
      vertex 2.53648 1.42658 2
    endloop
  endfacet
  facet normal 0.156436 -0.987688 0
    outer loop
      vertex 3 1.5 2
      vertex 2.53648 1.42658 0
      vertex 3 1.5 0
    endloop
  endfacet
  facet normal 0.45399 -0.891007 0
    outer loop
      vertex 2.11832 1.21352 0
      vertex 2.53648 1.42658 2
      vertex 2.11832 1.21352 2
    endloop
  endfacet
  facet normal 0.45399 -0.891007 0
    outer loop
      vertex 2.53648 1.42658 2
      vertex 2.11832 1.21352 0
      vertex 2.53648 1.42658 0
    endloop
  endfacet
  facet normal -0.707107 0.707107 0
    outer loop
      vertex 3.88168 -1.21352 0
      vertex 4.21352 -0.881678 2
      vertex 4.21352 -0.881678 0
    endloop
  endfacet
  facet normal -0.707107 0.707107 0
    outer loop
      vertex 4.21352 -0.881678 2
      vertex 3.88168 -1.21352 0
      vertex 3.88168 -1.21352 2
    endloop
  endfacet
  facet normal 0.987688 0.156436 0
    outer loop
      vertex 1.57342 -0.463525 2
      vertex 1.5 0 0
      vertex 1.5 0 2
    endloop
  endfacet
  facet normal 0.987688 0.156436 0
    outer loop
      vertex 1.5 0 0
      vertex 1.57342 -0.463525 2
      vertex 1.57342 -0.463525 0
    endloop
  endfacet
  facet normal 0.707107 0.707107 0
    outer loop
      vertex 2.11832 -1.21352 2
      vertex 1.78648 -0.881678 0
      vertex 1.78648 -0.881678 2
    endloop
  endfacet
  facet normal 0.707107 0.707107 0
    outer loop
      vertex 1.78648 -0.881678 0
      vertex 2.11832 -1.21352 2
      vertex 2.11832 -1.21352 0
    endloop
  endfacet
  facet normal 0 0 -1
    outer loop
      vertex 20 -6 0
      vertex 15 0 0
      vertex 20 6 0
    endloop
  endfacet
  facet normal 0 0 -1
    outer loop
      vertex 20 -6 0
      vertex 14.9021 -0.618033 0
      vertex 15 0 0
    endloop
  endfacet
  facet normal 0 0 -1
    outer loop
      vertex 20 -6 0
      vertex 14.618 -1.17557 0
      vertex 14.9021 -0.618033 0
    endloop
  endfacet
  facet normal 0 0 -1
    outer loop
      vertex 20 -6 0
      vertex 14.1756 -1.61803 0
      vertex 14.618 -1.17557 0
    endloop
  endfacet
  facet normal 0 0 -1
    outer loop
      vertex 20 -6 0
      vertex 13.618 -1.90211 0
      vertex 14.1756 -1.61803 0
    endloop
  endfacet
  facet normal 0 0 -1
    outer loop
      vertex 20 -6 0
      vertex 13 -2 0
      vertex 13.618 -1.90211 0
    endloop
  endfacet
  facet normal 0 0 -1
    outer loop
      vertex 20 -6 0
      vertex 12.382 -1.90211 0
      vertex 13 -2 0
    endloop
  endfacet
  facet normal 0 0 -1
    outer loop
      vertex 3.46352 -1.42658 0
      vertex 12.382 -1.90211 0
      vertex 20 -6 0
    endloop
  endfacet
  facet normal 0 0 -1
    outer loop
      vertex 4.42658 -0.463525 0
      vertex 11 0 0
      vertex 11.0979 -0.618033 0
    endloop
  endfacet
  facet normal 0 0 -1
    outer loop
      vertex 4.21352 -0.881678 0
      vertex 11.0979 -0.618033 0
      vertex 11.382 -1.17557 0
    endloop
  endfacet
  facet normal 0 0 -1
    outer loop
      vertex 3.88168 -1.21352 0
      vertex 11.382 -1.17557 0
      vertex 11.8244 -1.61803 0
    endloop
  endfacet
  facet normal 0 0 -1
    outer loop
      vertex 12.382 -1.90211 0
      vertex 3.46352 -1.42658 0
      vertex 11.8244 -1.61803 0
    endloop
  endfacet
  facet normal -0 0 -1
    outer loop
      vertex 11 0 0
      vertex 4.42658 -0.463525 0
      vertex 4.5 0 0
    endloop
  endfacet
  facet normal -0 0 -1
    outer loop
      vertex 11.0979 -0.618033 0
      vertex 4.21352 -0.881678 0
      vertex 4.42658 -0.463525 0
    endloop
  endfacet
  facet normal -0 0 -1
    outer loop
      vertex 11.382 -1.17557 0
      vertex 3.88168 -1.21352 0
      vertex 4.21352 -0.881678 0
    endloop
  endfacet
  facet normal 0 0 -1
    outer loop
      vertex 11.8244 -1.61803 0
      vertex 3.46352 -1.42658 0
      vertex 3.88168 -1.21352 0
    endloop
  endfacet
  facet normal 0 0 -1
    outer loop
      vertex 20 -6 0
      vertex 3 -1.5 0
      vertex 3.46352 -1.42658 0
    endloop
  endfacet
  facet normal 0 0 -1
    outer loop
      vertex -20 -6 0
      vertex 3 -1.5 0
      vertex 20 -6 0
    endloop
  endfacet
  facet normal 0 0 -1
    outer loop
      vertex -4.81118 -0.386271 0
      vertex 1.5 0 0
      vertex 1.57342 -0.463525 0
    endloop
  endfacet
  facet normal 0 0 -1
    outer loop
      vertex -4.98873 -0.734731 0
      vertex 1.57342 -0.463525 0
      vertex 1.78648 -0.881678 0
    endloop
  endfacet
  facet normal 0 0 -1
    outer loop
      vertex -5.26527 -1.01127 0
      vertex 1.78648 -0.881678 0
      vertex 2.11832 -1.21352 0
    endloop
  endfacet
  facet normal 0 0 -1
    outer loop
      vertex -5.61373 -1.18882 0
      vertex 2.11832 -1.21352 0
      vertex 2.53648 -1.42658 0
    endloop
  endfacet
  facet normal -0 0 -1
    outer loop
      vertex 3 -1.5 0
      vertex -20 -6 0
      vertex 2.53648 -1.42658 0
    endloop
  endfacet
  facet normal -0 0 -1
    outer loop
      vertex 1.5 0 0
      vertex -4.81118 -0.386271 0
      vertex -4.75 0 0
    endloop
  endfacet
  facet normal -0 0 -1
    outer loop
      vertex 1.57342 -0.463525 0
      vertex -4.98873 -0.734731 0
      vertex -4.81118 -0.386271 0
    endloop
  endfacet
  facet normal -0 0 -1
    outer loop
      vertex 1.78648 -0.881678 0
      vertex -5.26527 -1.01127 0
      vertex -4.98873 -0.734731 0
    endloop
  endfacet
  facet normal 0 0 -1
    outer loop
      vertex 2.11832 -1.21352 0
      vertex -5.61373 -1.18882 0
      vertex -5.26527 -1.01127 0
    endloop
  endfacet
  facet normal 0 0 -1
    outer loop
      vertex 2.53648 -1.42658 0
      vertex -6 -1.25 0
      vertex -5.61373 -1.18882 0
    endloop
  endfacet
  facet normal -0 0 -1
    outer loop
      vertex 2.53648 -1.42658 0
      vertex -20 -6 0
      vertex -6 -1.25 0
    endloop
  endfacet
  facet normal 0 0 -1
    outer loop
      vertex -13.0489 -0.309016 0
      vertex -7.25 0 0
      vertex -7.18882 -0.386271 0
    endloop
  endfacet
  facet normal 0 0 -1
    outer loop
      vertex -13.191 -0.587785 0
      vertex -7.18882 -0.386271 0
      vertex -7.01127 -0.734731 0
    endloop
  endfacet
  facet normal 0 0 -1
    outer loop
      vertex -13.4122 -0.809016 0
      vertex -7.01127 -0.734731 0
      vertex -6.73473 -1.01127 0
    endloop
  endfacet
  facet normal 0 0 -1
    outer loop
      vertex -13.691 -0.951056 0
      vertex -6.73473 -1.01127 0
      vertex -6.38627 -1.18882 0
    endloop
  endfacet
  facet normal -0 0 -1
    outer loop
      vertex -6 -1.25 0
      vertex -20 -6 0
      vertex -6.38627 -1.18882 0
    endloop
  endfacet
  facet normal -0 0 -1
    outer loop
      vertex -7.25 0 0
      vertex -13.0489 -0.309016 0
      vertex -13 0 0
    endloop
  endfacet
  facet normal -0 0 -1
    outer loop
      vertex -7.18882 -0.386271 0
      vertex -13.191 -0.587785 0
      vertex -13.0489 -0.309016 0
    endloop
  endfacet
  facet normal -0 0 -1
    outer loop
      vertex -7.01127 -0.734731 0
      vertex -13.4122 -0.809016 0
      vertex -13.191 -0.587785 0
    endloop
  endfacet
  facet normal 0 -0 -1
    outer loop
      vertex -13.691 -0.951056 0
      vertex -6.38627 -1.18882 0
      vertex -20 -6 0
    endloop
  endfacet
  facet normal 0 0 -1
    outer loop
      vertex -6.73473 -1.01127 0
      vertex -13.691 -0.951056 0
      vertex -13.4122 -0.809016 0
    endloop
  endfacet
  facet normal -0 0 -1
    outer loop
      vertex -14.9511 -0.309016 0
      vertex -20 -6 0
      vertex -15 0 0
    endloop
  endfacet
  facet normal -0 0 -1
    outer loop
      vertex -14.809 -0.587785 0
      vertex -20 -6 0
      vertex -14.9511 -0.309016 0
    endloop
  endfacet
  facet normal -0 0 -1
    outer loop
      vertex -14.5878 -0.809016 0
      vertex -20 -6 0
      vertex -14.809 -0.587785 0
    endloop
  endfacet
  facet normal -0 0 -1
    outer loop
      vertex -14.309 -0.951056 0
      vertex -20 -6 0
      vertex -14.5878 -0.809016 0
    endloop
  endfacet
  facet normal -0 0 -1
    outer loop
      vertex -14 -1 0
      vertex -20 -6 0
      vertex -14.309 -0.951056 0
    endloop
  endfacet
  facet normal 0 0 -1
    outer loop
      vertex -13.691 -0.951056 0
      vertex -20 -6 0
      vertex -14 -1 0
    endloop
  endfacet
  facet normal 0 0 -1
    outer loop
      vertex 14.9021 0.618033 0
      vertex 20 6 0
      vertex 15 0 0
    endloop
  endfacet
  facet normal 0 0 -1
    outer loop
      vertex 14.618 1.17557 0
      vertex 20 6 0
      vertex 14.9021 0.618033 0
    endloop
  endfacet
  facet normal 0 0 -1
    outer loop
      vertex 14.1756 1.61803 0
      vertex 20 6 0
      vertex 14.618 1.17557 0
    endloop
  endfacet
  facet normal 0 0 -1
    outer loop
      vertex 13.618 1.90211 0
      vertex 20 6 0
      vertex 14.1756 1.61803 0
    endloop
  endfacet
  facet normal 0 0 -1
    outer loop
      vertex 13 2 0
      vertex 20 6 0
      vertex 13.618 1.90211 0
    endloop
  endfacet
  facet normal 0 0 -1
    outer loop
      vertex 12.382 1.90211 0
      vertex 20 6 0
      vertex 13 2 0
    endloop
  endfacet
  facet normal 0 0 -1
    outer loop
      vertex 3.46352 1.42658 0
      vertex 12.382 1.90211 0
      vertex 11.8244 1.61803 0
    endloop
  endfacet
  facet normal 0 0 -1
    outer loop
      vertex 4.42658 0.463525 0
      vertex 11 0 0
      vertex 4.5 0 0
    endloop
  endfacet
  facet normal 0 0 -1
    outer loop
      vertex 11 0 0
      vertex 4.42658 0.463525 0
      vertex 11.0979 0.618033 0
    endloop
  endfacet
  facet normal 0 0 -1
    outer loop
      vertex 4.21352 0.881678 0
      vertex 11.0979 0.618033 0
      vertex 4.42658 0.463525 0
    endloop
  endfacet
  facet normal 0 0 -1
    outer loop
      vertex 11.0979 0.618033 0
      vertex 4.21352 0.881678 0
      vertex 11.382 1.17557 0
    endloop
  endfacet
  facet normal 0 0 -1
    outer loop
      vertex 3.88168 1.21352 0
      vertex 11.382 1.17557 0
      vertex 4.21352 0.881678 0
    endloop
  endfacet
  facet normal 0 0 -1
    outer loop
      vertex 11.382 1.17557 0
      vertex 3.88168 1.21352 0
      vertex 11.8244 1.61803 0
    endloop
  endfacet
  facet normal 0 0 -1
    outer loop
      vertex 3.46352 1.42658 0
      vertex 11.8244 1.61803 0
      vertex 3.88168 1.21352 0
    endloop
  endfacet
  facet normal -0 0 -1
    outer loop
      vertex 12.382 1.90211 0
      vertex 3.46352 1.42658 0
      vertex 20 6 0
    endloop
  endfacet
  facet normal 0 0 -1
    outer loop
      vertex 3 1.5 0
      vertex 20 6 0
      vertex 3.46352 1.42658 0
    endloop
  endfacet
  facet normal 0 0 -1
    outer loop
      vertex -20 6 0
      vertex 3 1.5 0
      vertex 2.53648 1.42658 0
    endloop
  endfacet
  facet normal 0 0 -1
    outer loop
      vertex -4.81118 0.386271 0
      vertex 1.5 0 0
      vertex -4.75 0 0
    endloop
  endfacet
  facet normal 0 0 -1
    outer loop
      vertex 1.5 0 0
      vertex -4.81118 0.386271 0
      vertex 1.57342 0.463525 0
    endloop
  endfacet
  facet normal 0 0 -1
    outer loop
      vertex -4.98873 0.734731 0
      vertex 1.57342 0.463525 0
      vertex -4.81118 0.386271 0
    endloop
  endfacet
  facet normal 0 0 -1
    outer loop
      vertex 1.57342 0.463525 0
      vertex -4.98873 0.734731 0
      vertex 1.78648 0.881678 0
    endloop
  endfacet
  facet normal 0 0 -1
    outer loop
      vertex -5.26527 1.01127 0
      vertex 1.78648 0.881678 0
      vertex -4.98873 0.734731 0
    endloop
  endfacet
  facet normal 0 0 -1
    outer loop
      vertex 1.78648 0.881678 0
      vertex -5.26527 1.01127 0
      vertex 2.11832 1.21352 0
    endloop
  endfacet
  facet normal 0 0 -1
    outer loop
      vertex -5.61373 1.18882 0
      vertex 2.11832 1.21352 0
      vertex -5.26527 1.01127 0
    endloop
  endfacet
  facet normal -0 0 -1
    outer loop
      vertex 2.11832 1.21352 0
      vertex -5.61373 1.18882 0
      vertex 2.53648 1.42658 0
    endloop
  endfacet
  facet normal 0 0 -1
    outer loop
      vertex -6 1.25 0
      vertex 2.53648 1.42658 0
      vertex -5.61373 1.18882 0
    endloop
  endfacet
  facet normal 0 0 -1
    outer loop
      vertex -20 6 0
      vertex 2.53648 1.42658 0
      vertex -6 1.25 0
    endloop
  endfacet
  facet normal 0 0 -1
    outer loop
      vertex -20 6 0
      vertex -6 1.25 0
      vertex -6.38627 1.18882 0
    endloop
  endfacet
  facet normal 0 0 -1
    outer loop
      vertex -13.0489 0.309016 0
      vertex -7.25 0 0
      vertex -13 0 0
    endloop
  endfacet
  facet normal 0 0 -1
    outer loop
      vertex -7.25 0 0
      vertex -13.0489 0.309016 0
      vertex -7.18882 0.386271 0
    endloop
  endfacet
  facet normal 0 0 -1
    outer loop
      vertex -13.191 0.587785 0
      vertex -7.18882 0.386271 0
      vertex -13.0489 0.309016 0
    endloop
  endfacet
  facet normal 0 0 -1
    outer loop
      vertex -7.18882 0.386271 0
      vertex -13.191 0.587785 0
      vertex -7.01127 0.734731 0
    endloop
  endfacet
  facet normal 0 0 -1
    outer loop
      vertex -13.4122 0.809016 0
      vertex -7.01127 0.734731 0
      vertex -13.191 0.587785 0
    endloop
  endfacet
  facet normal 0 0 -1
    outer loop
      vertex -7.01127 0.734731 0
      vertex -13.4122 0.809016 0
      vertex -6.73473 1.01127 0
    endloop
  endfacet
  facet normal 0 0 -1
    outer loop
      vertex -13.691 0.951056 0
      vertex -6.73473 1.01127 0
      vertex -13.4122 0.809016 0
    endloop
  endfacet
  facet normal -0 0 -1
    outer loop
      vertex -6.73473 1.01127 0
      vertex -13.691 0.951056 0
      vertex -6.38627 1.18882 0
    endloop
  endfacet
  facet normal -0 0 -1
    outer loop
      vertex -6.38627 1.18882 0
      vertex -13.691 0.951056 0
      vertex -20 6 0
    endloop
  endfacet
  facet normal 0 0 -1
    outer loop
      vertex -20 6 0
      vertex -13.691 0.951056 0
      vertex -14 1 0
    endloop
  endfacet
  facet normal 0 0 -1
    outer loop
      vertex -20 6 0
      vertex -15 0 0
      vertex -20 -6 0
    endloop
  endfacet
  facet normal 0 0 -1
    outer loop
      vertex -15 0 0
      vertex -20 6 0
      vertex -14.9511 0.309016 0
    endloop
  endfacet
  facet normal 0 0 -1
    outer loop
      vertex 3 1.5 0
      vertex -20 6 0
      vertex 20 6 0
    endloop
  endfacet
  facet normal 0 0 -1
    outer loop
      vertex -14.309 0.951056 0
      vertex -20 6 0
      vertex -14 1 0
    endloop
  endfacet
  facet normal 0 0 -1
    outer loop
      vertex -14.5878 0.809016 0
      vertex -20 6 0
      vertex -14.309 0.951056 0
    endloop
  endfacet
  facet normal 0 0 -1
    outer loop
      vertex -14.809 0.587785 0
      vertex -20 6 0
      vertex -14.5878 0.809016 0
    endloop
  endfacet
  facet normal 0 0 -1
    outer loop
      vertex -14.9511 0.309016 0
      vertex -20 6 0
      vertex -14.809 0.587785 0
    endloop
  endfacet
  facet normal 0.891007 0.45399 0
    outer loop
      vertex 1.78648 -0.881678 2
      vertex 1.57342 -0.463525 0
      vertex 1.57342 -0.463525 2
    endloop
  endfacet
  facet normal 0.891007 0.45399 0
    outer loop
      vertex 1.57342 -0.463525 0
      vertex 1.78648 -0.881678 2
      vertex 1.78648 -0.881678 0
    endloop
  endfacet
  facet normal 0.987688 -0.156436 0
    outer loop
      vertex 1.5 0 2
      vertex 1.57342 0.463525 0
      vertex 1.57342 0.463525 2
    endloop
  endfacet
  facet normal 0.987688 -0.156436 0
    outer loop
      vertex 1.57342 0.463525 0
      vertex 1.5 0 2
      vertex 1.5 0 0
    endloop
  endfacet
  facet normal 0.707107 -0.707107 0
    outer loop
      vertex 1.78648 0.881678 2
      vertex 2.11832 1.21352 0
      vertex 2.11832 1.21352 2
    endloop
  endfacet
  facet normal 0.707107 -0.707107 0
    outer loop
      vertex 2.11832 1.21352 0
      vertex 1.78648 0.881678 2
      vertex 1.78648 0.881678 0
    endloop
  endfacet
  facet normal -0.891007 0.45399 0
    outer loop
      vertex 4.21352 -0.881678 0
      vertex 4.42658 -0.463525 2
      vertex 4.42658 -0.463525 0
    endloop
  endfacet
  facet normal -0.891007 0.45399 0
    outer loop
      vertex 4.42658 -0.463525 2
      vertex 4.21352 -0.881678 0
      vertex 4.21352 -0.881678 2
    endloop
  endfacet
  facet normal -0.156436 0.987688 0
    outer loop
      vertex 3.46352 -1.42658 0
      vertex 3 -1.5 2
      vertex 3.46352 -1.42658 2
    endloop
  endfacet
  facet normal -0.156436 0.987688 0
    outer loop
      vertex 3 -1.5 2
      vertex 3.46352 -1.42658 0
      vertex 3 -1.5 0
    endloop
  endfacet
  facet normal -0.45399 0.891007 0
    outer loop
      vertex 3.88168 -1.21352 0
      vertex 3.46352 -1.42658 2
      vertex 3.88168 -1.21352 2
    endloop
  endfacet
  facet normal -0.45399 0.891007 0
    outer loop
      vertex 3.46352 -1.42658 2
      vertex 3.88168 -1.21352 0
      vertex 3.46352 -1.42658 0
    endloop
  endfacet
  facet normal 0.156436 0.987688 -0
    outer loop
      vertex 3 -1.5 0
      vertex 2.53648 -1.42658 2
      vertex 3 -1.5 2
    endloop
  endfacet
  facet normal 0.156436 0.987688 0
    outer loop
      vertex 2.53648 -1.42658 2
      vertex 3 -1.5 0
      vertex 2.53648 -1.42658 0
    endloop
  endfacet
  facet normal 0.891007 -0.45399 0
    outer loop
      vertex 1.57342 0.463525 2
      vertex 1.78648 0.881678 0
      vertex 1.78648 0.881678 2
    endloop
  endfacet
  facet normal 0.891007 -0.45399 0
    outer loop
      vertex 1.78648 0.881678 0
      vertex 1.57342 0.463525 2
      vertex 1.57342 0.463525 0
    endloop
  endfacet
  facet normal -0.987688 0.156436 0
    outer loop
      vertex 4.42658 -0.463525 0
      vertex 4.5 0 2
      vertex 4.5 0 0
    endloop
  endfacet
  facet normal -0.987688 0.156436 0
    outer loop
      vertex 4.5 0 2
      vertex 4.42658 -0.463525 0
      vertex 4.42658 -0.463525 2
    endloop
  endfacet
  facet normal -0.866025 -0.5 0
    outer loop
      vertex -11.8 0 2
      vertex -12.9 1.90526 6
      vertex -12.9 1.90526 2
    endloop
  endfacet
  facet normal -0.866025 -0.5 0
    outer loop
      vertex -12.9 1.90526 6
      vertex -11.8 0 2
      vertex -11.8 0 6
    endloop
  endfacet
  facet normal 0.866025 -0.500001 0
    outer loop
      vertex -16.2 0 6
      vertex -15.1 1.90526 2
      vertex -15.1 1.90526 6
    endloop
  endfacet
  facet normal 0.866025 -0.500001 0
    outer loop
      vertex -15.1 1.90526 2
      vertex -16.2 0 6
      vertex -16.2 0 2
    endloop
  endfacet
  facet normal 0 -1 0
    outer loop
      vertex -15.1 1.90526 2
      vertex -12.9 1.90526 6
      vertex -15.1 1.90526 6
    endloop
  endfacet
  facet normal 0 -1 -0
    outer loop
      vertex -12.9 1.90526 6
      vertex -15.1 1.90526 2
      vertex -12.9 1.90526 2
    endloop
  endfacet
  facet normal -0.866025 0.5 0
    outer loop
      vertex -12.9 -1.90526 2
      vertex -11.8 0 6
      vertex -11.8 0 2
    endloop
  endfacet
  facet normal -0.866025 0.5 0
    outer loop
      vertex -11.8 0 6
      vertex -12.9 -1.90526 2
      vertex -12.9 -1.90526 6
    endloop
  endfacet
  facet normal -0 0 1
    outer loop
      vertex -13.191 0.587785 2
      vertex -11.8 0 2
      vertex -12.9 1.90526 2
    endloop
  endfacet
  facet normal 0 0 1
    outer loop
      vertex -13.0489 -0.309016 2
      vertex -11.8 0 2
      vertex -13 0 2
    endloop
  endfacet
  facet normal 0 0 1
    outer loop
      vertex -11.8 0 2
      vertex -13.0489 0.309016 2
      vertex -13 0 2
    endloop
  endfacet
  facet normal 0 0 1
    outer loop
      vertex -11.8 0 2
      vertex -13.191 0.587785 2
      vertex -13.0489 0.309016 2
    endloop
  endfacet
  facet normal 0 0 1
    outer loop
      vertex -12.9 1.90526 2
      vertex -13.4122 0.809016 2
      vertex -13.191 0.587785 2
    endloop
  endfacet
  facet normal 0 0 1
    outer loop
      vertex -12.9 1.90526 2
      vertex -13.691 0.951056 2
      vertex -13.4122 0.809016 2
    endloop
  endfacet
  facet normal 0 0 1
    outer loop
      vertex -12.9 1.90526 2
      vertex -14 1 2
      vertex -13.691 0.951056 2
    endloop
  endfacet
  facet normal -0 0 1
    outer loop
      vertex -15.1 1.90526 2
      vertex -14 1 2
      vertex -12.9 1.90526 2
    endloop
  endfacet
  facet normal 0 0 1
    outer loop
      vertex -14 1 2
      vertex -15.1 1.90526 2
      vertex -14.309 0.951056 2
    endloop
  endfacet
  facet normal 0 0 1
    outer loop
      vertex -14.809 0.587785 2
      vertex -16.2 0 2
      vertex -14.9511 0.309016 2
    endloop
  endfacet
  facet normal 0 0 1
    outer loop
      vertex -16.2 0 2
      vertex -14.809 0.587785 2
      vertex -15.1 1.90526 2
    endloop
  endfacet
  facet normal 0 0 1
    outer loop
      vertex -14.5878 0.809016 2
      vertex -15.1 1.90526 2
      vertex -14.809 0.587785 2
    endloop
  endfacet
  facet normal 0 0 1
    outer loop
      vertex -14.309 0.951056 2
      vertex -15.1 1.90526 2
      vertex -14.5878 0.809016 2
    endloop
  endfacet
  facet normal 0 0 1
    outer loop
      vertex -13.191 -0.587785 2
      vertex -11.8 0 2
      vertex -13.0489 -0.309016 2
    endloop
  endfacet
  facet normal 0 0 1
    outer loop
      vertex -11.8 0 2
      vertex -13.191 -0.587785 2
      vertex -12.9 -1.90526 2
    endloop
  endfacet
  facet normal -0 0 1
    outer loop
      vertex -13.4122 -0.809016 2
      vertex -12.9 -1.90526 2
      vertex -13.191 -0.587785 2
    endloop
  endfacet
  facet normal -0 0 1
    outer loop
      vertex -13.691 -0.951056 2
      vertex -12.9 -1.90526 2
      vertex -13.4122 -0.809016 2
    endloop
  endfacet
  facet normal -0 0 1
    outer loop
      vertex -14 -1 2
      vertex -12.9 -1.90526 2
      vertex -13.691 -0.951056 2
    endloop
  endfacet
  facet normal 0 0 1
    outer loop
      vertex -15.1 -1.90526 2
      vertex -14 -1 2
      vertex -14.309 -0.951056 2
    endloop
  endfacet
  facet normal 0 0 1
    outer loop
      vertex -15.1 -1.90526 2
      vertex -14.309 -0.951056 2
      vertex -14.5878 -0.809016 2
    endloop
  endfacet
  facet normal 0 0 1
    outer loop
      vertex -14 -1 2
      vertex -15.1 -1.90526 2
      vertex -12.9 -1.90526 2
    endloop
  endfacet
  facet normal 0 0 1
    outer loop
      vertex -14.809 -0.587785 2
      vertex -15.1 -1.90526 2
      vertex -14.5878 -0.809016 2
    endloop
  endfacet
  facet normal 0 0 1
    outer loop
      vertex -16.2 0 2
      vertex -14.809 -0.587785 2
      vertex -14.9511 -0.309016 2
    endloop
  endfacet
  facet normal -0 0 1
    outer loop
      vertex -16.2 0 2
      vertex -14.9511 -0.309016 2
      vertex -15 0 2
    endloop
  endfacet
  facet normal 0 0 1
    outer loop
      vertex -14.9511 0.309016 2
      vertex -16.2 0 2
      vertex -15 0 2
    endloop
  endfacet
  facet normal 0 0 1
    outer loop
      vertex -14.809 -0.587785 2
      vertex -16.2 0 2
      vertex -15.1 -1.90526 2
    endloop
  endfacet
  facet normal 0 1 -0
    outer loop
      vertex -12.9 -1.90526 2
      vertex -15.1 -1.90526 6
      vertex -12.9 -1.90526 6
    endloop
  endfacet
  facet normal 0 1 0
    outer loop
      vertex -15.1 -1.90526 6
      vertex -12.9 -1.90526 2
      vertex -15.1 -1.90526 2
    endloop
  endfacet
  facet normal 0.866025 0.500001 0
    outer loop
      vertex -15.1 -1.90526 6
      vertex -16.2 0 2
      vertex -16.2 0 6
    endloop
  endfacet
  facet normal 0.866025 0.500001 0
    outer loop
      vertex -16.2 0 2
      vertex -15.1 -1.90526 6
      vertex -15.1 -1.90526 2
    endloop
  endfacet
  facet normal 0.987688 -0.156435 0
    outer loop
      vertex -15 0 2
      vertex -14.9511 0.309016 0
      vertex -14.9511 0.309016 2
    endloop
  endfacet
  facet normal 0.987688 -0.156435 0
    outer loop
      vertex -14.9511 0.309016 0
      vertex -15 0 2
      vertex -15 0 0
    endloop
  endfacet
  facet normal -0.453992 -0.891006 0
    outer loop
      vertex -13.691 0.951056 0
      vertex -13.4122 0.809016 2
      vertex -13.691 0.951056 2
    endloop
  endfacet
  facet normal -0.453992 -0.891006 -0
    outer loop
      vertex -13.4122 0.809016 2
      vertex -13.691 0.951056 0
      vertex -13.4122 0.809016 0
    endloop
  endfacet
  facet normal -0.156435 0.987688 0
    outer loop
      vertex -13.691 -0.951056 0
      vertex -14 -1 2
      vertex -13.691 -0.951056 2
    endloop
  endfacet
  facet normal -0.156435 0.987688 0
    outer loop
      vertex -14 -1 2
      vertex -13.691 -0.951056 0
      vertex -14 -1 0
    endloop
  endfacet
  facet normal 0.156435 0.987688 -0
    outer loop
      vertex -14 -1 0
      vertex -14.309 -0.951056 2
      vertex -14 -1 2
    endloop
  endfacet
  facet normal 0.156435 0.987688 0
    outer loop
      vertex -14.309 -0.951056 2
      vertex -14 -1 0
      vertex -14.309 -0.951056 0
    endloop
  endfacet
  facet normal -0.707107 -0.707107 0
    outer loop
      vertex -13.191 0.587785 0
      vertex -13.4122 0.809016 2
      vertex -13.4122 0.809016 0
    endloop
  endfacet
  facet normal -0.707107 -0.707107 0
    outer loop
      vertex -13.4122 0.809016 2
      vertex -13.191 0.587785 0
      vertex -13.191 0.587785 2
    endloop
  endfacet
  facet normal -0.891006 -0.453992 0
    outer loop
      vertex -13.0489 0.309016 0
      vertex -13.191 0.587785 2
      vertex -13.191 0.587785 0
    endloop
  endfacet
  facet normal -0.891006 -0.453992 0
    outer loop
      vertex -13.191 0.587785 2
      vertex -13.0489 0.309016 0
      vertex -13.0489 0.309016 2
    endloop
  endfacet
  facet normal -0.156435 -0.987688 0
    outer loop
      vertex -14 1 0
      vertex -13.691 0.951056 2
      vertex -14 1 2
    endloop
  endfacet
  facet normal -0.156435 -0.987688 -0
    outer loop
      vertex -13.691 0.951056 2
      vertex -14 1 0
      vertex -13.691 0.951056 0
    endloop
  endfacet
  facet normal 0.156435 -0.987688 0
    outer loop
      vertex -14.309 0.951056 0
      vertex -14 1 2
      vertex -14.309 0.951056 2
    endloop
  endfacet
  facet normal 0.156435 -0.987688 0
    outer loop
      vertex -14 1 2
      vertex -14.309 0.951056 0
      vertex -14 1 0
    endloop
  endfacet
  facet normal 0.891006 -0.453992 0
    outer loop
      vertex -14.9511 0.309016 2
      vertex -14.809 0.587785 0
      vertex -14.809 0.587785 2
    endloop
  endfacet
  facet normal 0.891006 -0.453992 0
    outer loop
      vertex -14.809 0.587785 0
      vertex -14.9511 0.309016 2
      vertex -14.9511 0.309016 0
    endloop
  endfacet
  facet normal 0.453992 -0.891006 0
    outer loop
      vertex -14.5878 0.809016 0
      vertex -14.309 0.951056 2
      vertex -14.5878 0.809016 2
    endloop
  endfacet
  facet normal 0.453992 -0.891006 0
    outer loop
      vertex -14.309 0.951056 2
      vertex -14.5878 0.809016 0
      vertex -14.309 0.951056 0
    endloop
  endfacet
  facet normal -0.987688 0.156435 0
    outer loop
      vertex -13.0489 -0.309016 0
      vertex -13 0 2
      vertex -13 0 0
    endloop
  endfacet
  facet normal -0.987688 0.156435 0
    outer loop
      vertex -13 0 2
      vertex -13.0489 -0.309016 0
      vertex -13.0489 -0.309016 2
    endloop
  endfacet
  facet normal 0.987688 0.156435 0
    outer loop
      vertex -14.9511 -0.309016 2
      vertex -15 0 0
      vertex -15 0 2
    endloop
  endfacet
  facet normal 0.987688 0.156435 0
    outer loop
      vertex -15 0 0
      vertex -14.9511 -0.309016 2
      vertex -14.9511 -0.309016 0
    endloop
  endfacet
  facet normal 0.707107 -0.707107 0
    outer loop
      vertex -14.809 0.587785 2
      vertex -14.5878 0.809016 0
      vertex -14.5878 0.809016 2
    endloop
  endfacet
  facet normal 0.707107 -0.707107 0
    outer loop
      vertex -14.5878 0.809016 0
      vertex -14.809 0.587785 2
      vertex -14.809 0.587785 0
    endloop
  endfacet
  facet normal -0.987688 -0.156435 0
    outer loop
      vertex -13 0 0
      vertex -13.0489 0.309016 2
      vertex -13.0489 0.309016 0
    endloop
  endfacet
  facet normal -0.987688 -0.156435 0
    outer loop
      vertex -13.0489 0.309016 2
      vertex -13 0 0
      vertex -13 0 2
    endloop
  endfacet
  facet normal 0.707107 0.707107 0
    outer loop
      vertex -14.5878 -0.809016 2
      vertex -14.809 -0.587785 0
      vertex -14.809 -0.587785 2
    endloop
  endfacet
  facet normal 0.707107 0.707107 0
    outer loop
      vertex -14.809 -0.587785 0
      vertex -14.5878 -0.809016 2
      vertex -14.5878 -0.809016 0
    endloop
  endfacet
  facet normal 0.891006 0.453992 0
    outer loop
      vertex -14.809 -0.587785 2
      vertex -14.9511 -0.309016 0
      vertex -14.9511 -0.309016 2
    endloop
  endfacet
  facet normal 0.891006 0.453992 0
    outer loop
      vertex -14.9511 -0.309016 0
      vertex -14.809 -0.587785 2
      vertex -14.809 -0.587785 0
    endloop
  endfacet
  facet normal 0.453992 0.891006 -0
    outer loop
      vertex -14.309 -0.951056 0
      vertex -14.5878 -0.809016 2
      vertex -14.309 -0.951056 2
    endloop
  endfacet
  facet normal 0.453992 0.891006 0
    outer loop
      vertex -14.5878 -0.809016 2
      vertex -14.309 -0.951056 0
      vertex -14.5878 -0.809016 0
    endloop
  endfacet
  facet normal -0.707107 0.707107 0
    outer loop
      vertex -13.4122 -0.809016 0
      vertex -13.191 -0.587785 2
      vertex -13.191 -0.587785 0
    endloop
  endfacet
  facet normal -0.707107 0.707107 0
    outer loop
      vertex -13.191 -0.587785 2
      vertex -13.4122 -0.809016 0
      vertex -13.4122 -0.809016 2
    endloop
  endfacet
  facet normal -0.453992 0.891006 0
    outer loop
      vertex -13.4122 -0.809016 0
      vertex -13.691 -0.951056 2
      vertex -13.4122 -0.809016 2
    endloop
  endfacet
  facet normal -0.453992 0.891006 0
    outer loop
      vertex -13.691 -0.951056 2
      vertex -13.4122 -0.809016 0
      vertex -13.691 -0.951056 0
    endloop
  endfacet
  facet normal -0.891006 0.453992 0
    outer loop
      vertex -13.191 -0.587785 0
      vertex -13.0489 -0.309016 2
      vertex -13.0489 -0.309016 0
    endloop
  endfacet
  facet normal -0.891006 0.453992 0
    outer loop
      vertex -13.0489 -0.309016 2
      vertex -13.191 -0.587785 0
      vertex -13.191 -0.587785 2
    endloop
  endfacet
  facet normal -0.866025 -0.5 0
    outer loop
      vertex -3.5 0 2
      vertex -4.75 2.16506 6
      vertex -4.75 2.16506 2
    endloop
  endfacet
  facet normal -0.866025 -0.5 0
    outer loop
      vertex -4.75 2.16506 6
      vertex -3.5 0 2
      vertex -3.5 0 6
    endloop
  endfacet
  facet normal 0.866025 -0.5 0
    outer loop
      vertex -8.5 0 6
      vertex -7.25 2.16506 2
      vertex -7.25 2.16506 6
    endloop
  endfacet
  facet normal 0.866025 -0.5 0
    outer loop
      vertex -7.25 2.16506 2
      vertex -8.5 0 6
      vertex -8.5 0 2
    endloop
  endfacet
  facet normal 0 -1 0
    outer loop
      vertex -7.25 2.16506 2
      vertex -4.75 2.16506 6
      vertex -7.25 2.16506 6
    endloop
  endfacet
  facet normal 0 -1 -0
    outer loop
      vertex -4.75 2.16506 6
      vertex -7.25 2.16506 2
      vertex -4.75 2.16506 2
    endloop
  endfacet
  facet normal -0.866025 0.5 0
    outer loop
      vertex -4.75 -2.16506 2
      vertex -3.5 0 6
      vertex -3.5 0 2
    endloop
  endfacet
  facet normal -0.866025 0.5 0
    outer loop
      vertex -3.5 0 6
      vertex -4.75 -2.16506 2
      vertex -4.75 -2.16506 6
    endloop
  endfacet
  facet normal 0 0 1
    outer loop
      vertex -3.5 0 2
      vertex -4.81118 0.386271 2
      vertex -4.75 0 2
    endloop
  endfacet
  facet normal 0 0 1
    outer loop
      vertex -3.5 0 2
      vertex -4.98873 0.734731 2
      vertex -4.81118 0.386271 2
    endloop
  endfacet
  facet normal 0 0 1
    outer loop
      vertex -4.75 2.16506 2
      vertex -5.26527 1.01127 2
      vertex -4.98873 0.734731 2
    endloop
  endfacet
  facet normal 0 0 1
    outer loop
      vertex -4.75 2.16506 2
      vertex -5.61373 1.18882 2
      vertex -5.26527 1.01127 2
    endloop
  endfacet
  facet normal 0 0 1
    outer loop
      vertex -4.75 2.16506 2
      vertex -6 1.25 2
      vertex -5.61373 1.18882 2
    endloop
  endfacet
  facet normal -0 0 1
    outer loop
      vertex -7.25 2.16506 2
      vertex -6 1.25 2
      vertex -4.75 2.16506 2
    endloop
  endfacet
  facet normal 0 0 1
    outer loop
      vertex -6 1.25 2
      vertex -7.25 2.16506 2
      vertex -6.38627 1.18882 2
    endloop
  endfacet
  facet normal 0 0 1
    outer loop
      vertex -6.38627 1.18882 2
      vertex -7.25 2.16506 2
      vertex -6.73473 1.01127 2
    endloop
  endfacet
  facet normal 0 0 1
    outer loop
      vertex -7.25 2.16506 2
      vertex -7.01127 0.734731 2
      vertex -6.73473 1.01127 2
    endloop
  endfacet
  facet normal 0 0 1
    outer loop
      vertex -8.5 0 2
      vertex -7.01127 0.734731 2
      vertex -7.25 2.16506 2
    endloop
  endfacet
  facet normal 0 0 1
    outer loop
      vertex -7.01127 0.734731 2
      vertex -8.5 0 2
      vertex -7.18882 0.386271 2
    endloop
  endfacet
  facet normal 0 0 1
    outer loop
      vertex -7.01127 -0.734731 2
      vertex -8.5 0 2
      vertex -7.25 -2.16506 2
    endloop
  endfacet
  facet normal 0 0 1
    outer loop
      vertex -7.18882 0.386271 2
      vertex -8.5 0 2
      vertex -7.25 0 2
    endloop
  endfacet
  facet normal -0 0 1
    outer loop
      vertex -4.98873 0.734731 2
      vertex -3.5 0 2
      vertex -4.75 2.16506 2
    endloop
  endfacet
  facet normal 0 0 1
    outer loop
      vertex -4.81118 -0.386271 2
      vertex -3.5 0 2
      vertex -4.75 0 2
    endloop
  endfacet
  facet normal 0 0 1
    outer loop
      vertex -4.98873 -0.734731 2
      vertex -3.5 0 2
      vertex -4.81118 -0.386271 2
    endloop
  endfacet
  facet normal 0 0 1
    outer loop
      vertex -3.5 0 2
      vertex -4.98873 -0.734731 2
      vertex -4.75 -2.16506 2
    endloop
  endfacet
  facet normal -0 0 1
    outer loop
      vertex -5.26527 -1.01127 2
      vertex -4.75 -2.16506 2
      vertex -4.98873 -0.734731 2
    endloop
  endfacet
  facet normal -0 0 1
    outer loop
      vertex -5.61373 -1.18882 2
      vertex -4.75 -2.16506 2
      vertex -5.26527 -1.01127 2
    endloop
  endfacet
  facet normal -0 0 1
    outer loop
      vertex -6 -1.25 2
      vertex -4.75 -2.16506 2
      vertex -5.61373 -1.18882 2
    endloop
  endfacet
  facet normal 0 0 1
    outer loop
      vertex -7.25 -2.16506 2
      vertex -6 -1.25 2
      vertex -6.38627 -1.18882 2
    endloop
  endfacet
  facet normal 0 0 1
    outer loop
      vertex -7.25 -2.16506 2
      vertex -6.38627 -1.18882 2
      vertex -6.73473 -1.01127 2
    endloop
  endfacet
  facet normal 0 0 1
    outer loop
      vertex -6 -1.25 2
      vertex -7.25 -2.16506 2
      vertex -4.75 -2.16506 2
    endloop
  endfacet
  facet normal 0 0 1
    outer loop
      vertex -7.01127 -0.734731 2
      vertex -7.25 -2.16506 2
      vertex -6.73473 -1.01127 2
    endloop
  endfacet
  facet normal 0 0 1
    outer loop
      vertex -8.5 0 2
      vertex -7.01127 -0.734731 2
      vertex -7.18882 -0.386271 2
    endloop
  endfacet
  facet normal -0 0 1
    outer loop
      vertex -8.5 0 2
      vertex -7.18882 -0.386271 2
      vertex -7.25 0 2
    endloop
  endfacet
  facet normal 0 1 -0
    outer loop
      vertex -4.75 -2.16506 2
      vertex -7.25 -2.16506 6
      vertex -4.75 -2.16506 6
    endloop
  endfacet
  facet normal 0 1 0
    outer loop
      vertex -7.25 -2.16506 6
      vertex -4.75 -2.16506 2
      vertex -7.25 -2.16506 2
    endloop
  endfacet
  facet normal 0.866025 0.5 0
    outer loop
      vertex -7.25 -2.16506 6
      vertex -8.5 0 2
      vertex -8.5 0 6
    endloop
  endfacet
  facet normal 0.866025 0.5 0
    outer loop
      vertex -8.5 0 2
      vertex -7.25 -2.16506 6
      vertex -7.25 -2.16506 2
    endloop
  endfacet
  facet normal -0.987688 -0.156437 0
    outer loop
      vertex -4.75 0 0
      vertex -4.81118 0.386271 2
      vertex -4.81118 0.386271 0
    endloop
  endfacet
  facet normal -0.987688 -0.156437 0
    outer loop
      vertex -4.81118 0.386271 2
      vertex -4.75 0 0
      vertex -4.75 0 2
    endloop
  endfacet
  facet normal -0.453991 -0.891006 0
    outer loop
      vertex -5.61373 1.18882 0
      vertex -5.26527 1.01127 2
      vertex -5.61373 1.18882 2
    endloop
  endfacet
  facet normal -0.453991 -0.891006 -0
    outer loop
      vertex -5.26527 1.01127 2
      vertex -5.61373 1.18882 0
      vertex -5.26527 1.01127 0
    endloop
  endfacet
  facet normal 0.453991 0.891006 -0
    outer loop
      vertex -6.38627 -1.18882 0
      vertex -6.73473 -1.01127 2
      vertex -6.38627 -1.18882 2
    endloop
  endfacet
  facet normal 0.453991 0.891006 0
    outer loop
      vertex -6.73473 -1.01127 2
      vertex -6.38627 -1.18882 0
      vertex -6.73473 -1.01127 0
    endloop
  endfacet
  facet normal -0.707107 -0.707107 0
    outer loop
      vertex -4.98873 0.734731 0
      vertex -5.26527 1.01127 2
      vertex -5.26527 1.01127 0
    endloop
  endfacet
  facet normal -0.707107 -0.707107 0
    outer loop
      vertex -5.26527 1.01127 2
      vertex -4.98873 0.734731 0
      vertex -4.98873 0.734731 2
    endloop
  endfacet
  facet normal -0.891006 -0.453991 0
    outer loop
      vertex -4.81118 0.386271 0
      vertex -4.98873 0.734731 2
      vertex -4.98873 0.734731 0
    endloop
  endfacet
  facet normal -0.891006 -0.453991 0
    outer loop
      vertex -4.98873 0.734731 2
      vertex -4.81118 0.386271 0
      vertex -4.81118 0.386271 2
    endloop
  endfacet
  facet normal -0.156437 -0.987688 0
    outer loop
      vertex -6 1.25 0
      vertex -5.61373 1.18882 2
      vertex -6 1.25 2
    endloop
  endfacet
  facet normal -0.156437 -0.987688 -0
    outer loop
      vertex -5.61373 1.18882 2
      vertex -6 1.25 0
      vertex -5.61373 1.18882 0
    endloop
  endfacet
  facet normal 0.156437 -0.987688 0
    outer loop
      vertex -6.38627 1.18882 0
      vertex -6 1.25 2
      vertex -6.38627 1.18882 2
    endloop
  endfacet
  facet normal 0.156437 -0.987688 0
    outer loop
      vertex -6 1.25 2
      vertex -6.38627 1.18882 0
      vertex -6 1.25 0
    endloop
  endfacet
  facet normal 0.453991 -0.891006 0
    outer loop
      vertex -6.73473 1.01127 0
      vertex -6.38627 1.18882 2
      vertex -6.73473 1.01127 2
    endloop
  endfacet
  facet normal 0.453991 -0.891006 0
    outer loop
      vertex -6.38627 1.18882 2
      vertex -6.73473 1.01127 0
      vertex -6.38627 1.18882 0
    endloop
  endfacet
  facet normal -0.707107 0.707107 0
    outer loop
      vertex -5.26527 -1.01127 0
      vertex -4.98873 -0.734731 2
      vertex -4.98873 -0.734731 0
    endloop
  endfacet
  facet normal -0.707107 0.707107 0
    outer loop
      vertex -4.98873 -0.734731 2
      vertex -5.26527 -1.01127 0
      vertex -5.26527 -1.01127 2
    endloop
  endfacet
  facet normal 0.987688 0.156437 0
    outer loop
      vertex -7.18882 -0.386271 2
      vertex -7.25 0 0
      vertex -7.25 0 2
    endloop
  endfacet
  facet normal 0.987688 0.156437 0
    outer loop
      vertex -7.25 0 0
      vertex -7.18882 -0.386271 2
      vertex -7.18882 -0.386271 0
    endloop
  endfacet
  facet normal 0.707107 0.707107 0
    outer loop
      vertex -6.73473 -1.01127 2
      vertex -7.01127 -0.734731 0
      vertex -7.01127 -0.734731 2
    endloop
  endfacet
  facet normal 0.707107 0.707107 0
    outer loop
      vertex -7.01127 -0.734731 0
      vertex -6.73473 -1.01127 2
      vertex -6.73473 -1.01127 0
    endloop
  endfacet
  facet normal 0.891006 0.453991 0
    outer loop
      vertex -7.01127 -0.734731 2
      vertex -7.18882 -0.386271 0
      vertex -7.18882 -0.386271 2
    endloop
  endfacet
  facet normal 0.891006 0.453991 0
    outer loop
      vertex -7.18882 -0.386271 0
      vertex -7.01127 -0.734731 2
      vertex -7.01127 -0.734731 0
    endloop
  endfacet
  facet normal 0.987688 -0.156437 0
    outer loop
      vertex -7.25 0 2
      vertex -7.18882 0.386271 0
      vertex -7.18882 0.386271 2
    endloop
  endfacet
  facet normal 0.987688 -0.156437 0
    outer loop
      vertex -7.18882 0.386271 0
      vertex -7.25 0 2
      vertex -7.25 0 0
    endloop
  endfacet
  facet normal 0.707107 -0.707107 0
    outer loop
      vertex -7.01127 0.734731 2
      vertex -6.73473 1.01127 0
      vertex -6.73473 1.01127 2
    endloop
  endfacet
  facet normal 0.707107 -0.707107 0
    outer loop
      vertex -6.73473 1.01127 0
      vertex -7.01127 0.734731 2
      vertex -7.01127 0.734731 0
    endloop
  endfacet
  facet normal -0.891006 0.453991 0
    outer loop
      vertex -4.98873 -0.734731 0
      vertex -4.81118 -0.386271 2
      vertex -4.81118 -0.386271 0
    endloop
  endfacet
  facet normal -0.891006 0.453991 0
    outer loop
      vertex -4.81118 -0.386271 2
      vertex -4.98873 -0.734731 0
      vertex -4.98873 -0.734731 2
    endloop
  endfacet
  facet normal -0.156437 0.987688 0
    outer loop
      vertex -5.61373 -1.18882 0
      vertex -6 -1.25 2
      vertex -5.61373 -1.18882 2
    endloop
  endfacet
  facet normal -0.156437 0.987688 0
    outer loop
      vertex -6 -1.25 2
      vertex -5.61373 -1.18882 0
      vertex -6 -1.25 0
    endloop
  endfacet
  facet normal -0.453991 0.891006 0
    outer loop
      vertex -5.26527 -1.01127 0
      vertex -5.61373 -1.18882 2
      vertex -5.26527 -1.01127 2
    endloop
  endfacet
  facet normal -0.453991 0.891006 0
    outer loop
      vertex -5.61373 -1.18882 2
      vertex -5.26527 -1.01127 0
      vertex -5.61373 -1.18882 0
    endloop
  endfacet
  facet normal 0.156437 0.987688 -0
    outer loop
      vertex -6 -1.25 0
      vertex -6.38627 -1.18882 2
      vertex -6 -1.25 2
    endloop
  endfacet
  facet normal 0.156437 0.987688 0
    outer loop
      vertex -6.38627 -1.18882 2
      vertex -6 -1.25 0
      vertex -6.38627 -1.18882 0
    endloop
  endfacet
  facet normal 0.891006 -0.453991 0
    outer loop
      vertex -7.18882 0.386271 2
      vertex -7.01127 0.734731 0
      vertex -7.01127 0.734731 2
    endloop
  endfacet
  facet normal 0.891006 -0.453991 0
    outer loop
      vertex -7.01127 0.734731 0
      vertex -7.18882 0.386271 2
      vertex -7.18882 0.386271 0
    endloop
  endfacet
  facet normal -0.987688 0.156437 0
    outer loop
      vertex -4.81118 -0.386271 0
      vertex -4.75 0 2
      vertex -4.75 0 0
    endloop
  endfacet
  facet normal -0.987688 0.156437 0
    outer loop
      vertex -4.75 0 2
      vertex -4.81118 -0.386271 0
      vertex -4.81118 -0.386271 2
    endloop
  endfacet
  facet normal -0.866025 -0.5 0
    outer loop
      vertex 17.2 0 2
      vertex 15.1 3.63731 6
      vertex 15.1 3.63731 2
    endloop
  endfacet
  facet normal -0.866025 -0.5 0
    outer loop
      vertex 15.1 3.63731 6
      vertex 17.2 0 2
      vertex 17.2 0 6
    endloop
  endfacet
  facet normal 0.866025 -0.5 0
    outer loop
      vertex 8.8 0 6
      vertex 10.9 3.63731 2
      vertex 10.9 3.63731 6
    endloop
  endfacet
  facet normal 0.866025 -0.5 0
    outer loop
      vertex 10.9 3.63731 2
      vertex 8.8 0 6
      vertex 8.8 0 2
    endloop
  endfacet
  facet normal 0 -1 0
    outer loop
      vertex 10.9 3.63731 2
      vertex 15.1 3.63731 6
      vertex 10.9 3.63731 6
    endloop
  endfacet
  facet normal 0 -1 -0
    outer loop
      vertex 15.1 3.63731 6
      vertex 10.9 3.63731 2
      vertex 15.1 3.63731 2
    endloop
  endfacet
  facet normal -0.866025 0.5 0
    outer loop
      vertex 15.1 -3.63731 2
      vertex 17.2 0 6
      vertex 17.2 0 2
    endloop
  endfacet
  facet normal -0.866025 0.5 0
    outer loop
      vertex 17.2 0 6
      vertex 15.1 -3.63731 2
      vertex 15.1 -3.63731 6
    endloop
  endfacet
  facet normal -0 0 1
    outer loop
      vertex 14.618 1.17557 2
      vertex 17.2 0 2
      vertex 15.1 3.63731 2
    endloop
  endfacet
  facet normal 0 0 1
    outer loop
      vertex 14.9021 -0.618033 2
      vertex 17.2 0 2
      vertex 15 0 2
    endloop
  endfacet
  facet normal 0 0 1
    outer loop
      vertex 17.2 0 2
      vertex 14.9021 0.618033 2
      vertex 15 0 2
    endloop
  endfacet
  facet normal 0 0 1
    outer loop
      vertex 17.2 0 2
      vertex 14.618 1.17557 2
      vertex 14.9021 0.618033 2
    endloop
  endfacet
  facet normal 0 0 1
    outer loop
      vertex 15.1 3.63731 2
      vertex 14.1756 1.61803 2
      vertex 14.618 1.17557 2
    endloop
  endfacet
  facet normal 0 0 1
    outer loop
      vertex 15.1 3.63731 2
      vertex 13.618 1.90211 2
      vertex 14.1756 1.61803 2
    endloop
  endfacet
  facet normal 0 0 1
    outer loop
      vertex 15.1 3.63731 2
      vertex 13 2 2
      vertex 13.618 1.90211 2
    endloop
  endfacet
  facet normal -0 0 1
    outer loop
      vertex 10.9 3.63731 2
      vertex 13 2 2
      vertex 15.1 3.63731 2
    endloop
  endfacet
  facet normal 0 0 1
    outer loop
      vertex 13 2 2
      vertex 10.9 3.63731 2
      vertex 12.382 1.90211 2
    endloop
  endfacet
  facet normal 0 0 1
    outer loop
      vertex 11.382 1.17557 2
      vertex 8.8 0 2
      vertex 11.0979 0.618033 2
    endloop
  endfacet
  facet normal 0 0 1
    outer loop
      vertex 8.8 0 2
      vertex 11.382 1.17557 2
      vertex 10.9 3.63731 2
    endloop
  endfacet
  facet normal 0 0 1
    outer loop
      vertex 11.8244 1.61803 2
      vertex 10.9 3.63731 2
      vertex 11.382 1.17557 2
    endloop
  endfacet
  facet normal 0 0 1
    outer loop
      vertex 12.382 1.90211 2
      vertex 10.9 3.63731 2
      vertex 11.8244 1.61803 2
    endloop
  endfacet
  facet normal 0 0 1
    outer loop
      vertex 14.618 -1.17557 2
      vertex 17.2 0 2
      vertex 14.9021 -0.618033 2
    endloop
  endfacet
  facet normal 0 0 1
    outer loop
      vertex 17.2 0 2
      vertex 14.618 -1.17557 2
      vertex 15.1 -3.63731 2
    endloop
  endfacet
  facet normal -0 0 1
    outer loop
      vertex 14.1756 -1.61803 2
      vertex 15.1 -3.63731 2
      vertex 14.618 -1.17557 2
    endloop
  endfacet
  facet normal -0 0 1
    outer loop
      vertex 13.618 -1.90211 2
      vertex 15.1 -3.63731 2
      vertex 14.1756 -1.61803 2
    endloop
  endfacet
  facet normal -0 0 1
    outer loop
      vertex 13 -2 2
      vertex 15.1 -3.63731 2
      vertex 13.618 -1.90211 2
    endloop
  endfacet
  facet normal 0 0 1
    outer loop
      vertex 10.9 -3.63731 2
      vertex 13 -2 2
      vertex 12.382 -1.90211 2
    endloop
  endfacet
  facet normal 0 0 1
    outer loop
      vertex 10.9 -3.63731 2
      vertex 12.382 -1.90211 2
      vertex 11.8244 -1.61803 2
    endloop
  endfacet
  facet normal 0 0 1
    outer loop
      vertex 13 -2 2
      vertex 10.9 -3.63731 2
      vertex 15.1 -3.63731 2
    endloop
  endfacet
  facet normal 0 0 1
    outer loop
      vertex 11.382 -1.17557 2
      vertex 10.9 -3.63731 2
      vertex 11.8244 -1.61803 2
    endloop
  endfacet
  facet normal 0 0 1
    outer loop
      vertex 8.8 0 2
      vertex 11.382 -1.17557 2
      vertex 11.0979 -0.618033 2
    endloop
  endfacet
  facet normal -0 0 1
    outer loop
      vertex 8.8 0 2
      vertex 11.0979 -0.618033 2
      vertex 11 0 2
    endloop
  endfacet
  facet normal 0 0 1
    outer loop
      vertex 11.0979 0.618033 2
      vertex 8.8 0 2
      vertex 11 0 2
    endloop
  endfacet
  facet normal 0 0 1
    outer loop
      vertex 11.382 -1.17557 2
      vertex 8.8 0 2
      vertex 10.9 -3.63731 2
    endloop
  endfacet
  facet normal 0 1 -0
    outer loop
      vertex 15.1 -3.63731 2
      vertex 10.9 -3.63731 6
      vertex 15.1 -3.63731 6
    endloop
  endfacet
  facet normal 0 1 0
    outer loop
      vertex 10.9 -3.63731 6
      vertex 15.1 -3.63731 2
      vertex 10.9 -3.63731 2
    endloop
  endfacet
  facet normal 0.866025 0.5 0
    outer loop
      vertex 10.9 -3.63731 6
      vertex 8.8 0 2
      vertex 8.8 0 6
    endloop
  endfacet
  facet normal 0.866025 0.5 0
    outer loop
      vertex 8.8 0 2
      vertex 10.9 -3.63731 6
      vertex 10.9 -3.63731 2
    endloop
  endfacet
  facet normal -0.987688 -0.156435 0
    outer loop
      vertex 15 0 0
      vertex 14.9021 0.618033 2
      vertex 14.9021 0.618033 0
    endloop
  endfacet
  facet normal -0.987688 -0.156435 0
    outer loop
      vertex 14.9021 0.618033 2
      vertex 15 0 0
      vertex 15 0 2
    endloop
  endfacet
  facet normal 0.987688 -0.156435 0
    outer loop
      vertex 11 0 2
      vertex 11.0979 0.618033 0
      vertex 11.0979 0.618033 2
    endloop
  endfacet
  facet normal 0.987688 -0.156435 0
    outer loop
      vertex 11.0979 0.618033 0
      vertex 11 0 2
      vertex 11 0 0
    endloop
  endfacet
  facet normal -0.156435 -0.987688 0
    outer loop
      vertex 13 2 0
      vertex 13.618 1.90211 2
      vertex 13 2 2
    endloop
  endfacet
  facet normal -0.156435 -0.987688 -0
    outer loop
      vertex 13.618 1.90211 2
      vertex 13 2 0
      vertex 13.618 1.90211 0
    endloop
  endfacet
  facet normal 0.156435 0.987688 -0
    outer loop
      vertex 13 -2 0
      vertex 12.382 -1.90211 2
      vertex 13 -2 2
    endloop
  endfacet
  facet normal 0.156435 0.987688 0
    outer loop
      vertex 12.382 -1.90211 2
      vertex 13 -2 0
      vertex 12.382 -1.90211 0
    endloop
  endfacet
  facet normal -0.707107 -0.707107 0
    outer loop
      vertex 14.618 1.17557 0
      vertex 14.1756 1.61803 2
      vertex 14.1756 1.61803 0
    endloop
  endfacet
  facet normal -0.707107 -0.707107 0
    outer loop
      vertex 14.1756 1.61803 2
      vertex 14.618 1.17557 0
      vertex 14.618 1.17557 2
    endloop
  endfacet
  facet normal -0.891006 -0.453991 0
    outer loop
      vertex 14.9021 0.618033 0
      vertex 14.618 1.17557 2
      vertex 14.618 1.17557 0
    endloop
  endfacet
  facet normal -0.891006 -0.453991 0
    outer loop
      vertex 14.618 1.17557 2
      vertex 14.9021 0.618033 0
      vertex 14.9021 0.618033 2
    endloop
  endfacet
  facet normal -0.453991 -0.891006 0
    outer loop
      vertex 13.618 1.90211 0
      vertex 14.1756 1.61803 2
      vertex 13.618 1.90211 2
    endloop
  endfacet
  facet normal -0.453991 -0.891006 -0
    outer loop
      vertex 14.1756 1.61803 2
      vertex 13.618 1.90211 0
      vertex 14.1756 1.61803 0
    endloop
  endfacet
  facet normal 0.453991 -0.891006 0
    outer loop
      vertex 11.8244 1.61803 0
      vertex 12.382 1.90211 2
      vertex 11.8244 1.61803 2
    endloop
  endfacet
  facet normal 0.453991 -0.891006 0
    outer loop
      vertex 12.382 1.90211 2
      vertex 11.8244 1.61803 0
      vertex 12.382 1.90211 0
    endloop
  endfacet
  facet normal 0.156435 -0.987688 0
    outer loop
      vertex 12.382 1.90211 0
      vertex 13 2 2
      vertex 12.382 1.90211 2
    endloop
  endfacet
  facet normal 0.156435 -0.987688 0
    outer loop
      vertex 13 2 2
      vertex 12.382 1.90211 0
      vertex 13 2 0
    endloop
  endfacet
  facet normal -0.891006 0.453991 0
    outer loop
      vertex 14.618 -1.17557 0
      vertex 14.9021 -0.618033 2
      vertex 14.9021 -0.618033 0
    endloop
  endfacet
  facet normal -0.891006 0.453991 0
    outer loop
      vertex 14.9021 -0.618033 2
      vertex 14.618 -1.17557 0
      vertex 14.618 -1.17557 2
    endloop
  endfacet
  facet normal 0.987688 0.156435 0
    outer loop
      vertex 11.0979 -0.618033 2
      vertex 11 0 0
      vertex 11 0 2
    endloop
  endfacet
  facet normal 0.987688 0.156435 0
    outer loop
      vertex 11 0 0
      vertex 11.0979 -0.618033 2
      vertex 11.0979 -0.618033 0
    endloop
  endfacet
  facet normal 0.707107 -0.707107 0
    outer loop
      vertex 11.382 1.17557 2
      vertex 11.8244 1.61803 0
      vertex 11.8244 1.61803 2
    endloop
  endfacet
  facet normal 0.707107 -0.707107 0
    outer loop
      vertex 11.8244 1.61803 0
      vertex 11.382 1.17557 2
      vertex 11.382 1.17557 0
    endloop
  endfacet
  facet normal 0.891006 -0.453991 0
    outer loop
      vertex 11.0979 0.618033 2
      vertex 11.382 1.17557 0
      vertex 11.382 1.17557 2
    endloop
  endfacet
  facet normal 0.891006 -0.453991 0
    outer loop
      vertex 11.382 1.17557 0
      vertex 11.0979 0.618033 2
      vertex 11.0979 0.618033 0
    endloop
  endfacet
  facet normal -0.987688 0.156435 0
    outer loop
      vertex 14.9021 -0.618033 0
      vertex 15 0 2
      vertex 15 0 0
    endloop
  endfacet
  facet normal -0.987688 0.156435 0
    outer loop
      vertex 15 0 2
      vertex 14.9021 -0.618033 0
      vertex 14.9021 -0.618033 2
    endloop
  endfacet
  facet normal -0.156435 0.987688 0
    outer loop
      vertex 13.618 -1.90211 0
      vertex 13 -2 2
      vertex 13.618 -1.90211 2
    endloop
  endfacet
  facet normal -0.156435 0.987688 0
    outer loop
      vertex 13 -2 2
      vertex 13.618 -1.90211 0
      vertex 13 -2 0
    endloop
  endfacet
  facet normal 0.707107 0.707107 0
    outer loop
      vertex 11.8244 -1.61803 2
      vertex 11.382 -1.17557 0
      vertex 11.382 -1.17557 2
    endloop
  endfacet
  facet normal 0.707107 0.707107 0
    outer loop
      vertex 11.382 -1.17557 0
      vertex 11.8244 -1.61803 2
      vertex 11.8244 -1.61803 0
    endloop
  endfacet
  facet normal 0.891006 0.453991 0
    outer loop
      vertex 11.382 -1.17557 2
      vertex 11.0979 -0.618033 0
      vertex 11.0979 -0.618033 2
    endloop
  endfacet
  facet normal 0.891006 0.453991 0
    outer loop
      vertex 11.0979 -0.618033 0
      vertex 11.382 -1.17557 2
      vertex 11.382 -1.17557 0
    endloop
  endfacet
  facet normal -0.453991 0.891006 0
    outer loop
      vertex 14.1756 -1.61803 0
      vertex 13.618 -1.90211 2
      vertex 14.1756 -1.61803 2
    endloop
  endfacet
  facet normal -0.453991 0.891006 0
    outer loop
      vertex 13.618 -1.90211 2
      vertex 14.1756 -1.61803 0
      vertex 13.618 -1.90211 0
    endloop
  endfacet
  facet normal -0.707107 0.707107 0
    outer loop
      vertex 14.1756 -1.61803 0
      vertex 14.618 -1.17557 2
      vertex 14.618 -1.17557 0
    endloop
  endfacet
  facet normal -0.707107 0.707107 0
    outer loop
      vertex 14.618 -1.17557 2
      vertex 14.1756 -1.61803 0
      vertex 14.1756 -1.61803 2
    endloop
  endfacet
  facet normal 0.453991 0.891006 -0
    outer loop
      vertex 12.382 -1.90211 0
      vertex 11.8244 -1.61803 2
      vertex 12.382 -1.90211 2
    endloop
  endfacet
  facet normal 0.453991 0.891006 0
    outer loop
      vertex 11.8244 -1.61803 2
      vertex 12.382 -1.90211 0
      vertex 11.8244 -1.61803 0
    endloop
  endfacet
  facet normal -1 0 0
    outer loop
      vertex -20 -6 0
      vertex -20 6 6
      vertex -20 6 0
    endloop
  endfacet
  facet normal -1 -0 0
    outer loop
      vertex -20 6 6
      vertex -20 -6 0
      vertex -20 -6 6
    endloop
  endfacet
  facet normal 1 -0 0
    outer loop
      vertex 20 -6 6
      vertex 20 6 0
      vertex 20 6 6
    endloop
  endfacet
  facet normal 1 0 0
    outer loop
      vertex 20 6 0
      vertex 20 -6 6
      vertex 20 -6 0
    endloop
  endfacet
  facet normal 0 1 -0
    outer loop
      vertex 20 6 0
      vertex -20 6 6
      vertex 20 6 6
    endloop
  endfacet
  facet normal 0 1 0
    outer loop
      vertex -20 6 6
      vertex 20 6 0
      vertex -20 6 0
    endloop
  endfacet
  facet normal 0 -1 0
    outer loop
      vertex -20 -6 0
      vertex 20 -6 6
      vertex -20 -6 6
    endloop
  endfacet
  facet normal 0 -1 -0
    outer loop
      vertex 20 -6 6
      vertex -20 -6 0
      vertex 20 -6 0
    endloop
  endfacet
endsolid OpenSCAD_Model
